G04 EAGLE Gerber RS-274X export*
G75*
%MOMM*%
%FSLAX34Y34*%
%LPD*%
%INTop Copper*%
%IPPOS*%
%AMOC8*
5,1,8,0,0,1.08239X$1,22.5*%
G01*
%ADD10R,1.200000X0.550000*%
%ADD11R,0.900000X1.000000*%
%ADD12C,0.300000*%
%ADD13R,0.600000X0.540000*%
%ADD14R,1.000000X1.100000*%
%ADD15R,0.600000X1.450000*%
%ADD16R,0.300000X1.450000*%
%ADD17C,1.158000*%
%ADD18R,1.000000X1.400000*%
%ADD19R,0.600000X0.800000*%
%ADD20R,0.540000X0.600000*%
%ADD21C,0.247500*%
%ADD22C,0.147500*%
%ADD23R,0.300000X1.000000*%
%ADD24C,1.879600*%
%ADD25R,1.100000X1.000000*%
%ADD26R,1.100000X0.635000*%
%ADD27R,0.635000X1.270000*%
%ADD28R,1.270000X0.635000*%
%ADD29C,0.406400*%
%ADD30C,0.200000*%
%ADD31C,0.706400*%
%ADD32C,0.508000*%
%ADD33C,0.254000*%

G36*
X239901Y4427D02*
X239901Y4427D01*
X239961Y4427D01*
X242147Y4671D01*
X242182Y4681D01*
X242219Y4683D01*
X242360Y4727D01*
X246389Y6457D01*
X246450Y6496D01*
X246517Y6527D01*
X246573Y6575D01*
X246594Y6588D01*
X246605Y6601D01*
X246630Y6622D01*
X249690Y9762D01*
X249732Y9822D01*
X249781Y9876D01*
X249815Y9942D01*
X249830Y9962D01*
X249834Y9978D01*
X249849Y10007D01*
X250226Y10950D01*
X250233Y10984D01*
X250248Y11015D01*
X250259Y11103D01*
X250278Y11189D01*
X250274Y11223D01*
X250279Y11257D01*
X250261Y11344D01*
X250251Y11431D01*
X250237Y11462D01*
X250230Y11496D01*
X250185Y11572D01*
X250148Y11652D01*
X250124Y11677D01*
X250106Y11707D01*
X250040Y11765D01*
X249979Y11828D01*
X249948Y11844D01*
X249922Y11867D01*
X249840Y11900D01*
X249762Y11941D01*
X249728Y11946D01*
X249696Y11959D01*
X249608Y11964D01*
X249521Y11977D01*
X249487Y11971D01*
X249452Y11973D01*
X249367Y11950D01*
X249281Y11935D01*
X249250Y11918D01*
X249217Y11909D01*
X249090Y11834D01*
X247637Y10779D01*
X245963Y9926D01*
X244176Y9345D01*
X242879Y9140D01*
X242879Y20240D01*
X242875Y20264D01*
X242878Y20288D01*
X242855Y20384D01*
X242839Y20481D01*
X242828Y20502D01*
X242822Y20526D01*
X242771Y20609D01*
X242724Y20696D01*
X242707Y20713D01*
X242694Y20733D01*
X242618Y20796D01*
X242546Y20863D01*
X242524Y20873D01*
X242505Y20888D01*
X242414Y20923D01*
X242324Y20963D01*
X242300Y20966D01*
X242277Y20975D01*
X242130Y20989D01*
X241379Y20989D01*
X241379Y20991D01*
X242130Y20991D01*
X242154Y20995D01*
X242178Y20992D01*
X242274Y21015D01*
X242371Y21031D01*
X242392Y21042D01*
X242416Y21048D01*
X242500Y21099D01*
X242586Y21146D01*
X242603Y21163D01*
X242623Y21176D01*
X242686Y21252D01*
X242753Y21324D01*
X242763Y21346D01*
X242778Y21365D01*
X242813Y21457D01*
X242854Y21546D01*
X242856Y21570D01*
X242865Y21593D01*
X242879Y21740D01*
X242879Y32840D01*
X244176Y32635D01*
X245963Y32054D01*
X247637Y31201D01*
X249158Y30096D01*
X250437Y28817D01*
X250497Y28774D01*
X250550Y28724D01*
X250595Y28703D01*
X250635Y28675D01*
X250706Y28653D01*
X250773Y28623D01*
X250822Y28618D01*
X250869Y28604D01*
X250942Y28606D01*
X251015Y28599D01*
X251064Y28610D01*
X251113Y28612D01*
X251181Y28638D01*
X251253Y28654D01*
X251295Y28680D01*
X251341Y28698D01*
X251398Y28744D01*
X251460Y28783D01*
X251492Y28821D01*
X251530Y28852D01*
X251569Y28915D01*
X251615Y28971D01*
X251633Y29017D01*
X251659Y29059D01*
X251676Y29131D01*
X251702Y29200D01*
X251709Y29273D01*
X251714Y29297D01*
X251713Y29314D01*
X251716Y29347D01*
X251716Y39470D01*
X251704Y39543D01*
X251702Y39616D01*
X251684Y39662D01*
X251676Y39711D01*
X251642Y39776D01*
X251616Y39845D01*
X251585Y39883D01*
X251561Y39926D01*
X251508Y39976D01*
X251461Y40033D01*
X251419Y40059D01*
X251383Y40093D01*
X251316Y40123D01*
X251254Y40162D01*
X251206Y40173D01*
X251161Y40194D01*
X251088Y40201D01*
X251017Y40218D01*
X250968Y40213D01*
X250918Y40218D01*
X250847Y40201D01*
X250774Y40194D01*
X250729Y40174D01*
X250681Y40163D01*
X250618Y40124D01*
X250551Y40094D01*
X250494Y40047D01*
X250473Y40034D01*
X250463Y40021D01*
X250437Y40000D01*
X247567Y37130D01*
X243553Y35467D01*
X239207Y35467D01*
X235193Y37130D01*
X232120Y40203D01*
X230457Y44217D01*
X230457Y48563D01*
X232120Y52577D01*
X235193Y55650D01*
X239207Y57313D01*
X243553Y57313D01*
X247567Y55650D01*
X250437Y52780D01*
X250497Y52737D01*
X250550Y52687D01*
X250595Y52667D01*
X250635Y52638D01*
X250706Y52617D01*
X250773Y52586D01*
X250822Y52581D01*
X250869Y52567D01*
X250942Y52569D01*
X251015Y52562D01*
X251064Y52573D01*
X251113Y52575D01*
X251181Y52601D01*
X251253Y52617D01*
X251295Y52643D01*
X251341Y52661D01*
X251398Y52707D01*
X251460Y52746D01*
X251492Y52784D01*
X251530Y52815D01*
X251569Y52878D01*
X251615Y52935D01*
X251633Y52981D01*
X251659Y53023D01*
X251676Y53094D01*
X251702Y53163D01*
X251709Y53236D01*
X251714Y53260D01*
X251713Y53277D01*
X251716Y53310D01*
X251716Y64870D01*
X251704Y64943D01*
X251702Y65016D01*
X251684Y65062D01*
X251676Y65111D01*
X251642Y65176D01*
X251616Y65245D01*
X251585Y65283D01*
X251561Y65326D01*
X251508Y65376D01*
X251461Y65433D01*
X251419Y65459D01*
X251383Y65493D01*
X251316Y65523D01*
X251254Y65562D01*
X251206Y65573D01*
X251161Y65594D01*
X251088Y65601D01*
X251017Y65618D01*
X250968Y65613D01*
X250918Y65618D01*
X250847Y65601D01*
X250774Y65594D01*
X250729Y65574D01*
X250681Y65563D01*
X250618Y65524D01*
X250551Y65494D01*
X250494Y65447D01*
X250473Y65434D01*
X250463Y65421D01*
X250437Y65400D01*
X247567Y62530D01*
X243553Y60867D01*
X239207Y60867D01*
X235193Y62530D01*
X232120Y65603D01*
X230457Y69617D01*
X230457Y73963D01*
X232120Y77977D01*
X235193Y81050D01*
X239207Y82713D01*
X243553Y82713D01*
X247567Y81050D01*
X250437Y78180D01*
X250497Y78137D01*
X250550Y78087D01*
X250595Y78067D01*
X250635Y78038D01*
X250706Y78017D01*
X250773Y77986D01*
X250822Y77981D01*
X250869Y77967D01*
X250942Y77969D01*
X251015Y77962D01*
X251064Y77973D01*
X251113Y77975D01*
X251181Y78001D01*
X251253Y78017D01*
X251295Y78043D01*
X251341Y78061D01*
X251398Y78107D01*
X251460Y78146D01*
X251492Y78184D01*
X251530Y78215D01*
X251569Y78278D01*
X251615Y78335D01*
X251633Y78381D01*
X251659Y78423D01*
X251676Y78494D01*
X251702Y78563D01*
X251709Y78636D01*
X251714Y78660D01*
X251713Y78677D01*
X251716Y78710D01*
X251716Y90270D01*
X251704Y90343D01*
X251702Y90416D01*
X251684Y90462D01*
X251676Y90511D01*
X251642Y90576D01*
X251616Y90645D01*
X251585Y90683D01*
X251561Y90726D01*
X251508Y90776D01*
X251461Y90833D01*
X251419Y90859D01*
X251383Y90893D01*
X251316Y90923D01*
X251254Y90962D01*
X251206Y90973D01*
X251161Y90994D01*
X251088Y91001D01*
X251017Y91018D01*
X250968Y91013D01*
X250918Y91018D01*
X250847Y91001D01*
X250774Y90994D01*
X250729Y90974D01*
X250681Y90963D01*
X250618Y90924D01*
X250551Y90894D01*
X250494Y90847D01*
X250473Y90834D01*
X250463Y90821D01*
X250437Y90800D01*
X247567Y87930D01*
X243553Y86267D01*
X239207Y86267D01*
X235193Y87930D01*
X232120Y91003D01*
X230457Y95017D01*
X230457Y99363D01*
X232120Y103377D01*
X235193Y106450D01*
X239207Y108113D01*
X243553Y108113D01*
X247567Y106450D01*
X250437Y103580D01*
X250497Y103537D01*
X250550Y103487D01*
X250595Y103467D01*
X250635Y103438D01*
X250706Y103417D01*
X250773Y103386D01*
X250822Y103381D01*
X250869Y103367D01*
X250942Y103369D01*
X251015Y103362D01*
X251064Y103373D01*
X251113Y103375D01*
X251181Y103401D01*
X251253Y103417D01*
X251295Y103443D01*
X251341Y103461D01*
X251398Y103507D01*
X251460Y103546D01*
X251492Y103584D01*
X251530Y103615D01*
X251569Y103678D01*
X251615Y103735D01*
X251633Y103781D01*
X251659Y103823D01*
X251676Y103894D01*
X251702Y103963D01*
X251709Y104036D01*
X251714Y104060D01*
X251713Y104077D01*
X251716Y104110D01*
X251716Y115670D01*
X251704Y115743D01*
X251702Y115816D01*
X251684Y115862D01*
X251676Y115911D01*
X251642Y115976D01*
X251616Y116045D01*
X251585Y116083D01*
X251561Y116126D01*
X251508Y116176D01*
X251461Y116233D01*
X251419Y116259D01*
X251383Y116293D01*
X251316Y116323D01*
X251254Y116362D01*
X251206Y116373D01*
X251161Y116394D01*
X251088Y116401D01*
X251017Y116418D01*
X250968Y116413D01*
X250918Y116418D01*
X250847Y116401D01*
X250774Y116394D01*
X250729Y116374D01*
X250681Y116363D01*
X250618Y116324D01*
X250551Y116294D01*
X250494Y116247D01*
X250473Y116234D01*
X250463Y116221D01*
X250437Y116200D01*
X247567Y113330D01*
X243553Y111667D01*
X239207Y111667D01*
X235193Y113330D01*
X232120Y116403D01*
X230457Y120417D01*
X230457Y124763D01*
X232120Y128777D01*
X235193Y131850D01*
X239207Y133513D01*
X243553Y133513D01*
X247567Y131850D01*
X250437Y128980D01*
X250497Y128937D01*
X250550Y128887D01*
X250595Y128867D01*
X250635Y128838D01*
X250706Y128817D01*
X250773Y128786D01*
X250822Y128781D01*
X250869Y128767D01*
X250942Y128769D01*
X251015Y128762D01*
X251064Y128773D01*
X251113Y128775D01*
X251181Y128801D01*
X251253Y128817D01*
X251295Y128843D01*
X251341Y128861D01*
X251398Y128907D01*
X251460Y128946D01*
X251492Y128984D01*
X251530Y129015D01*
X251569Y129078D01*
X251615Y129135D01*
X251633Y129181D01*
X251659Y129223D01*
X251676Y129294D01*
X251702Y129363D01*
X251709Y129436D01*
X251714Y129460D01*
X251713Y129477D01*
X251716Y129510D01*
X251716Y141070D01*
X251704Y141143D01*
X251702Y141216D01*
X251684Y141262D01*
X251676Y141311D01*
X251642Y141376D01*
X251616Y141445D01*
X251585Y141483D01*
X251561Y141526D01*
X251508Y141576D01*
X251461Y141633D01*
X251419Y141659D01*
X251383Y141693D01*
X251316Y141723D01*
X251254Y141762D01*
X251206Y141773D01*
X251161Y141794D01*
X251088Y141801D01*
X251017Y141818D01*
X250968Y141813D01*
X250918Y141818D01*
X250847Y141801D01*
X250774Y141794D01*
X250729Y141774D01*
X250681Y141763D01*
X250618Y141724D01*
X250551Y141694D01*
X250494Y141647D01*
X250473Y141634D01*
X250463Y141621D01*
X250437Y141600D01*
X247567Y138730D01*
X243553Y137067D01*
X239207Y137067D01*
X235193Y138730D01*
X232120Y141803D01*
X230457Y145817D01*
X230457Y150163D01*
X232120Y154177D01*
X235193Y157250D01*
X239207Y158913D01*
X243553Y158913D01*
X247567Y157250D01*
X250437Y154380D01*
X250497Y154337D01*
X250550Y154287D01*
X250595Y154267D01*
X250635Y154238D01*
X250706Y154217D01*
X250773Y154186D01*
X250822Y154181D01*
X250869Y154167D01*
X250942Y154169D01*
X251015Y154162D01*
X251064Y154173D01*
X251113Y154175D01*
X251181Y154201D01*
X251253Y154217D01*
X251295Y154243D01*
X251341Y154261D01*
X251398Y154307D01*
X251460Y154346D01*
X251492Y154384D01*
X251530Y154415D01*
X251569Y154478D01*
X251615Y154535D01*
X251633Y154581D01*
X251659Y154623D01*
X251676Y154694D01*
X251702Y154763D01*
X251709Y154836D01*
X251714Y154860D01*
X251713Y154877D01*
X251716Y154910D01*
X251716Y166470D01*
X251704Y166543D01*
X251702Y166616D01*
X251684Y166662D01*
X251676Y166711D01*
X251642Y166776D01*
X251616Y166845D01*
X251585Y166883D01*
X251561Y166926D01*
X251508Y166976D01*
X251461Y167033D01*
X251419Y167059D01*
X251383Y167093D01*
X251316Y167123D01*
X251254Y167162D01*
X251206Y167173D01*
X251161Y167194D01*
X251088Y167201D01*
X251017Y167218D01*
X250968Y167213D01*
X250918Y167218D01*
X250847Y167201D01*
X250774Y167194D01*
X250729Y167174D01*
X250681Y167163D01*
X250618Y167124D01*
X250551Y167094D01*
X250494Y167047D01*
X250473Y167034D01*
X250463Y167021D01*
X250437Y167000D01*
X247567Y164130D01*
X243553Y162467D01*
X239207Y162467D01*
X235193Y164130D01*
X232120Y167203D01*
X230457Y171217D01*
X230457Y175563D01*
X231783Y178763D01*
X231792Y178801D01*
X231793Y178804D01*
X231793Y178808D01*
X231810Y178878D01*
X231838Y179000D01*
X231828Y179103D01*
X231814Y179243D01*
X231770Y179340D01*
X231714Y179465D01*
X231713Y179466D01*
X231620Y179579D01*
X229738Y181462D01*
X229678Y181504D01*
X229624Y181555D01*
X229580Y181575D01*
X229539Y181604D01*
X229469Y181625D01*
X229402Y181656D01*
X229353Y181660D01*
X229306Y181675D01*
X229233Y181672D01*
X229159Y181680D01*
X229111Y181668D01*
X229062Y181667D01*
X228993Y181641D01*
X228922Y181624D01*
X228880Y181598D01*
X228834Y181581D01*
X228777Y181534D01*
X228714Y181496D01*
X228683Y181458D01*
X228645Y181426D01*
X228606Y181364D01*
X228559Y181307D01*
X228542Y181261D01*
X228516Y181219D01*
X228499Y181148D01*
X228473Y181079D01*
X228466Y181006D01*
X228460Y180982D01*
X228462Y180965D01*
X228459Y180932D01*
X228459Y150320D01*
X209574Y131435D01*
X201234Y131435D01*
X201210Y131431D01*
X201185Y131434D01*
X201090Y131412D01*
X200993Y131396D01*
X200972Y131384D01*
X200948Y131378D01*
X200864Y131327D01*
X200778Y131281D01*
X200761Y131263D01*
X200740Y131250D01*
X200678Y131174D01*
X200611Y131103D01*
X200601Y131080D01*
X200585Y131061D01*
X200551Y130970D01*
X200510Y130880D01*
X200508Y130856D01*
X200499Y130833D01*
X200485Y130686D01*
X200485Y127868D01*
X199592Y126975D01*
X198774Y126975D01*
X198750Y126971D01*
X198725Y126974D01*
X198630Y126952D01*
X198533Y126936D01*
X198512Y126924D01*
X198488Y126918D01*
X198404Y126867D01*
X198318Y126821D01*
X198301Y126803D01*
X198280Y126790D01*
X198218Y126714D01*
X198151Y126643D01*
X198141Y126620D01*
X198125Y126601D01*
X198091Y126510D01*
X198050Y126420D01*
X198048Y126396D01*
X198039Y126373D01*
X198025Y126226D01*
X198025Y121156D01*
X178744Y101876D01*
X178687Y101796D01*
X178625Y101721D01*
X178617Y101698D01*
X178602Y101677D01*
X178574Y101584D01*
X178539Y101493D01*
X178536Y101460D01*
X178531Y101444D01*
X178532Y101419D01*
X178525Y101346D01*
X178525Y100402D01*
X178541Y100306D01*
X178550Y100209D01*
X178560Y100186D01*
X178564Y100161D01*
X178610Y100075D01*
X178651Y99986D01*
X178672Y99961D01*
X178679Y99946D01*
X178698Y99929D01*
X178744Y99872D01*
X178985Y99632D01*
X178985Y90368D01*
X178092Y89475D01*
X170828Y89475D01*
X169935Y90368D01*
X169935Y99632D01*
X170176Y99872D01*
X170233Y99952D01*
X170295Y100027D01*
X170303Y100050D01*
X170318Y100070D01*
X170346Y100164D01*
X170381Y100255D01*
X170384Y100288D01*
X170389Y100304D01*
X170388Y100329D01*
X170395Y100402D01*
X170395Y105024D01*
X178568Y113196D01*
X178611Y113256D01*
X178661Y113310D01*
X178681Y113354D01*
X178710Y113395D01*
X178731Y113465D01*
X178762Y113532D01*
X178767Y113581D01*
X178781Y113628D01*
X178778Y113701D01*
X178786Y113775D01*
X178775Y113823D01*
X178773Y113872D01*
X178747Y113941D01*
X178730Y114012D01*
X178704Y114054D01*
X178687Y114100D01*
X178641Y114157D01*
X178602Y114220D01*
X178564Y114251D01*
X178532Y114289D01*
X178470Y114328D01*
X178413Y114375D01*
X178367Y114392D01*
X178325Y114418D01*
X178254Y114435D01*
X178185Y114461D01*
X178112Y114468D01*
X178088Y114474D01*
X178071Y114472D01*
X178038Y114475D01*
X170828Y114475D01*
X169935Y115368D01*
X169935Y115694D01*
X169931Y115718D01*
X169934Y115743D01*
X169912Y115838D01*
X169896Y115935D01*
X169884Y115956D01*
X169878Y115980D01*
X169827Y116064D01*
X169781Y116150D01*
X169763Y116167D01*
X169750Y116188D01*
X169674Y116250D01*
X169603Y116317D01*
X169580Y116327D01*
X169561Y116343D01*
X169470Y116377D01*
X169380Y116418D01*
X169356Y116420D01*
X169333Y116429D01*
X169186Y116443D01*
X168865Y116443D01*
X168769Y116427D01*
X168672Y116418D01*
X168649Y116408D01*
X168624Y116404D01*
X168538Y116358D01*
X168449Y116317D01*
X168424Y116296D01*
X168409Y116289D01*
X168392Y116270D01*
X168335Y116224D01*
X167555Y115443D01*
X163365Y115443D01*
X162859Y115950D01*
X162780Y116007D01*
X162704Y116069D01*
X162681Y116077D01*
X162661Y116092D01*
X162567Y116120D01*
X162476Y116155D01*
X162443Y116158D01*
X162427Y116163D01*
X162402Y116162D01*
X162329Y116169D01*
X157809Y116169D01*
X157809Y120061D01*
X159654Y120061D01*
X159678Y120065D01*
X159703Y120062D01*
X159798Y120084D01*
X159895Y120100D01*
X159916Y120112D01*
X159940Y120118D01*
X160024Y120169D01*
X160110Y120215D01*
X160127Y120233D01*
X160148Y120246D01*
X160210Y120322D01*
X160277Y120393D01*
X160287Y120416D01*
X160303Y120435D01*
X160337Y120526D01*
X160378Y120616D01*
X160380Y120640D01*
X160389Y120663D01*
X160403Y120810D01*
X160403Y122595D01*
X163365Y125557D01*
X167555Y125557D01*
X168678Y124434D01*
X168698Y124419D01*
X168713Y124400D01*
X168796Y124349D01*
X168876Y124291D01*
X168899Y124284D01*
X168920Y124271D01*
X169016Y124249D01*
X169109Y124221D01*
X169134Y124221D01*
X169158Y124216D01*
X169255Y124225D01*
X169353Y124228D01*
X169376Y124237D01*
X169401Y124239D01*
X169490Y124280D01*
X169582Y124314D01*
X169601Y124330D01*
X169623Y124340D01*
X169737Y124434D01*
X170176Y124872D01*
X170233Y124952D01*
X170295Y125027D01*
X170303Y125050D01*
X170318Y125070D01*
X170346Y125164D01*
X170381Y125255D01*
X170384Y125288D01*
X170389Y125304D01*
X170388Y125329D01*
X170395Y125402D01*
X170395Y126226D01*
X170391Y126250D01*
X170394Y126275D01*
X170372Y126370D01*
X170356Y126467D01*
X170344Y126488D01*
X170338Y126512D01*
X170287Y126596D01*
X170241Y126682D01*
X170223Y126699D01*
X170210Y126720D01*
X170134Y126782D01*
X170063Y126849D01*
X170040Y126859D01*
X170021Y126875D01*
X169930Y126909D01*
X169840Y126950D01*
X169816Y126952D01*
X169793Y126961D01*
X169646Y126975D01*
X169328Y126975D01*
X168435Y127868D01*
X168435Y143132D01*
X169328Y144025D01*
X180592Y144025D01*
X181485Y143132D01*
X181485Y127868D01*
X180592Y126975D01*
X179274Y126975D01*
X179250Y126971D01*
X179225Y126974D01*
X179130Y126952D01*
X179033Y126936D01*
X179012Y126924D01*
X178988Y126918D01*
X178904Y126867D01*
X178818Y126821D01*
X178801Y126803D01*
X178780Y126790D01*
X178718Y126714D01*
X178651Y126643D01*
X178641Y126620D01*
X178625Y126601D01*
X178591Y126510D01*
X178550Y126420D01*
X178548Y126396D01*
X178539Y126373D01*
X178525Y126226D01*
X178525Y125402D01*
X178541Y125306D01*
X178550Y125209D01*
X178560Y125186D01*
X178564Y125161D01*
X178610Y125075D01*
X178651Y124986D01*
X178672Y124961D01*
X178679Y124946D01*
X178698Y124929D01*
X178744Y124872D01*
X178985Y124632D01*
X178985Y115422D01*
X178997Y115349D01*
X178999Y115276D01*
X179016Y115230D01*
X179024Y115181D01*
X179059Y115116D01*
X179085Y115048D01*
X179116Y115009D01*
X179139Y114966D01*
X179193Y114916D01*
X179240Y114859D01*
X179281Y114833D01*
X179317Y114799D01*
X179384Y114769D01*
X179447Y114730D01*
X179495Y114719D01*
X179540Y114698D01*
X179613Y114691D01*
X179684Y114674D01*
X179733Y114679D01*
X179783Y114674D01*
X179854Y114691D01*
X179927Y114698D01*
X179972Y114718D01*
X180020Y114730D01*
X180083Y114768D01*
X180150Y114799D01*
X180206Y114845D01*
X180228Y114858D01*
X180238Y114871D01*
X180264Y114892D01*
X189676Y124304D01*
X189733Y124384D01*
X189795Y124459D01*
X189803Y124482D01*
X189818Y124503D01*
X189846Y124596D01*
X189881Y124687D01*
X189884Y124720D01*
X189889Y124736D01*
X189888Y124761D01*
X189895Y124834D01*
X189895Y126226D01*
X189891Y126250D01*
X189894Y126275D01*
X189872Y126370D01*
X189856Y126467D01*
X189844Y126488D01*
X189838Y126512D01*
X189787Y126596D01*
X189741Y126682D01*
X189723Y126699D01*
X189710Y126720D01*
X189634Y126782D01*
X189563Y126849D01*
X189540Y126859D01*
X189521Y126875D01*
X189430Y126909D01*
X189340Y126950D01*
X189316Y126952D01*
X189293Y126961D01*
X189146Y126975D01*
X188328Y126975D01*
X187435Y127868D01*
X187435Y143132D01*
X188328Y144025D01*
X199592Y144025D01*
X200485Y143132D01*
X200485Y140314D01*
X200489Y140290D01*
X200486Y140265D01*
X200508Y140170D01*
X200524Y140073D01*
X200536Y140052D01*
X200542Y140028D01*
X200593Y139944D01*
X200639Y139858D01*
X200657Y139841D01*
X200670Y139820D01*
X200746Y139758D01*
X200817Y139691D01*
X200840Y139681D01*
X200859Y139665D01*
X200950Y139631D01*
X201040Y139590D01*
X201064Y139588D01*
X201087Y139579D01*
X201234Y139565D01*
X205896Y139565D01*
X205992Y139581D01*
X206089Y139590D01*
X206112Y139600D01*
X206137Y139604D01*
X206223Y139650D01*
X206312Y139691D01*
X206337Y139712D01*
X206352Y139719D01*
X206369Y139738D01*
X206426Y139784D01*
X220110Y153468D01*
X220167Y153548D01*
X220229Y153623D01*
X220237Y153646D01*
X220252Y153667D01*
X220280Y153760D01*
X220315Y153851D01*
X220318Y153884D01*
X220323Y153900D01*
X220322Y153925D01*
X220329Y153998D01*
X220329Y201209D01*
X220317Y201282D01*
X220315Y201355D01*
X220298Y201401D01*
X220290Y201450D01*
X220255Y201515D01*
X220229Y201583D01*
X220198Y201622D01*
X220175Y201665D01*
X220121Y201715D01*
X220074Y201772D01*
X220032Y201798D01*
X219997Y201832D01*
X219930Y201862D01*
X219867Y201901D01*
X219819Y201912D01*
X219774Y201933D01*
X219701Y201940D01*
X219630Y201957D01*
X219581Y201952D01*
X219531Y201957D01*
X219460Y201940D01*
X219387Y201933D01*
X219342Y201913D01*
X219294Y201902D01*
X219231Y201863D01*
X219164Y201833D01*
X219108Y201786D01*
X219086Y201773D01*
X219076Y201760D01*
X219050Y201739D01*
X216725Y199413D01*
X212349Y199413D01*
X212303Y199427D01*
X212278Y199426D01*
X212254Y199432D01*
X212157Y199423D01*
X212059Y199420D01*
X212036Y199411D01*
X212011Y199408D01*
X211922Y199368D01*
X211831Y199334D01*
X211812Y199318D01*
X211789Y199308D01*
X211675Y199214D01*
X211464Y199004D01*
X211421Y198943D01*
X211376Y198895D01*
X211367Y198875D01*
X211345Y198849D01*
X211337Y198826D01*
X211322Y198805D01*
X211296Y198718D01*
X211275Y198673D01*
X211274Y198659D01*
X211259Y198621D01*
X211256Y198588D01*
X211251Y198572D01*
X211252Y198547D01*
X211245Y198474D01*
X211245Y197254D01*
X211249Y197230D01*
X211246Y197205D01*
X211268Y197110D01*
X211284Y197013D01*
X211296Y196992D01*
X211302Y196968D01*
X211353Y196884D01*
X211399Y196798D01*
X211417Y196781D01*
X211430Y196760D01*
X211506Y196698D01*
X211577Y196631D01*
X211600Y196621D01*
X211619Y196605D01*
X211710Y196571D01*
X211800Y196530D01*
X211824Y196528D01*
X211847Y196519D01*
X211994Y196505D01*
X213852Y196505D01*
X214745Y195612D01*
X214745Y184348D01*
X213852Y183455D01*
X203588Y183455D01*
X202695Y184348D01*
X202695Y186706D01*
X202691Y186730D01*
X202694Y186755D01*
X202672Y186850D01*
X202656Y186947D01*
X202644Y186968D01*
X202638Y186992D01*
X202587Y187076D01*
X202541Y187162D01*
X202523Y187179D01*
X202510Y187200D01*
X202434Y187262D01*
X202363Y187329D01*
X202340Y187339D01*
X202321Y187355D01*
X202230Y187389D01*
X202140Y187430D01*
X202116Y187432D01*
X202093Y187441D01*
X201946Y187455D01*
X174494Y187455D01*
X174470Y187451D01*
X174445Y187454D01*
X174350Y187432D01*
X174253Y187416D01*
X174232Y187404D01*
X174208Y187398D01*
X174124Y187347D01*
X174038Y187301D01*
X174021Y187283D01*
X174000Y187270D01*
X173938Y187194D01*
X173871Y187123D01*
X173861Y187100D01*
X173845Y187081D01*
X173811Y186990D01*
X173770Y186900D01*
X173768Y186876D01*
X173759Y186853D01*
X173745Y186706D01*
X173745Y184348D01*
X172852Y183455D01*
X162588Y183455D01*
X161695Y184348D01*
X161695Y186706D01*
X161691Y186730D01*
X161694Y186755D01*
X161672Y186850D01*
X161656Y186947D01*
X161644Y186968D01*
X161638Y186992D01*
X161587Y187076D01*
X161541Y187162D01*
X161523Y187179D01*
X161510Y187200D01*
X161434Y187262D01*
X161363Y187329D01*
X161340Y187339D01*
X161321Y187355D01*
X161230Y187389D01*
X161140Y187430D01*
X161116Y187432D01*
X161093Y187441D01*
X160946Y187455D01*
X159534Y187455D01*
X159510Y187451D01*
X159485Y187454D01*
X159390Y187432D01*
X159293Y187416D01*
X159272Y187404D01*
X159248Y187398D01*
X159164Y187347D01*
X159078Y187301D01*
X159061Y187283D01*
X159040Y187270D01*
X158978Y187194D01*
X158911Y187123D01*
X158901Y187100D01*
X158885Y187081D01*
X158851Y186990D01*
X158810Y186900D01*
X158808Y186876D01*
X158799Y186853D01*
X158785Y186706D01*
X158785Y184078D01*
X157892Y183185D01*
X156944Y183185D01*
X156920Y183181D01*
X156895Y183184D01*
X156800Y183162D01*
X156703Y183146D01*
X156682Y183134D01*
X156658Y183128D01*
X156574Y183077D01*
X156488Y183031D01*
X156471Y183013D01*
X156450Y183000D01*
X156388Y182924D01*
X156321Y182853D01*
X156311Y182830D01*
X156295Y182811D01*
X156261Y182720D01*
X156220Y182630D01*
X156218Y182606D01*
X156209Y182583D01*
X156195Y182436D01*
X156195Y181344D01*
X156199Y181320D01*
X156196Y181295D01*
X156218Y181200D01*
X156234Y181103D01*
X156246Y181082D01*
X156252Y181058D01*
X156303Y180974D01*
X156349Y180888D01*
X156367Y180871D01*
X156380Y180850D01*
X156456Y180788D01*
X156527Y180721D01*
X156550Y180711D01*
X156569Y180695D01*
X156660Y180661D01*
X156750Y180620D01*
X156774Y180618D01*
X156797Y180609D01*
X156944Y180595D01*
X157262Y180595D01*
X158155Y179702D01*
X158155Y172438D01*
X157262Y171545D01*
X150598Y171545D01*
X150140Y172004D01*
X150120Y172018D01*
X150104Y172037D01*
X150021Y172089D01*
X149941Y172146D01*
X149918Y172153D01*
X149897Y172166D01*
X149802Y172188D01*
X149708Y172217D01*
X149683Y172216D01*
X149660Y172222D01*
X149562Y172212D01*
X149464Y172209D01*
X149441Y172200D01*
X149417Y172198D01*
X149327Y172158D01*
X149236Y172123D01*
X149217Y172108D01*
X149194Y172098D01*
X149080Y172004D01*
X148622Y171545D01*
X141958Y171545D01*
X141065Y172438D01*
X141065Y172796D01*
X141061Y172820D01*
X141064Y172845D01*
X141042Y172940D01*
X141026Y173037D01*
X141014Y173058D01*
X141008Y173082D01*
X140957Y173166D01*
X140911Y173252D01*
X140893Y173269D01*
X140880Y173290D01*
X140804Y173352D01*
X140733Y173419D01*
X140710Y173429D01*
X140691Y173445D01*
X140600Y173479D01*
X140510Y173520D01*
X140486Y173522D01*
X140463Y173531D01*
X140316Y173545D01*
X116466Y173545D01*
X116370Y173529D01*
X116273Y173520D01*
X116250Y173510D01*
X116225Y173506D01*
X116139Y173460D01*
X116051Y173419D01*
X116025Y173398D01*
X116010Y173391D01*
X115993Y173372D01*
X115936Y173326D01*
X106884Y164274D01*
X106164Y163554D01*
X106122Y163494D01*
X106071Y163440D01*
X106051Y163396D01*
X106022Y163355D01*
X106001Y163285D01*
X105970Y163218D01*
X105966Y163169D01*
X105951Y163122D01*
X105954Y163049D01*
X105946Y162975D01*
X105958Y162927D01*
X105959Y162878D01*
X105985Y162809D01*
X106002Y162738D01*
X106028Y162696D01*
X106045Y162650D01*
X106092Y162593D01*
X106130Y162530D01*
X106168Y162499D01*
X106200Y162461D01*
X106262Y162422D01*
X106319Y162375D01*
X106365Y162358D01*
X106407Y162332D01*
X106478Y162315D01*
X106547Y162289D01*
X106620Y162282D01*
X106644Y162276D01*
X106661Y162278D01*
X106694Y162275D01*
X120091Y162275D01*
X120984Y161382D01*
X120984Y154618D01*
X120091Y153725D01*
X116195Y153725D01*
X116122Y153713D01*
X116049Y153711D01*
X116003Y153694D01*
X115954Y153686D01*
X115889Y153651D01*
X115821Y153625D01*
X115782Y153594D01*
X115739Y153571D01*
X115689Y153517D01*
X115632Y153470D01*
X115606Y153429D01*
X115572Y153393D01*
X115542Y153326D01*
X115503Y153263D01*
X115492Y153215D01*
X115471Y153170D01*
X115464Y153097D01*
X115447Y153026D01*
X115452Y152977D01*
X115447Y152927D01*
X115464Y152856D01*
X115471Y152783D01*
X115491Y152738D01*
X115502Y152690D01*
X115541Y152627D01*
X115571Y152560D01*
X115618Y152504D01*
X115631Y152482D01*
X115644Y152472D01*
X115665Y152446D01*
X118517Y149595D01*
X118517Y145405D01*
X117665Y144554D01*
X117622Y144494D01*
X117572Y144440D01*
X117552Y144396D01*
X117523Y144355D01*
X117502Y144285D01*
X117471Y144218D01*
X117466Y144169D01*
X117452Y144122D01*
X117454Y144049D01*
X117447Y143975D01*
X117458Y143927D01*
X117460Y143878D01*
X117486Y143809D01*
X117502Y143738D01*
X117528Y143696D01*
X117546Y143650D01*
X117592Y143593D01*
X117631Y143530D01*
X117669Y143499D01*
X117700Y143461D01*
X117763Y143422D01*
X117820Y143375D01*
X117866Y143358D01*
X117908Y143332D01*
X117979Y143315D01*
X118048Y143289D01*
X118121Y143282D01*
X118145Y143276D01*
X118162Y143278D01*
X118195Y143275D01*
X120091Y143275D01*
X120984Y142382D01*
X120984Y135618D01*
X120091Y134725D01*
X106827Y134725D01*
X106329Y135224D01*
X106250Y135281D01*
X106174Y135343D01*
X106151Y135351D01*
X106131Y135366D01*
X106037Y135394D01*
X105946Y135429D01*
X105913Y135432D01*
X105897Y135437D01*
X105872Y135436D01*
X105799Y135443D01*
X104234Y135443D01*
X104210Y135439D01*
X104185Y135442D01*
X104090Y135420D01*
X103993Y135404D01*
X103972Y135392D01*
X103948Y135386D01*
X103864Y135335D01*
X103778Y135289D01*
X103761Y135271D01*
X103740Y135258D01*
X103678Y135182D01*
X103611Y135111D01*
X103601Y135088D01*
X103585Y135069D01*
X103551Y134978D01*
X103510Y134888D01*
X103508Y134864D01*
X103499Y134841D01*
X103485Y134694D01*
X103485Y132868D01*
X102592Y131975D01*
X91328Y131975D01*
X90435Y132868D01*
X90435Y133636D01*
X90423Y133709D01*
X90421Y133782D01*
X90404Y133828D01*
X90396Y133877D01*
X90361Y133942D01*
X90335Y134011D01*
X90304Y134049D01*
X90281Y134092D01*
X90227Y134143D01*
X90180Y134199D01*
X90139Y134225D01*
X90103Y134259D01*
X90036Y134290D01*
X89973Y134328D01*
X89925Y134340D01*
X89880Y134360D01*
X89807Y134367D01*
X89736Y134384D01*
X89687Y134379D01*
X89637Y134384D01*
X89566Y134367D01*
X89493Y134360D01*
X89448Y134340D01*
X89400Y134329D01*
X89337Y134290D01*
X89270Y134260D01*
X89214Y134213D01*
X89192Y134200D01*
X89182Y134187D01*
X89156Y134166D01*
X84236Y129246D01*
X84179Y129167D01*
X84117Y129092D01*
X84109Y129068D01*
X84094Y129048D01*
X84066Y128955D01*
X84031Y128863D01*
X84028Y128830D01*
X84023Y128814D01*
X84024Y128789D01*
X84017Y128716D01*
X84017Y120774D01*
X84021Y120750D01*
X84018Y120725D01*
X84040Y120630D01*
X84056Y120533D01*
X84068Y120512D01*
X84074Y120488D01*
X84125Y120404D01*
X84171Y120318D01*
X84189Y120301D01*
X84202Y120280D01*
X84278Y120218D01*
X84349Y120151D01*
X84372Y120141D01*
X84391Y120125D01*
X84482Y120091D01*
X84572Y120050D01*
X84596Y120048D01*
X84619Y120039D01*
X84766Y120025D01*
X86092Y120025D01*
X86985Y119132D01*
X86985Y106868D01*
X86092Y105975D01*
X74828Y105975D01*
X73935Y106868D01*
X73935Y109456D01*
X73931Y109480D01*
X73934Y109505D01*
X73912Y109600D01*
X73896Y109697D01*
X73884Y109718D01*
X73878Y109742D01*
X73827Y109826D01*
X73781Y109912D01*
X73763Y109929D01*
X73750Y109950D01*
X73674Y110012D01*
X73603Y110079D01*
X73580Y110089D01*
X73561Y110105D01*
X73470Y110139D01*
X73380Y110180D01*
X73356Y110182D01*
X73333Y110191D01*
X73186Y110205D01*
X41802Y110205D01*
X36665Y115342D01*
X36665Y118828D01*
X36649Y118924D01*
X36640Y119021D01*
X36630Y119044D01*
X36626Y119069D01*
X36580Y119155D01*
X36539Y119244D01*
X36518Y119269D01*
X36511Y119284D01*
X36492Y119301D01*
X36446Y119358D01*
X36435Y119368D01*
X36435Y130632D01*
X37328Y131525D01*
X39626Y131525D01*
X39698Y131537D01*
X39772Y131539D01*
X39818Y131556D01*
X39867Y131564D01*
X39931Y131599D01*
X40000Y131625D01*
X40038Y131656D01*
X40082Y131679D01*
X40132Y131733D01*
X40189Y131780D01*
X40215Y131822D01*
X40249Y131857D01*
X40279Y131924D01*
X40318Y131987D01*
X40329Y132035D01*
X40350Y132080D01*
X40357Y132153D01*
X40374Y132224D01*
X40369Y132273D01*
X40374Y132323D01*
X40357Y132394D01*
X40350Y132467D01*
X40330Y132512D01*
X40318Y132560D01*
X40280Y132623D01*
X40249Y132690D01*
X40203Y132746D01*
X40190Y132768D01*
X40177Y132778D01*
X40156Y132804D01*
X39385Y133574D01*
X39385Y143286D01*
X42984Y146884D01*
X43041Y146964D01*
X43103Y147039D01*
X43111Y147062D01*
X43126Y147083D01*
X43154Y147176D01*
X43189Y147267D01*
X43192Y147300D01*
X43197Y147316D01*
X43196Y147341D01*
X43203Y147414D01*
X43203Y150685D01*
X46165Y153647D01*
X50355Y153647D01*
X53317Y150685D01*
X53317Y146495D01*
X50861Y144040D01*
X50847Y144020D01*
X50828Y144004D01*
X50776Y143921D01*
X50719Y143841D01*
X50712Y143818D01*
X50699Y143797D01*
X50677Y143702D01*
X50648Y143608D01*
X50649Y143583D01*
X50643Y143560D01*
X50653Y143462D01*
X50656Y143364D01*
X50665Y143341D01*
X50667Y143317D01*
X50707Y143228D01*
X50742Y143136D01*
X50757Y143117D01*
X50767Y143094D01*
X50861Y142980D01*
X51783Y142059D01*
X51803Y142044D01*
X51818Y142025D01*
X51901Y141974D01*
X51981Y141916D01*
X52005Y141909D01*
X52025Y141896D01*
X52121Y141874D01*
X52215Y141846D01*
X52239Y141846D01*
X52263Y141841D01*
X52360Y141850D01*
X52458Y141853D01*
X52481Y141862D01*
X52506Y141864D01*
X52595Y141905D01*
X52687Y141939D01*
X52706Y141955D01*
X52728Y141965D01*
X52842Y142059D01*
X53808Y143025D01*
X60701Y143025D01*
X60798Y143041D01*
X60895Y143050D01*
X60917Y143060D01*
X60942Y143064D01*
X61028Y143110D01*
X61117Y143151D01*
X61142Y143172D01*
X61157Y143179D01*
X61165Y143188D01*
X61166Y143189D01*
X61177Y143200D01*
X61231Y143244D01*
X61520Y143533D01*
X62099Y143868D01*
X62746Y144041D01*
X64431Y144041D01*
X64431Y139100D01*
X64435Y139076D01*
X64432Y139052D01*
X64454Y138956D01*
X64470Y138859D01*
X64482Y138838D01*
X64488Y138814D01*
X64539Y138731D01*
X64585Y138644D01*
X64603Y138628D01*
X64616Y138607D01*
X64692Y138544D01*
X64738Y138502D01*
X64724Y138494D01*
X64707Y138476D01*
X64686Y138464D01*
X64624Y138388D01*
X64557Y138316D01*
X64547Y138294D01*
X64531Y138275D01*
X64497Y138183D01*
X64456Y138094D01*
X64454Y138070D01*
X64445Y138047D01*
X64431Y137900D01*
X64431Y132959D01*
X62746Y132959D01*
X62099Y133132D01*
X61520Y133467D01*
X61264Y133723D01*
X61204Y133766D01*
X61150Y133816D01*
X61106Y133836D01*
X61065Y133865D01*
X60995Y133887D01*
X60928Y133917D01*
X60879Y133922D01*
X60832Y133936D01*
X60759Y133934D01*
X60685Y133941D01*
X60637Y133930D01*
X60588Y133928D01*
X60519Y133902D01*
X60448Y133886D01*
X60406Y133860D01*
X60360Y133842D01*
X60303Y133796D01*
X60240Y133757D01*
X60209Y133719D01*
X60171Y133688D01*
X60132Y133625D01*
X60085Y133569D01*
X60068Y133523D01*
X60042Y133481D01*
X60025Y133409D01*
X59999Y133340D01*
X59992Y133267D01*
X59986Y133243D01*
X59988Y133226D01*
X59985Y133193D01*
X59985Y132274D01*
X59989Y132250D01*
X59986Y132225D01*
X60008Y132130D01*
X60024Y132033D01*
X60036Y132012D01*
X60042Y131988D01*
X60093Y131904D01*
X60139Y131818D01*
X60157Y131801D01*
X60170Y131780D01*
X60246Y131718D01*
X60317Y131651D01*
X60340Y131641D01*
X60359Y131625D01*
X60450Y131591D01*
X60540Y131550D01*
X60564Y131548D01*
X60587Y131539D01*
X60734Y131525D01*
X61592Y131525D01*
X62485Y130632D01*
X62485Y119368D01*
X61592Y118475D01*
X58004Y118475D01*
X57980Y118471D01*
X57955Y118474D01*
X57860Y118452D01*
X57763Y118436D01*
X57742Y118424D01*
X57718Y118418D01*
X57634Y118367D01*
X57548Y118321D01*
X57531Y118303D01*
X57510Y118290D01*
X57448Y118214D01*
X57381Y118143D01*
X57371Y118120D01*
X57355Y118101D01*
X57321Y118010D01*
X57280Y117920D01*
X57278Y117896D01*
X57269Y117873D01*
X57255Y117726D01*
X57255Y116544D01*
X57259Y116520D01*
X57256Y116495D01*
X57278Y116400D01*
X57294Y116303D01*
X57306Y116282D01*
X57312Y116258D01*
X57363Y116174D01*
X57409Y116088D01*
X57427Y116071D01*
X57440Y116050D01*
X57516Y115988D01*
X57587Y115921D01*
X57610Y115911D01*
X57629Y115895D01*
X57720Y115861D01*
X57810Y115820D01*
X57834Y115818D01*
X57857Y115809D01*
X58004Y115795D01*
X73186Y115795D01*
X73210Y115799D01*
X73235Y115796D01*
X73330Y115818D01*
X73427Y115834D01*
X73448Y115846D01*
X73472Y115852D01*
X73556Y115903D01*
X73642Y115949D01*
X73659Y115967D01*
X73680Y115980D01*
X73742Y116056D01*
X73809Y116127D01*
X73819Y116150D01*
X73835Y116169D01*
X73869Y116260D01*
X73910Y116350D01*
X73912Y116374D01*
X73921Y116397D01*
X73935Y116544D01*
X73935Y119132D01*
X74828Y120025D01*
X76154Y120025D01*
X76178Y120029D01*
X76203Y120026D01*
X76298Y120048D01*
X76395Y120064D01*
X76416Y120076D01*
X76440Y120082D01*
X76524Y120133D01*
X76610Y120179D01*
X76627Y120197D01*
X76648Y120210D01*
X76710Y120286D01*
X76777Y120357D01*
X76787Y120380D01*
X76803Y120399D01*
X76837Y120490D01*
X76878Y120580D01*
X76880Y120604D01*
X76889Y120627D01*
X76903Y120774D01*
X76903Y131973D01*
X87487Y142557D01*
X89686Y142557D01*
X89710Y142561D01*
X89735Y142558D01*
X89830Y142580D01*
X89927Y142596D01*
X89948Y142608D01*
X89972Y142614D01*
X90056Y142665D01*
X90142Y142711D01*
X90159Y142729D01*
X90180Y142742D01*
X90242Y142818D01*
X90309Y142889D01*
X90319Y142912D01*
X90335Y142931D01*
X90369Y143022D01*
X90410Y143112D01*
X90412Y143136D01*
X90421Y143159D01*
X90435Y143306D01*
X90435Y145132D01*
X91328Y146025D01*
X102592Y146025D01*
X103485Y145132D01*
X103485Y143306D01*
X103489Y143282D01*
X103486Y143257D01*
X103508Y143162D01*
X103524Y143065D01*
X103536Y143044D01*
X103542Y143020D01*
X103593Y142936D01*
X103639Y142850D01*
X103657Y142833D01*
X103670Y142812D01*
X103746Y142750D01*
X103817Y142683D01*
X103840Y142673D01*
X103859Y142657D01*
X103950Y142623D01*
X104040Y142582D01*
X104064Y142580D01*
X104087Y142571D01*
X104234Y142557D01*
X105799Y142557D01*
X105895Y142573D01*
X105992Y142582D01*
X106015Y142592D01*
X106040Y142596D01*
X106126Y142642D01*
X106215Y142683D01*
X106240Y142704D01*
X106255Y142711D01*
X106272Y142730D01*
X106329Y142776D01*
X106827Y143275D01*
X108725Y143275D01*
X108798Y143287D01*
X108871Y143289D01*
X108917Y143306D01*
X108966Y143314D01*
X109031Y143349D01*
X109099Y143375D01*
X109138Y143406D01*
X109181Y143429D01*
X109231Y143483D01*
X109288Y143530D01*
X109314Y143572D01*
X109348Y143607D01*
X109378Y143674D01*
X109417Y143737D01*
X109428Y143785D01*
X109449Y143830D01*
X109456Y143903D01*
X109473Y143974D01*
X109468Y144023D01*
X109473Y144073D01*
X109456Y144144D01*
X109449Y144217D01*
X109429Y144262D01*
X109418Y144310D01*
X109379Y144373D01*
X109349Y144440D01*
X109302Y144496D01*
X109289Y144518D01*
X109276Y144528D01*
X109255Y144554D01*
X108403Y145405D01*
X108403Y149595D01*
X111255Y152446D01*
X111298Y152506D01*
X111348Y152560D01*
X111368Y152604D01*
X111397Y152645D01*
X111418Y152715D01*
X111449Y152782D01*
X111454Y152831D01*
X111468Y152878D01*
X111466Y152951D01*
X111473Y153025D01*
X111462Y153073D01*
X111460Y153122D01*
X111434Y153191D01*
X111418Y153262D01*
X111392Y153304D01*
X111374Y153350D01*
X111328Y153407D01*
X111289Y153470D01*
X111251Y153501D01*
X111220Y153539D01*
X111157Y153578D01*
X111100Y153625D01*
X111054Y153642D01*
X111012Y153668D01*
X110941Y153685D01*
X110872Y153711D01*
X110799Y153718D01*
X110775Y153724D01*
X110758Y153722D01*
X110725Y153725D01*
X106827Y153725D01*
X105780Y154773D01*
X105720Y154816D01*
X105666Y154866D01*
X105622Y154886D01*
X105581Y154915D01*
X105511Y154936D01*
X105444Y154967D01*
X105395Y154972D01*
X105348Y154986D01*
X105275Y154984D01*
X105201Y154991D01*
X105153Y154980D01*
X105104Y154978D01*
X105035Y154952D01*
X104964Y154936D01*
X104922Y154910D01*
X104876Y154892D01*
X104819Y154846D01*
X104756Y154807D01*
X104725Y154769D01*
X104687Y154738D01*
X104648Y154675D01*
X104601Y154618D01*
X104584Y154572D01*
X104558Y154530D01*
X104541Y154459D01*
X104515Y154390D01*
X104508Y154317D01*
X104502Y154293D01*
X104504Y154276D01*
X104501Y154243D01*
X104501Y150166D01*
X104328Y149519D01*
X103993Y148940D01*
X103520Y148467D01*
X102941Y148132D01*
X102294Y147959D01*
X98459Y147959D01*
X98459Y155250D01*
X98455Y155274D01*
X98458Y155298D01*
X98435Y155394D01*
X98419Y155491D01*
X98408Y155512D01*
X98402Y155536D01*
X98351Y155619D01*
X98304Y155706D01*
X98287Y155723D01*
X98274Y155743D01*
X98198Y155806D01*
X98126Y155873D01*
X98104Y155883D01*
X98085Y155898D01*
X97994Y155933D01*
X97904Y155974D01*
X97880Y155976D01*
X97857Y155985D01*
X97710Y155999D01*
X96959Y155999D01*
X96959Y156750D01*
X96955Y156774D01*
X96958Y156798D01*
X96935Y156894D01*
X96919Y156991D01*
X96908Y157012D01*
X96902Y157036D01*
X96851Y157119D01*
X96804Y157206D01*
X96787Y157223D01*
X96774Y157243D01*
X96698Y157306D01*
X96626Y157373D01*
X96604Y157383D01*
X96585Y157398D01*
X96494Y157433D01*
X96404Y157474D01*
X96380Y157476D01*
X96357Y157485D01*
X96210Y157499D01*
X89419Y157499D01*
X89419Y161826D01*
X89415Y161850D01*
X89418Y161875D01*
X89396Y161970D01*
X89380Y162067D01*
X89368Y162088D01*
X89362Y162112D01*
X89311Y162196D01*
X89265Y162282D01*
X89247Y162299D01*
X89234Y162320D01*
X89158Y162382D01*
X89087Y162449D01*
X89064Y162459D01*
X89045Y162475D01*
X88954Y162509D01*
X88864Y162550D01*
X88840Y162552D01*
X88817Y162561D01*
X88670Y162575D01*
X85176Y162575D01*
X85080Y162559D01*
X84983Y162550D01*
X84960Y162540D01*
X84935Y162536D01*
X84849Y162490D01*
X84761Y162449D01*
X84735Y162428D01*
X84720Y162421D01*
X84703Y162402D01*
X84646Y162356D01*
X81484Y159194D01*
X81427Y159114D01*
X81365Y159039D01*
X81357Y159016D01*
X81342Y158995D01*
X81314Y158902D01*
X81279Y158811D01*
X81276Y158778D01*
X81271Y158762D01*
X81272Y158737D01*
X81265Y158664D01*
X81265Y152624D01*
X77246Y148605D01*
X58644Y148605D01*
X54625Y152624D01*
X54625Y154118D01*
X54609Y154214D01*
X54600Y154311D01*
X54590Y154334D01*
X54586Y154359D01*
X54540Y154445D01*
X54499Y154534D01*
X54478Y154559D01*
X54471Y154574D01*
X54452Y154591D01*
X54406Y154648D01*
X53425Y155628D01*
X53425Y155986D01*
X53421Y156010D01*
X53424Y156035D01*
X53402Y156130D01*
X53386Y156227D01*
X53374Y156248D01*
X53368Y156272D01*
X53317Y156356D01*
X53271Y156442D01*
X53253Y156459D01*
X53240Y156480D01*
X53164Y156542D01*
X53093Y156609D01*
X53070Y156619D01*
X53051Y156635D01*
X52960Y156669D01*
X52870Y156710D01*
X52846Y156712D01*
X52823Y156721D01*
X52676Y156735D01*
X34024Y156735D01*
X34000Y156731D01*
X33975Y156734D01*
X33880Y156712D01*
X33783Y156696D01*
X33762Y156684D01*
X33738Y156678D01*
X33654Y156627D01*
X33568Y156581D01*
X33551Y156563D01*
X33530Y156550D01*
X33468Y156474D01*
X33401Y156403D01*
X33391Y156380D01*
X33375Y156361D01*
X33341Y156270D01*
X33300Y156180D01*
X33298Y156156D01*
X33289Y156133D01*
X33275Y155986D01*
X33275Y69275D01*
X33287Y69202D01*
X33289Y69129D01*
X33306Y69083D01*
X33314Y69034D01*
X33349Y68969D01*
X33375Y68901D01*
X33406Y68862D01*
X33429Y68819D01*
X33483Y68769D01*
X33530Y68712D01*
X33572Y68686D01*
X33607Y68652D01*
X33674Y68622D01*
X33737Y68583D01*
X33785Y68572D01*
X33830Y68551D01*
X33903Y68544D01*
X33974Y68527D01*
X34023Y68532D01*
X34073Y68527D01*
X34144Y68544D01*
X34217Y68551D01*
X34262Y68571D01*
X34310Y68582D01*
X34373Y68621D01*
X34440Y68651D01*
X34496Y68698D01*
X34518Y68711D01*
X34528Y68724D01*
X34554Y68745D01*
X36716Y70907D01*
X36773Y70986D01*
X36835Y71062D01*
X36843Y71085D01*
X36858Y71105D01*
X36886Y71199D01*
X36921Y71290D01*
X36924Y71323D01*
X36929Y71339D01*
X36928Y71364D01*
X36935Y71437D01*
X36935Y73558D01*
X36919Y73654D01*
X36910Y73751D01*
X36900Y73774D01*
X36896Y73799D01*
X36850Y73885D01*
X36809Y73974D01*
X36788Y73999D01*
X36781Y74014D01*
X36762Y74031D01*
X36716Y74088D01*
X36435Y74368D01*
X36435Y85632D01*
X37328Y86525D01*
X41186Y86525D01*
X41210Y86529D01*
X41235Y86526D01*
X41330Y86548D01*
X41427Y86564D01*
X41448Y86576D01*
X41472Y86582D01*
X41556Y86633D01*
X41642Y86679D01*
X41659Y86697D01*
X41680Y86710D01*
X41742Y86786D01*
X41809Y86857D01*
X41819Y86880D01*
X41835Y86899D01*
X41869Y86990D01*
X41910Y87080D01*
X41912Y87104D01*
X41921Y87127D01*
X41935Y87274D01*
X41935Y88563D01*
X41919Y88659D01*
X41910Y88756D01*
X41900Y88779D01*
X41896Y88804D01*
X41850Y88890D01*
X41809Y88979D01*
X41788Y89004D01*
X41781Y89019D01*
X41762Y89036D01*
X41716Y89093D01*
X40403Y90405D01*
X40403Y94595D01*
X43365Y97557D01*
X47555Y97557D01*
X50517Y94595D01*
X50517Y90405D01*
X48931Y88820D01*
X48888Y88760D01*
X48838Y88706D01*
X48818Y88662D01*
X48789Y88621D01*
X48768Y88551D01*
X48737Y88484D01*
X48732Y88435D01*
X48718Y88388D01*
X48720Y88315D01*
X48713Y88241D01*
X48724Y88193D01*
X48726Y88144D01*
X48752Y88075D01*
X48768Y88004D01*
X48794Y87962D01*
X48812Y87916D01*
X48858Y87859D01*
X48897Y87796D01*
X48935Y87765D01*
X48966Y87727D01*
X49029Y87688D01*
X49086Y87641D01*
X49132Y87624D01*
X49174Y87598D01*
X49245Y87581D01*
X49314Y87555D01*
X49387Y87548D01*
X49411Y87542D01*
X49428Y87544D01*
X49461Y87541D01*
X51294Y87541D01*
X51941Y87368D01*
X52520Y87033D01*
X52809Y86744D01*
X52888Y86687D01*
X52964Y86625D01*
X52987Y86617D01*
X53007Y86602D01*
X53101Y86574D01*
X53192Y86539D01*
X53225Y86536D01*
X53241Y86531D01*
X53266Y86532D01*
X53339Y86525D01*
X56671Y86525D01*
X56673Y86524D01*
X56768Y86502D01*
X56862Y86473D01*
X56886Y86474D01*
X56910Y86468D01*
X57008Y86478D01*
X57106Y86481D01*
X57129Y86490D01*
X57153Y86492D01*
X57226Y86525D01*
X61592Y86525D01*
X62485Y85632D01*
X62485Y74368D01*
X61592Y73475D01*
X57249Y73475D01*
X57247Y73476D01*
X57151Y73499D01*
X57058Y73527D01*
X57033Y73526D01*
X57009Y73532D01*
X56912Y73522D01*
X56814Y73519D01*
X56791Y73510D01*
X56767Y73508D01*
X56694Y73475D01*
X53339Y73475D01*
X53242Y73459D01*
X53146Y73450D01*
X53123Y73440D01*
X53098Y73436D01*
X53012Y73390D01*
X52923Y73349D01*
X52898Y73328D01*
X52883Y73321D01*
X52866Y73302D01*
X52809Y73256D01*
X52520Y72967D01*
X51941Y72632D01*
X51294Y72459D01*
X50209Y72459D01*
X50209Y80000D01*
X50205Y80024D01*
X50208Y80048D01*
X50186Y80144D01*
X50170Y80240D01*
X50158Y80262D01*
X50153Y80286D01*
X50101Y80369D01*
X50055Y80456D01*
X50037Y80472D01*
X50024Y80493D01*
X49948Y80555D01*
X49877Y80622D01*
X49854Y80633D01*
X49835Y80648D01*
X49744Y80683D01*
X49654Y80723D01*
X49630Y80726D01*
X49607Y80734D01*
X49460Y80749D01*
X49436Y80745D01*
X49412Y80747D01*
X49411Y80747D01*
X49316Y80725D01*
X49219Y80709D01*
X49197Y80698D01*
X49174Y80692D01*
X49090Y80640D01*
X49004Y80594D01*
X48987Y80576D01*
X48966Y80563D01*
X48904Y80488D01*
X48837Y80416D01*
X48827Y80394D01*
X48811Y80375D01*
X48777Y80283D01*
X48736Y80194D01*
X48734Y80170D01*
X48725Y80147D01*
X48711Y80000D01*
X48711Y72459D01*
X47626Y72459D01*
X46979Y72632D01*
X46400Y72967D01*
X46111Y73256D01*
X46032Y73313D01*
X45956Y73375D01*
X45933Y73383D01*
X45913Y73398D01*
X45819Y73426D01*
X45728Y73461D01*
X45695Y73464D01*
X45679Y73469D01*
X45654Y73468D01*
X45581Y73475D01*
X42734Y73475D01*
X42710Y73471D01*
X42685Y73474D01*
X42590Y73452D01*
X42493Y73436D01*
X42472Y73424D01*
X42448Y73418D01*
X42364Y73367D01*
X42278Y73321D01*
X42261Y73303D01*
X42240Y73290D01*
X42178Y73214D01*
X42111Y73143D01*
X42101Y73120D01*
X42085Y73101D01*
X42051Y73010D01*
X42010Y72920D01*
X42008Y72896D01*
X41999Y72873D01*
X41985Y72726D01*
X41985Y71437D01*
X42001Y71341D01*
X42010Y71244D01*
X42020Y71221D01*
X42024Y71196D01*
X42070Y71110D01*
X42111Y71021D01*
X42132Y70996D01*
X42139Y70981D01*
X42158Y70964D01*
X42204Y70907D01*
X44517Y68595D01*
X44517Y64405D01*
X41555Y61443D01*
X37365Y61443D01*
X34554Y64255D01*
X34494Y64298D01*
X34440Y64348D01*
X34396Y64368D01*
X34355Y64397D01*
X34285Y64418D01*
X34218Y64449D01*
X34169Y64454D01*
X34122Y64468D01*
X34049Y64466D01*
X33975Y64473D01*
X33927Y64462D01*
X33878Y64460D01*
X33809Y64434D01*
X33738Y64418D01*
X33696Y64392D01*
X33650Y64374D01*
X33593Y64328D01*
X33530Y64289D01*
X33499Y64251D01*
X33461Y64220D01*
X33422Y64157D01*
X33375Y64100D01*
X33358Y64054D01*
X33332Y64012D01*
X33315Y63941D01*
X33289Y63872D01*
X33282Y63799D01*
X33276Y63775D01*
X33278Y63758D01*
X33275Y63725D01*
X33275Y63076D01*
X22508Y52309D01*
X22428Y52199D01*
X22366Y52111D01*
X22365Y52111D01*
X22324Y51974D01*
X22295Y51878D01*
X22295Y51877D01*
X22299Y51738D01*
X22302Y51634D01*
X22302Y51633D01*
X22303Y51633D01*
X22345Y51493D01*
X23033Y49833D01*
X23033Y45487D01*
X21370Y41473D01*
X18297Y38400D01*
X14283Y36737D01*
X9937Y36737D01*
X5923Y38400D01*
X3962Y40361D01*
X3902Y40404D01*
X3848Y40454D01*
X3804Y40475D01*
X3763Y40503D01*
X3693Y40525D01*
X3626Y40555D01*
X3577Y40560D01*
X3530Y40574D01*
X3457Y40572D01*
X3383Y40579D01*
X3335Y40568D01*
X3286Y40566D01*
X3217Y40540D01*
X3146Y40524D01*
X3104Y40498D01*
X3058Y40480D01*
X3001Y40434D01*
X2938Y40395D01*
X2907Y40357D01*
X2869Y40326D01*
X2830Y40263D01*
X2783Y40207D01*
X2766Y40161D01*
X2740Y40119D01*
X2723Y40047D01*
X2697Y39978D01*
X2690Y39905D01*
X2684Y39881D01*
X2686Y39864D01*
X2683Y39831D01*
X2683Y30089D01*
X2695Y30016D01*
X2697Y29943D01*
X2714Y29897D01*
X2722Y29848D01*
X2757Y29783D01*
X2783Y29714D01*
X2814Y29676D01*
X2837Y29633D01*
X2891Y29582D01*
X2938Y29526D01*
X2980Y29500D01*
X3015Y29466D01*
X3082Y29435D01*
X3145Y29397D01*
X3193Y29385D01*
X3238Y29365D01*
X3311Y29358D01*
X3382Y29341D01*
X3431Y29346D01*
X3481Y29341D01*
X3552Y29358D01*
X3625Y29365D01*
X3670Y29385D01*
X3718Y29396D01*
X3781Y29435D01*
X3848Y29465D01*
X3904Y29512D01*
X3926Y29525D01*
X3936Y29538D01*
X3962Y29559D01*
X5923Y31520D01*
X9937Y33183D01*
X14283Y33183D01*
X16451Y32285D01*
X16566Y32258D01*
X16688Y32229D01*
X16817Y32242D01*
X16931Y32253D01*
X17050Y32307D01*
X17153Y32354D01*
X17154Y32354D01*
X17267Y32447D01*
X34527Y49707D01*
X100786Y49707D01*
X100810Y49711D01*
X100835Y49708D01*
X100930Y49730D01*
X101027Y49746D01*
X101048Y49758D01*
X101072Y49764D01*
X101156Y49815D01*
X101242Y49861D01*
X101259Y49879D01*
X101280Y49892D01*
X101342Y49968D01*
X101409Y50039D01*
X101419Y50062D01*
X101435Y50081D01*
X101469Y50172D01*
X101510Y50262D01*
X101512Y50286D01*
X101521Y50309D01*
X101535Y50456D01*
X101535Y56571D01*
X101527Y56620D01*
X101529Y56669D01*
X101508Y56739D01*
X101496Y56812D01*
X101472Y56855D01*
X101458Y56902D01*
X101415Y56962D01*
X101381Y57027D01*
X101345Y57061D01*
X101316Y57101D01*
X101256Y57144D01*
X101203Y57194D01*
X101158Y57214D01*
X101118Y57243D01*
X101047Y57264D01*
X100980Y57295D01*
X100931Y57300D01*
X100885Y57314D01*
X100811Y57312D01*
X100737Y57319D01*
X100690Y57308D01*
X100641Y57306D01*
X100501Y57264D01*
X100500Y57264D01*
X100499Y57264D01*
X98654Y56499D01*
X96466Y56499D01*
X94444Y57337D01*
X92897Y58884D01*
X92717Y59318D01*
X92704Y59339D01*
X92697Y59362D01*
X92640Y59442D01*
X92588Y59525D01*
X92569Y59541D01*
X92555Y59561D01*
X92475Y59618D01*
X92400Y59680D01*
X92377Y59689D01*
X92356Y59703D01*
X92263Y59731D01*
X92171Y59766D01*
X92147Y59767D01*
X92123Y59774D01*
X92025Y59771D01*
X91927Y59774D01*
X91904Y59767D01*
X91879Y59766D01*
X91787Y59732D01*
X91694Y59703D01*
X91674Y59689D01*
X91651Y59680D01*
X91575Y59618D01*
X91495Y59561D01*
X91481Y59541D01*
X91462Y59526D01*
X91410Y59443D01*
X91353Y59363D01*
X91346Y59340D01*
X91333Y59319D01*
X91290Y59177D01*
X91271Y59080D01*
X90643Y57564D01*
X90457Y57287D01*
X89957Y56538D01*
X89957Y56537D01*
X89731Y56200D01*
X88570Y55039D01*
X87206Y54127D01*
X85690Y53499D01*
X84759Y53314D01*
X84759Y66550D01*
X84755Y66574D01*
X84758Y66598D01*
X84735Y66694D01*
X84719Y66791D01*
X84708Y66812D01*
X84702Y66836D01*
X84651Y66919D01*
X84604Y67006D01*
X84587Y67023D01*
X84574Y67043D01*
X84498Y67106D01*
X84426Y67173D01*
X84404Y67183D01*
X84385Y67198D01*
X84294Y67233D01*
X84204Y67273D01*
X84180Y67276D01*
X84157Y67285D01*
X84010Y67299D01*
X83259Y67299D01*
X83259Y67301D01*
X84010Y67301D01*
X84034Y67305D01*
X84058Y67302D01*
X84154Y67325D01*
X84251Y67341D01*
X84272Y67352D01*
X84296Y67358D01*
X84380Y67409D01*
X84466Y67456D01*
X84483Y67473D01*
X84503Y67486D01*
X84566Y67562D01*
X84633Y67634D01*
X84643Y67656D01*
X84658Y67675D01*
X84693Y67767D01*
X84734Y67856D01*
X84736Y67880D01*
X84745Y67903D01*
X84759Y68050D01*
X84759Y81286D01*
X85690Y81101D01*
X87206Y80473D01*
X87253Y80441D01*
X87254Y80441D01*
X87368Y80389D01*
X87476Y80340D01*
X87534Y80334D01*
X87719Y80316D01*
X87795Y80334D01*
X87956Y80371D01*
X88005Y80402D01*
X88164Y80500D01*
X88252Y80608D01*
X88306Y80673D01*
X88319Y80689D01*
X88366Y80815D01*
X88405Y80917D01*
X88419Y81064D01*
X88419Y84034D01*
X88592Y84681D01*
X88927Y85260D01*
X89400Y85733D01*
X89979Y86068D01*
X90626Y86241D01*
X92461Y86241D01*
X92461Y77200D01*
X92465Y77176D01*
X92462Y77152D01*
X92485Y77056D01*
X92501Y76959D01*
X92512Y76938D01*
X92518Y76914D01*
X92569Y76831D01*
X92616Y76744D01*
X92633Y76727D01*
X92646Y76707D01*
X92722Y76644D01*
X92794Y76577D01*
X92816Y76567D01*
X92835Y76552D01*
X92926Y76517D01*
X93016Y76476D01*
X93040Y76474D01*
X93063Y76465D01*
X93210Y76451D01*
X94710Y76451D01*
X94734Y76455D01*
X94758Y76452D01*
X94854Y76475D01*
X94951Y76491D01*
X94972Y76502D01*
X94996Y76508D01*
X95079Y76559D01*
X95166Y76606D01*
X95183Y76623D01*
X95203Y76636D01*
X95266Y76712D01*
X95333Y76784D01*
X95343Y76806D01*
X95358Y76825D01*
X95393Y76916D01*
X95434Y77006D01*
X95436Y77030D01*
X95445Y77053D01*
X95459Y77200D01*
X95459Y86241D01*
X97294Y86241D01*
X97941Y86068D01*
X98520Y85733D01*
X98809Y85444D01*
X98888Y85387D01*
X98964Y85325D01*
X98987Y85317D01*
X99007Y85302D01*
X99101Y85274D01*
X99192Y85239D01*
X99225Y85236D01*
X99241Y85231D01*
X99266Y85232D01*
X99339Y85225D01*
X104356Y85225D01*
X104428Y85237D01*
X104502Y85239D01*
X104548Y85256D01*
X104597Y85264D01*
X104661Y85299D01*
X104730Y85325D01*
X104768Y85356D01*
X104812Y85379D01*
X104862Y85433D01*
X104919Y85480D01*
X104945Y85521D01*
X104979Y85557D01*
X105009Y85624D01*
X105048Y85687D01*
X105059Y85735D01*
X105080Y85780D01*
X105087Y85853D01*
X105104Y85924D01*
X105099Y85973D01*
X105104Y86023D01*
X105087Y86094D01*
X105080Y86167D01*
X105060Y86212D01*
X105048Y86260D01*
X105010Y86323D01*
X104979Y86390D01*
X104933Y86446D01*
X104920Y86468D01*
X104907Y86478D01*
X104886Y86504D01*
X94634Y96756D01*
X92935Y98454D01*
X92935Y101206D01*
X92931Y101230D01*
X92934Y101255D01*
X92912Y101350D01*
X92896Y101447D01*
X92884Y101468D01*
X92878Y101492D01*
X92827Y101576D01*
X92781Y101662D01*
X92763Y101679D01*
X92750Y101700D01*
X92674Y101762D01*
X92603Y101829D01*
X92580Y101839D01*
X92561Y101855D01*
X92470Y101889D01*
X92380Y101930D01*
X92356Y101932D01*
X92333Y101941D01*
X92186Y101955D01*
X91828Y101955D01*
X90935Y102848D01*
X90935Y109741D01*
X90919Y109838D01*
X90910Y109934D01*
X90900Y109957D01*
X90896Y109982D01*
X90850Y110068D01*
X90809Y110157D01*
X90788Y110182D01*
X90781Y110197D01*
X90762Y110214D01*
X90716Y110271D01*
X90427Y110560D01*
X90092Y111139D01*
X89919Y111786D01*
X89919Y113471D01*
X94860Y113471D01*
X94884Y113475D01*
X94908Y113472D01*
X95004Y113494D01*
X95101Y113510D01*
X95122Y113522D01*
X95146Y113528D01*
X95229Y113579D01*
X95316Y113625D01*
X95332Y113643D01*
X95353Y113656D01*
X95416Y113732D01*
X95458Y113778D01*
X95466Y113764D01*
X95484Y113747D01*
X95496Y113726D01*
X95572Y113664D01*
X95644Y113597D01*
X95666Y113587D01*
X95685Y113571D01*
X95777Y113537D01*
X95866Y113496D01*
X95890Y113494D01*
X95913Y113485D01*
X96060Y113471D01*
X101001Y113471D01*
X101001Y111786D01*
X100828Y111139D01*
X100493Y110560D01*
X100204Y110271D01*
X100147Y110192D01*
X100085Y110116D01*
X100077Y110093D01*
X100062Y110073D01*
X100034Y109979D01*
X99999Y109888D01*
X99996Y109855D01*
X99991Y109839D01*
X99992Y109814D01*
X99985Y109741D01*
X99985Y102848D01*
X99092Y101955D01*
X98734Y101955D01*
X98710Y101951D01*
X98685Y101954D01*
X98590Y101932D01*
X98493Y101916D01*
X98472Y101904D01*
X98448Y101898D01*
X98364Y101847D01*
X98278Y101801D01*
X98261Y101783D01*
X98240Y101770D01*
X98178Y101694D01*
X98111Y101623D01*
X98101Y101600D01*
X98085Y101581D01*
X98051Y101490D01*
X98010Y101400D01*
X98008Y101376D01*
X97999Y101353D01*
X97985Y101206D01*
X97985Y100856D01*
X98001Y100760D01*
X98010Y100663D01*
X98020Y100640D01*
X98024Y100615D01*
X98070Y100529D01*
X98111Y100441D01*
X98132Y100415D01*
X98139Y100400D01*
X98158Y100383D01*
X98204Y100326D01*
X106906Y91624D01*
X106966Y91581D01*
X107020Y91531D01*
X107064Y91511D01*
X107105Y91482D01*
X107175Y91461D01*
X107242Y91430D01*
X107291Y91426D01*
X107338Y91411D01*
X107411Y91414D01*
X107485Y91406D01*
X107533Y91418D01*
X107582Y91419D01*
X107651Y91445D01*
X107722Y91462D01*
X107764Y91488D01*
X107810Y91505D01*
X107867Y91552D01*
X107930Y91590D01*
X107961Y91628D01*
X107999Y91660D01*
X108038Y91722D01*
X108085Y91779D01*
X108102Y91825D01*
X108128Y91867D01*
X108145Y91938D01*
X108171Y92007D01*
X108178Y92080D01*
X108184Y92104D01*
X108182Y92121D01*
X108185Y92154D01*
X108185Y98050D01*
X109510Y99375D01*
X122310Y99375D01*
X123635Y98050D01*
X123635Y97206D01*
X123651Y97110D01*
X123660Y97013D01*
X123670Y96990D01*
X123674Y96965D01*
X123720Y96879D01*
X123761Y96791D01*
X123782Y96765D01*
X123789Y96750D01*
X123808Y96733D01*
X123854Y96676D01*
X125930Y94600D01*
X125950Y94586D01*
X125966Y94567D01*
X126049Y94515D01*
X126129Y94458D01*
X126152Y94451D01*
X126173Y94438D01*
X126268Y94416D01*
X126362Y94387D01*
X126387Y94388D01*
X126410Y94383D01*
X126508Y94392D01*
X126606Y94395D01*
X126629Y94404D01*
X126653Y94406D01*
X126743Y94447D01*
X126834Y94481D01*
X126853Y94497D01*
X126876Y94507D01*
X126990Y94600D01*
X128116Y95726D01*
X129066Y96676D01*
X129123Y96756D01*
X129185Y96831D01*
X129193Y96854D01*
X129208Y96875D01*
X129236Y96968D01*
X129271Y97059D01*
X129274Y97092D01*
X129279Y97108D01*
X129278Y97133D01*
X129285Y97206D01*
X129285Y98050D01*
X130610Y99375D01*
X133625Y99375D01*
X133698Y99387D01*
X133771Y99389D01*
X133817Y99406D01*
X133866Y99414D01*
X133931Y99449D01*
X133999Y99475D01*
X134038Y99506D01*
X134081Y99529D01*
X134131Y99583D01*
X134188Y99630D01*
X134214Y99672D01*
X134248Y99707D01*
X134278Y99774D01*
X134317Y99837D01*
X134328Y99885D01*
X134349Y99930D01*
X134356Y100003D01*
X134373Y100074D01*
X134368Y100123D01*
X134373Y100173D01*
X134356Y100244D01*
X134349Y100317D01*
X134329Y100362D01*
X134318Y100410D01*
X134279Y100473D01*
X134249Y100540D01*
X134202Y100596D01*
X134189Y100618D01*
X134176Y100628D01*
X134155Y100654D01*
X132403Y102405D01*
X132403Y106595D01*
X134155Y108346D01*
X134198Y108406D01*
X134248Y108460D01*
X134268Y108504D01*
X134297Y108545D01*
X134318Y108615D01*
X134349Y108682D01*
X134354Y108731D01*
X134368Y108778D01*
X134366Y108851D01*
X134373Y108925D01*
X134362Y108973D01*
X134360Y109022D01*
X134334Y109091D01*
X134318Y109162D01*
X134292Y109204D01*
X134274Y109250D01*
X134228Y109307D01*
X134189Y109370D01*
X134151Y109401D01*
X134120Y109439D01*
X134057Y109478D01*
X134000Y109525D01*
X133954Y109542D01*
X133912Y109568D01*
X133841Y109585D01*
X133772Y109611D01*
X133699Y109618D01*
X133675Y109624D01*
X133658Y109622D01*
X133625Y109625D01*
X130610Y109625D01*
X129150Y111086D01*
X129070Y111143D01*
X128995Y111205D01*
X128972Y111213D01*
X128952Y111228D01*
X128858Y111256D01*
X128767Y111291D01*
X128734Y111294D01*
X128718Y111299D01*
X128709Y111299D01*
X126846Y113162D01*
X126522Y113486D01*
X125930Y114078D01*
X125870Y114121D01*
X125816Y114171D01*
X125772Y114191D01*
X125731Y114220D01*
X125661Y114241D01*
X125594Y114272D01*
X125545Y114277D01*
X125498Y114291D01*
X125425Y114289D01*
X125351Y114296D01*
X125303Y114285D01*
X125254Y114283D01*
X125185Y114257D01*
X125114Y114241D01*
X125072Y114214D01*
X125026Y114197D01*
X124969Y114151D01*
X124906Y114112D01*
X124875Y114074D01*
X124837Y114042D01*
X124798Y113980D01*
X124751Y113923D01*
X124734Y113877D01*
X124708Y113835D01*
X124691Y113764D01*
X124665Y113695D01*
X124658Y113622D01*
X124653Y113599D01*
X117409Y113599D01*
X117409Y119591D01*
X121370Y119591D01*
X122331Y119333D01*
X123192Y118836D01*
X123386Y118642D01*
X123446Y118599D01*
X123500Y118549D01*
X123544Y118529D01*
X123585Y118500D01*
X123655Y118479D01*
X123722Y118448D01*
X123771Y118443D01*
X123818Y118429D01*
X123891Y118431D01*
X123965Y118424D01*
X124013Y118435D01*
X124062Y118437D01*
X124131Y118463D01*
X124202Y118479D01*
X124244Y118505D01*
X124290Y118523D01*
X124347Y118569D01*
X124410Y118608D01*
X124441Y118646D01*
X124479Y118677D01*
X124518Y118740D01*
X124565Y118797D01*
X124582Y118843D01*
X124608Y118885D01*
X124625Y118956D01*
X124651Y119025D01*
X124658Y119098D01*
X124664Y119122D01*
X124662Y119139D01*
X124665Y119172D01*
X124665Y156658D01*
X126522Y158514D01*
X128802Y160795D01*
X131187Y160795D01*
X131211Y160799D01*
X131236Y160796D01*
X131331Y160818D01*
X131428Y160834D01*
X131449Y160846D01*
X131473Y160852D01*
X131557Y160903D01*
X131643Y160949D01*
X131660Y160967D01*
X131681Y160980D01*
X131743Y161056D01*
X131810Y161127D01*
X131820Y161150D01*
X131836Y161169D01*
X131870Y161260D01*
X131911Y161350D01*
X131911Y161357D01*
X132829Y162275D01*
X146093Y162275D01*
X147140Y161227D01*
X147200Y161184D01*
X147254Y161134D01*
X147280Y161122D01*
X147286Y161117D01*
X147303Y161111D01*
X147339Y161085D01*
X147409Y161064D01*
X147476Y161033D01*
X147525Y161028D01*
X147572Y161014D01*
X147645Y161016D01*
X147719Y161009D01*
X147767Y161020D01*
X147816Y161022D01*
X147885Y161048D01*
X147956Y161064D01*
X147998Y161090D01*
X148044Y161108D01*
X148101Y161154D01*
X148164Y161193D01*
X148195Y161231D01*
X148233Y161262D01*
X148272Y161325D01*
X148282Y161337D01*
X148293Y161349D01*
X148294Y161352D01*
X148319Y161382D01*
X148336Y161428D01*
X148362Y161470D01*
X148377Y161535D01*
X148394Y161571D01*
X148395Y161584D01*
X148405Y161610D01*
X148412Y161683D01*
X148418Y161707D01*
X148416Y161724D01*
X148419Y161757D01*
X148419Y161834D01*
X148592Y162481D01*
X148927Y163060D01*
X149400Y163533D01*
X149979Y163868D01*
X150626Y164041D01*
X154461Y164041D01*
X154461Y156750D01*
X154465Y156726D01*
X154462Y156702D01*
X154485Y156606D01*
X154501Y156509D01*
X154512Y156488D01*
X154518Y156464D01*
X154569Y156381D01*
X154616Y156294D01*
X154633Y156277D01*
X154646Y156257D01*
X154722Y156194D01*
X154794Y156127D01*
X154816Y156117D01*
X154835Y156102D01*
X154926Y156067D01*
X155016Y156026D01*
X155040Y156024D01*
X155063Y156015D01*
X155210Y156001D01*
X155961Y156001D01*
X155961Y155999D01*
X155210Y155999D01*
X155186Y155995D01*
X155162Y155998D01*
X155066Y155975D01*
X154969Y155959D01*
X154948Y155948D01*
X154924Y155942D01*
X154840Y155891D01*
X154754Y155844D01*
X154737Y155827D01*
X154717Y155814D01*
X154654Y155738D01*
X154587Y155666D01*
X154577Y155644D01*
X154562Y155625D01*
X154527Y155534D01*
X154486Y155444D01*
X154484Y155420D01*
X154475Y155397D01*
X154461Y155250D01*
X154461Y147959D01*
X150626Y147959D01*
X149979Y148132D01*
X149400Y148467D01*
X148927Y148940D01*
X148604Y149500D01*
X148557Y149556D01*
X148519Y149619D01*
X148480Y149650D01*
X148449Y149688D01*
X148387Y149727D01*
X148330Y149774D01*
X148284Y149791D01*
X148242Y149817D01*
X148170Y149834D01*
X148102Y149860D01*
X148028Y149867D01*
X148004Y149873D01*
X147988Y149871D01*
X147955Y149874D01*
X140086Y149874D01*
X140062Y149870D01*
X140038Y149873D01*
X139942Y149851D01*
X139845Y149835D01*
X139824Y149823D01*
X139800Y149817D01*
X139717Y149766D01*
X139630Y149720D01*
X139614Y149702D01*
X139593Y149689D01*
X139530Y149613D01*
X139463Y149542D01*
X139453Y149519D01*
X139438Y149500D01*
X139403Y149409D01*
X139363Y149319D01*
X139360Y149295D01*
X139352Y149272D01*
X139337Y149125D01*
X139337Y147875D01*
X139341Y147851D01*
X139339Y147826D01*
X139361Y147731D01*
X139377Y147634D01*
X139388Y147613D01*
X139394Y147589D01*
X139446Y147505D01*
X139492Y147419D01*
X139510Y147402D01*
X139522Y147381D01*
X139598Y147319D01*
X139670Y147252D01*
X139692Y147242D01*
X139711Y147226D01*
X139803Y147192D01*
X139892Y147151D01*
X139916Y147149D01*
X139939Y147140D01*
X140086Y147126D01*
X148002Y147126D01*
X148002Y145507D01*
X148014Y145434D01*
X148016Y145361D01*
X148033Y145315D01*
X148041Y145266D01*
X148076Y145201D01*
X148102Y145133D01*
X148133Y145094D01*
X148156Y145051D01*
X148210Y145001D01*
X148257Y144944D01*
X148299Y144918D01*
X148335Y144884D01*
X148401Y144854D01*
X148464Y144815D01*
X148512Y144804D01*
X148557Y144783D01*
X148630Y144776D01*
X148701Y144759D01*
X148750Y144764D01*
X148800Y144759D01*
X148871Y144776D01*
X148944Y144783D01*
X148989Y144803D01*
X149037Y144814D01*
X149100Y144853D01*
X149167Y144883D01*
X149223Y144930D01*
X149245Y144943D01*
X149255Y144956D01*
X149281Y144977D01*
X150328Y146025D01*
X161592Y146025D01*
X162485Y145132D01*
X162485Y132868D01*
X161592Y131975D01*
X150328Y131975D01*
X149435Y132868D01*
X149435Y134694D01*
X149431Y134718D01*
X149434Y134743D01*
X149412Y134838D01*
X149396Y134935D01*
X149384Y134956D01*
X149378Y134980D01*
X149327Y135064D01*
X149281Y135150D01*
X149263Y135167D01*
X149250Y135188D01*
X149174Y135250D01*
X149103Y135317D01*
X149080Y135327D01*
X149061Y135343D01*
X148970Y135377D01*
X148880Y135418D01*
X148856Y135420D01*
X148833Y135429D01*
X148686Y135443D01*
X147121Y135443D01*
X147025Y135427D01*
X146928Y135418D01*
X146905Y135408D01*
X146880Y135404D01*
X146794Y135358D01*
X146705Y135317D01*
X146680Y135296D01*
X146665Y135289D01*
X146648Y135270D01*
X146591Y135224D01*
X146093Y134725D01*
X132829Y134725D01*
X132069Y135486D01*
X131989Y135543D01*
X131914Y135605D01*
X131891Y135613D01*
X131871Y135628D01*
X131777Y135656D01*
X131686Y135691D01*
X131653Y135694D01*
X131637Y135699D01*
X131612Y135698D01*
X131539Y135705D01*
X131004Y135705D01*
X130980Y135701D01*
X130955Y135704D01*
X130860Y135682D01*
X130763Y135666D01*
X130742Y135654D01*
X130718Y135648D01*
X130634Y135597D01*
X130548Y135551D01*
X130531Y135533D01*
X130510Y135520D01*
X130448Y135444D01*
X130381Y135373D01*
X130371Y135350D01*
X130355Y135331D01*
X130321Y135240D01*
X130280Y135150D01*
X130278Y135126D01*
X130269Y135103D01*
X130255Y134956D01*
X130255Y119324D01*
X130259Y119300D01*
X130256Y119275D01*
X130278Y119180D01*
X130294Y119083D01*
X130306Y119062D01*
X130312Y119038D01*
X130363Y118954D01*
X130409Y118868D01*
X130427Y118851D01*
X130440Y118830D01*
X130516Y118768D01*
X130587Y118701D01*
X130610Y118691D01*
X130629Y118675D01*
X130720Y118641D01*
X130810Y118600D01*
X130834Y118598D01*
X130857Y118589D01*
X131004Y118575D01*
X143410Y118575D01*
X144870Y117114D01*
X144950Y117057D01*
X145025Y116995D01*
X145048Y116987D01*
X145068Y116972D01*
X145162Y116944D01*
X145253Y116909D01*
X145286Y116906D01*
X145302Y116901D01*
X145327Y116902D01*
X145400Y116895D01*
X146018Y116895D01*
X149640Y113272D01*
X149700Y113229D01*
X149754Y113179D01*
X149781Y113166D01*
X149783Y113165D01*
X149794Y113161D01*
X149798Y113159D01*
X149839Y113130D01*
X149909Y113109D01*
X149976Y113078D01*
X150025Y113073D01*
X150072Y113059D01*
X150145Y113061D01*
X150219Y113054D01*
X150267Y113065D01*
X150316Y113067D01*
X150385Y113093D01*
X150456Y113109D01*
X150498Y113136D01*
X150544Y113153D01*
X150601Y113199D01*
X150664Y113238D01*
X150695Y113276D01*
X150733Y113308D01*
X150772Y113370D01*
X150819Y113427D01*
X150835Y113471D01*
X155860Y113471D01*
X155884Y113475D01*
X155908Y113472D01*
X156004Y113494D01*
X156101Y113510D01*
X156122Y113522D01*
X156146Y113528D01*
X156229Y113579D01*
X156316Y113625D01*
X156332Y113643D01*
X156353Y113656D01*
X156416Y113732D01*
X156458Y113778D01*
X156466Y113764D01*
X156484Y113747D01*
X156496Y113726D01*
X156572Y113664D01*
X156644Y113597D01*
X156666Y113587D01*
X156685Y113571D01*
X156777Y113537D01*
X156866Y113496D01*
X156890Y113494D01*
X156913Y113485D01*
X157060Y113471D01*
X162001Y113471D01*
X162001Y111786D01*
X161828Y111139D01*
X161493Y110560D01*
X161204Y110271D01*
X161147Y110192D01*
X161085Y110116D01*
X161077Y110093D01*
X161062Y110073D01*
X161034Y109979D01*
X160999Y109888D01*
X160996Y109855D01*
X160991Y109839D01*
X160992Y109814D01*
X160985Y109741D01*
X160985Y102848D01*
X160092Y101955D01*
X159734Y101955D01*
X159710Y101951D01*
X159685Y101954D01*
X159590Y101932D01*
X159493Y101916D01*
X159472Y101904D01*
X159448Y101898D01*
X159364Y101847D01*
X159278Y101801D01*
X159261Y101783D01*
X159240Y101770D01*
X159178Y101694D01*
X159111Y101623D01*
X159101Y101600D01*
X159085Y101581D01*
X159051Y101490D01*
X159010Y101400D01*
X159008Y101376D01*
X158999Y101353D01*
X158985Y101206D01*
X158985Y100454D01*
X155374Y96844D01*
X155331Y96784D01*
X155281Y96730D01*
X155261Y96686D01*
X155232Y96645D01*
X155211Y96575D01*
X155180Y96508D01*
X155176Y96459D01*
X155161Y96412D01*
X155164Y96339D01*
X155156Y96265D01*
X155168Y96217D01*
X155169Y96168D01*
X155195Y96099D01*
X155212Y96028D01*
X155238Y95986D01*
X155255Y95940D01*
X155302Y95883D01*
X155340Y95820D01*
X155378Y95789D01*
X155410Y95751D01*
X155472Y95712D01*
X155529Y95665D01*
X155575Y95648D01*
X155617Y95622D01*
X155688Y95605D01*
X155757Y95579D01*
X155830Y95572D01*
X155854Y95566D01*
X155871Y95568D01*
X155904Y95565D01*
X157063Y95565D01*
X157159Y95581D01*
X157256Y95590D01*
X157279Y95600D01*
X157304Y95604D01*
X157390Y95650D01*
X157479Y95691D01*
X157504Y95712D01*
X157519Y95719D01*
X157536Y95738D01*
X157593Y95784D01*
X158365Y96557D01*
X162555Y96557D01*
X165517Y93595D01*
X165517Y89405D01*
X163148Y87037D01*
X163079Y86941D01*
X163006Y86839D01*
X162967Y86711D01*
X162935Y86605D01*
X162939Y86479D01*
X162943Y86362D01*
X162943Y86361D01*
X163003Y86202D01*
X163029Y86133D01*
X163137Y86001D01*
X163183Y85944D01*
X163184Y85944D01*
X163303Y85858D01*
X163520Y85733D01*
X163993Y85260D01*
X164328Y84681D01*
X164501Y84034D01*
X164501Y81064D01*
X164540Y80823D01*
X164632Y80652D01*
X164655Y80608D01*
X164778Y80493D01*
X164833Y80441D01*
X164941Y80392D01*
X165056Y80340D01*
X165178Y80328D01*
X165298Y80316D01*
X165299Y80316D01*
X165436Y80348D01*
X165536Y80371D01*
X165666Y80441D01*
X165714Y80473D01*
X167230Y81101D01*
X168161Y81286D01*
X168161Y68050D01*
X168165Y68026D01*
X168162Y68002D01*
X168185Y67906D01*
X168200Y67809D01*
X168212Y67788D01*
X168218Y67764D01*
X168269Y67681D01*
X168315Y67594D01*
X168333Y67577D01*
X168346Y67557D01*
X168422Y67494D01*
X168494Y67427D01*
X168516Y67417D01*
X168535Y67402D01*
X168626Y67367D01*
X168716Y67327D01*
X168740Y67324D01*
X168763Y67315D01*
X168910Y67301D01*
X169661Y67301D01*
X169661Y67299D01*
X168910Y67299D01*
X168886Y67295D01*
X168861Y67298D01*
X168766Y67275D01*
X168669Y67259D01*
X168648Y67248D01*
X168624Y67242D01*
X168540Y67191D01*
X168454Y67144D01*
X168437Y67127D01*
X168416Y67114D01*
X168354Y67038D01*
X168287Y66966D01*
X168277Y66944D01*
X168262Y66925D01*
X168227Y66833D01*
X168186Y66744D01*
X168184Y66720D01*
X168175Y66697D01*
X168161Y66550D01*
X168161Y53314D01*
X167230Y53499D01*
X165714Y54127D01*
X164350Y55039D01*
X163189Y56200D01*
X162277Y57564D01*
X161649Y59080D01*
X161630Y59177D01*
X161621Y59200D01*
X161619Y59225D01*
X161579Y59314D01*
X161544Y59406D01*
X161529Y59425D01*
X161518Y59447D01*
X161451Y59519D01*
X161389Y59594D01*
X161369Y59607D01*
X161352Y59625D01*
X161265Y59672D01*
X161182Y59723D01*
X161158Y59729D01*
X161136Y59741D01*
X161040Y59757D01*
X160945Y59779D01*
X160920Y59776D01*
X160896Y59780D01*
X160799Y59765D01*
X160702Y59755D01*
X160679Y59745D01*
X160655Y59741D01*
X160569Y59695D01*
X160479Y59655D01*
X160461Y59638D01*
X160440Y59626D01*
X160373Y59555D01*
X160301Y59488D01*
X160290Y59466D01*
X160273Y59448D01*
X160203Y59318D01*
X160023Y58884D01*
X158476Y57337D01*
X156454Y56499D01*
X154266Y56499D01*
X152244Y57337D01*
X152156Y57425D01*
X152096Y57468D01*
X152042Y57518D01*
X151998Y57538D01*
X151958Y57567D01*
X151887Y57588D01*
X151820Y57619D01*
X151771Y57624D01*
X151724Y57638D01*
X151651Y57636D01*
X151577Y57643D01*
X151529Y57632D01*
X151480Y57630D01*
X151411Y57604D01*
X151340Y57588D01*
X151298Y57562D01*
X151252Y57544D01*
X151195Y57498D01*
X151132Y57459D01*
X151101Y57421D01*
X151063Y57390D01*
X151024Y57327D01*
X150977Y57270D01*
X150960Y57224D01*
X150934Y57183D01*
X150917Y57111D01*
X150891Y57042D01*
X150884Y56969D01*
X150879Y56949D01*
X136523Y42593D01*
X37784Y42593D01*
X37687Y42577D01*
X37590Y42568D01*
X37568Y42558D01*
X37543Y42554D01*
X37457Y42508D01*
X37368Y42467D01*
X37342Y42446D01*
X37328Y42439D01*
X37311Y42420D01*
X37254Y42374D01*
X22297Y27417D01*
X22252Y27354D01*
X22217Y27317D01*
X22203Y27286D01*
X22155Y27219D01*
X22121Y27108D01*
X22119Y27102D01*
X22116Y27095D01*
X22116Y27089D01*
X22084Y26986D01*
X22084Y26985D01*
X22088Y26861D01*
X22092Y26742D01*
X22092Y26741D01*
X22135Y26601D01*
X23033Y24433D01*
X23033Y20087D01*
X21370Y16073D01*
X18297Y13000D01*
X14283Y11337D01*
X9937Y11337D01*
X5923Y13000D01*
X4330Y14593D01*
X4250Y14650D01*
X4175Y14712D01*
X4152Y14721D01*
X4131Y14735D01*
X4038Y14764D01*
X3946Y14798D01*
X3922Y14799D01*
X3898Y14806D01*
X3800Y14803D01*
X3702Y14806D01*
X3679Y14799D01*
X3654Y14798D01*
X3562Y14764D01*
X3469Y14736D01*
X3449Y14721D01*
X3426Y14712D01*
X3350Y14650D01*
X3271Y14594D01*
X3256Y14574D01*
X3237Y14558D01*
X3185Y14475D01*
X3128Y14395D01*
X3121Y14372D01*
X3108Y14351D01*
X3086Y14256D01*
X3057Y14162D01*
X3058Y14137D01*
X3052Y14113D01*
X3062Y14016D01*
X3065Y13918D01*
X3074Y13887D01*
X3076Y13870D01*
X3086Y13847D01*
X3108Y13777D01*
X4676Y9991D01*
X4715Y9929D01*
X4745Y9862D01*
X4792Y9805D01*
X4805Y9784D01*
X4817Y9773D01*
X4838Y9748D01*
X8008Y6578D01*
X8067Y6536D01*
X8121Y6486D01*
X8186Y6451D01*
X8206Y6436D01*
X8222Y6431D01*
X8251Y6416D01*
X12392Y4701D01*
X12428Y4692D01*
X12461Y4676D01*
X12605Y4647D01*
X14847Y4426D01*
X14869Y4428D01*
X14920Y4423D01*
X239878Y4423D01*
X239901Y4427D01*
G37*
G36*
X222757Y219021D02*
X222757Y219021D01*
X222806Y219023D01*
X222875Y219049D01*
X222946Y219066D01*
X222988Y219092D01*
X223034Y219109D01*
X223091Y219155D01*
X223154Y219194D01*
X223185Y219232D01*
X223223Y219264D01*
X223262Y219326D01*
X223309Y219383D01*
X223326Y219429D01*
X223352Y219471D01*
X223369Y219542D01*
X223395Y219611D01*
X223402Y219684D01*
X223408Y219708D01*
X223406Y219725D01*
X223409Y219758D01*
X223409Y236452D01*
X223393Y236549D01*
X223384Y236646D01*
X223374Y236668D01*
X223370Y236693D01*
X223324Y236779D01*
X223283Y236868D01*
X223262Y236894D01*
X223255Y236908D01*
X223236Y236925D01*
X223190Y236982D01*
X219885Y240287D01*
X219885Y251214D01*
X219869Y251310D01*
X219860Y251407D01*
X219850Y251430D01*
X219846Y251455D01*
X219800Y251541D01*
X219759Y251629D01*
X219738Y251655D01*
X219731Y251670D01*
X219712Y251687D01*
X219666Y251744D01*
X214144Y257266D01*
X214064Y257323D01*
X213989Y257385D01*
X213966Y257393D01*
X213945Y257408D01*
X213852Y257436D01*
X213761Y257471D01*
X213728Y257474D01*
X213712Y257479D01*
X213687Y257478D01*
X213614Y257485D01*
X201676Y257485D01*
X201580Y257469D01*
X201483Y257460D01*
X201460Y257450D01*
X201435Y257446D01*
X201349Y257400D01*
X201261Y257359D01*
X201235Y257338D01*
X201220Y257331D01*
X201203Y257312D01*
X201146Y257266D01*
X198826Y254945D01*
X192854Y254945D01*
X192830Y254941D01*
X192805Y254944D01*
X192710Y254922D01*
X192613Y254906D01*
X192592Y254894D01*
X192568Y254888D01*
X192484Y254837D01*
X192398Y254791D01*
X192381Y254773D01*
X192360Y254760D01*
X192298Y254684D01*
X192231Y254613D01*
X192221Y254590D01*
X192205Y254571D01*
X192171Y254480D01*
X192130Y254390D01*
X192128Y254366D01*
X192119Y254343D01*
X192105Y254196D01*
X192105Y253663D01*
X191441Y253000D01*
X191427Y252980D01*
X191408Y252964D01*
X191356Y252881D01*
X191299Y252801D01*
X191292Y252778D01*
X191279Y252757D01*
X191257Y252662D01*
X191228Y252568D01*
X191229Y252543D01*
X191223Y252520D01*
X191233Y252422D01*
X191236Y252324D01*
X191245Y252301D01*
X191247Y252277D01*
X191287Y252187D01*
X191322Y252096D01*
X191337Y252077D01*
X191347Y252054D01*
X191441Y251940D01*
X192105Y251277D01*
X192105Y243663D01*
X191212Y242770D01*
X177248Y242770D01*
X176355Y243663D01*
X176355Y251277D01*
X177019Y251940D01*
X177033Y251960D01*
X177052Y251976D01*
X177104Y252059D01*
X177161Y252139D01*
X177168Y252162D01*
X177181Y252183D01*
X177203Y252278D01*
X177232Y252372D01*
X177231Y252396D01*
X177237Y252420D01*
X177227Y252518D01*
X177224Y252616D01*
X177215Y252639D01*
X177213Y252663D01*
X177173Y252753D01*
X177138Y252844D01*
X177123Y252863D01*
X177113Y252886D01*
X177019Y253000D01*
X176355Y253663D01*
X176355Y261277D01*
X177019Y261940D01*
X177033Y261960D01*
X177052Y261976D01*
X177104Y262059D01*
X177161Y262139D01*
X177168Y262162D01*
X177181Y262183D01*
X177203Y262278D01*
X177232Y262372D01*
X177231Y262396D01*
X177237Y262420D01*
X177227Y262518D01*
X177224Y262616D01*
X177215Y262639D01*
X177213Y262663D01*
X177173Y262753D01*
X177138Y262844D01*
X177123Y262863D01*
X177113Y262886D01*
X177019Y263000D01*
X176355Y263663D01*
X176355Y271535D01*
X176343Y271608D01*
X176341Y271681D01*
X176324Y271727D01*
X176316Y271776D01*
X176281Y271841D01*
X176255Y271909D01*
X176224Y271948D01*
X176201Y271991D01*
X176147Y272041D01*
X176100Y272098D01*
X176058Y272124D01*
X176023Y272158D01*
X175956Y272188D01*
X175893Y272227D01*
X175845Y272238D01*
X175800Y272259D01*
X175727Y272266D01*
X175656Y272283D01*
X175607Y272278D01*
X175557Y272283D01*
X175486Y272266D01*
X175413Y272259D01*
X175368Y272239D01*
X175320Y272228D01*
X175257Y272189D01*
X175190Y272159D01*
X175134Y272112D01*
X175112Y272099D01*
X175102Y272086D01*
X175076Y272065D01*
X174815Y271803D01*
X170625Y271803D01*
X167634Y274795D01*
X167574Y274838D01*
X167520Y274888D01*
X167476Y274908D01*
X167435Y274937D01*
X167365Y274958D01*
X167298Y274989D01*
X167249Y274994D01*
X167202Y275008D01*
X167129Y275006D01*
X167055Y275013D01*
X167007Y275002D01*
X166958Y275000D01*
X166889Y274974D01*
X166818Y274958D01*
X166776Y274932D01*
X166730Y274914D01*
X166673Y274868D01*
X166610Y274829D01*
X166579Y274791D01*
X166541Y274760D01*
X166502Y274697D01*
X166455Y274640D01*
X166438Y274594D01*
X166412Y274552D01*
X166395Y274481D01*
X166369Y274412D01*
X166362Y274339D01*
X166356Y274315D01*
X166358Y274298D01*
X166355Y274265D01*
X166355Y266557D01*
X166371Y266461D01*
X166380Y266364D01*
X166390Y266341D01*
X166394Y266316D01*
X166440Y266230D01*
X166481Y266141D01*
X166502Y266116D01*
X166509Y266101D01*
X166528Y266084D01*
X166574Y266027D01*
X168887Y263715D01*
X168887Y259525D01*
X165925Y256563D01*
X161735Y256563D01*
X158773Y259525D01*
X158773Y263715D01*
X161086Y266027D01*
X161143Y266107D01*
X161205Y266182D01*
X161213Y266205D01*
X161228Y266225D01*
X161256Y266319D01*
X161291Y266410D01*
X161294Y266443D01*
X161299Y266459D01*
X161298Y266484D01*
X161305Y266557D01*
X161305Y311256D01*
X161289Y311353D01*
X161280Y311450D01*
X161270Y311472D01*
X161266Y311497D01*
X161220Y311583D01*
X161179Y311672D01*
X161158Y311698D01*
X161151Y311712D01*
X161132Y311729D01*
X161086Y311786D01*
X160656Y312216D01*
X160577Y312273D01*
X160502Y312335D01*
X160478Y312343D01*
X160458Y312358D01*
X160364Y312386D01*
X160273Y312421D01*
X160257Y312422D01*
X152395Y320284D01*
X152390Y320340D01*
X152380Y320362D01*
X152376Y320387D01*
X152330Y320473D01*
X152289Y320562D01*
X152268Y320588D01*
X152261Y320602D01*
X152242Y320619D01*
X152196Y320676D01*
X149177Y323695D01*
X149177Y332654D01*
X149161Y332750D01*
X149152Y332847D01*
X149142Y332870D01*
X149138Y332895D01*
X149092Y332981D01*
X149051Y333069D01*
X149030Y333095D01*
X149023Y333110D01*
X149004Y333127D01*
X148958Y333184D01*
X144526Y337616D01*
X144446Y337673D01*
X144371Y337735D01*
X144348Y337743D01*
X144327Y337758D01*
X144234Y337786D01*
X144143Y337821D01*
X144110Y337824D01*
X144094Y337829D01*
X144069Y337828D01*
X143996Y337835D01*
X117967Y337835D01*
X117871Y337819D01*
X117774Y337810D01*
X117751Y337800D01*
X117726Y337796D01*
X117640Y337750D01*
X117551Y337709D01*
X117526Y337688D01*
X117511Y337681D01*
X117494Y337662D01*
X117437Y337616D01*
X115125Y335303D01*
X110935Y335303D01*
X107973Y338265D01*
X107973Y342455D01*
X110973Y345454D01*
X111016Y345514D01*
X111066Y345568D01*
X111086Y345612D01*
X111115Y345653D01*
X111136Y345723D01*
X111167Y345790D01*
X111172Y345839D01*
X111186Y345886D01*
X111184Y345959D01*
X111191Y346033D01*
X111180Y346081D01*
X111178Y346130D01*
X111152Y346199D01*
X111136Y346270D01*
X111110Y346312D01*
X111092Y346358D01*
X111046Y346415D01*
X111007Y346478D01*
X110969Y346509D01*
X110938Y346547D01*
X110875Y346586D01*
X110818Y346633D01*
X110772Y346650D01*
X110730Y346676D01*
X110659Y346693D01*
X110590Y346719D01*
X110517Y346726D01*
X110493Y346732D01*
X110476Y346730D01*
X110443Y346733D01*
X109665Y346733D01*
X106703Y349695D01*
X106703Y353885D01*
X109665Y356847D01*
X112936Y356847D01*
X113032Y356863D01*
X113129Y356872D01*
X113152Y356882D01*
X113177Y356886D01*
X113263Y356933D01*
X113351Y356973D01*
X113377Y356994D01*
X113392Y357001D01*
X113409Y357020D01*
X113466Y357066D01*
X114010Y357610D01*
X114024Y357630D01*
X114043Y357646D01*
X114095Y357729D01*
X114152Y357808D01*
X114159Y357832D01*
X114172Y357853D01*
X114194Y357948D01*
X114223Y358042D01*
X114222Y358066D01*
X114227Y358090D01*
X114218Y358188D01*
X114215Y358286D01*
X114206Y358309D01*
X114204Y358333D01*
X114163Y358423D01*
X114129Y358514D01*
X114113Y358533D01*
X114103Y358556D01*
X114010Y358670D01*
X113466Y359214D01*
X113386Y359271D01*
X113311Y359333D01*
X113288Y359341D01*
X113267Y359356D01*
X113174Y359384D01*
X113083Y359419D01*
X113050Y359422D01*
X113034Y359427D01*
X113009Y359426D01*
X112936Y359433D01*
X109665Y359433D01*
X106703Y362395D01*
X106703Y366585D01*
X109665Y369547D01*
X113855Y369547D01*
X116817Y366585D01*
X116817Y363314D01*
X116821Y363287D01*
X116819Y363265D01*
X116835Y363198D01*
X116842Y363121D01*
X116852Y363098D01*
X116856Y363073D01*
X116869Y363050D01*
X116874Y363027D01*
X116912Y362967D01*
X116943Y362899D01*
X116964Y362873D01*
X116971Y362858D01*
X116990Y362841D01*
X117003Y362820D01*
X117015Y362810D01*
X117036Y362784D01*
X117666Y362154D01*
X117746Y362097D01*
X117821Y362035D01*
X117844Y362027D01*
X117865Y362012D01*
X117958Y361984D01*
X118049Y361949D01*
X118082Y361946D01*
X118098Y361941D01*
X118123Y361942D01*
X118196Y361935D01*
X143286Y361935D01*
X161275Y343946D01*
X161275Y329016D01*
X161291Y328920D01*
X161300Y328823D01*
X161310Y328800D01*
X161314Y328775D01*
X161360Y328689D01*
X161401Y328601D01*
X161422Y328575D01*
X161429Y328560D01*
X161448Y328543D01*
X161494Y328486D01*
X169766Y320214D01*
X169846Y320157D01*
X169921Y320095D01*
X169944Y320087D01*
X169965Y320072D01*
X170058Y320044D01*
X170149Y320009D01*
X170182Y320006D01*
X170198Y320001D01*
X170223Y320002D01*
X170296Y319995D01*
X175606Y319995D01*
X175630Y319999D01*
X175655Y319996D01*
X175750Y320018D01*
X175847Y320034D01*
X175868Y320046D01*
X175892Y320052D01*
X175976Y320103D01*
X176062Y320149D01*
X176079Y320167D01*
X176100Y320180D01*
X176162Y320256D01*
X176229Y320327D01*
X176239Y320350D01*
X176255Y320369D01*
X176289Y320460D01*
X176330Y320550D01*
X176332Y320574D01*
X176341Y320597D01*
X176355Y320744D01*
X176355Y321277D01*
X177019Y321940D01*
X177033Y321960D01*
X177052Y321976D01*
X177104Y322059D01*
X177161Y322139D01*
X177168Y322162D01*
X177181Y322183D01*
X177203Y322278D01*
X177232Y322372D01*
X177231Y322396D01*
X177237Y322420D01*
X177227Y322518D01*
X177224Y322616D01*
X177215Y322639D01*
X177213Y322663D01*
X177173Y322753D01*
X177138Y322844D01*
X177123Y322863D01*
X177113Y322886D01*
X177019Y323000D01*
X176355Y323663D01*
X176355Y331277D01*
X177019Y331940D01*
X177033Y331960D01*
X177052Y331976D01*
X177104Y332059D01*
X177161Y332139D01*
X177168Y332162D01*
X177181Y332183D01*
X177203Y332278D01*
X177232Y332372D01*
X177231Y332396D01*
X177237Y332420D01*
X177227Y332518D01*
X177224Y332616D01*
X177215Y332639D01*
X177213Y332663D01*
X177173Y332753D01*
X177138Y332844D01*
X177123Y332863D01*
X177113Y332886D01*
X177019Y333000D01*
X176355Y333663D01*
X176355Y341277D01*
X177019Y341940D01*
X177033Y341960D01*
X177052Y341976D01*
X177104Y342059D01*
X177161Y342139D01*
X177168Y342162D01*
X177181Y342183D01*
X177203Y342278D01*
X177232Y342372D01*
X177231Y342396D01*
X177237Y342420D01*
X177227Y342518D01*
X177224Y342616D01*
X177215Y342639D01*
X177213Y342663D01*
X177173Y342753D01*
X177138Y342844D01*
X177123Y342863D01*
X177113Y342886D01*
X177019Y343000D01*
X176355Y343663D01*
X176355Y351277D01*
X177019Y351940D01*
X177033Y351960D01*
X177052Y351976D01*
X177104Y352059D01*
X177161Y352139D01*
X177168Y352162D01*
X177181Y352183D01*
X177203Y352278D01*
X177232Y352372D01*
X177231Y352396D01*
X177237Y352420D01*
X177227Y352518D01*
X177224Y352616D01*
X177215Y352639D01*
X177213Y352663D01*
X177173Y352753D01*
X177138Y352844D01*
X177123Y352863D01*
X177113Y352886D01*
X177019Y353000D01*
X176355Y353663D01*
X176355Y361292D01*
X176386Y361340D01*
X176443Y361420D01*
X176450Y361444D01*
X176463Y361464D01*
X176485Y361560D01*
X176514Y361654D01*
X176513Y361678D01*
X176518Y361702D01*
X176509Y361799D01*
X176506Y361897D01*
X176497Y361920D01*
X176495Y361945D01*
X176454Y362034D01*
X176420Y362126D01*
X176404Y362145D01*
X176394Y362167D01*
X176300Y362281D01*
X175847Y362735D01*
X175512Y363314D01*
X175339Y363961D01*
X175339Y365971D01*
X183480Y365971D01*
X183504Y365975D01*
X183528Y365972D01*
X183624Y365995D01*
X183721Y366011D01*
X183742Y366022D01*
X183766Y366028D01*
X183849Y366079D01*
X183936Y366126D01*
X183953Y366143D01*
X183973Y366156D01*
X184036Y366232D01*
X184103Y366304D01*
X184113Y366326D01*
X184128Y366345D01*
X184163Y366436D01*
X184204Y366526D01*
X184206Y366550D01*
X184215Y366573D01*
X184229Y366720D01*
X184229Y368220D01*
X184225Y368244D01*
X184228Y368268D01*
X184205Y368364D01*
X184189Y368461D01*
X184178Y368482D01*
X184172Y368506D01*
X184121Y368589D01*
X184074Y368676D01*
X184057Y368693D01*
X184044Y368713D01*
X183968Y368776D01*
X183896Y368843D01*
X183874Y368853D01*
X183855Y368868D01*
X183764Y368903D01*
X183674Y368944D01*
X183650Y368946D01*
X183627Y368955D01*
X183480Y368969D01*
X175339Y368969D01*
X175339Y370979D01*
X175441Y371361D01*
X175442Y371361D01*
X175512Y371626D01*
X175847Y372205D01*
X176300Y372659D01*
X176315Y372679D01*
X176334Y372694D01*
X176386Y372777D01*
X176443Y372857D01*
X176450Y372880D01*
X176463Y372901D01*
X176485Y372996D01*
X176514Y373090D01*
X176513Y373115D01*
X176518Y373139D01*
X176509Y373236D01*
X176506Y373334D01*
X176497Y373357D01*
X176495Y373382D01*
X176454Y373471D01*
X176420Y373563D01*
X176404Y373582D01*
X176394Y373604D01*
X176355Y373651D01*
X176355Y381277D01*
X177248Y382170D01*
X191212Y382170D01*
X192105Y381277D01*
X192105Y380744D01*
X192109Y380720D01*
X192106Y380695D01*
X192128Y380600D01*
X192144Y380503D01*
X192156Y380482D01*
X192162Y380458D01*
X192213Y380374D01*
X192259Y380288D01*
X192277Y380271D01*
X192290Y380250D01*
X192366Y380188D01*
X192437Y380121D01*
X192460Y380111D01*
X192479Y380095D01*
X192570Y380061D01*
X192660Y380020D01*
X192684Y380018D01*
X192707Y380009D01*
X192854Y379995D01*
X235716Y379995D01*
X243905Y371806D01*
X243905Y362468D01*
X243930Y362316D01*
X243944Y362227D01*
X244003Y362117D01*
X244059Y362012D01*
X244143Y361933D01*
X244237Y361845D01*
X244238Y361844D01*
X244367Y361775D01*
X247567Y360450D01*
X250437Y357580D01*
X250497Y357537D01*
X250550Y357487D01*
X250595Y357467D01*
X250635Y357438D01*
X250706Y357417D01*
X250773Y357386D01*
X250822Y357381D01*
X250869Y357367D01*
X250942Y357369D01*
X251015Y357362D01*
X251064Y357373D01*
X251113Y357375D01*
X251181Y357401D01*
X251253Y357417D01*
X251295Y357443D01*
X251341Y357461D01*
X251398Y357507D01*
X251460Y357546D01*
X251492Y357584D01*
X251530Y357615D01*
X251569Y357678D01*
X251615Y357735D01*
X251633Y357781D01*
X251659Y357823D01*
X251676Y357894D01*
X251702Y357963D01*
X251709Y358036D01*
X251714Y358060D01*
X251713Y358077D01*
X251716Y358110D01*
X251716Y385177D01*
X251701Y385267D01*
X251695Y385350D01*
X251716Y386614D01*
X251715Y386619D01*
X251716Y386627D01*
X251716Y386663D01*
X251713Y386682D01*
X251714Y386724D01*
X251535Y388926D01*
X251526Y388961D01*
X251525Y388998D01*
X251485Y389140D01*
X249867Y393242D01*
X249829Y393305D01*
X249800Y393372D01*
X249754Y393430D01*
X249742Y393451D01*
X249729Y393462D01*
X249709Y393488D01*
X246644Y396658D01*
X246585Y396702D01*
X246533Y396753D01*
X246468Y396789D01*
X246448Y396804D01*
X246433Y396809D01*
X246404Y396825D01*
X242359Y398581D01*
X242324Y398590D01*
X242291Y398607D01*
X242147Y398638D01*
X239951Y398892D01*
X239926Y398891D01*
X239865Y398897D01*
X25353Y398897D01*
X25280Y398885D01*
X25207Y398883D01*
X25161Y398866D01*
X25112Y398858D01*
X25047Y398823D01*
X24979Y398797D01*
X24940Y398766D01*
X24897Y398743D01*
X24847Y398689D01*
X24790Y398642D01*
X24764Y398600D01*
X24730Y398565D01*
X24700Y398498D01*
X24661Y398435D01*
X24650Y398387D01*
X24629Y398342D01*
X24622Y398269D01*
X24605Y398198D01*
X24610Y398149D01*
X24605Y398099D01*
X24622Y398028D01*
X24629Y397955D01*
X24649Y397910D01*
X24660Y397862D01*
X24699Y397799D01*
X24729Y397732D01*
X24776Y397676D01*
X24789Y397654D01*
X24802Y397644D01*
X24823Y397618D01*
X25377Y397065D01*
X25377Y392624D01*
X25381Y392600D01*
X25378Y392575D01*
X25400Y392480D01*
X25416Y392383D01*
X25428Y392362D01*
X25434Y392338D01*
X25485Y392254D01*
X25531Y392168D01*
X25549Y392151D01*
X25562Y392130D01*
X25638Y392068D01*
X25709Y392001D01*
X25732Y391991D01*
X25751Y391975D01*
X25842Y391941D01*
X25932Y391900D01*
X25956Y391898D01*
X25979Y391889D01*
X26126Y391875D01*
X33473Y391875D01*
X35245Y390103D01*
X35245Y380597D01*
X33473Y378825D01*
X23967Y378825D01*
X22195Y380597D01*
X22195Y382076D01*
X22193Y382088D01*
X22194Y382093D01*
X22192Y382103D01*
X22194Y382125D01*
X22172Y382220D01*
X22156Y382317D01*
X22144Y382338D01*
X22138Y382362D01*
X22087Y382446D01*
X22041Y382532D01*
X22023Y382549D01*
X22010Y382570D01*
X21934Y382632D01*
X21863Y382699D01*
X21840Y382709D01*
X21821Y382725D01*
X21730Y382759D01*
X21640Y382800D01*
X21616Y382802D01*
X21593Y382811D01*
X21446Y382825D01*
X21384Y382825D01*
X21360Y382821D01*
X21335Y382824D01*
X21240Y382802D01*
X21143Y382786D01*
X21122Y382774D01*
X21098Y382768D01*
X21014Y382717D01*
X20928Y382671D01*
X20911Y382653D01*
X20890Y382640D01*
X20828Y382564D01*
X20761Y382493D01*
X20751Y382470D01*
X20735Y382451D01*
X20701Y382360D01*
X20660Y382270D01*
X20658Y382246D01*
X20649Y382223D01*
X20635Y382076D01*
X20635Y380597D01*
X18863Y378825D01*
X9357Y378825D01*
X7585Y380597D01*
X7585Y390103D01*
X9357Y391875D01*
X10836Y391875D01*
X10860Y391879D01*
X10885Y391876D01*
X10980Y391898D01*
X11077Y391914D01*
X11098Y391926D01*
X11122Y391932D01*
X11206Y391983D01*
X11292Y392029D01*
X11309Y392047D01*
X11330Y392060D01*
X11392Y392136D01*
X11459Y392207D01*
X11469Y392229D01*
X15044Y395804D01*
X15101Y395884D01*
X15163Y395959D01*
X15171Y395982D01*
X15186Y396003D01*
X15214Y396096D01*
X15249Y396187D01*
X15252Y396220D01*
X15257Y396236D01*
X15256Y396261D01*
X15263Y396334D01*
X15263Y397065D01*
X15817Y397618D01*
X15860Y397678D01*
X15910Y397732D01*
X15930Y397776D01*
X15959Y397817D01*
X15980Y397887D01*
X16011Y397954D01*
X16016Y398003D01*
X16030Y398050D01*
X16028Y398123D01*
X16035Y398197D01*
X16024Y398245D01*
X16022Y398294D01*
X15996Y398363D01*
X15980Y398434D01*
X15954Y398476D01*
X15936Y398522D01*
X15890Y398579D01*
X15851Y398642D01*
X15813Y398673D01*
X15782Y398711D01*
X15719Y398750D01*
X15662Y398797D01*
X15616Y398814D01*
X15574Y398840D01*
X15503Y398857D01*
X15434Y398883D01*
X15361Y398890D01*
X15337Y398896D01*
X15320Y398894D01*
X15287Y398897D01*
X14920Y398897D01*
X14898Y398894D01*
X14847Y398894D01*
X12605Y398673D01*
X12570Y398663D01*
X12533Y398662D01*
X12392Y398619D01*
X8251Y396904D01*
X8189Y396865D01*
X8122Y396835D01*
X8065Y396788D01*
X8044Y396775D01*
X8033Y396763D01*
X8008Y396742D01*
X4838Y393572D01*
X4796Y393513D01*
X4746Y393459D01*
X4711Y393394D01*
X4696Y393374D01*
X4691Y393358D01*
X4676Y393329D01*
X2961Y389188D01*
X2952Y389152D01*
X2936Y389120D01*
X2907Y388975D01*
X2686Y386734D01*
X2688Y386711D01*
X2683Y386660D01*
X2683Y309489D01*
X2695Y309416D01*
X2697Y309343D01*
X2714Y309297D01*
X2722Y309248D01*
X2757Y309183D01*
X2783Y309114D01*
X2814Y309076D01*
X2837Y309033D01*
X2891Y308982D01*
X2938Y308926D01*
X2980Y308900D01*
X3015Y308866D01*
X3082Y308835D01*
X3145Y308797D01*
X3193Y308785D01*
X3238Y308765D01*
X3311Y308758D01*
X3382Y308741D01*
X3431Y308746D01*
X3481Y308741D01*
X3552Y308758D01*
X3625Y308765D01*
X3670Y308785D01*
X3718Y308796D01*
X3781Y308835D01*
X3848Y308865D01*
X3904Y308912D01*
X3926Y308925D01*
X3936Y308938D01*
X3962Y308959D01*
X5923Y310920D01*
X9937Y312583D01*
X14283Y312583D01*
X18297Y310920D01*
X21323Y307894D01*
X21344Y307879D01*
X21359Y307860D01*
X21442Y307809D01*
X21522Y307751D01*
X21545Y307744D01*
X21566Y307731D01*
X21661Y307709D01*
X21755Y307681D01*
X21780Y307681D01*
X21804Y307676D01*
X21901Y307685D01*
X21999Y307688D01*
X22022Y307697D01*
X22047Y307699D01*
X22136Y307740D01*
X22228Y307774D01*
X22247Y307790D01*
X22269Y307800D01*
X22383Y307894D01*
X25896Y311406D01*
X25953Y311486D01*
X26015Y311561D01*
X26023Y311584D01*
X26038Y311605D01*
X26066Y311698D01*
X26101Y311789D01*
X26104Y311822D01*
X26109Y311838D01*
X26108Y311863D01*
X26115Y311936D01*
X26115Y330696D01*
X26111Y330720D01*
X26114Y330745D01*
X26092Y330840D01*
X26076Y330937D01*
X26064Y330958D01*
X26058Y330982D01*
X26007Y331066D01*
X25961Y331152D01*
X25943Y331169D01*
X25930Y331190D01*
X25854Y331252D01*
X25783Y331319D01*
X25760Y331329D01*
X25741Y331345D01*
X25650Y331379D01*
X25560Y331420D01*
X25536Y331422D01*
X25513Y331431D01*
X25366Y331445D01*
X25008Y331445D01*
X24115Y332338D01*
X24115Y339002D01*
X24574Y339460D01*
X24588Y339480D01*
X24607Y339496D01*
X24659Y339579D01*
X24716Y339659D01*
X24723Y339682D01*
X24736Y339703D01*
X24758Y339798D01*
X24787Y339892D01*
X24786Y339917D01*
X24792Y339940D01*
X24782Y340038D01*
X24779Y340136D01*
X24770Y340159D01*
X24768Y340183D01*
X24728Y340273D01*
X24693Y340364D01*
X24678Y340383D01*
X24668Y340406D01*
X24574Y340520D01*
X24115Y340978D01*
X24115Y347642D01*
X25008Y348535D01*
X25446Y348535D01*
X25470Y348539D01*
X25495Y348536D01*
X25590Y348558D01*
X25687Y348574D01*
X25708Y348586D01*
X25732Y348592D01*
X25816Y348643D01*
X25902Y348689D01*
X25919Y348707D01*
X25940Y348720D01*
X26002Y348796D01*
X26069Y348867D01*
X26079Y348890D01*
X26095Y348909D01*
X26129Y349000D01*
X26170Y349090D01*
X26172Y349114D01*
X26181Y349137D01*
X26195Y349284D01*
X26195Y360536D01*
X26191Y360560D01*
X26194Y360585D01*
X26172Y360680D01*
X26156Y360777D01*
X26144Y360798D01*
X26138Y360822D01*
X26087Y360906D01*
X26041Y360992D01*
X26023Y361009D01*
X26010Y361030D01*
X25934Y361092D01*
X25863Y361159D01*
X25840Y361169D01*
X25821Y361185D01*
X25730Y361219D01*
X25640Y361260D01*
X25616Y361262D01*
X25593Y361271D01*
X25446Y361285D01*
X23967Y361285D01*
X22195Y363057D01*
X22195Y372563D01*
X23967Y374335D01*
X33473Y374335D01*
X35245Y372563D01*
X35245Y363057D01*
X33473Y361285D01*
X31994Y361285D01*
X31970Y361281D01*
X31945Y361284D01*
X31850Y361262D01*
X31753Y361246D01*
X31732Y361234D01*
X31708Y361228D01*
X31624Y361177D01*
X31538Y361131D01*
X31521Y361113D01*
X31500Y361100D01*
X31438Y361024D01*
X31371Y360953D01*
X31361Y360930D01*
X31345Y360911D01*
X31311Y360820D01*
X31270Y360730D01*
X31268Y360706D01*
X31259Y360683D01*
X31245Y360536D01*
X31245Y349284D01*
X31249Y349260D01*
X31246Y349235D01*
X31268Y349140D01*
X31284Y349043D01*
X31296Y349022D01*
X31302Y348998D01*
X31353Y348914D01*
X31399Y348828D01*
X31417Y348811D01*
X31430Y348790D01*
X31506Y348728D01*
X31577Y348661D01*
X31600Y348651D01*
X31619Y348635D01*
X31710Y348601D01*
X31800Y348560D01*
X31824Y348558D01*
X31847Y348549D01*
X31994Y348535D01*
X32272Y348535D01*
X33165Y347642D01*
X33165Y340978D01*
X32706Y340520D01*
X32692Y340500D01*
X32673Y340484D01*
X32621Y340401D01*
X32564Y340321D01*
X32557Y340298D01*
X32544Y340277D01*
X32522Y340182D01*
X32493Y340088D01*
X32494Y340064D01*
X32488Y340040D01*
X32498Y339942D01*
X32501Y339844D01*
X32510Y339821D01*
X32512Y339797D01*
X32552Y339707D01*
X32587Y339616D01*
X32602Y339597D01*
X32612Y339574D01*
X32706Y339460D01*
X33165Y339002D01*
X33165Y338944D01*
X33169Y338920D01*
X33166Y338895D01*
X33188Y338800D01*
X33204Y338703D01*
X33216Y338682D01*
X33222Y338658D01*
X33273Y338574D01*
X33319Y338488D01*
X33337Y338471D01*
X33350Y338450D01*
X33426Y338388D01*
X33497Y338321D01*
X33520Y338311D01*
X33539Y338295D01*
X33630Y338261D01*
X33720Y338220D01*
X33744Y338218D01*
X33767Y338209D01*
X33914Y338195D01*
X48660Y338195D01*
X48756Y338211D01*
X48853Y338220D01*
X48876Y338230D01*
X48901Y338234D01*
X48987Y338280D01*
X49076Y338321D01*
X49101Y338342D01*
X49116Y338349D01*
X49133Y338368D01*
X49190Y338414D01*
X51866Y341090D01*
X51916Y341160D01*
X51924Y341169D01*
X51927Y341174D01*
X51985Y341245D01*
X51993Y341268D01*
X52008Y341288D01*
X52036Y341382D01*
X52071Y341473D01*
X52074Y341506D01*
X52079Y341522D01*
X52078Y341547D01*
X52085Y341620D01*
X52085Y342765D01*
X52073Y342838D01*
X52071Y342911D01*
X52054Y342957D01*
X52046Y343006D01*
X52011Y343071D01*
X51985Y343139D01*
X51954Y343178D01*
X51931Y343221D01*
X51877Y343271D01*
X51830Y343328D01*
X51788Y343354D01*
X51753Y343388D01*
X51686Y343418D01*
X51623Y343457D01*
X51575Y343468D01*
X51530Y343489D01*
X51457Y343496D01*
X51386Y343513D01*
X51337Y343508D01*
X51287Y343513D01*
X51216Y343496D01*
X51143Y343489D01*
X51098Y343469D01*
X51050Y343458D01*
X50987Y343419D01*
X50920Y343389D01*
X50864Y343342D01*
X50842Y343329D01*
X50832Y343316D01*
X50806Y343295D01*
X49085Y341573D01*
X44895Y341573D01*
X41933Y344535D01*
X41933Y348725D01*
X44895Y351687D01*
X49085Y351687D01*
X52047Y348725D01*
X52047Y346986D01*
X52059Y346914D01*
X52061Y346840D01*
X52078Y346794D01*
X52086Y346745D01*
X52121Y346681D01*
X52147Y346612D01*
X52178Y346574D01*
X52201Y346530D01*
X52255Y346480D01*
X52302Y346423D01*
X52344Y346397D01*
X52379Y346363D01*
X52446Y346333D01*
X52509Y346294D01*
X52557Y346283D01*
X52602Y346262D01*
X52675Y346255D01*
X52746Y346238D01*
X52795Y346243D01*
X52845Y346238D01*
X52916Y346255D01*
X52989Y346262D01*
X53034Y346282D01*
X53082Y346294D01*
X53145Y346332D01*
X53212Y346363D01*
X53268Y346409D01*
X53290Y346422D01*
X53300Y346435D01*
X53326Y346456D01*
X55166Y348296D01*
X56864Y349995D01*
X61456Y349995D01*
X61480Y349999D01*
X61505Y349996D01*
X61600Y350018D01*
X61697Y350034D01*
X61718Y350046D01*
X61742Y350052D01*
X61826Y350103D01*
X61912Y350149D01*
X61929Y350167D01*
X61950Y350180D01*
X62012Y350256D01*
X62079Y350327D01*
X62089Y350350D01*
X62105Y350369D01*
X62139Y350460D01*
X62180Y350550D01*
X62182Y350574D01*
X62191Y350597D01*
X62205Y350744D01*
X62205Y351277D01*
X62869Y351940D01*
X62883Y351960D01*
X62902Y351976D01*
X62954Y352059D01*
X63011Y352139D01*
X63018Y352162D01*
X63031Y352183D01*
X63053Y352278D01*
X63082Y352372D01*
X63081Y352397D01*
X63087Y352420D01*
X63077Y352518D01*
X63074Y352616D01*
X63065Y352639D01*
X63063Y352663D01*
X63023Y352753D01*
X62988Y352844D01*
X62973Y352863D01*
X62963Y352886D01*
X62869Y353000D01*
X62205Y353663D01*
X62205Y361292D01*
X62236Y361340D01*
X62293Y361420D01*
X62300Y361444D01*
X62313Y361464D01*
X62335Y361560D01*
X62364Y361654D01*
X62363Y361678D01*
X62368Y361702D01*
X62359Y361799D01*
X62356Y361897D01*
X62347Y361920D01*
X62345Y361945D01*
X62304Y362034D01*
X62270Y362126D01*
X62254Y362145D01*
X62244Y362167D01*
X62150Y362281D01*
X61697Y362735D01*
X61362Y363314D01*
X61189Y363961D01*
X61189Y365971D01*
X68480Y365971D01*
X68504Y365975D01*
X68528Y365972D01*
X68624Y365995D01*
X68721Y366011D01*
X68742Y366022D01*
X68766Y366028D01*
X68849Y366079D01*
X68936Y366126D01*
X68953Y366143D01*
X68973Y366156D01*
X69036Y366232D01*
X69103Y366304D01*
X69113Y366326D01*
X69128Y366345D01*
X69163Y366436D01*
X69204Y366526D01*
X69206Y366550D01*
X69215Y366573D01*
X69229Y366720D01*
X69229Y368220D01*
X69225Y368244D01*
X69228Y368268D01*
X69205Y368364D01*
X69189Y368461D01*
X69178Y368482D01*
X69172Y368506D01*
X69121Y368589D01*
X69074Y368676D01*
X69057Y368693D01*
X69044Y368713D01*
X68968Y368776D01*
X68896Y368843D01*
X68874Y368853D01*
X68855Y368868D01*
X68764Y368903D01*
X68674Y368944D01*
X68650Y368946D01*
X68627Y368955D01*
X68480Y368969D01*
X61189Y368969D01*
X61189Y370979D01*
X61291Y371361D01*
X61292Y371361D01*
X61362Y371626D01*
X61697Y372205D01*
X62150Y372659D01*
X62165Y372679D01*
X62184Y372694D01*
X62236Y372777D01*
X62293Y372857D01*
X62300Y372880D01*
X62313Y372901D01*
X62335Y372996D01*
X62364Y373090D01*
X62363Y373115D01*
X62368Y373139D01*
X62359Y373236D01*
X62356Y373334D01*
X62347Y373357D01*
X62345Y373382D01*
X62304Y373471D01*
X62270Y373563D01*
X62254Y373582D01*
X62244Y373604D01*
X62205Y373651D01*
X62205Y381277D01*
X63098Y382170D01*
X75362Y382170D01*
X76255Y381277D01*
X76255Y373648D01*
X76224Y373600D01*
X76167Y373520D01*
X76160Y373496D01*
X76147Y373476D01*
X76125Y373380D01*
X76096Y373286D01*
X76097Y373262D01*
X76092Y373238D01*
X76101Y373141D01*
X76104Y373043D01*
X76113Y373020D01*
X76115Y372995D01*
X76156Y372906D01*
X76190Y372814D01*
X76206Y372795D01*
X76216Y372773D01*
X76310Y372659D01*
X76763Y372205D01*
X77098Y371626D01*
X77271Y370979D01*
X77271Y368969D01*
X69980Y368969D01*
X69956Y368965D01*
X69932Y368968D01*
X69836Y368945D01*
X69739Y368929D01*
X69718Y368918D01*
X69694Y368912D01*
X69611Y368861D01*
X69524Y368814D01*
X69507Y368797D01*
X69487Y368784D01*
X69424Y368708D01*
X69357Y368636D01*
X69347Y368614D01*
X69332Y368595D01*
X69297Y368504D01*
X69256Y368414D01*
X69254Y368390D01*
X69245Y368367D01*
X69231Y368220D01*
X69231Y366720D01*
X69235Y366696D01*
X69232Y366672D01*
X69255Y366576D01*
X69271Y366479D01*
X69282Y366458D01*
X69288Y366434D01*
X69339Y366350D01*
X69386Y366264D01*
X69403Y366247D01*
X69416Y366227D01*
X69492Y366164D01*
X69564Y366097D01*
X69586Y366087D01*
X69605Y366072D01*
X69696Y366037D01*
X69786Y365996D01*
X69810Y365994D01*
X69833Y365985D01*
X69980Y365971D01*
X77271Y365971D01*
X77271Y363961D01*
X77149Y363508D01*
X77098Y363314D01*
X76763Y362735D01*
X76310Y362281D01*
X76295Y362261D01*
X76276Y362246D01*
X76224Y362163D01*
X76167Y362083D01*
X76160Y362060D01*
X76147Y362039D01*
X76125Y361944D01*
X76096Y361850D01*
X76097Y361825D01*
X76092Y361801D01*
X76101Y361704D01*
X76104Y361606D01*
X76113Y361583D01*
X76115Y361558D01*
X76156Y361469D01*
X76190Y361377D01*
X76206Y361358D01*
X76216Y361336D01*
X76255Y361289D01*
X76255Y353663D01*
X75591Y353000D01*
X75577Y352980D01*
X75558Y352964D01*
X75506Y352881D01*
X75449Y352801D01*
X75442Y352778D01*
X75429Y352757D01*
X75407Y352662D01*
X75378Y352568D01*
X75379Y352544D01*
X75373Y352520D01*
X75383Y352422D01*
X75386Y352324D01*
X75395Y352301D01*
X75397Y352277D01*
X75437Y352187D01*
X75472Y352096D01*
X75487Y352077D01*
X75497Y352054D01*
X75591Y351940D01*
X76255Y351277D01*
X76255Y343663D01*
X75591Y343000D01*
X75577Y342980D01*
X75558Y342964D01*
X75506Y342881D01*
X75449Y342801D01*
X75442Y342778D01*
X75429Y342757D01*
X75407Y342662D01*
X75378Y342568D01*
X75379Y342544D01*
X75373Y342520D01*
X75383Y342422D01*
X75386Y342324D01*
X75395Y342301D01*
X75397Y342277D01*
X75437Y342187D01*
X75472Y342096D01*
X75487Y342077D01*
X75497Y342054D01*
X75591Y341940D01*
X76255Y341277D01*
X76255Y333663D01*
X75591Y333000D01*
X75577Y332980D01*
X75558Y332964D01*
X75506Y332881D01*
X75449Y332801D01*
X75442Y332778D01*
X75429Y332757D01*
X75407Y332662D01*
X75378Y332568D01*
X75379Y332544D01*
X75373Y332520D01*
X75383Y332422D01*
X75386Y332324D01*
X75395Y332301D01*
X75397Y332277D01*
X75437Y332187D01*
X75472Y332096D01*
X75487Y332077D01*
X75497Y332054D01*
X75591Y331940D01*
X76255Y331277D01*
X76255Y323663D01*
X75591Y323000D01*
X75577Y322980D01*
X75558Y322964D01*
X75506Y322881D01*
X75449Y322801D01*
X75442Y322778D01*
X75429Y322757D01*
X75407Y322662D01*
X75378Y322568D01*
X75379Y322544D01*
X75373Y322520D01*
X75383Y322422D01*
X75386Y322324D01*
X75395Y322301D01*
X75397Y322277D01*
X75437Y322187D01*
X75472Y322096D01*
X75487Y322077D01*
X75497Y322054D01*
X75591Y321940D01*
X76255Y321277D01*
X76255Y313663D01*
X75591Y313000D01*
X75577Y312980D01*
X75558Y312964D01*
X75506Y312881D01*
X75449Y312801D01*
X75442Y312778D01*
X75429Y312757D01*
X75407Y312662D01*
X75378Y312568D01*
X75379Y312544D01*
X75373Y312520D01*
X75383Y312422D01*
X75386Y312324D01*
X75395Y312301D01*
X75397Y312277D01*
X75437Y312187D01*
X75472Y312096D01*
X75487Y312077D01*
X75497Y312054D01*
X75591Y311940D01*
X76255Y311277D01*
X76255Y303663D01*
X75591Y303000D01*
X75577Y302980D01*
X75558Y302964D01*
X75506Y302881D01*
X75449Y302801D01*
X75442Y302778D01*
X75429Y302757D01*
X75407Y302662D01*
X75378Y302568D01*
X75379Y302544D01*
X75373Y302520D01*
X75383Y302422D01*
X75386Y302324D01*
X75395Y302301D01*
X75397Y302277D01*
X75437Y302187D01*
X75472Y302096D01*
X75487Y302077D01*
X75497Y302054D01*
X75591Y301940D01*
X76255Y301277D01*
X76255Y293663D01*
X75591Y293000D01*
X75577Y292980D01*
X75558Y292964D01*
X75506Y292881D01*
X75449Y292801D01*
X75442Y292778D01*
X75429Y292757D01*
X75407Y292662D01*
X75378Y292568D01*
X75379Y292544D01*
X75373Y292520D01*
X75383Y292422D01*
X75386Y292324D01*
X75395Y292301D01*
X75397Y292277D01*
X75437Y292187D01*
X75472Y292096D01*
X75487Y292077D01*
X75497Y292054D01*
X75591Y291940D01*
X76255Y291277D01*
X76255Y283663D01*
X75591Y283000D01*
X75577Y282980D01*
X75558Y282964D01*
X75506Y282881D01*
X75449Y282801D01*
X75442Y282778D01*
X75429Y282757D01*
X75407Y282662D01*
X75378Y282568D01*
X75379Y282544D01*
X75373Y282520D01*
X75383Y282422D01*
X75386Y282324D01*
X75395Y282301D01*
X75397Y282277D01*
X75437Y282187D01*
X75472Y282096D01*
X75487Y282077D01*
X75497Y282054D01*
X75591Y281940D01*
X76255Y281277D01*
X76255Y273663D01*
X75591Y273000D01*
X75577Y272980D01*
X75558Y272964D01*
X75506Y272881D01*
X75449Y272801D01*
X75442Y272778D01*
X75429Y272757D01*
X75407Y272662D01*
X75378Y272568D01*
X75379Y272544D01*
X75373Y272520D01*
X75383Y272422D01*
X75386Y272324D01*
X75395Y272301D01*
X75397Y272277D01*
X75437Y272187D01*
X75472Y272096D01*
X75487Y272077D01*
X75497Y272054D01*
X75591Y271940D01*
X76255Y271277D01*
X76255Y263663D01*
X75591Y263000D01*
X75577Y262980D01*
X75558Y262964D01*
X75506Y262881D01*
X75449Y262801D01*
X75442Y262778D01*
X75429Y262757D01*
X75407Y262662D01*
X75378Y262568D01*
X75379Y262544D01*
X75373Y262520D01*
X75383Y262422D01*
X75386Y262324D01*
X75395Y262301D01*
X75397Y262277D01*
X75437Y262187D01*
X75472Y262096D01*
X75487Y262077D01*
X75497Y262054D01*
X75591Y261940D01*
X75777Y261754D01*
X75857Y261697D01*
X75932Y261635D01*
X75955Y261627D01*
X75975Y261612D01*
X76069Y261584D01*
X76160Y261549D01*
X76193Y261546D01*
X76209Y261541D01*
X76234Y261542D01*
X76307Y261535D01*
X151884Y261535D01*
X188154Y225264D01*
X188234Y225207D01*
X188309Y225145D01*
X188332Y225137D01*
X188353Y225122D01*
X188446Y225094D01*
X188537Y225059D01*
X188570Y225056D01*
X188586Y225051D01*
X188611Y225052D01*
X188684Y225045D01*
X216314Y225045D01*
X218914Y222444D01*
X222130Y219228D01*
X222190Y219185D01*
X222244Y219135D01*
X222288Y219115D01*
X222329Y219086D01*
X222399Y219065D01*
X222466Y219034D01*
X222515Y219029D01*
X222562Y219015D01*
X222635Y219018D01*
X222709Y219010D01*
X222757Y219021D01*
G37*
G36*
X110066Y174805D02*
X110066Y174805D01*
X110139Y174812D01*
X110184Y174832D01*
X110232Y174844D01*
X110295Y174882D01*
X110362Y174913D01*
X110418Y174959D01*
X110440Y174972D01*
X110450Y174985D01*
X110476Y175006D01*
X114064Y178595D01*
X140316Y178595D01*
X140340Y178599D01*
X140365Y178596D01*
X140460Y178618D01*
X140557Y178634D01*
X140578Y178646D01*
X140602Y178652D01*
X140686Y178703D01*
X140772Y178749D01*
X140789Y178767D01*
X140810Y178780D01*
X140872Y178856D01*
X140939Y178927D01*
X140949Y178950D01*
X140965Y178969D01*
X140999Y179060D01*
X141040Y179150D01*
X141042Y179174D01*
X141051Y179197D01*
X141065Y179344D01*
X141065Y179702D01*
X141958Y180595D01*
X148622Y180595D01*
X149080Y180136D01*
X149100Y180122D01*
X149116Y180103D01*
X149199Y180051D01*
X149279Y179994D01*
X149302Y179987D01*
X149323Y179974D01*
X149418Y179952D01*
X149512Y179923D01*
X149536Y179924D01*
X149560Y179918D01*
X149658Y179928D01*
X149756Y179931D01*
X149779Y179940D01*
X149803Y179942D01*
X149893Y179982D01*
X149984Y180017D01*
X150003Y180032D01*
X150026Y180042D01*
X150140Y180136D01*
X150327Y180323D01*
X150341Y180343D01*
X150360Y180359D01*
X150412Y180442D01*
X150469Y180521D01*
X150476Y180545D01*
X150489Y180566D01*
X150511Y180661D01*
X150540Y180755D01*
X150539Y180779D01*
X150545Y180803D01*
X150535Y180901D01*
X150532Y180999D01*
X150523Y181022D01*
X150521Y181046D01*
X150481Y181135D01*
X150446Y181227D01*
X150431Y181246D01*
X150420Y181268D01*
X150327Y181383D01*
X149233Y182477D01*
X149234Y182485D01*
X149212Y182580D01*
X149196Y182677D01*
X149184Y182698D01*
X149178Y182722D01*
X149127Y182806D01*
X149081Y182892D01*
X149063Y182909D01*
X149050Y182930D01*
X148974Y182992D01*
X148903Y183059D01*
X148880Y183069D01*
X148861Y183085D01*
X148770Y183119D01*
X148680Y183160D01*
X148656Y183162D01*
X148633Y183171D01*
X148486Y183185D01*
X145628Y183185D01*
X144735Y184078D01*
X144735Y195342D01*
X145628Y196235D01*
X157892Y196235D01*
X158785Y195342D01*
X158785Y193254D01*
X158789Y193230D01*
X158786Y193205D01*
X158808Y193110D01*
X158824Y193013D01*
X158836Y192992D01*
X158842Y192968D01*
X158893Y192884D01*
X158939Y192798D01*
X158957Y192781D01*
X158970Y192760D01*
X159046Y192698D01*
X159117Y192631D01*
X159140Y192621D01*
X159159Y192605D01*
X159250Y192571D01*
X159340Y192530D01*
X159364Y192528D01*
X159387Y192519D01*
X159534Y192505D01*
X160946Y192505D01*
X160970Y192509D01*
X160995Y192506D01*
X161090Y192528D01*
X161187Y192544D01*
X161208Y192556D01*
X161232Y192562D01*
X161316Y192613D01*
X161402Y192659D01*
X161419Y192677D01*
X161440Y192690D01*
X161502Y192766D01*
X161569Y192837D01*
X161579Y192860D01*
X161595Y192879D01*
X161629Y192970D01*
X161670Y193060D01*
X161672Y193084D01*
X161681Y193107D01*
X161695Y193254D01*
X161695Y195612D01*
X162588Y196505D01*
X172852Y196505D01*
X173745Y195612D01*
X173745Y193254D01*
X173749Y193230D01*
X173746Y193205D01*
X173768Y193110D01*
X173784Y193013D01*
X173796Y192992D01*
X173802Y192968D01*
X173853Y192884D01*
X173899Y192798D01*
X173917Y192781D01*
X173930Y192760D01*
X174006Y192698D01*
X174077Y192631D01*
X174100Y192621D01*
X174119Y192605D01*
X174210Y192571D01*
X174300Y192530D01*
X174324Y192528D01*
X174347Y192519D01*
X174494Y192505D01*
X201946Y192505D01*
X201970Y192509D01*
X201995Y192506D01*
X202090Y192528D01*
X202187Y192544D01*
X202208Y192556D01*
X202232Y192562D01*
X202316Y192613D01*
X202402Y192659D01*
X202419Y192677D01*
X202440Y192690D01*
X202502Y192766D01*
X202569Y192837D01*
X202579Y192860D01*
X202595Y192879D01*
X202629Y192970D01*
X202670Y193060D01*
X202672Y193084D01*
X202681Y193107D01*
X202695Y193254D01*
X202695Y195612D01*
X203588Y196505D01*
X205446Y196505D01*
X205470Y196509D01*
X205495Y196506D01*
X205590Y196528D01*
X205687Y196544D01*
X205708Y196556D01*
X205732Y196562D01*
X205816Y196613D01*
X205902Y196659D01*
X205919Y196677D01*
X205940Y196690D01*
X206002Y196766D01*
X206069Y196837D01*
X206079Y196860D01*
X206095Y196879D01*
X206129Y196970D01*
X206170Y197060D01*
X206172Y197084D01*
X206181Y197107D01*
X206195Y197254D01*
X206195Y200876D01*
X209354Y204034D01*
X209411Y204114D01*
X209473Y204189D01*
X209481Y204212D01*
X209496Y204233D01*
X209524Y204326D01*
X209559Y204417D01*
X209562Y204450D01*
X209567Y204466D01*
X209566Y204491D01*
X209573Y204564D01*
X209573Y206565D01*
X212535Y209527D01*
X216725Y209527D01*
X219050Y207201D01*
X219110Y207158D01*
X219164Y207108D01*
X219208Y207088D01*
X219249Y207059D01*
X219319Y207038D01*
X219386Y207007D01*
X219435Y207002D01*
X219482Y206988D01*
X219555Y206990D01*
X219629Y206983D01*
X219677Y206994D01*
X219726Y206996D01*
X219795Y207022D01*
X219866Y207038D01*
X219908Y207064D01*
X219954Y207082D01*
X220011Y207128D01*
X220074Y207167D01*
X220105Y207205D01*
X220143Y207236D01*
X220182Y207299D01*
X220229Y207356D01*
X220246Y207402D01*
X220272Y207444D01*
X220289Y207515D01*
X220315Y207584D01*
X220322Y207657D01*
X220328Y207681D01*
X220326Y207698D01*
X220329Y207731D01*
X220329Y209222D01*
X220313Y209318D01*
X220304Y209415D01*
X220294Y209438D01*
X220290Y209463D01*
X220244Y209549D01*
X220203Y209638D01*
X220182Y209663D01*
X220175Y209678D01*
X220156Y209695D01*
X220110Y209752D01*
X213166Y216696D01*
X213086Y216753D01*
X213011Y216815D01*
X212988Y216823D01*
X212967Y216838D01*
X212874Y216866D01*
X212783Y216901D01*
X212750Y216904D01*
X212734Y216909D01*
X212709Y216908D01*
X212636Y216915D01*
X185006Y216915D01*
X148736Y253186D01*
X148656Y253243D01*
X148581Y253305D01*
X148558Y253313D01*
X148537Y253328D01*
X148444Y253356D01*
X148353Y253391D01*
X148320Y253394D01*
X148304Y253399D01*
X148279Y253398D01*
X148206Y253405D01*
X77368Y253405D01*
X77271Y253389D01*
X77174Y253380D01*
X77152Y253370D01*
X77127Y253366D01*
X77041Y253319D01*
X76952Y253279D01*
X76934Y253262D01*
X76912Y253251D01*
X76845Y253179D01*
X76774Y253113D01*
X76762Y253091D01*
X76745Y253073D01*
X76705Y252984D01*
X76659Y252897D01*
X76655Y252873D01*
X76644Y252850D01*
X76635Y252753D01*
X76619Y252657D01*
X76623Y252632D01*
X76620Y252607D01*
X76642Y252512D01*
X76658Y252416D01*
X76672Y252386D01*
X76675Y252370D01*
X76689Y252349D01*
X76719Y252281D01*
X77098Y251626D01*
X77271Y250979D01*
X77271Y248969D01*
X69980Y248969D01*
X69956Y248965D01*
X69932Y248968D01*
X69836Y248945D01*
X69739Y248929D01*
X69718Y248918D01*
X69694Y248912D01*
X69611Y248861D01*
X69524Y248814D01*
X69507Y248797D01*
X69487Y248784D01*
X69424Y248708D01*
X69357Y248636D01*
X69347Y248614D01*
X69332Y248595D01*
X69297Y248504D01*
X69256Y248414D01*
X69254Y248390D01*
X69245Y248367D01*
X69231Y248220D01*
X69231Y247469D01*
X69229Y247469D01*
X69229Y248220D01*
X69225Y248244D01*
X69228Y248268D01*
X69205Y248364D01*
X69189Y248461D01*
X69178Y248482D01*
X69172Y248506D01*
X69121Y248589D01*
X69074Y248676D01*
X69057Y248693D01*
X69044Y248713D01*
X68968Y248776D01*
X68896Y248843D01*
X68874Y248853D01*
X68855Y248868D01*
X68764Y248903D01*
X68674Y248944D01*
X68650Y248946D01*
X68627Y248955D01*
X68480Y248969D01*
X61189Y248969D01*
X61189Y250979D01*
X61362Y251626D01*
X61741Y252281D01*
X61775Y252373D01*
X61816Y252462D01*
X61818Y252486D01*
X61827Y252510D01*
X61830Y252607D01*
X61840Y252705D01*
X61834Y252729D01*
X61835Y252754D01*
X61807Y252847D01*
X61785Y252942D01*
X61771Y252963D01*
X61764Y252987D01*
X61707Y253067D01*
X61656Y253150D01*
X61637Y253165D01*
X61622Y253186D01*
X61543Y253243D01*
X61467Y253305D01*
X61444Y253313D01*
X61424Y253328D01*
X61330Y253356D01*
X61239Y253391D01*
X61206Y253394D01*
X61190Y253399D01*
X61166Y253398D01*
X61092Y253405D01*
X60207Y253405D01*
X60111Y253389D01*
X60014Y253380D01*
X59991Y253370D01*
X59966Y253366D01*
X59880Y253320D01*
X59791Y253279D01*
X59766Y253258D01*
X59751Y253251D01*
X59734Y253232D01*
X59677Y253186D01*
X59245Y252753D01*
X55055Y252753D01*
X54623Y253186D01*
X54544Y253243D01*
X54468Y253305D01*
X54445Y253313D01*
X54425Y253328D01*
X54331Y253356D01*
X54240Y253391D01*
X54207Y253394D01*
X54191Y253399D01*
X54166Y253398D01*
X54093Y253405D01*
X51184Y253405D01*
X51088Y253389D01*
X50991Y253380D01*
X50968Y253370D01*
X50943Y253366D01*
X50857Y253320D01*
X50768Y253279D01*
X50743Y253258D01*
X50728Y253251D01*
X50711Y253232D01*
X50654Y253186D01*
X47574Y250106D01*
X47517Y250026D01*
X47455Y249951D01*
X47447Y249928D01*
X47432Y249907D01*
X47404Y249814D01*
X47369Y249723D01*
X47366Y249690D01*
X47361Y249674D01*
X47362Y249649D01*
X47355Y249576D01*
X47355Y232843D01*
X40526Y226015D01*
X40469Y225936D01*
X40407Y225860D01*
X40399Y225837D01*
X40384Y225817D01*
X40356Y225723D01*
X40321Y225632D01*
X40318Y225599D01*
X40313Y225583D01*
X40314Y225558D01*
X40307Y225485D01*
X40307Y224527D01*
X40319Y224454D01*
X40321Y224381D01*
X40338Y224335D01*
X40346Y224286D01*
X40381Y224221D01*
X40407Y224153D01*
X40438Y224114D01*
X40461Y224071D01*
X40515Y224021D01*
X40562Y223964D01*
X40604Y223938D01*
X40639Y223904D01*
X40706Y223874D01*
X40769Y223835D01*
X40817Y223824D01*
X40862Y223803D01*
X40935Y223796D01*
X41006Y223779D01*
X41055Y223784D01*
X41105Y223779D01*
X41176Y223796D01*
X41249Y223803D01*
X41294Y223823D01*
X41342Y223834D01*
X41405Y223873D01*
X41472Y223903D01*
X41528Y223950D01*
X41550Y223963D01*
X41560Y223976D01*
X41586Y223997D01*
X43625Y226037D01*
X47815Y226037D01*
X50777Y223075D01*
X50777Y218885D01*
X48464Y216573D01*
X48407Y216493D01*
X48345Y216418D01*
X48337Y216395D01*
X48322Y216375D01*
X48294Y216281D01*
X48259Y216190D01*
X48256Y216157D01*
X48251Y216141D01*
X48252Y216116D01*
X48245Y216043D01*
X48245Y210906D01*
X48261Y210810D01*
X48270Y210713D01*
X48280Y210690D01*
X48284Y210665D01*
X48330Y210579D01*
X48371Y210491D01*
X48392Y210465D01*
X48399Y210450D01*
X48418Y210433D01*
X48464Y210376D01*
X52896Y205944D01*
X52976Y205887D01*
X53051Y205825D01*
X53074Y205817D01*
X53095Y205802D01*
X53188Y205774D01*
X53279Y205739D01*
X53312Y205736D01*
X53328Y205731D01*
X53353Y205732D01*
X53426Y205725D01*
X140884Y205725D01*
X140980Y205741D01*
X141077Y205750D01*
X141100Y205760D01*
X141125Y205764D01*
X141211Y205810D01*
X141299Y205851D01*
X141325Y205872D01*
X141340Y205879D01*
X141357Y205898D01*
X141414Y205944D01*
X143306Y207836D01*
X143363Y207916D01*
X143425Y207991D01*
X143433Y208014D01*
X143448Y208035D01*
X143476Y208128D01*
X143511Y208219D01*
X143514Y208252D01*
X143519Y208268D01*
X143518Y208293D01*
X143525Y208366D01*
X143525Y211346D01*
X143521Y211370D01*
X143524Y211395D01*
X143502Y211490D01*
X143486Y211587D01*
X143474Y211608D01*
X143468Y211632D01*
X143417Y211716D01*
X143371Y211802D01*
X143353Y211819D01*
X143340Y211840D01*
X143264Y211902D01*
X143193Y211969D01*
X143170Y211979D01*
X143151Y211995D01*
X143060Y212029D01*
X142970Y212070D01*
X142947Y212072D01*
X142260Y212759D01*
X142240Y212773D01*
X142224Y212792D01*
X142141Y212844D01*
X142061Y212901D01*
X142038Y212908D01*
X142017Y212921D01*
X141922Y212943D01*
X141828Y212972D01*
X141803Y212971D01*
X141780Y212977D01*
X141682Y212967D01*
X141584Y212964D01*
X141561Y212955D01*
X141537Y212953D01*
X141447Y212913D01*
X141356Y212878D01*
X141337Y212863D01*
X141314Y212853D01*
X141200Y212759D01*
X140537Y212095D01*
X132923Y212095D01*
X132260Y212759D01*
X132240Y212773D01*
X132224Y212792D01*
X132141Y212844D01*
X132061Y212901D01*
X132038Y212908D01*
X132017Y212921D01*
X131922Y212943D01*
X131828Y212972D01*
X131803Y212971D01*
X131780Y212977D01*
X131682Y212967D01*
X131584Y212964D01*
X131561Y212955D01*
X131537Y212953D01*
X131447Y212913D01*
X131356Y212878D01*
X131337Y212863D01*
X131314Y212853D01*
X131200Y212759D01*
X130537Y212095D01*
X122923Y212095D01*
X122260Y212759D01*
X122240Y212773D01*
X122224Y212792D01*
X122141Y212844D01*
X122061Y212901D01*
X122038Y212908D01*
X122017Y212921D01*
X121922Y212943D01*
X121828Y212972D01*
X121803Y212971D01*
X121780Y212977D01*
X121682Y212967D01*
X121584Y212964D01*
X121561Y212955D01*
X121537Y212953D01*
X121447Y212913D01*
X121356Y212878D01*
X121337Y212863D01*
X121314Y212853D01*
X121200Y212759D01*
X120537Y212095D01*
X112923Y212095D01*
X112260Y212759D01*
X112240Y212773D01*
X112224Y212792D01*
X112141Y212844D01*
X112061Y212901D01*
X112038Y212908D01*
X112017Y212921D01*
X111922Y212943D01*
X111828Y212972D01*
X111804Y212971D01*
X111780Y212977D01*
X111682Y212967D01*
X111584Y212964D01*
X111561Y212955D01*
X111537Y212953D01*
X111447Y212913D01*
X111356Y212878D01*
X111337Y212863D01*
X111314Y212853D01*
X111200Y212759D01*
X110537Y212095D01*
X102923Y212095D01*
X102260Y212759D01*
X102240Y212773D01*
X102224Y212792D01*
X102141Y212844D01*
X102061Y212901D01*
X102038Y212908D01*
X102017Y212921D01*
X101922Y212943D01*
X101828Y212972D01*
X101803Y212971D01*
X101780Y212977D01*
X101682Y212967D01*
X101584Y212964D01*
X101561Y212955D01*
X101537Y212953D01*
X101447Y212913D01*
X101356Y212878D01*
X101337Y212863D01*
X101314Y212853D01*
X101200Y212759D01*
X100537Y212095D01*
X92923Y212095D01*
X92260Y212759D01*
X92240Y212773D01*
X92224Y212792D01*
X92141Y212844D01*
X92061Y212901D01*
X92038Y212908D01*
X92017Y212921D01*
X91922Y212943D01*
X91828Y212972D01*
X91803Y212971D01*
X91780Y212977D01*
X91682Y212967D01*
X91584Y212964D01*
X91561Y212955D01*
X91537Y212953D01*
X91447Y212913D01*
X91356Y212878D01*
X91337Y212863D01*
X91314Y212853D01*
X91200Y212759D01*
X90537Y212095D01*
X82923Y212095D01*
X82030Y212988D01*
X82030Y226952D01*
X82819Y227740D01*
X82833Y227760D01*
X82852Y227776D01*
X82904Y227859D01*
X82961Y227939D01*
X82968Y227962D01*
X82981Y227983D01*
X83003Y228078D01*
X83032Y228172D01*
X83031Y228196D01*
X83037Y228220D01*
X83027Y228318D01*
X83024Y228416D01*
X83015Y228439D01*
X83013Y228463D01*
X82973Y228553D01*
X82938Y228644D01*
X82923Y228663D01*
X82913Y228686D01*
X82819Y228800D01*
X81303Y230315D01*
X81303Y234505D01*
X84265Y237467D01*
X88455Y237467D01*
X90910Y235011D01*
X90930Y234997D01*
X90946Y234978D01*
X91029Y234926D01*
X91109Y234869D01*
X91132Y234862D01*
X91153Y234849D01*
X91248Y234827D01*
X91342Y234798D01*
X91367Y234799D01*
X91390Y234793D01*
X91488Y234803D01*
X91586Y234806D01*
X91609Y234815D01*
X91633Y234817D01*
X91722Y234857D01*
X91814Y234892D01*
X91833Y234907D01*
X91856Y234917D01*
X91970Y235011D01*
X94425Y237467D01*
X98615Y237467D01*
X101070Y235011D01*
X101090Y234997D01*
X101106Y234978D01*
X101189Y234926D01*
X101269Y234869D01*
X101292Y234862D01*
X101313Y234849D01*
X101408Y234827D01*
X101502Y234798D01*
X101527Y234799D01*
X101550Y234793D01*
X101648Y234803D01*
X101746Y234806D01*
X101769Y234815D01*
X101793Y234817D01*
X101882Y234857D01*
X101974Y234892D01*
X101993Y234907D01*
X102016Y234917D01*
X102130Y235011D01*
X104585Y237467D01*
X108775Y237467D01*
X111230Y235011D01*
X111250Y234997D01*
X111266Y234978D01*
X111349Y234926D01*
X111429Y234869D01*
X111452Y234862D01*
X111473Y234849D01*
X111568Y234827D01*
X111662Y234798D01*
X111687Y234799D01*
X111710Y234793D01*
X111808Y234803D01*
X111906Y234806D01*
X111929Y234815D01*
X111953Y234817D01*
X112042Y234857D01*
X112134Y234892D01*
X112153Y234907D01*
X112176Y234917D01*
X112290Y235011D01*
X114745Y237467D01*
X118935Y237467D01*
X121390Y235011D01*
X121410Y234997D01*
X121426Y234978D01*
X121509Y234926D01*
X121589Y234869D01*
X121612Y234862D01*
X121633Y234849D01*
X121728Y234827D01*
X121822Y234798D01*
X121847Y234799D01*
X121870Y234793D01*
X121968Y234803D01*
X122066Y234806D01*
X122089Y234815D01*
X122113Y234817D01*
X122202Y234857D01*
X122294Y234892D01*
X122313Y234907D01*
X122336Y234917D01*
X122450Y235011D01*
X124905Y237467D01*
X129095Y237467D01*
X132057Y234505D01*
X132057Y230315D01*
X130591Y228850D01*
X130577Y228830D01*
X130558Y228814D01*
X130506Y228731D01*
X130449Y228651D01*
X130442Y228628D01*
X130429Y228607D01*
X130407Y228512D01*
X130378Y228418D01*
X130379Y228393D01*
X130373Y228370D01*
X130383Y228272D01*
X130386Y228174D01*
X130395Y228151D01*
X130397Y228127D01*
X130437Y228038D01*
X130472Y227946D01*
X130487Y227927D01*
X130497Y227904D01*
X130591Y227790D01*
X131200Y227181D01*
X131220Y227167D01*
X131236Y227148D01*
X131319Y227096D01*
X131399Y227039D01*
X131422Y227032D01*
X131443Y227019D01*
X131538Y226997D01*
X131632Y226968D01*
X131657Y226969D01*
X131680Y226963D01*
X131778Y226973D01*
X131876Y226976D01*
X131899Y226985D01*
X131923Y226987D01*
X132012Y227027D01*
X132104Y227062D01*
X132123Y227077D01*
X132146Y227087D01*
X132260Y227181D01*
X132923Y227845D01*
X140537Y227845D01*
X141200Y227181D01*
X141220Y227167D01*
X141236Y227148D01*
X141319Y227096D01*
X141399Y227039D01*
X141422Y227032D01*
X141443Y227019D01*
X141538Y226997D01*
X141632Y226968D01*
X141656Y226969D01*
X141680Y226963D01*
X141778Y226973D01*
X141876Y226976D01*
X141899Y226985D01*
X141923Y226987D01*
X142013Y227027D01*
X142104Y227062D01*
X142123Y227077D01*
X142146Y227087D01*
X142260Y227181D01*
X142664Y227585D01*
X142678Y227605D01*
X142697Y227621D01*
X142749Y227704D01*
X142806Y227783D01*
X142813Y227807D01*
X142826Y227828D01*
X142848Y227923D01*
X142877Y228017D01*
X142876Y228041D01*
X142882Y228065D01*
X142872Y228163D01*
X142869Y228261D01*
X142860Y228284D01*
X142858Y228308D01*
X142818Y228398D01*
X142783Y228489D01*
X142768Y228508D01*
X142758Y228531D01*
X142664Y228645D01*
X140993Y230315D01*
X140993Y234505D01*
X143955Y237467D01*
X148145Y237467D01*
X150600Y235011D01*
X150620Y234997D01*
X150636Y234978D01*
X150719Y234926D01*
X150799Y234869D01*
X150822Y234862D01*
X150843Y234849D01*
X150938Y234827D01*
X151032Y234798D01*
X151057Y234799D01*
X151080Y234793D01*
X151178Y234803D01*
X151276Y234806D01*
X151299Y234815D01*
X151323Y234817D01*
X151412Y234857D01*
X151504Y234892D01*
X151523Y234907D01*
X151546Y234917D01*
X151660Y235011D01*
X154115Y237467D01*
X158305Y237467D01*
X161267Y234505D01*
X161267Y230315D01*
X160075Y229124D01*
X160032Y229064D01*
X159982Y229010D01*
X159962Y228966D01*
X159933Y228925D01*
X159912Y228855D01*
X159881Y228788D01*
X159876Y228739D01*
X159862Y228692D01*
X159864Y228619D01*
X159857Y228545D01*
X159868Y228497D01*
X159870Y228448D01*
X159896Y228379D01*
X159912Y228308D01*
X159938Y228266D01*
X159956Y228220D01*
X160002Y228163D01*
X160041Y228100D01*
X160079Y228069D01*
X160110Y228031D01*
X160173Y227992D01*
X160230Y227945D01*
X160276Y227928D01*
X160318Y227902D01*
X160389Y227885D01*
X160458Y227859D01*
X160529Y227852D01*
X161200Y227181D01*
X161220Y227167D01*
X161236Y227148D01*
X161319Y227096D01*
X161399Y227039D01*
X161422Y227032D01*
X161443Y227019D01*
X161538Y226997D01*
X161632Y226968D01*
X161656Y226969D01*
X161680Y226963D01*
X161778Y226973D01*
X161876Y226976D01*
X161899Y226985D01*
X161923Y226987D01*
X162013Y227027D01*
X162104Y227062D01*
X162123Y227077D01*
X162146Y227087D01*
X162260Y227181D01*
X162923Y227845D01*
X170537Y227845D01*
X171430Y226952D01*
X171430Y212988D01*
X170537Y212095D01*
X162923Y212095D01*
X162260Y212759D01*
X162240Y212773D01*
X162224Y212792D01*
X162141Y212844D01*
X162061Y212901D01*
X162038Y212908D01*
X162017Y212921D01*
X161922Y212943D01*
X161828Y212972D01*
X161803Y212971D01*
X161780Y212977D01*
X161682Y212967D01*
X161584Y212964D01*
X161561Y212955D01*
X161537Y212953D01*
X161447Y212913D01*
X161356Y212878D01*
X161337Y212863D01*
X161314Y212853D01*
X161200Y212759D01*
X160537Y212095D01*
X152923Y212095D01*
X152260Y212759D01*
X152240Y212773D01*
X152224Y212792D01*
X152141Y212844D01*
X152061Y212901D01*
X152038Y212908D01*
X152017Y212921D01*
X151922Y212943D01*
X151828Y212972D01*
X151803Y212971D01*
X151780Y212977D01*
X151682Y212967D01*
X151584Y212964D01*
X151561Y212955D01*
X151537Y212953D01*
X151447Y212913D01*
X151356Y212878D01*
X151337Y212863D01*
X151314Y212853D01*
X151200Y212759D01*
X150537Y212095D01*
X149324Y212095D01*
X149300Y212091D01*
X149275Y212094D01*
X149180Y212072D01*
X149083Y212056D01*
X149062Y212044D01*
X149038Y212038D01*
X148954Y211987D01*
X148868Y211941D01*
X148851Y211923D01*
X148830Y211910D01*
X148768Y211834D01*
X148701Y211763D01*
X148691Y211740D01*
X148675Y211721D01*
X148641Y211630D01*
X148600Y211540D01*
X148598Y211516D01*
X148589Y211493D01*
X148575Y211346D01*
X148575Y205964D01*
X143286Y200675D01*
X51024Y200675D01*
X43195Y208504D01*
X43195Y216043D01*
X43179Y216139D01*
X43170Y216236D01*
X43160Y216259D01*
X43156Y216284D01*
X43109Y216370D01*
X43069Y216459D01*
X43048Y216484D01*
X43041Y216499D01*
X43022Y216516D01*
X42976Y216573D01*
X41586Y217963D01*
X41526Y218006D01*
X41472Y218056D01*
X41428Y218076D01*
X41387Y218105D01*
X41317Y218126D01*
X41250Y218157D01*
X41201Y218162D01*
X41154Y218176D01*
X41081Y218174D01*
X41007Y218181D01*
X40959Y218170D01*
X40910Y218168D01*
X40841Y218142D01*
X40770Y218126D01*
X40728Y218100D01*
X40682Y218082D01*
X40625Y218036D01*
X40562Y217997D01*
X40531Y217959D01*
X40493Y217928D01*
X40454Y217865D01*
X40407Y217808D01*
X40390Y217762D01*
X40364Y217720D01*
X40347Y217649D01*
X40321Y217580D01*
X40314Y217507D01*
X40308Y217483D01*
X40310Y217466D01*
X40307Y217433D01*
X40307Y205293D01*
X36904Y201890D01*
X36847Y201811D01*
X36785Y201736D01*
X36777Y201712D01*
X36762Y201692D01*
X36734Y201599D01*
X36699Y201508D01*
X36696Y201475D01*
X36691Y201459D01*
X36692Y201434D01*
X36685Y201361D01*
X36685Y197200D01*
X36697Y197127D01*
X36699Y197054D01*
X36716Y197008D01*
X36724Y196959D01*
X36759Y196894D01*
X36785Y196825D01*
X36816Y196787D01*
X36839Y196744D01*
X36893Y196694D01*
X36940Y196637D01*
X36982Y196611D01*
X37017Y196577D01*
X37084Y196547D01*
X37147Y196508D01*
X37195Y196497D01*
X37240Y196476D01*
X37313Y196469D01*
X37385Y196452D01*
X37434Y196457D01*
X37483Y196452D01*
X37554Y196469D01*
X37627Y196476D01*
X37672Y196496D01*
X37709Y196505D01*
X48062Y196505D01*
X48955Y195612D01*
X48955Y193254D01*
X48959Y193230D01*
X48956Y193205D01*
X48978Y193110D01*
X48994Y193013D01*
X49006Y192992D01*
X49012Y192968D01*
X49063Y192884D01*
X49109Y192798D01*
X49127Y192781D01*
X49140Y192760D01*
X49216Y192698D01*
X49287Y192631D01*
X49310Y192621D01*
X49329Y192605D01*
X49420Y192571D01*
X49510Y192530D01*
X49534Y192528D01*
X49557Y192519D01*
X49704Y192505D01*
X77156Y192505D01*
X77180Y192509D01*
X77205Y192506D01*
X77300Y192528D01*
X77397Y192544D01*
X77418Y192556D01*
X77442Y192562D01*
X77526Y192613D01*
X77612Y192659D01*
X77629Y192677D01*
X77650Y192690D01*
X77712Y192766D01*
X77779Y192837D01*
X77789Y192860D01*
X77805Y192879D01*
X77839Y192970D01*
X77880Y193060D01*
X77882Y193084D01*
X77891Y193107D01*
X77905Y193254D01*
X77905Y195612D01*
X78798Y196505D01*
X89062Y196505D01*
X89955Y195612D01*
X89955Y193254D01*
X89959Y193230D01*
X89956Y193205D01*
X89978Y193110D01*
X89994Y193013D01*
X90006Y192992D01*
X90012Y192968D01*
X90063Y192884D01*
X90109Y192798D01*
X90127Y192781D01*
X90140Y192760D01*
X90216Y192698D01*
X90287Y192631D01*
X90310Y192621D01*
X90329Y192605D01*
X90420Y192571D01*
X90510Y192530D01*
X90534Y192528D01*
X90557Y192519D01*
X90704Y192505D01*
X91066Y192505D01*
X91090Y192509D01*
X91115Y192506D01*
X91210Y192528D01*
X91307Y192544D01*
X91328Y192556D01*
X91352Y192562D01*
X91436Y192613D01*
X91522Y192659D01*
X91539Y192677D01*
X91560Y192690D01*
X91622Y192766D01*
X91689Y192837D01*
X91699Y192860D01*
X91715Y192879D01*
X91749Y192970D01*
X91790Y193060D01*
X91792Y193084D01*
X91801Y193107D01*
X91815Y193254D01*
X91815Y195342D01*
X92708Y196235D01*
X104972Y196235D01*
X105865Y195342D01*
X105865Y184061D01*
X105829Y184022D01*
X105809Y183978D01*
X105780Y183938D01*
X105759Y183867D01*
X105728Y183800D01*
X105723Y183751D01*
X105709Y183704D01*
X105711Y183631D01*
X105704Y183557D01*
X105715Y183509D01*
X105717Y183460D01*
X105743Y183391D01*
X105759Y183320D01*
X105785Y183278D01*
X105803Y183232D01*
X105849Y183175D01*
X105888Y183112D01*
X105926Y183081D01*
X105957Y183043D01*
X106020Y183004D01*
X106077Y182957D01*
X106123Y182940D01*
X106165Y182914D01*
X106181Y182910D01*
X109197Y179895D01*
X109197Y175536D01*
X109209Y175464D01*
X109211Y175390D01*
X109228Y175344D01*
X109236Y175295D01*
X109271Y175231D01*
X109297Y175162D01*
X109328Y175124D01*
X109351Y175080D01*
X109405Y175030D01*
X109452Y174973D01*
X109493Y174947D01*
X109529Y174913D01*
X109596Y174883D01*
X109659Y174844D01*
X109707Y174833D01*
X109752Y174812D01*
X109825Y174805D01*
X109896Y174788D01*
X109945Y174793D01*
X109995Y174788D01*
X110066Y174805D01*
G37*
G36*
X228610Y316231D02*
X228610Y316231D01*
X228707Y316240D01*
X228730Y316250D01*
X228755Y316254D01*
X228841Y316300D01*
X228929Y316341D01*
X228955Y316362D01*
X228970Y316369D01*
X228987Y316388D01*
X229044Y316434D01*
X231793Y319184D01*
X231872Y319294D01*
X231935Y319381D01*
X231935Y319382D01*
X231969Y319493D01*
X232006Y319615D01*
X232002Y319740D01*
X231998Y319859D01*
X231998Y319860D01*
X231956Y320000D01*
X230457Y323617D01*
X230457Y327963D01*
X232120Y331977D01*
X235193Y335050D01*
X239207Y336713D01*
X243553Y336713D01*
X247567Y335050D01*
X250437Y332180D01*
X250497Y332137D01*
X250550Y332087D01*
X250595Y332067D01*
X250635Y332038D01*
X250706Y332017D01*
X250773Y331986D01*
X250822Y331981D01*
X250869Y331967D01*
X250942Y331969D01*
X251015Y331962D01*
X251064Y331973D01*
X251113Y331975D01*
X251181Y332001D01*
X251253Y332017D01*
X251295Y332043D01*
X251341Y332061D01*
X251398Y332107D01*
X251460Y332146D01*
X251492Y332184D01*
X251530Y332215D01*
X251569Y332278D01*
X251615Y332335D01*
X251633Y332381D01*
X251659Y332423D01*
X251676Y332494D01*
X251702Y332563D01*
X251709Y332636D01*
X251714Y332660D01*
X251713Y332677D01*
X251716Y332710D01*
X251716Y344270D01*
X251704Y344343D01*
X251702Y344416D01*
X251684Y344462D01*
X251676Y344511D01*
X251642Y344576D01*
X251616Y344645D01*
X251585Y344683D01*
X251561Y344726D01*
X251508Y344776D01*
X251461Y344833D01*
X251419Y344859D01*
X251383Y344893D01*
X251316Y344923D01*
X251254Y344962D01*
X251206Y344973D01*
X251161Y344994D01*
X251088Y345001D01*
X251017Y345018D01*
X250968Y345013D01*
X250918Y345018D01*
X250847Y345001D01*
X250774Y344994D01*
X250729Y344974D01*
X250681Y344963D01*
X250618Y344924D01*
X250551Y344894D01*
X250494Y344847D01*
X250473Y344834D01*
X250463Y344821D01*
X250437Y344800D01*
X247567Y341930D01*
X243553Y340267D01*
X239207Y340267D01*
X235193Y341930D01*
X232120Y345003D01*
X230457Y349017D01*
X230457Y353363D01*
X232120Y357377D01*
X235193Y360450D01*
X238392Y361775D01*
X238393Y361775D01*
X238477Y361828D01*
X238600Y361904D01*
X238658Y361974D01*
X238755Y362092D01*
X238755Y362093D01*
X238805Y362225D01*
X238841Y362321D01*
X238841Y362322D01*
X238855Y362468D01*
X238855Y369404D01*
X238839Y369500D01*
X238830Y369597D01*
X238820Y369620D01*
X238816Y369645D01*
X238770Y369731D01*
X238729Y369819D01*
X238708Y369845D01*
X238701Y369860D01*
X238682Y369877D01*
X238636Y369934D01*
X233844Y374726D01*
X233764Y374783D01*
X233689Y374845D01*
X233666Y374853D01*
X233645Y374868D01*
X233552Y374896D01*
X233461Y374931D01*
X233428Y374934D01*
X233412Y374939D01*
X233387Y374938D01*
X233314Y374945D01*
X192854Y374945D01*
X192830Y374941D01*
X192805Y374944D01*
X192710Y374922D01*
X192613Y374906D01*
X192592Y374894D01*
X192568Y374888D01*
X192484Y374837D01*
X192398Y374791D01*
X192381Y374773D01*
X192360Y374760D01*
X192298Y374684D01*
X192231Y374613D01*
X192221Y374590D01*
X192205Y374571D01*
X192171Y374480D01*
X192130Y374390D01*
X192128Y374366D01*
X192119Y374343D01*
X192105Y374196D01*
X192105Y373648D01*
X192074Y373600D01*
X192017Y373520D01*
X192010Y373496D01*
X191997Y373476D01*
X191975Y373380D01*
X191946Y373286D01*
X191947Y373262D01*
X191942Y373238D01*
X191951Y373141D01*
X191954Y373043D01*
X191963Y373020D01*
X191965Y372995D01*
X192006Y372906D01*
X192040Y372814D01*
X192056Y372795D01*
X192066Y372773D01*
X192160Y372659D01*
X192613Y372205D01*
X192948Y371626D01*
X193121Y370979D01*
X193121Y368969D01*
X184980Y368969D01*
X184956Y368965D01*
X184932Y368968D01*
X184836Y368945D01*
X184739Y368929D01*
X184718Y368918D01*
X184694Y368912D01*
X184611Y368861D01*
X184524Y368814D01*
X184507Y368797D01*
X184487Y368784D01*
X184424Y368708D01*
X184357Y368636D01*
X184347Y368614D01*
X184332Y368595D01*
X184297Y368504D01*
X184256Y368414D01*
X184254Y368390D01*
X184245Y368367D01*
X184231Y368220D01*
X184231Y366720D01*
X184235Y366696D01*
X184232Y366672D01*
X184255Y366576D01*
X184271Y366479D01*
X184282Y366458D01*
X184288Y366434D01*
X184339Y366350D01*
X184386Y366264D01*
X184403Y366247D01*
X184416Y366227D01*
X184492Y366164D01*
X184564Y366097D01*
X184586Y366087D01*
X184605Y366072D01*
X184696Y366037D01*
X184786Y365996D01*
X184810Y365994D01*
X184833Y365985D01*
X184980Y365971D01*
X193121Y365971D01*
X193121Y363961D01*
X192999Y363508D01*
X192948Y363314D01*
X192613Y362735D01*
X192160Y362281D01*
X192145Y362261D01*
X192126Y362246D01*
X192074Y362163D01*
X192017Y362083D01*
X192010Y362060D01*
X191997Y362039D01*
X191975Y361944D01*
X191946Y361850D01*
X191947Y361825D01*
X191942Y361801D01*
X191951Y361704D01*
X191954Y361606D01*
X191963Y361583D01*
X191965Y361558D01*
X192006Y361469D01*
X192040Y361377D01*
X192056Y361358D01*
X192066Y361336D01*
X192105Y361289D01*
X192105Y353663D01*
X191441Y353000D01*
X191427Y352980D01*
X191408Y352964D01*
X191356Y352881D01*
X191299Y352801D01*
X191292Y352778D01*
X191279Y352757D01*
X191257Y352662D01*
X191228Y352568D01*
X191229Y352543D01*
X191223Y352520D01*
X191233Y352422D01*
X191236Y352324D01*
X191245Y352301D01*
X191247Y352277D01*
X191287Y352187D01*
X191322Y352096D01*
X191337Y352077D01*
X191347Y352054D01*
X191441Y351940D01*
X192105Y351277D01*
X192105Y343663D01*
X191441Y343000D01*
X191427Y342980D01*
X191408Y342964D01*
X191356Y342881D01*
X191299Y342801D01*
X191292Y342778D01*
X191279Y342757D01*
X191257Y342662D01*
X191228Y342568D01*
X191229Y342543D01*
X191223Y342520D01*
X191233Y342422D01*
X191236Y342324D01*
X191245Y342301D01*
X191247Y342277D01*
X191287Y342187D01*
X191322Y342096D01*
X191337Y342077D01*
X191347Y342054D01*
X191441Y341940D01*
X192105Y341277D01*
X192105Y333663D01*
X191441Y333000D01*
X191427Y332980D01*
X191408Y332964D01*
X191356Y332881D01*
X191299Y332801D01*
X191292Y332778D01*
X191279Y332757D01*
X191257Y332662D01*
X191228Y332568D01*
X191229Y332543D01*
X191223Y332520D01*
X191233Y332422D01*
X191236Y332324D01*
X191245Y332301D01*
X191247Y332277D01*
X191287Y332187D01*
X191322Y332096D01*
X191337Y332077D01*
X191347Y332054D01*
X191441Y331940D01*
X192105Y331277D01*
X192105Y323663D01*
X191441Y323000D01*
X191427Y322980D01*
X191408Y322964D01*
X191356Y322881D01*
X191299Y322801D01*
X191292Y322778D01*
X191279Y322757D01*
X191257Y322662D01*
X191228Y322568D01*
X191229Y322543D01*
X191223Y322520D01*
X191233Y322422D01*
X191236Y322324D01*
X191245Y322301D01*
X191247Y322277D01*
X191287Y322187D01*
X191322Y322096D01*
X191337Y322077D01*
X191347Y322054D01*
X191441Y321940D01*
X192105Y321277D01*
X192105Y320744D01*
X192109Y320720D01*
X192106Y320695D01*
X192128Y320600D01*
X192144Y320503D01*
X192156Y320482D01*
X192162Y320458D01*
X192213Y320374D01*
X192259Y320288D01*
X192277Y320271D01*
X192290Y320250D01*
X192366Y320188D01*
X192437Y320121D01*
X192460Y320111D01*
X192479Y320095D01*
X192570Y320061D01*
X192660Y320020D01*
X192684Y320018D01*
X192707Y320009D01*
X192854Y319995D01*
X196656Y319995D01*
X200216Y316434D01*
X200296Y316377D01*
X200371Y316315D01*
X200394Y316307D01*
X200415Y316292D01*
X200508Y316264D01*
X200599Y316229D01*
X200632Y316226D01*
X200648Y316221D01*
X200673Y316222D01*
X200746Y316215D01*
X228514Y316215D01*
X228610Y316231D01*
G37*
G36*
X52700Y161789D02*
X52700Y161789D01*
X52725Y161786D01*
X52820Y161808D01*
X52917Y161824D01*
X52938Y161836D01*
X52962Y161842D01*
X53046Y161893D01*
X53132Y161939D01*
X53149Y161957D01*
X53170Y161970D01*
X53232Y162046D01*
X53299Y162117D01*
X53309Y162140D01*
X53325Y162159D01*
X53359Y162250D01*
X53400Y162340D01*
X53402Y162364D01*
X53411Y162387D01*
X53425Y162534D01*
X53425Y162892D01*
X54318Y163785D01*
X60982Y163785D01*
X61440Y163326D01*
X61460Y163312D01*
X61476Y163293D01*
X61559Y163241D01*
X61639Y163184D01*
X61662Y163177D01*
X61683Y163164D01*
X61778Y163142D01*
X61872Y163113D01*
X61896Y163114D01*
X61920Y163108D01*
X62018Y163118D01*
X62116Y163121D01*
X62139Y163130D01*
X62163Y163132D01*
X62253Y163172D01*
X62344Y163207D01*
X62363Y163222D01*
X62386Y163232D01*
X62500Y163326D01*
X62958Y163785D01*
X63016Y163785D01*
X63040Y163789D01*
X63065Y163786D01*
X63160Y163808D01*
X63257Y163824D01*
X63278Y163836D01*
X63302Y163842D01*
X63386Y163893D01*
X63472Y163939D01*
X63489Y163957D01*
X63510Y163970D01*
X63572Y164046D01*
X63639Y164117D01*
X63649Y164140D01*
X63665Y164159D01*
X63699Y164250D01*
X63740Y164340D01*
X63742Y164364D01*
X63751Y164387D01*
X63765Y164534D01*
X63765Y186706D01*
X63761Y186730D01*
X63764Y186755D01*
X63742Y186850D01*
X63726Y186947D01*
X63714Y186968D01*
X63708Y186992D01*
X63657Y187076D01*
X63611Y187162D01*
X63593Y187179D01*
X63580Y187200D01*
X63504Y187262D01*
X63433Y187329D01*
X63410Y187339D01*
X63391Y187355D01*
X63300Y187389D01*
X63210Y187430D01*
X63186Y187432D01*
X63163Y187441D01*
X63016Y187455D01*
X59506Y187455D01*
X59410Y187439D01*
X59313Y187430D01*
X59290Y187420D01*
X59265Y187416D01*
X59179Y187370D01*
X59091Y187329D01*
X59065Y187308D01*
X59050Y187301D01*
X59033Y187282D01*
X58976Y187236D01*
X58696Y186955D01*
X56604Y186955D01*
X56324Y187236D01*
X56244Y187293D01*
X56169Y187355D01*
X56146Y187363D01*
X56125Y187378D01*
X56032Y187406D01*
X55941Y187441D01*
X55908Y187444D01*
X55892Y187449D01*
X55867Y187448D01*
X55794Y187455D01*
X49704Y187455D01*
X49680Y187451D01*
X49655Y187454D01*
X49560Y187432D01*
X49463Y187416D01*
X49442Y187404D01*
X49418Y187398D01*
X49334Y187347D01*
X49248Y187301D01*
X49231Y187283D01*
X49210Y187270D01*
X49148Y187194D01*
X49081Y187123D01*
X49071Y187100D01*
X49055Y187081D01*
X49021Y186990D01*
X48980Y186900D01*
X48978Y186876D01*
X48969Y186853D01*
X48955Y186706D01*
X48955Y184348D01*
X48062Y183455D01*
X37798Y183455D01*
X36905Y184348D01*
X36905Y187383D01*
X36893Y187455D01*
X36891Y187529D01*
X36874Y187575D01*
X36866Y187623D01*
X36831Y187688D01*
X36805Y187757D01*
X36774Y187795D01*
X36751Y187839D01*
X36697Y187889D01*
X36650Y187946D01*
X36608Y187972D01*
X36573Y188005D01*
X36506Y188036D01*
X36443Y188075D01*
X36395Y188086D01*
X36350Y188106D01*
X36277Y188114D01*
X36206Y188130D01*
X36157Y188125D01*
X36107Y188130D01*
X36036Y188114D01*
X35963Y188107D01*
X35918Y188086D01*
X35870Y188075D01*
X35807Y188036D01*
X35740Y188006D01*
X35684Y187960D01*
X35662Y187946D01*
X35652Y187933D01*
X35626Y187912D01*
X34084Y186371D01*
X34084Y186370D01*
X33494Y185780D01*
X33437Y185701D01*
X33375Y185626D01*
X33367Y185602D01*
X33352Y185582D01*
X33324Y185489D01*
X33289Y185398D01*
X33286Y185365D01*
X33281Y185349D01*
X33282Y185324D01*
X33275Y185251D01*
X33275Y162534D01*
X33279Y162510D01*
X33276Y162485D01*
X33298Y162390D01*
X33314Y162293D01*
X33326Y162272D01*
X33332Y162248D01*
X33383Y162164D01*
X33429Y162078D01*
X33447Y162061D01*
X33460Y162040D01*
X33536Y161978D01*
X33607Y161911D01*
X33630Y161901D01*
X33649Y161885D01*
X33740Y161851D01*
X33830Y161810D01*
X33854Y161808D01*
X33877Y161799D01*
X34024Y161785D01*
X52676Y161785D01*
X52700Y161789D01*
G37*
G36*
X12884Y73065D02*
X12884Y73065D01*
X12908Y73062D01*
X13004Y73085D01*
X13101Y73101D01*
X13122Y73112D01*
X13146Y73118D01*
X13230Y73169D01*
X13316Y73216D01*
X13333Y73233D01*
X13353Y73246D01*
X13416Y73322D01*
X13483Y73394D01*
X13493Y73416D01*
X13508Y73435D01*
X13543Y73527D01*
X13584Y73616D01*
X13586Y73640D01*
X13595Y73663D01*
X13609Y73810D01*
X13609Y84910D01*
X14906Y84705D01*
X16693Y84124D01*
X18367Y83271D01*
X19887Y82166D01*
X21216Y80837D01*
X22321Y79317D01*
X23174Y77643D01*
X23683Y76075D01*
X23686Y76071D01*
X23686Y76066D01*
X23742Y75963D01*
X23796Y75858D01*
X23799Y75855D01*
X23801Y75851D01*
X23887Y75771D01*
X23971Y75689D01*
X23976Y75687D01*
X23980Y75684D01*
X24086Y75635D01*
X24192Y75586D01*
X24197Y75585D01*
X24202Y75583D01*
X24319Y75571D01*
X24435Y75558D01*
X24440Y75559D01*
X24445Y75559D01*
X24559Y75586D01*
X24673Y75611D01*
X24677Y75613D01*
X24682Y75614D01*
X24782Y75676D01*
X24882Y75737D01*
X24885Y75740D01*
X24890Y75743D01*
X24964Y75834D01*
X25040Y75923D01*
X25041Y75928D01*
X25045Y75931D01*
X25086Y76041D01*
X25129Y76150D01*
X25129Y76155D01*
X25131Y76160D01*
X25145Y76307D01*
X25145Y156916D01*
X25133Y156988D01*
X25131Y157062D01*
X25114Y157108D01*
X25106Y157157D01*
X25071Y157221D01*
X25045Y157290D01*
X25014Y157328D01*
X24991Y157372D01*
X24937Y157422D01*
X24890Y157479D01*
X24848Y157505D01*
X24813Y157539D01*
X24746Y157569D01*
X24683Y157608D01*
X24635Y157619D01*
X24590Y157640D01*
X24517Y157647D01*
X24446Y157664D01*
X24397Y157659D01*
X24347Y157664D01*
X24276Y157647D01*
X24203Y157640D01*
X24158Y157620D01*
X24110Y157608D01*
X24047Y157570D01*
X23980Y157539D01*
X23924Y157493D01*
X23902Y157480D01*
X23892Y157467D01*
X23866Y157446D01*
X21870Y155449D01*
X21790Y155338D01*
X21728Y155251D01*
X21694Y155139D01*
X21657Y155018D01*
X21657Y155017D01*
X21661Y154879D01*
X21664Y154774D01*
X21665Y154774D01*
X21665Y154773D01*
X21707Y154633D01*
X23033Y151433D01*
X23033Y147087D01*
X21370Y143073D01*
X18297Y140000D01*
X14283Y138337D01*
X9937Y138337D01*
X5923Y140000D01*
X3962Y141961D01*
X3902Y142004D01*
X3848Y142054D01*
X3804Y142075D01*
X3763Y142103D01*
X3693Y142125D01*
X3626Y142155D01*
X3577Y142160D01*
X3530Y142174D01*
X3457Y142172D01*
X3383Y142179D01*
X3335Y142168D01*
X3286Y142166D01*
X3217Y142140D01*
X3146Y142124D01*
X3104Y142098D01*
X3058Y142080D01*
X3001Y142034D01*
X2938Y141995D01*
X2907Y141957D01*
X2869Y141926D01*
X2830Y141863D01*
X2783Y141807D01*
X2766Y141761D01*
X2740Y141719D01*
X2723Y141647D01*
X2697Y141578D01*
X2690Y141505D01*
X2684Y141481D01*
X2686Y141464D01*
X2683Y141431D01*
X2683Y131689D01*
X2695Y131616D01*
X2697Y131543D01*
X2714Y131497D01*
X2722Y131448D01*
X2757Y131383D01*
X2783Y131314D01*
X2814Y131276D01*
X2837Y131233D01*
X2891Y131182D01*
X2938Y131126D01*
X2980Y131100D01*
X3015Y131066D01*
X3082Y131035D01*
X3145Y130997D01*
X3193Y130985D01*
X3238Y130965D01*
X3311Y130958D01*
X3382Y130941D01*
X3431Y130946D01*
X3481Y130941D01*
X3552Y130958D01*
X3625Y130965D01*
X3670Y130985D01*
X3718Y130996D01*
X3781Y131035D01*
X3848Y131065D01*
X3904Y131112D01*
X3926Y131125D01*
X3936Y131138D01*
X3962Y131159D01*
X5923Y133120D01*
X9937Y134783D01*
X14283Y134783D01*
X18297Y133120D01*
X21370Y130047D01*
X23033Y126033D01*
X23033Y121687D01*
X21370Y117673D01*
X18297Y114600D01*
X14283Y112937D01*
X9937Y112937D01*
X5923Y114600D01*
X3962Y116561D01*
X3902Y116604D01*
X3848Y116654D01*
X3804Y116675D01*
X3763Y116703D01*
X3693Y116725D01*
X3626Y116755D01*
X3577Y116760D01*
X3530Y116774D01*
X3457Y116772D01*
X3383Y116779D01*
X3335Y116768D01*
X3286Y116766D01*
X3217Y116740D01*
X3146Y116724D01*
X3104Y116698D01*
X3058Y116680D01*
X3001Y116634D01*
X2938Y116595D01*
X2907Y116557D01*
X2869Y116526D01*
X2830Y116463D01*
X2783Y116407D01*
X2766Y116361D01*
X2740Y116319D01*
X2723Y116247D01*
X2697Y116178D01*
X2690Y116105D01*
X2684Y116081D01*
X2686Y116064D01*
X2683Y116031D01*
X2683Y106289D01*
X2685Y106277D01*
X2684Y106272D01*
X2688Y106255D01*
X2695Y106216D01*
X2697Y106143D01*
X2714Y106097D01*
X2722Y106048D01*
X2757Y105983D01*
X2783Y105914D01*
X2814Y105876D01*
X2837Y105833D01*
X2891Y105782D01*
X2938Y105726D01*
X2980Y105700D01*
X3015Y105666D01*
X3082Y105635D01*
X3145Y105597D01*
X3193Y105585D01*
X3238Y105565D01*
X3311Y105558D01*
X3382Y105541D01*
X3431Y105546D01*
X3481Y105541D01*
X3552Y105558D01*
X3625Y105565D01*
X3670Y105585D01*
X3718Y105596D01*
X3781Y105635D01*
X3848Y105665D01*
X3904Y105712D01*
X3926Y105725D01*
X3936Y105738D01*
X3962Y105759D01*
X5923Y107720D01*
X9937Y109383D01*
X14283Y109383D01*
X18297Y107720D01*
X21370Y104647D01*
X23033Y100633D01*
X23033Y96287D01*
X21370Y92273D01*
X18297Y89200D01*
X14283Y87537D01*
X9937Y87537D01*
X5923Y89200D01*
X3962Y91161D01*
X3902Y91204D01*
X3848Y91254D01*
X3804Y91275D01*
X3763Y91303D01*
X3693Y91325D01*
X3626Y91355D01*
X3577Y91360D01*
X3530Y91374D01*
X3457Y91372D01*
X3383Y91379D01*
X3335Y91368D01*
X3286Y91366D01*
X3217Y91340D01*
X3146Y91324D01*
X3104Y91298D01*
X3058Y91280D01*
X3001Y91234D01*
X2938Y91195D01*
X2907Y91157D01*
X2869Y91126D01*
X2830Y91063D01*
X2783Y91007D01*
X2766Y90961D01*
X2740Y90919D01*
X2723Y90847D01*
X2697Y90778D01*
X2690Y90705D01*
X2684Y90681D01*
X2686Y90664D01*
X2683Y90631D01*
X2683Y82325D01*
X2686Y82309D01*
X2684Y82296D01*
X2695Y82251D01*
X2697Y82180D01*
X2714Y82133D01*
X2722Y82085D01*
X2757Y82020D01*
X2783Y81951D01*
X2814Y81913D01*
X2837Y81870D01*
X2891Y81819D01*
X2938Y81762D01*
X2980Y81736D01*
X3015Y81703D01*
X3082Y81672D01*
X3145Y81633D01*
X3193Y81622D01*
X3238Y81602D01*
X3311Y81595D01*
X3382Y81578D01*
X3431Y81583D01*
X3481Y81578D01*
X3552Y81594D01*
X3625Y81602D01*
X3670Y81622D01*
X3718Y81633D01*
X3781Y81672D01*
X3848Y81702D01*
X3904Y81749D01*
X3905Y81749D01*
X3907Y81750D01*
X3908Y81751D01*
X3926Y81762D01*
X3936Y81775D01*
X3962Y81796D01*
X4332Y82166D01*
X5853Y83271D01*
X7527Y84124D01*
X9314Y84705D01*
X10611Y84910D01*
X10611Y73810D01*
X10615Y73786D01*
X10612Y73762D01*
X10635Y73666D01*
X10650Y73569D01*
X10662Y73548D01*
X10668Y73524D01*
X10719Y73441D01*
X10765Y73354D01*
X10783Y73337D01*
X10796Y73317D01*
X10872Y73254D01*
X10944Y73187D01*
X10966Y73177D01*
X10985Y73162D01*
X11076Y73127D01*
X11166Y73087D01*
X11190Y73084D01*
X11213Y73075D01*
X11360Y73061D01*
X12860Y73061D01*
X12884Y73065D01*
G37*
G36*
X74940Y153671D02*
X74940Y153671D01*
X75037Y153680D01*
X75060Y153690D01*
X75085Y153694D01*
X75171Y153740D01*
X75259Y153781D01*
X75285Y153802D01*
X75300Y153809D01*
X75317Y153828D01*
X75374Y153874D01*
X75996Y154496D01*
X76040Y154557D01*
X76085Y154605D01*
X76094Y154626D01*
X76115Y154651D01*
X76123Y154674D01*
X76138Y154695D01*
X76164Y154780D01*
X76185Y154828D01*
X76187Y154843D01*
X76201Y154879D01*
X76204Y154912D01*
X76209Y154928D01*
X76208Y154953D01*
X76215Y155026D01*
X76215Y161066D01*
X77914Y162764D01*
X80310Y165160D01*
X80352Y165220D01*
X80403Y165274D01*
X80423Y165318D01*
X80452Y165359D01*
X80473Y165429D01*
X80504Y165496D01*
X80508Y165545D01*
X80523Y165592D01*
X80520Y165665D01*
X80528Y165739D01*
X80516Y165787D01*
X80515Y165836D01*
X80489Y165905D01*
X80472Y165976D01*
X80446Y166018D01*
X80429Y166064D01*
X80382Y166121D01*
X80344Y166184D01*
X80306Y166215D01*
X80274Y166253D01*
X80212Y166292D01*
X80155Y166339D01*
X80109Y166356D01*
X80067Y166382D01*
X79996Y166399D01*
X79927Y166425D01*
X79854Y166432D01*
X79830Y166438D01*
X79813Y166436D01*
X79780Y166439D01*
X79096Y166439D01*
X78449Y166612D01*
X77870Y166947D01*
X77397Y167420D01*
X77062Y167999D01*
X76889Y168646D01*
X76889Y172481D01*
X83180Y172481D01*
X83204Y172485D01*
X83228Y172482D01*
X83324Y172505D01*
X83421Y172521D01*
X83442Y172532D01*
X83466Y172538D01*
X83549Y172589D01*
X83636Y172636D01*
X83653Y172653D01*
X83673Y172666D01*
X83736Y172742D01*
X83803Y172814D01*
X83813Y172836D01*
X83828Y172855D01*
X83863Y172946D01*
X83904Y173036D01*
X83906Y173060D01*
X83915Y173083D01*
X83929Y173230D01*
X83929Y173981D01*
X83931Y173981D01*
X83931Y173230D01*
X83935Y173206D01*
X83932Y173182D01*
X83955Y173086D01*
X83971Y172989D01*
X83982Y172968D01*
X83988Y172944D01*
X84039Y172860D01*
X84086Y172774D01*
X84103Y172757D01*
X84116Y172737D01*
X84192Y172674D01*
X84264Y172607D01*
X84286Y172597D01*
X84305Y172582D01*
X84396Y172547D01*
X84486Y172506D01*
X84510Y172504D01*
X84533Y172495D01*
X84680Y172481D01*
X90971Y172481D01*
X90971Y168646D01*
X90950Y168568D01*
X90940Y168472D01*
X90926Y168325D01*
X90946Y168240D01*
X90981Y168088D01*
X91046Y167983D01*
X91110Y167880D01*
X91258Y167758D01*
X91298Y167725D01*
X91299Y167725D01*
X91460Y167664D01*
X91527Y167639D01*
X91674Y167625D01*
X102784Y167625D01*
X102880Y167641D01*
X102977Y167650D01*
X103000Y167660D01*
X103025Y167664D01*
X103111Y167710D01*
X103199Y167751D01*
X103225Y167772D01*
X103240Y167779D01*
X103257Y167798D01*
X103314Y167844D01*
X106934Y171464D01*
X106977Y171524D01*
X107027Y171578D01*
X107047Y171622D01*
X107076Y171663D01*
X107097Y171733D01*
X107128Y171800D01*
X107132Y171849D01*
X107147Y171896D01*
X107144Y171969D01*
X107152Y172043D01*
X107140Y172091D01*
X107139Y172140D01*
X107113Y172209D01*
X107096Y172280D01*
X107070Y172322D01*
X107053Y172368D01*
X107006Y172425D01*
X106968Y172488D01*
X106930Y172519D01*
X106898Y172557D01*
X106836Y172596D01*
X106779Y172643D01*
X106733Y172660D01*
X106691Y172686D01*
X106620Y172703D01*
X106551Y172729D01*
X106478Y172736D01*
X106454Y172742D01*
X106437Y172740D01*
X106404Y172743D01*
X102045Y172743D01*
X99083Y175705D01*
X99083Y178976D01*
X99067Y179072D01*
X99058Y179169D01*
X99048Y179192D01*
X99044Y179217D01*
X98998Y179303D01*
X98957Y179391D01*
X98936Y179417D01*
X98929Y179432D01*
X98910Y179449D01*
X98876Y179490D01*
X98876Y179492D01*
X98875Y179492D01*
X98864Y179506D01*
X96535Y181834D01*
X96535Y182436D01*
X96531Y182460D01*
X96534Y182485D01*
X96512Y182580D01*
X96496Y182677D01*
X96484Y182698D01*
X96478Y182722D01*
X96427Y182806D01*
X96381Y182892D01*
X96363Y182909D01*
X96350Y182930D01*
X96274Y182992D01*
X96203Y183059D01*
X96180Y183069D01*
X96161Y183085D01*
X96070Y183119D01*
X95980Y183160D01*
X95956Y183162D01*
X95933Y183171D01*
X95786Y183185D01*
X92708Y183185D01*
X91815Y184078D01*
X91815Y186706D01*
X91811Y186730D01*
X91814Y186755D01*
X91792Y186850D01*
X91776Y186947D01*
X91764Y186968D01*
X91758Y186992D01*
X91707Y187076D01*
X91661Y187162D01*
X91643Y187179D01*
X91630Y187200D01*
X91554Y187262D01*
X91483Y187329D01*
X91460Y187339D01*
X91441Y187355D01*
X91350Y187389D01*
X91260Y187430D01*
X91236Y187432D01*
X91213Y187441D01*
X91066Y187455D01*
X90704Y187455D01*
X90680Y187451D01*
X90655Y187454D01*
X90560Y187432D01*
X90463Y187416D01*
X90442Y187404D01*
X90418Y187398D01*
X90334Y187347D01*
X90248Y187301D01*
X90231Y187283D01*
X90210Y187270D01*
X90148Y187194D01*
X90081Y187123D01*
X90071Y187100D01*
X90055Y187081D01*
X90021Y186990D01*
X89980Y186900D01*
X89978Y186876D01*
X89969Y186853D01*
X89955Y186706D01*
X89955Y184348D01*
X89062Y183455D01*
X78798Y183455D01*
X77905Y184348D01*
X77905Y186706D01*
X77901Y186730D01*
X77904Y186755D01*
X77882Y186850D01*
X77866Y186947D01*
X77854Y186968D01*
X77848Y186992D01*
X77797Y187076D01*
X77751Y187162D01*
X77733Y187179D01*
X77720Y187200D01*
X77644Y187262D01*
X77573Y187329D01*
X77550Y187339D01*
X77531Y187355D01*
X77440Y187389D01*
X77350Y187430D01*
X77326Y187432D01*
X77303Y187441D01*
X77156Y187455D01*
X69564Y187455D01*
X69540Y187451D01*
X69515Y187454D01*
X69420Y187432D01*
X69323Y187416D01*
X69302Y187404D01*
X69278Y187398D01*
X69194Y187347D01*
X69108Y187301D01*
X69091Y187283D01*
X69070Y187270D01*
X69008Y187194D01*
X68941Y187123D01*
X68931Y187100D01*
X68915Y187081D01*
X68881Y186990D01*
X68840Y186900D01*
X68838Y186876D01*
X68829Y186853D01*
X68815Y186706D01*
X68815Y164534D01*
X68819Y164510D01*
X68816Y164485D01*
X68838Y164390D01*
X68854Y164293D01*
X68866Y164272D01*
X68872Y164248D01*
X68923Y164164D01*
X68969Y164078D01*
X68987Y164061D01*
X69000Y164040D01*
X69076Y163978D01*
X69147Y163911D01*
X69170Y163901D01*
X69189Y163885D01*
X69280Y163851D01*
X69370Y163810D01*
X69394Y163808D01*
X69417Y163799D01*
X69564Y163785D01*
X69622Y163785D01*
X70515Y162892D01*
X70515Y155628D01*
X69820Y154934D01*
X69777Y154874D01*
X69727Y154820D01*
X69707Y154776D01*
X69678Y154735D01*
X69657Y154665D01*
X69626Y154598D01*
X69621Y154549D01*
X69607Y154502D01*
X69609Y154429D01*
X69602Y154355D01*
X69613Y154307D01*
X69615Y154258D01*
X69641Y154189D01*
X69657Y154118D01*
X69683Y154076D01*
X69701Y154030D01*
X69747Y153973D01*
X69786Y153910D01*
X69824Y153879D01*
X69855Y153841D01*
X69918Y153802D01*
X69975Y153755D01*
X70021Y153738D01*
X70063Y153712D01*
X70134Y153695D01*
X70203Y153669D01*
X70276Y153662D01*
X70300Y153656D01*
X70317Y153658D01*
X70350Y153655D01*
X74844Y153655D01*
X74940Y153671D01*
G37*
%LPC*%
G36*
X11875Y321333D02*
X11875Y321333D01*
X8913Y324295D01*
X8913Y328485D01*
X10686Y330258D01*
X10701Y330278D01*
X10720Y330293D01*
X10771Y330376D01*
X10829Y330456D01*
X10836Y330480D01*
X10849Y330500D01*
X10871Y330596D01*
X10899Y330690D01*
X10899Y330714D01*
X10904Y330738D01*
X10895Y330835D01*
X10892Y330933D01*
X10883Y330956D01*
X10881Y330981D01*
X10840Y331070D01*
X10806Y331162D01*
X10790Y331181D01*
X10780Y331203D01*
X10686Y331317D01*
X9665Y332338D01*
X9665Y339002D01*
X10124Y339460D01*
X10138Y339480D01*
X10157Y339496D01*
X10209Y339579D01*
X10266Y339659D01*
X10273Y339682D01*
X10286Y339703D01*
X10308Y339798D01*
X10337Y339892D01*
X10336Y339917D01*
X10342Y339940D01*
X10332Y340038D01*
X10329Y340136D01*
X10320Y340159D01*
X10318Y340183D01*
X10278Y340273D01*
X10243Y340364D01*
X10228Y340383D01*
X10218Y340406D01*
X10124Y340520D01*
X9665Y340978D01*
X9665Y347642D01*
X10558Y348535D01*
X10836Y348535D01*
X10860Y348539D01*
X10885Y348536D01*
X10980Y348558D01*
X11077Y348574D01*
X11098Y348586D01*
X11122Y348592D01*
X11206Y348643D01*
X11292Y348689D01*
X11309Y348707D01*
X11330Y348720D01*
X11392Y348796D01*
X11459Y348867D01*
X11469Y348890D01*
X11485Y348909D01*
X11519Y349000D01*
X11560Y349090D01*
X11562Y349114D01*
X11571Y349137D01*
X11585Y349284D01*
X11585Y360536D01*
X11581Y360560D01*
X11584Y360585D01*
X11562Y360680D01*
X11546Y360777D01*
X11534Y360798D01*
X11528Y360822D01*
X11477Y360906D01*
X11431Y360992D01*
X11413Y361009D01*
X11400Y361030D01*
X11324Y361092D01*
X11253Y361159D01*
X11230Y361169D01*
X11211Y361185D01*
X11120Y361219D01*
X11030Y361260D01*
X11006Y361262D01*
X10983Y361271D01*
X10836Y361285D01*
X9357Y361285D01*
X7585Y363057D01*
X7585Y372563D01*
X9357Y374335D01*
X18863Y374335D01*
X20635Y372563D01*
X20635Y363057D01*
X18863Y361285D01*
X17384Y361285D01*
X17360Y361281D01*
X17335Y361284D01*
X17240Y361262D01*
X17143Y361246D01*
X17122Y361234D01*
X17098Y361228D01*
X17014Y361177D01*
X16928Y361131D01*
X16911Y361113D01*
X16890Y361100D01*
X16828Y361024D01*
X16761Y360953D01*
X16751Y360930D01*
X16735Y360911D01*
X16701Y360820D01*
X16660Y360730D01*
X16658Y360706D01*
X16649Y360683D01*
X16635Y360536D01*
X16635Y349284D01*
X16639Y349260D01*
X16636Y349235D01*
X16658Y349140D01*
X16674Y349043D01*
X16686Y349022D01*
X16692Y348998D01*
X16743Y348914D01*
X16789Y348828D01*
X16807Y348811D01*
X16820Y348790D01*
X16896Y348728D01*
X16967Y348661D01*
X16990Y348651D01*
X17009Y348635D01*
X17100Y348601D01*
X17190Y348560D01*
X17214Y348558D01*
X17237Y348549D01*
X17384Y348535D01*
X17822Y348535D01*
X18715Y347642D01*
X18715Y340978D01*
X18256Y340520D01*
X18242Y340500D01*
X18223Y340484D01*
X18171Y340401D01*
X18114Y340321D01*
X18107Y340298D01*
X18094Y340277D01*
X18072Y340182D01*
X18043Y340088D01*
X18044Y340064D01*
X18038Y340040D01*
X18048Y339942D01*
X18051Y339844D01*
X18060Y339821D01*
X18062Y339797D01*
X18102Y339707D01*
X18137Y339616D01*
X18152Y339597D01*
X18162Y339574D01*
X18256Y339460D01*
X18715Y339002D01*
X18715Y332338D01*
X17811Y331435D01*
X17802Y331433D01*
X17729Y331431D01*
X17683Y331414D01*
X17634Y331406D01*
X17569Y331371D01*
X17501Y331345D01*
X17462Y331314D01*
X17419Y331291D01*
X17369Y331237D01*
X17312Y331190D01*
X17286Y331148D01*
X17252Y331113D01*
X17222Y331046D01*
X17183Y330983D01*
X17172Y330935D01*
X17151Y330890D01*
X17144Y330817D01*
X17127Y330746D01*
X17132Y330697D01*
X17127Y330647D01*
X17144Y330576D01*
X17151Y330503D01*
X17171Y330458D01*
X17182Y330410D01*
X17221Y330347D01*
X17251Y330280D01*
X17298Y330224D01*
X17311Y330202D01*
X17324Y330192D01*
X17345Y330166D01*
X19027Y328485D01*
X19027Y324295D01*
X16065Y321333D01*
X11875Y321333D01*
G37*
%LPD*%
%LPC*%
G36*
X178828Y148975D02*
X178828Y148975D01*
X177935Y149868D01*
X177935Y165132D01*
X178828Y166025D01*
X179646Y166025D01*
X179670Y166029D01*
X179695Y166026D01*
X179790Y166048D01*
X179887Y166064D01*
X179908Y166076D01*
X179932Y166082D01*
X180016Y166133D01*
X180102Y166179D01*
X180119Y166197D01*
X180140Y166210D01*
X180202Y166286D01*
X180269Y166357D01*
X180279Y166380D01*
X180295Y166399D01*
X180329Y166490D01*
X180370Y166580D01*
X180372Y166604D01*
X180381Y166627D01*
X180395Y166774D01*
X180395Y169013D01*
X180379Y169109D01*
X180370Y169206D01*
X180363Y169221D01*
X180363Y173545D01*
X183325Y176507D01*
X187515Y176507D01*
X190477Y173545D01*
X190477Y169355D01*
X188744Y167623D01*
X188687Y167543D01*
X188625Y167468D01*
X188617Y167445D01*
X188602Y167425D01*
X188574Y167331D01*
X188539Y167240D01*
X188536Y167207D01*
X188531Y167191D01*
X188532Y167166D01*
X188525Y167093D01*
X188525Y166774D01*
X188529Y166750D01*
X188526Y166725D01*
X188548Y166630D01*
X188564Y166533D01*
X188576Y166512D01*
X188582Y166488D01*
X188633Y166404D01*
X188679Y166318D01*
X188697Y166301D01*
X188710Y166280D01*
X188786Y166218D01*
X188857Y166151D01*
X188880Y166141D01*
X188899Y166125D01*
X188990Y166091D01*
X189080Y166050D01*
X189104Y166048D01*
X189127Y166039D01*
X189274Y166025D01*
X190092Y166025D01*
X190985Y165132D01*
X190985Y149868D01*
X190092Y148975D01*
X178828Y148975D01*
G37*
%LPD*%
G36*
X3552Y54758D02*
X3552Y54758D01*
X3625Y54765D01*
X3670Y54785D01*
X3718Y54796D01*
X3781Y54835D01*
X3848Y54865D01*
X3904Y54912D01*
X3926Y54925D01*
X3936Y54938D01*
X3962Y54959D01*
X5923Y56920D01*
X9937Y58583D01*
X14283Y58583D01*
X15943Y57895D01*
X16058Y57868D01*
X16180Y57840D01*
X16312Y57853D01*
X16423Y57863D01*
X16423Y57864D01*
X16538Y57916D01*
X16645Y57964D01*
X16646Y57965D01*
X16759Y58058D01*
X24926Y66224D01*
X24983Y66304D01*
X25045Y66379D01*
X25053Y66402D01*
X25068Y66423D01*
X25096Y66516D01*
X25131Y66607D01*
X25134Y66640D01*
X25139Y66656D01*
X25138Y66681D01*
X25145Y66754D01*
X25145Y69813D01*
X25144Y69818D01*
X25145Y69823D01*
X25125Y69938D01*
X25106Y70054D01*
X25103Y70058D01*
X25102Y70063D01*
X25046Y70166D01*
X24991Y70269D01*
X24987Y70273D01*
X24985Y70277D01*
X24898Y70356D01*
X24813Y70436D01*
X24808Y70438D01*
X24804Y70442D01*
X24696Y70489D01*
X24590Y70537D01*
X24585Y70537D01*
X24581Y70539D01*
X24465Y70549D01*
X24347Y70561D01*
X24343Y70560D01*
X24338Y70560D01*
X24225Y70533D01*
X24110Y70506D01*
X24106Y70503D01*
X24101Y70502D01*
X24003Y70439D01*
X23902Y70377D01*
X23899Y70373D01*
X23895Y70371D01*
X23822Y70279D01*
X23748Y70189D01*
X23746Y70184D01*
X23743Y70180D01*
X23683Y70045D01*
X23174Y68477D01*
X22321Y66803D01*
X21216Y65283D01*
X19887Y63954D01*
X18367Y62849D01*
X16693Y61996D01*
X14906Y61415D01*
X13609Y61210D01*
X13609Y72310D01*
X13605Y72334D01*
X13608Y72358D01*
X13585Y72454D01*
X13569Y72551D01*
X13558Y72572D01*
X13552Y72596D01*
X13501Y72679D01*
X13454Y72766D01*
X13437Y72783D01*
X13424Y72803D01*
X13348Y72866D01*
X13276Y72933D01*
X13254Y72943D01*
X13235Y72958D01*
X13144Y72993D01*
X13054Y73033D01*
X13030Y73036D01*
X13007Y73045D01*
X12860Y73059D01*
X11360Y73059D01*
X11336Y73055D01*
X11311Y73058D01*
X11216Y73035D01*
X11119Y73019D01*
X11098Y73008D01*
X11074Y73002D01*
X10990Y72951D01*
X10904Y72904D01*
X10887Y72887D01*
X10866Y72874D01*
X10804Y72798D01*
X10737Y72726D01*
X10727Y72704D01*
X10712Y72685D01*
X10677Y72593D01*
X10636Y72504D01*
X10634Y72480D01*
X10625Y72457D01*
X10611Y72310D01*
X10611Y61210D01*
X9314Y61415D01*
X7527Y61996D01*
X5853Y62849D01*
X4332Y63954D01*
X3962Y64324D01*
X3902Y64367D01*
X3848Y64417D01*
X3804Y64438D01*
X3763Y64466D01*
X3693Y64488D01*
X3626Y64518D01*
X3577Y64523D01*
X3530Y64537D01*
X3457Y64535D01*
X3383Y64542D01*
X3335Y64531D01*
X3286Y64529D01*
X3217Y64504D01*
X3146Y64487D01*
X3104Y64461D01*
X3058Y64444D01*
X3001Y64397D01*
X2938Y64358D01*
X2907Y64320D01*
X2869Y64289D01*
X2830Y64227D01*
X2783Y64170D01*
X2766Y64124D01*
X2740Y64082D01*
X2723Y64010D01*
X2697Y63941D01*
X2690Y63868D01*
X2684Y63844D01*
X2686Y63828D01*
X2683Y63795D01*
X2683Y55489D01*
X2695Y55416D01*
X2697Y55343D01*
X2714Y55297D01*
X2722Y55248D01*
X2757Y55183D01*
X2783Y55114D01*
X2814Y55076D01*
X2837Y55033D01*
X2891Y54982D01*
X2938Y54926D01*
X2980Y54900D01*
X3015Y54866D01*
X3082Y54835D01*
X3145Y54797D01*
X3193Y54785D01*
X3238Y54765D01*
X3311Y54758D01*
X3382Y54741D01*
X3431Y54746D01*
X3481Y54741D01*
X3552Y54758D01*
G37*
%LPC*%
G36*
X229530Y22489D02*
X229530Y22489D01*
X229735Y23786D01*
X230316Y25573D01*
X231169Y27247D01*
X232274Y28767D01*
X233603Y30096D01*
X235123Y31201D01*
X236797Y32054D01*
X238584Y32635D01*
X239881Y32840D01*
X239881Y22489D01*
X229530Y22489D01*
G37*
%LPD*%
%LPC*%
G36*
X238584Y9345D02*
X238584Y9345D01*
X236797Y9926D01*
X235123Y10779D01*
X233603Y11884D01*
X232274Y13213D01*
X231169Y14733D01*
X230316Y16407D01*
X229735Y18194D01*
X229530Y19491D01*
X239881Y19491D01*
X239881Y9140D01*
X238584Y9345D01*
G37*
%LPD*%
%LPC*%
G36*
X84759Y26999D02*
X84759Y26999D01*
X84759Y39486D01*
X85690Y39301D01*
X87206Y38673D01*
X88570Y37761D01*
X89731Y36600D01*
X90643Y35236D01*
X91271Y33720D01*
X91591Y32111D01*
X91591Y26999D01*
X84759Y26999D01*
G37*
%LPD*%
%LPC*%
G36*
X171159Y26999D02*
X171159Y26999D01*
X171159Y39486D01*
X172090Y39301D01*
X173606Y38673D01*
X174970Y37761D01*
X176131Y36600D01*
X177043Y35236D01*
X177671Y33720D01*
X177991Y32111D01*
X177991Y26999D01*
X171159Y26999D01*
G37*
%LPD*%
%LPC*%
G36*
X171159Y68799D02*
X171159Y68799D01*
X171159Y81286D01*
X172090Y81101D01*
X173606Y80473D01*
X174970Y79561D01*
X176131Y78400D01*
X177043Y77036D01*
X177671Y75520D01*
X177991Y73911D01*
X177991Y68799D01*
X171159Y68799D01*
G37*
%LPD*%
%LPC*%
G36*
X171159Y65801D02*
X171159Y65801D01*
X177991Y65801D01*
X177991Y60689D01*
X177671Y59080D01*
X177043Y57564D01*
X176857Y57287D01*
X176357Y56538D01*
X176357Y56537D01*
X176131Y56200D01*
X174970Y55039D01*
X173606Y54127D01*
X172090Y53499D01*
X171159Y53314D01*
X171159Y65801D01*
G37*
%LPD*%
%LPC*%
G36*
X84759Y24001D02*
X84759Y24001D01*
X91591Y24001D01*
X91591Y18889D01*
X91271Y17280D01*
X90643Y15764D01*
X90352Y15329D01*
X89851Y14580D01*
X89851Y14579D01*
X89731Y14400D01*
X88570Y13239D01*
X87206Y12327D01*
X85690Y11699D01*
X84759Y11514D01*
X84759Y24001D01*
G37*
%LPD*%
%LPC*%
G36*
X171159Y24001D02*
X171159Y24001D01*
X177991Y24001D01*
X177991Y18889D01*
X177671Y17280D01*
X177043Y15764D01*
X176752Y15329D01*
X176251Y14580D01*
X176251Y14579D01*
X176131Y14400D01*
X174970Y13239D01*
X173606Y12327D01*
X172090Y11699D01*
X171159Y11514D01*
X171159Y24001D01*
G37*
%LPD*%
%LPC*%
G36*
X74929Y26999D02*
X74929Y26999D01*
X74929Y32111D01*
X75249Y33720D01*
X75877Y35236D01*
X76037Y35475D01*
X76537Y36224D01*
X76538Y36224D01*
X76789Y36600D01*
X77950Y37761D01*
X79314Y38673D01*
X80830Y39301D01*
X81761Y39486D01*
X81761Y26999D01*
X74929Y26999D01*
G37*
%LPD*%
%LPC*%
G36*
X161329Y26999D02*
X161329Y26999D01*
X161329Y32111D01*
X161649Y33720D01*
X162277Y35236D01*
X162437Y35475D01*
X162937Y36224D01*
X162938Y36224D01*
X163189Y36600D01*
X164350Y37761D01*
X165714Y38673D01*
X167230Y39301D01*
X168161Y39486D01*
X168161Y26999D01*
X161329Y26999D01*
G37*
%LPD*%
%LPC*%
G36*
X74929Y68799D02*
X74929Y68799D01*
X74929Y73911D01*
X75249Y75520D01*
X75877Y77036D01*
X76789Y78400D01*
X77950Y79561D01*
X79314Y80473D01*
X80830Y81101D01*
X81761Y81286D01*
X81761Y68799D01*
X74929Y68799D01*
G37*
%LPD*%
%LPC*%
G36*
X80830Y11699D02*
X80830Y11699D01*
X79314Y12327D01*
X77950Y13239D01*
X76789Y14400D01*
X75877Y15764D01*
X75249Y17280D01*
X74929Y18889D01*
X74929Y24001D01*
X81761Y24001D01*
X81761Y11514D01*
X80830Y11699D01*
G37*
%LPD*%
%LPC*%
G36*
X167230Y11699D02*
X167230Y11699D01*
X165714Y12327D01*
X164350Y13239D01*
X163189Y14400D01*
X162277Y15764D01*
X161649Y17280D01*
X161329Y18889D01*
X161329Y24001D01*
X168161Y24001D01*
X168161Y11514D01*
X167230Y11699D01*
G37*
%LPD*%
%LPC*%
G36*
X80830Y53499D02*
X80830Y53499D01*
X79314Y54127D01*
X77950Y55039D01*
X76789Y56200D01*
X75877Y57564D01*
X75249Y59080D01*
X74929Y60689D01*
X74929Y65801D01*
X81761Y65801D01*
X81761Y53314D01*
X80830Y53499D01*
G37*
%LPD*%
%LPC*%
G36*
X107169Y113599D02*
X107169Y113599D01*
X107169Y116310D01*
X107427Y117271D01*
X107924Y118132D01*
X108628Y118836D01*
X109489Y119333D01*
X110450Y119591D01*
X114411Y119591D01*
X114411Y113599D01*
X107169Y113599D01*
G37*
%LPD*%
%LPC*%
G36*
X117409Y104609D02*
X117409Y104609D01*
X117409Y110601D01*
X124651Y110601D01*
X124651Y107890D01*
X124393Y106929D01*
X123896Y106068D01*
X123192Y105364D01*
X122331Y104867D01*
X121370Y104609D01*
X117409Y104609D01*
G37*
%LPD*%
%LPC*%
G36*
X110450Y104609D02*
X110450Y104609D01*
X109489Y104867D01*
X108628Y105364D01*
X107924Y106068D01*
X107427Y106929D01*
X107169Y107890D01*
X107169Y110601D01*
X114411Y110601D01*
X114411Y104609D01*
X110450Y104609D01*
G37*
%LPD*%
%LPC*%
G36*
X117339Y191209D02*
X117339Y191209D01*
X117339Y197251D01*
X121674Y197251D01*
X122321Y197078D01*
X122900Y196743D01*
X123373Y196270D01*
X123708Y195691D01*
X123881Y195044D01*
X123881Y191209D01*
X117339Y191209D01*
G37*
%LPD*%
%LPC*%
G36*
X136259Y191209D02*
X136259Y191209D01*
X136259Y197251D01*
X140594Y197251D01*
X141241Y197078D01*
X141820Y196743D01*
X142293Y196270D01*
X142628Y195691D01*
X142801Y195044D01*
X142801Y191209D01*
X136259Y191209D01*
G37*
%LPD*%
%LPC*%
G36*
X81959Y97499D02*
X81959Y97499D01*
X81959Y104041D01*
X85794Y104041D01*
X86441Y103868D01*
X87020Y103533D01*
X87493Y103060D01*
X87828Y102481D01*
X88001Y101834D01*
X88001Y97499D01*
X81959Y97499D01*
G37*
%LPD*%
%LPC*%
G36*
X157459Y157499D02*
X157459Y157499D01*
X157459Y164041D01*
X161294Y164041D01*
X161941Y163868D01*
X162520Y163533D01*
X162993Y163060D01*
X163328Y162481D01*
X163501Y161834D01*
X163501Y157499D01*
X157459Y157499D01*
G37*
%LPD*%
%LPC*%
G36*
X81959Y94501D02*
X81959Y94501D01*
X88001Y94501D01*
X88001Y90166D01*
X87828Y89519D01*
X87493Y88940D01*
X87020Y88467D01*
X86441Y88132D01*
X85794Y87959D01*
X81959Y87959D01*
X81959Y94501D01*
G37*
%LPD*%
%LPC*%
G36*
X157459Y154501D02*
X157459Y154501D01*
X163501Y154501D01*
X163501Y150166D01*
X163328Y149519D01*
X162993Y148940D01*
X162520Y148467D01*
X161941Y148132D01*
X161294Y147959D01*
X157459Y147959D01*
X157459Y154501D01*
G37*
%LPD*%
%LPC*%
G36*
X107799Y191209D02*
X107799Y191209D01*
X107799Y195044D01*
X107864Y195287D01*
X107972Y195691D01*
X108307Y196270D01*
X108780Y196743D01*
X109359Y197078D01*
X110006Y197251D01*
X114341Y197251D01*
X114341Y191209D01*
X107799Y191209D01*
G37*
%LPD*%
%LPC*%
G36*
X126719Y191209D02*
X126719Y191209D01*
X126719Y195044D01*
X126784Y195287D01*
X126892Y195691D01*
X127227Y196270D01*
X127700Y196743D01*
X128279Y197078D01*
X128926Y197251D01*
X133261Y197251D01*
X133261Y191209D01*
X126719Y191209D01*
G37*
%LPD*%
%LPC*%
G36*
X72919Y97499D02*
X72919Y97499D01*
X72919Y101834D01*
X73065Y102380D01*
X73066Y102380D01*
X73092Y102481D01*
X73427Y103060D01*
X73900Y103533D01*
X74479Y103868D01*
X75126Y104041D01*
X78961Y104041D01*
X78961Y97499D01*
X72919Y97499D01*
G37*
%LPD*%
%LPC*%
G36*
X117339Y182169D02*
X117339Y182169D01*
X117339Y188211D01*
X123881Y188211D01*
X123881Y184376D01*
X123708Y183729D01*
X123373Y183150D01*
X122900Y182677D01*
X122321Y182342D01*
X121674Y182169D01*
X117339Y182169D01*
G37*
%LPD*%
%LPC*%
G36*
X136259Y182169D02*
X136259Y182169D01*
X136259Y188211D01*
X142801Y188211D01*
X142801Y184376D01*
X142628Y183729D01*
X142293Y183150D01*
X141820Y182677D01*
X141241Y182342D01*
X140594Y182169D01*
X136259Y182169D01*
G37*
%LPD*%
%LPC*%
G36*
X110006Y182169D02*
X110006Y182169D01*
X109359Y182342D01*
X108780Y182677D01*
X108307Y183150D01*
X107972Y183729D01*
X107799Y184376D01*
X107799Y188211D01*
X114341Y188211D01*
X114341Y182169D01*
X110006Y182169D01*
G37*
%LPD*%
%LPC*%
G36*
X128926Y182169D02*
X128926Y182169D01*
X128279Y182342D01*
X127700Y182677D01*
X127227Y183150D01*
X126892Y183729D01*
X126719Y184376D01*
X126719Y188211D01*
X133261Y188211D01*
X133261Y182169D01*
X128926Y182169D01*
G37*
%LPD*%
%LPC*%
G36*
X91626Y147959D02*
X91626Y147959D01*
X90979Y148132D01*
X90400Y148467D01*
X89927Y148940D01*
X89592Y149519D01*
X89419Y150166D01*
X89419Y154501D01*
X95461Y154501D01*
X95461Y147959D01*
X91626Y147959D01*
G37*
%LPD*%
%LPC*%
G36*
X75126Y87959D02*
X75126Y87959D01*
X74479Y88132D01*
X73900Y88467D01*
X73427Y88940D01*
X73092Y89519D01*
X72919Y90166D01*
X72919Y94501D01*
X78961Y94501D01*
X78961Y87959D01*
X75126Y87959D01*
G37*
%LPD*%
%LPC*%
G36*
X169219Y175479D02*
X169219Y175479D01*
X169219Y181521D01*
X172554Y181521D01*
X173201Y181348D01*
X173780Y181013D01*
X174253Y180540D01*
X174588Y179961D01*
X174761Y179314D01*
X174761Y175479D01*
X169219Y175479D01*
G37*
%LPD*%
%LPC*%
G36*
X210219Y175479D02*
X210219Y175479D01*
X210219Y181521D01*
X213554Y181521D01*
X214201Y181348D01*
X214780Y181013D01*
X215253Y180540D01*
X215588Y179961D01*
X215761Y179314D01*
X215761Y175479D01*
X210219Y175479D01*
G37*
%LPD*%
%LPC*%
G36*
X85429Y175479D02*
X85429Y175479D01*
X85429Y181521D01*
X88764Y181521D01*
X89411Y181348D01*
X89990Y181013D01*
X90463Y180540D01*
X90798Y179961D01*
X90971Y179314D01*
X90971Y175479D01*
X85429Y175479D01*
G37*
%LPD*%
%LPC*%
G36*
X44429Y175479D02*
X44429Y175479D01*
X44429Y181521D01*
X47764Y181521D01*
X48411Y181348D01*
X48990Y181013D01*
X49463Y180540D01*
X49798Y179961D01*
X49971Y179314D01*
X49971Y175479D01*
X44429Y175479D01*
G37*
%LPD*%
%LPC*%
G36*
X44429Y166439D02*
X44429Y166439D01*
X44429Y172481D01*
X49971Y172481D01*
X49971Y168646D01*
X49798Y167999D01*
X49463Y167420D01*
X48990Y166947D01*
X48411Y166612D01*
X47764Y166439D01*
X44429Y166439D01*
G37*
%LPD*%
%LPC*%
G36*
X201679Y175479D02*
X201679Y175479D01*
X201679Y179314D01*
X201852Y179961D01*
X202187Y180540D01*
X202660Y181013D01*
X203239Y181348D01*
X203886Y181521D01*
X207221Y181521D01*
X207221Y175479D01*
X201679Y175479D01*
G37*
%LPD*%
%LPC*%
G36*
X76889Y175479D02*
X76889Y175479D01*
X76889Y179314D01*
X77062Y179961D01*
X77397Y180540D01*
X77870Y181013D01*
X78449Y181348D01*
X79096Y181521D01*
X82431Y181521D01*
X82431Y175479D01*
X76889Y175479D01*
G37*
%LPD*%
%LPC*%
G36*
X35889Y175479D02*
X35889Y175479D01*
X35889Y179314D01*
X36062Y179961D01*
X36397Y180540D01*
X36870Y181013D01*
X37449Y181348D01*
X38096Y181521D01*
X41431Y181521D01*
X41431Y175479D01*
X35889Y175479D01*
G37*
%LPD*%
%LPC*%
G36*
X160679Y175479D02*
X160679Y175479D01*
X160679Y179314D01*
X160852Y179961D01*
X161187Y180540D01*
X161660Y181013D01*
X162239Y181348D01*
X162886Y181521D01*
X166221Y181521D01*
X166221Y175479D01*
X160679Y175479D01*
G37*
%LPD*%
%LPC*%
G36*
X210219Y166439D02*
X210219Y166439D01*
X210219Y172481D01*
X215761Y172481D01*
X215761Y168646D01*
X215588Y167999D01*
X215253Y167420D01*
X214780Y166947D01*
X214201Y166612D01*
X213554Y166439D01*
X210219Y166439D01*
G37*
%LPD*%
%LPC*%
G36*
X169219Y166439D02*
X169219Y166439D01*
X169219Y172481D01*
X174761Y172481D01*
X174761Y168646D01*
X174588Y167999D01*
X174253Y167420D01*
X173780Y166947D01*
X173201Y166612D01*
X172554Y166439D01*
X169219Y166439D01*
G37*
%LPD*%
%LPC*%
G36*
X203886Y166439D02*
X203886Y166439D01*
X203239Y166612D01*
X202660Y166947D01*
X202187Y167420D01*
X201852Y167999D01*
X201679Y168646D01*
X201679Y172481D01*
X207221Y172481D01*
X207221Y166439D01*
X203886Y166439D01*
G37*
%LPD*%
%LPC*%
G36*
X162886Y166439D02*
X162886Y166439D01*
X162239Y166612D01*
X161660Y166947D01*
X161187Y167420D01*
X160852Y167999D01*
X160679Y168646D01*
X160679Y172481D01*
X166221Y172481D01*
X166221Y166439D01*
X162886Y166439D01*
G37*
%LPD*%
%LPC*%
G36*
X38096Y166439D02*
X38096Y166439D01*
X37449Y166612D01*
X36870Y166947D01*
X36397Y167420D01*
X36062Y167999D01*
X35889Y168646D01*
X35889Y172481D01*
X41431Y172481D01*
X41431Y166439D01*
X38096Y166439D01*
G37*
%LPD*%
%LPC*%
G36*
X70729Y241754D02*
X70729Y241754D01*
X70729Y245971D01*
X77271Y245971D01*
X77271Y243961D01*
X77182Y243628D01*
X77098Y243314D01*
X76763Y242735D01*
X76290Y242262D01*
X75711Y241927D01*
X75064Y241754D01*
X70729Y241754D01*
G37*
%LPD*%
%LPC*%
G36*
X63396Y241754D02*
X63396Y241754D01*
X62749Y241927D01*
X62170Y242262D01*
X61697Y242735D01*
X61362Y243314D01*
X61189Y243961D01*
X61189Y245971D01*
X67731Y245971D01*
X67731Y241754D01*
X63396Y241754D01*
G37*
%LPD*%
%LPC*%
G36*
X96809Y116169D02*
X96809Y116169D01*
X96809Y120061D01*
X98794Y120061D01*
X99441Y119888D01*
X100020Y119553D01*
X100493Y119080D01*
X100828Y118501D01*
X101001Y117854D01*
X101001Y116169D01*
X96809Y116169D01*
G37*
%LPD*%
%LPC*%
G36*
X67129Y139849D02*
X67129Y139849D01*
X67129Y144041D01*
X68814Y144041D01*
X69461Y143868D01*
X70040Y143533D01*
X70513Y143060D01*
X70848Y142481D01*
X71021Y141834D01*
X71021Y139849D01*
X67129Y139849D01*
G37*
%LPD*%
%LPC*%
G36*
X150919Y116169D02*
X150919Y116169D01*
X150919Y117854D01*
X150989Y118114D01*
X150989Y118115D01*
X151092Y118501D01*
X151427Y119080D01*
X151900Y119553D01*
X152479Y119888D01*
X153126Y120061D01*
X155111Y120061D01*
X155111Y116169D01*
X150919Y116169D01*
G37*
%LPD*%
%LPC*%
G36*
X89919Y116169D02*
X89919Y116169D01*
X89919Y117854D01*
X89989Y118114D01*
X89989Y118115D01*
X90092Y118501D01*
X90427Y119080D01*
X90900Y119553D01*
X91479Y119888D01*
X92126Y120061D01*
X94111Y120061D01*
X94111Y116169D01*
X89919Y116169D01*
G37*
%LPD*%
%LPC*%
G36*
X67129Y132959D02*
X67129Y132959D01*
X67129Y137151D01*
X71021Y137151D01*
X71021Y135166D01*
X70848Y134519D01*
X70513Y133940D01*
X70040Y133467D01*
X69461Y133132D01*
X68814Y132959D01*
X67129Y132959D01*
G37*
%LPD*%
%LPC*%
G36*
X83259Y25499D02*
X83259Y25499D01*
X83259Y25501D01*
X83261Y25501D01*
X83261Y25499D01*
X83259Y25499D01*
G37*
%LPD*%
%LPC*%
G36*
X169659Y25499D02*
X169659Y25499D01*
X169659Y25501D01*
X169661Y25501D01*
X169661Y25499D01*
X169659Y25499D01*
G37*
%LPD*%
%LPC*%
G36*
X134759Y189709D02*
X134759Y189709D01*
X134759Y189711D01*
X134761Y189711D01*
X134761Y189709D01*
X134759Y189709D01*
G37*
%LPD*%
%LPC*%
G36*
X115839Y189709D02*
X115839Y189709D01*
X115839Y189711D01*
X115841Y189711D01*
X115841Y189709D01*
X115839Y189709D01*
G37*
%LPD*%
%LPC*%
G36*
X80459Y95999D02*
X80459Y95999D01*
X80459Y96001D01*
X80461Y96001D01*
X80461Y95999D01*
X80459Y95999D01*
G37*
%LPD*%
%LPC*%
G36*
X115909Y112099D02*
X115909Y112099D01*
X115909Y112101D01*
X115911Y112101D01*
X115911Y112099D01*
X115909Y112099D01*
G37*
%LPD*%
%LPC*%
G36*
X42929Y173979D02*
X42929Y173979D01*
X42929Y173981D01*
X42931Y173981D01*
X42931Y173979D01*
X42929Y173979D01*
G37*
%LPD*%
%LPC*%
G36*
X208719Y173979D02*
X208719Y173979D01*
X208719Y173981D01*
X208721Y173981D01*
X208721Y173979D01*
X208719Y173979D01*
G37*
%LPD*%
%LPC*%
G36*
X167719Y173979D02*
X167719Y173979D01*
X167719Y173981D01*
X167721Y173981D01*
X167721Y173979D01*
X167719Y173979D01*
G37*
%LPD*%
D10*
X139461Y139000D03*
X139461Y148500D03*
X139461Y158000D03*
X113459Y158000D03*
X113459Y139000D03*
D11*
X83930Y189980D03*
X83930Y173980D03*
X42930Y173980D03*
X42930Y189980D03*
D12*
X17610Y371310D02*
X10610Y371310D01*
X17610Y371310D02*
X17610Y364310D01*
X10610Y364310D01*
X10610Y371310D01*
X10610Y367160D02*
X17610Y367160D01*
X17610Y370010D02*
X10610Y370010D01*
X10610Y388850D02*
X17610Y388850D01*
X17610Y381850D01*
X10610Y381850D01*
X10610Y388850D01*
X10610Y384700D02*
X17610Y384700D01*
X17610Y387550D02*
X10610Y387550D01*
X25220Y371310D02*
X32220Y371310D01*
X32220Y364310D01*
X25220Y364310D01*
X25220Y371310D01*
X25220Y367160D02*
X32220Y367160D01*
X32220Y370010D02*
X25220Y370010D01*
X25220Y388850D02*
X32220Y388850D01*
X32220Y381850D01*
X25220Y381850D01*
X25220Y388850D01*
X25220Y384700D02*
X32220Y384700D01*
X32220Y387550D02*
X25220Y387550D01*
D13*
X28640Y344310D03*
X28640Y335670D03*
X14190Y344310D03*
X14190Y335670D03*
D14*
X155960Y139000D03*
X155960Y156000D03*
X96960Y139000D03*
X96960Y156000D03*
D11*
X208720Y189980D03*
X208720Y173980D03*
X167720Y173980D03*
X167720Y189980D03*
D15*
X93960Y76450D03*
X101960Y76450D03*
D16*
X123960Y76450D03*
X118960Y76450D03*
X113960Y76450D03*
X108960Y76450D03*
X128960Y76450D03*
X133960Y76450D03*
X138960Y76450D03*
X143960Y76450D03*
D15*
X150960Y76450D03*
X158960Y76450D03*
D17*
X83260Y73090D02*
X83260Y61510D01*
X169660Y61510D02*
X169660Y73090D01*
X83260Y31290D02*
X83260Y19710D01*
X169660Y19710D02*
X169660Y31290D01*
D13*
X95460Y114820D03*
X95460Y106180D03*
X156460Y114820D03*
X156460Y106180D03*
D18*
X184460Y157500D03*
X193960Y135500D03*
X174960Y135500D03*
D19*
X174460Y95000D03*
X174460Y120000D03*
D20*
X65780Y138500D03*
X57140Y138500D03*
D21*
X110947Y108387D02*
X120873Y108387D01*
X110947Y108387D02*
X110947Y115813D01*
X120873Y115813D01*
X120873Y108387D01*
X120873Y110738D02*
X110947Y110738D01*
X110947Y113089D02*
X120873Y113089D01*
X120873Y115440D02*
X110947Y115440D01*
D22*
X110447Y92687D02*
X121373Y92687D01*
X110447Y92687D02*
X110447Y97113D01*
X121373Y97113D01*
X121373Y92687D01*
X121373Y94088D02*
X110447Y94088D01*
X110447Y95489D02*
X121373Y95489D01*
X121373Y96890D02*
X110447Y96890D01*
X131547Y92687D02*
X142473Y92687D01*
X131547Y92687D02*
X131547Y97113D01*
X142473Y97113D01*
X142473Y92687D01*
X142473Y94088D02*
X131547Y94088D01*
X131547Y95489D02*
X142473Y95489D01*
X142473Y96890D02*
X131547Y96890D01*
X131547Y111887D02*
X142473Y111887D01*
X131547Y111887D02*
X131547Y116313D01*
X142473Y116313D01*
X142473Y111887D01*
X142473Y113288D02*
X131547Y113288D01*
X131547Y114689D02*
X142473Y114689D01*
X142473Y116090D02*
X131547Y116090D01*
D23*
X39460Y80000D03*
X44460Y80000D03*
X49460Y80000D03*
X54460Y80000D03*
X59460Y80000D03*
X59460Y125000D03*
X54460Y125000D03*
X49460Y125000D03*
X44460Y125000D03*
X39460Y125000D03*
D14*
X80460Y96000D03*
X80460Y113000D03*
D24*
X12110Y301660D03*
X12110Y276260D03*
X12110Y250860D03*
X12110Y225460D03*
X12110Y200060D03*
X12110Y174660D03*
X12110Y149260D03*
X12110Y123860D03*
X12110Y98460D03*
X12110Y73060D03*
X12110Y47660D03*
X12110Y22260D03*
X241380Y351190D03*
X241380Y325790D03*
X241380Y300390D03*
X241380Y274990D03*
X241380Y249590D03*
X241380Y224190D03*
X241380Y198790D03*
X241380Y173390D03*
X241380Y147990D03*
X241380Y122590D03*
X241380Y97190D03*
X241380Y71790D03*
X241380Y46390D03*
X241380Y20990D03*
D20*
X145290Y176070D03*
X153930Y176070D03*
D25*
X151760Y189710D03*
X134760Y189710D03*
D20*
X57650Y159260D03*
X66290Y159260D03*
D25*
X98840Y189710D03*
X115840Y189710D03*
D26*
X69230Y377470D03*
X69230Y367470D03*
X69230Y357470D03*
X69230Y347470D03*
X69230Y337470D03*
X69230Y327470D03*
X69230Y317470D03*
X69230Y307470D03*
X69230Y297470D03*
X69230Y287470D03*
X69230Y277470D03*
X69230Y267470D03*
X69230Y257470D03*
X69230Y247470D03*
D27*
X86730Y219970D03*
X96730Y219970D03*
X106730Y219970D03*
X116730Y219970D03*
X126730Y219970D03*
X136730Y219970D03*
X146730Y219970D03*
X156730Y219970D03*
X166730Y219970D03*
D28*
X184230Y247470D03*
X184230Y257470D03*
X184230Y267470D03*
X184230Y277470D03*
X184230Y287470D03*
X184230Y297470D03*
X184230Y307470D03*
X184230Y317470D03*
X184230Y327470D03*
X184230Y337470D03*
X184230Y347470D03*
X184230Y357470D03*
X184230Y367470D03*
X184230Y377470D03*
D29*
X93910Y76500D02*
X93960Y76450D01*
D30*
X158960Y76450D02*
X167510Y76450D01*
X169660Y74300D02*
X169660Y67300D01*
X169660Y74300D02*
X167510Y76450D01*
X93960Y76450D02*
X86410Y76450D01*
X82460Y72500D01*
X82460Y68100D01*
X83260Y67300D01*
D31*
X81280Y247650D03*
X45720Y363220D03*
X127000Y287020D03*
D30*
X69410Y247650D02*
X69230Y247470D01*
X69410Y247650D02*
X81280Y247650D01*
D31*
X73660Y181610D03*
X55880Y181610D03*
X81280Y147320D03*
X167000Y392020D03*
X187000Y392020D03*
X207000Y392020D03*
X232000Y392020D03*
X207000Y367020D03*
X207000Y342020D03*
X207000Y237020D03*
X62000Y227020D03*
X32000Y12020D03*
X57000Y12020D03*
X197000Y12020D03*
X222000Y12020D03*
X102000Y287020D03*
X152000Y287020D03*
D32*
X150200Y257470D02*
X186690Y220980D01*
X150200Y257470D02*
X69230Y257470D01*
X29210Y64760D02*
X12110Y47660D01*
X29210Y187245D02*
X32620Y190655D01*
X32620Y203355D02*
X36242Y206977D01*
X36242Y227479D01*
X43290Y234527D01*
X43290Y251570D01*
X29210Y160020D02*
X29210Y64760D01*
X29210Y160020D02*
X29210Y187245D01*
X32620Y190655D02*
X32620Y203355D01*
D31*
X46990Y346630D03*
D32*
X57490Y257470D02*
X69230Y257470D01*
X57490Y257470D02*
X57150Y257810D01*
D31*
X57150Y257810D03*
D32*
X49190Y257470D02*
X43290Y251570D01*
X49190Y257470D02*
X57490Y257470D01*
D30*
X28720Y385350D02*
X14110Y385350D01*
X14110Y391300D01*
X17780Y394970D02*
X20320Y394970D01*
X17780Y394970D02*
X14110Y391300D01*
D31*
X20320Y394970D03*
D32*
X193960Y135500D02*
X207890Y135500D01*
X224394Y211216D02*
X214630Y220980D01*
X186690Y220980D01*
X224394Y152004D02*
X207890Y135500D01*
X224394Y152004D02*
X224394Y211216D01*
X174460Y103340D02*
X174460Y95000D01*
X193960Y122840D02*
X193960Y135500D01*
X193960Y122840D02*
X174460Y103340D01*
D30*
X57650Y159260D02*
X57150Y159260D01*
X29970Y159260D01*
X29210Y160020D01*
X115110Y176070D02*
X145290Y176070D01*
X59690Y151130D02*
X57150Y153670D01*
X57150Y159260D01*
X104140Y165100D02*
X115110Y176070D01*
X83820Y165100D02*
X78740Y160020D01*
X78740Y153670D01*
X76200Y151130D01*
X59690Y151130D01*
X83820Y165100D02*
X104140Y165100D01*
D32*
X184460Y170490D02*
X184460Y157500D01*
X184460Y170490D02*
X185420Y171450D01*
D31*
X185420Y171450D03*
D32*
X150960Y87936D02*
X150960Y76450D01*
X150960Y87936D02*
X152460Y89436D01*
X152558Y89436D01*
X154622Y91500D01*
X160460Y91500D01*
D31*
X160460Y91500D03*
D33*
X139461Y158000D02*
X129960Y158000D01*
X127460Y155500D01*
X127460Y116500D02*
X129860Y114100D01*
X137010Y114100D01*
X127460Y138500D02*
X127460Y155500D01*
X127460Y138500D02*
X127460Y116500D01*
X138961Y138500D02*
X139461Y139000D01*
X138961Y138500D02*
X127460Y138500D01*
X137010Y114100D02*
X144860Y114100D01*
X147460Y111500D02*
X147460Y106500D01*
X147460Y111500D02*
X144860Y114100D01*
D31*
X147460Y106500D03*
D29*
X139461Y139000D02*
X155960Y139000D01*
X101960Y76450D02*
X102870Y75540D01*
X102870Y67342D01*
X105092Y65120D01*
X105092Y46150D01*
X150960Y68410D02*
X150960Y76450D01*
X150960Y68410D02*
X147320Y64770D01*
X147320Y58420D01*
X135050Y46150D02*
X105092Y46150D01*
X135050Y46150D02*
X147320Y58420D01*
X105092Y46150D02*
X36000Y46150D01*
X12110Y22260D01*
D30*
X123960Y64000D02*
X123960Y76450D01*
X123960Y64000D02*
X124460Y63500D01*
D31*
X124460Y63500D03*
D30*
X134040Y76370D02*
X133960Y76450D01*
X134040Y76370D02*
X134040Y66920D01*
X137460Y63500D01*
D31*
X137460Y63500D03*
D30*
X123960Y76450D02*
X123960Y93000D01*
X122060Y94900D01*
X115910Y94900D01*
D31*
X39460Y66500D03*
D30*
X39460Y80000D01*
X118404Y66009D02*
X118404Y60992D01*
X121952Y57444D01*
X126969Y57444D01*
X130516Y60992D01*
X130516Y66009D01*
X118960Y66565D02*
X118404Y66009D01*
X128960Y67565D02*
X128960Y76450D01*
X128960Y67565D02*
X130516Y66009D01*
X128960Y76450D02*
X128460Y76950D01*
X128460Y92500D01*
X130860Y94900D01*
X118960Y76450D02*
X118960Y66565D01*
X130860Y94900D02*
X137010Y94900D01*
X44460Y91500D02*
X44460Y80000D01*
X44460Y91500D02*
X45460Y92500D01*
D31*
X45460Y92500D03*
X137460Y104500D03*
D30*
X137010Y104050D02*
X137010Y94900D01*
X137010Y104050D02*
X137460Y104500D01*
X113960Y76450D02*
X108960Y76450D01*
X108960Y86000D01*
X95460Y99500D01*
X95460Y106180D01*
D33*
X80460Y113000D02*
X54460Y113000D01*
X42960Y113000D01*
X39460Y116500D01*
X39460Y125000D01*
X54460Y125000D02*
X54460Y113000D01*
D29*
X80460Y113000D02*
X80460Y130500D01*
X88960Y139000D01*
X96960Y139000D01*
X113459Y139000D01*
X113459Y147499D01*
X113460Y147500D01*
D31*
X113460Y147500D03*
D29*
X165960Y120000D02*
X174460Y120000D01*
X165960Y120000D02*
X165460Y120500D01*
D31*
X165460Y120500D03*
D30*
X54460Y125000D02*
X54460Y130500D01*
X57460Y133500D01*
X57460Y138180D01*
X57140Y138500D01*
D32*
X174460Y135000D02*
X174460Y120000D01*
X174460Y135000D02*
X174960Y135500D01*
D30*
X143960Y89000D02*
X143960Y76450D01*
X156460Y101500D02*
X156460Y106180D01*
X156460Y101500D02*
X143960Y89000D01*
X153930Y176070D02*
X153670Y176330D01*
X153670Y181610D01*
X151760Y183520D02*
X151760Y189710D01*
X151760Y183520D02*
X153670Y181610D01*
X184230Y377470D02*
X234670Y377470D01*
X241380Y370760D02*
X241380Y351190D01*
X241380Y370760D02*
X234670Y377470D01*
X209240Y190500D02*
X208720Y189980D01*
X167720Y189980D02*
X152030Y189980D01*
X151760Y189710D01*
D31*
X214630Y204470D03*
D30*
X208720Y189980D02*
X167720Y189980D01*
X208720Y189980D02*
X208720Y199830D01*
X213360Y204470D01*
X214630Y204470D01*
X14110Y344390D02*
X14110Y367810D01*
X14110Y344390D02*
X14190Y344310D01*
X28720Y344390D02*
X28720Y367810D01*
X28720Y344390D02*
X28640Y344310D01*
X19720Y301660D02*
X12110Y301660D01*
X28640Y310580D02*
X28640Y335670D01*
X28640Y310580D02*
X19720Y301660D01*
X28640Y335670D02*
X50016Y335670D01*
X54610Y340264D02*
X54610Y344170D01*
X57910Y347470D01*
X69230Y347470D01*
X54610Y340264D02*
X50016Y335670D01*
X40640Y304790D02*
X12110Y276260D01*
X56800Y337470D02*
X69230Y337470D01*
X40640Y321310D02*
X40640Y304790D01*
X40640Y321310D02*
X56800Y337470D01*
X44460Y132070D02*
X44460Y125000D01*
X44460Y132070D02*
X41910Y134620D01*
X41910Y142240D01*
X48260Y148590D01*
D31*
X48260Y148590D03*
D30*
X51784Y327470D02*
X69230Y327470D01*
X51784Y327470D02*
X44164Y319850D01*
X44164Y303330D01*
X24130Y283296D02*
X24130Y260350D01*
X14640Y250860D01*
X12110Y250860D01*
X24130Y283296D02*
X44164Y303330D01*
X49460Y137230D02*
X49460Y125000D01*
X49460Y137230D02*
X48260Y138430D01*
D31*
X48260Y138430D03*
D30*
X12110Y225460D02*
X27654Y241004D01*
X27654Y281837D01*
X68940Y297180D02*
X69230Y297470D01*
X55880Y297180D02*
X53340Y294640D01*
X40458Y294640D01*
X55880Y297180D02*
X68940Y297180D01*
X40458Y294640D02*
X27654Y281837D01*
X56700Y287470D02*
X69230Y287470D01*
X56700Y287470D02*
X53054Y291116D01*
X41917Y291116D01*
X31178Y280377D01*
X31178Y239544D01*
X24130Y232496D01*
X24130Y212080D02*
X12110Y200060D01*
X24130Y212080D02*
X24130Y232496D01*
X59030Y277470D02*
X69230Y277470D01*
X39782Y274320D02*
X34702Y269240D01*
X34702Y238085D01*
X27654Y231037D01*
X27654Y210534D02*
X24032Y206912D01*
X12110Y182290D02*
X12110Y174660D01*
X55880Y274320D02*
X59030Y277470D01*
X55880Y274320D02*
X39782Y274320D01*
X27654Y231037D02*
X27654Y210534D01*
X24032Y206912D02*
X24032Y194212D01*
X12110Y182290D01*
X58920Y267470D02*
X69230Y267470D01*
X58920Y267470D02*
X55594Y270796D01*
X41242Y270796D02*
X38226Y267780D01*
X38226Y236625D01*
X31178Y229577D02*
X31178Y209074D01*
X27556Y205452D01*
X27556Y192752D01*
X24130Y189326D01*
X24130Y161280D02*
X12110Y149260D01*
X41242Y270796D02*
X55594Y270796D01*
X38226Y236625D02*
X31178Y229577D01*
X24130Y189326D02*
X24130Y161280D01*
X184230Y317470D02*
X195610Y317470D01*
X199390Y313690D02*
X229870Y313690D01*
X241380Y325200D02*
X241380Y325790D01*
X199390Y313690D02*
X195610Y317470D01*
X229870Y313690D02*
X241380Y325200D01*
D31*
X111760Y364490D03*
D30*
X116840Y359410D01*
X142240Y359410D01*
X168940Y317470D02*
X184230Y317470D01*
X158750Y342900D02*
X142240Y359410D01*
X158750Y342900D02*
X158750Y327660D01*
X168940Y317470D01*
X184230Y307470D02*
X185420Y307470D01*
X196980Y307470D01*
X199676Y310166D01*
X240110Y300390D02*
X241380Y300390D01*
X240110Y300390D02*
X230334Y310166D01*
X199676Y310166D01*
D31*
X111760Y351790D03*
D30*
X155226Y326200D02*
X173956Y307470D01*
X155226Y326200D02*
X155226Y341440D01*
X144876Y351790D01*
X144780Y351790D01*
X144876Y351790D02*
X141066Y355600D01*
X115570Y355600D02*
X111760Y351790D01*
X115570Y355600D02*
X141066Y355600D01*
X173956Y307470D02*
X184230Y307470D01*
X232692Y274990D02*
X241380Y274990D01*
X232692Y274990D02*
X219354Y288328D01*
X184230Y297470D02*
X183940Y297180D01*
D31*
X201930Y297180D03*
D30*
X201640Y297470D02*
X184230Y297470D01*
X201640Y297470D02*
X201930Y297180D01*
X201968Y297180D02*
X210820Y288328D01*
X201968Y297180D02*
X201930Y297180D01*
X210820Y288328D02*
X219354Y288328D01*
X241380Y258130D02*
X241380Y249590D01*
X241380Y258130D02*
X229458Y270052D01*
X229458Y273240D02*
X217894Y284804D01*
X229458Y273240D02*
X229458Y270052D01*
X184230Y287470D02*
X183780Y287020D01*
X184230Y287470D02*
X196400Y287470D01*
X196850Y287020D01*
D31*
X196850Y287020D03*
D30*
X209360Y284804D02*
X217894Y284804D01*
X207144Y287020D02*
X196850Y287020D01*
X207144Y287020D02*
X209360Y284804D01*
X225934Y271780D02*
X225934Y268592D01*
X229458Y265068D01*
X241380Y232330D02*
X241380Y224190D01*
X229458Y244252D02*
X229458Y265068D01*
X229458Y244252D02*
X241380Y232330D01*
X197460Y277470D02*
X184230Y277470D01*
X197460Y277470D02*
X200660Y280670D01*
X217044Y280670D01*
X225934Y271780D01*
D31*
X172720Y276860D03*
D30*
X183620Y276860D02*
X184230Y277470D01*
X183620Y276860D02*
X172720Y276860D01*
X225934Y242792D02*
X229458Y239268D01*
X241380Y206930D02*
X241380Y198790D01*
X229458Y218852D02*
X229458Y239268D01*
X229458Y218852D02*
X241380Y206930D01*
X194810Y267470D02*
X184230Y267470D01*
X194810Y267470D02*
X198746Y263534D01*
X216430Y263534D02*
X225934Y254030D01*
X225934Y242792D01*
X216430Y263534D02*
X198746Y263534D01*
X222410Y252570D02*
X222410Y241333D01*
X225934Y237809D01*
X229458Y185312D02*
X241380Y173390D01*
X225934Y217296D02*
X225934Y237809D01*
X225934Y217296D02*
X229458Y213772D01*
X229458Y185312D01*
X197780Y257470D02*
X184230Y257470D01*
X197780Y257470D02*
X200320Y260010D01*
X214970Y260010D02*
X222410Y252570D01*
X214970Y260010D02*
X200320Y260010D01*
X86730Y232040D02*
X86730Y219970D01*
X86730Y232040D02*
X86360Y232410D01*
D31*
X86360Y232410D03*
D30*
X96730Y232200D02*
X96730Y219970D01*
X96730Y232200D02*
X96520Y232410D01*
D31*
X96520Y232410D03*
X113030Y340360D03*
D30*
X116730Y232300D02*
X116730Y219970D01*
X116730Y232300D02*
X116840Y232410D01*
D31*
X116840Y232410D03*
D30*
X113030Y340360D02*
X145352Y340360D01*
X151702Y334010D01*
X151702Y324741D01*
X154940Y321503D02*
X154940Y321310D01*
X154940Y321503D02*
X151702Y324741D01*
X154940Y321310D02*
X161290Y314960D01*
X161483Y314960D01*
X163830Y312613D02*
X163830Y261620D01*
X163830Y312613D02*
X161483Y314960D01*
D31*
X163830Y261620D03*
D30*
X126730Y232140D02*
X126730Y219970D01*
X126730Y232140D02*
X127000Y232410D01*
D31*
X127000Y232410D03*
D30*
X146730Y231730D02*
X146730Y219970D01*
X146730Y231730D02*
X146050Y232410D01*
D31*
X146050Y232410D03*
D30*
X14190Y326610D02*
X14190Y335670D01*
X14190Y326610D02*
X13970Y326390D01*
D31*
X13970Y326390D03*
D30*
X146050Y232410D02*
X146050Y207010D01*
X142240Y203200D01*
X52070Y203200D01*
X45720Y209550D02*
X45720Y220980D01*
X45720Y209550D02*
X52070Y203200D01*
D31*
X45720Y220980D03*
D30*
X156730Y219970D02*
X156730Y231890D01*
X156210Y232410D01*
D31*
X156210Y232410D03*
D30*
X106730Y232410D02*
X106730Y219970D01*
X106730Y232410D02*
X106680Y232410D01*
D31*
X106680Y232410D03*
D30*
X98570Y189980D02*
X83930Y189980D01*
X98570Y189980D02*
X98840Y189710D01*
X57150Y189980D02*
X42930Y189980D01*
X57150Y189980D02*
X66040Y189980D01*
X83930Y189980D01*
X66290Y189730D02*
X66040Y189980D01*
X57650Y189480D02*
X57150Y189980D01*
X66290Y189730D02*
X66290Y159260D01*
X98840Y189710D02*
X99060Y189490D01*
X99060Y182880D01*
X104140Y177800D01*
D31*
X104140Y177800D03*
M02*
