G04 EAGLE Gerber RS-274X export*
G75*
%MOMM*%
%FSLAX34Y34*%
%LPD*%
%IN*%
%IPPOS*%
%AMOC8*
5,1,8,0,0,1.08239X$1,22.5*%
G01*
%ADD10C,0.254000*%


D10*
X-80Y16660D02*
X-23Y15353D01*
X148Y14055D01*
X431Y12778D01*
X825Y11530D01*
X1325Y10321D01*
X1930Y9160D01*
X2633Y8056D01*
X3429Y7018D01*
X4313Y6053D01*
X5278Y5169D01*
X6316Y4373D01*
X7420Y3670D01*
X8581Y3065D01*
X9790Y2565D01*
X11038Y2171D01*
X12315Y1888D01*
X13613Y1717D01*
X14920Y1660D01*
X239920Y1660D01*
X241205Y1733D01*
X242478Y1917D01*
X243731Y2211D01*
X244953Y2614D01*
X246135Y3122D01*
X247269Y3730D01*
X248345Y4436D01*
X249356Y5232D01*
X250293Y6113D01*
X251150Y7073D01*
X251920Y8104D01*
X252598Y9198D01*
X253177Y10347D01*
X253654Y11542D01*
X254025Y12774D01*
X254288Y14033D01*
X254439Y15311D01*
X254479Y16597D01*
X254479Y386597D01*
X254444Y387889D01*
X254298Y389173D01*
X254039Y390439D01*
X253672Y391678D01*
X253198Y392880D01*
X252621Y394036D01*
X251945Y395138D01*
X251176Y396176D01*
X250319Y397144D01*
X249381Y398033D01*
X248370Y398837D01*
X247292Y399550D01*
X246156Y400166D01*
X244970Y400681D01*
X243745Y401090D01*
X242488Y401391D01*
X241210Y401582D01*
X239920Y401660D01*
X14920Y401660D01*
X13613Y401603D01*
X12315Y401432D01*
X11038Y401149D01*
X9790Y400755D01*
X8581Y400255D01*
X7420Y399650D01*
X6316Y398947D01*
X5278Y398151D01*
X4313Y397267D01*
X3429Y396302D01*
X2633Y395264D01*
X1930Y394160D01*
X1325Y392999D01*
X825Y391790D01*
X431Y390542D01*
X148Y389265D01*
X-23Y387967D01*
X-80Y386660D01*
X-80Y16660D01*
X166410Y22500D02*
X166422Y22217D01*
X166459Y21936D01*
X166521Y21659D01*
X166606Y21388D01*
X166715Y21127D01*
X166845Y20875D01*
X166998Y20636D01*
X167170Y20411D01*
X167362Y20202D01*
X167571Y20010D01*
X167796Y19838D01*
X168035Y19685D01*
X168287Y19555D01*
X168548Y19446D01*
X168819Y19361D01*
X169096Y19299D01*
X169377Y19262D01*
X169660Y19250D01*
X169943Y19262D01*
X170224Y19299D01*
X170501Y19361D01*
X170772Y19446D01*
X171034Y19555D01*
X171285Y19685D01*
X171524Y19838D01*
X171749Y20010D01*
X171958Y20202D01*
X172150Y20411D01*
X172322Y20636D01*
X172475Y20875D01*
X172606Y21127D01*
X172714Y21388D01*
X172799Y21659D01*
X172861Y21936D01*
X172898Y22217D01*
X172910Y22500D01*
X172910Y28500D01*
X172898Y28783D01*
X172861Y29064D01*
X172799Y29341D01*
X172714Y29612D01*
X172606Y29874D01*
X172475Y30125D01*
X172322Y30364D01*
X172150Y30589D01*
X171958Y30798D01*
X171749Y30990D01*
X171524Y31162D01*
X171285Y31315D01*
X171034Y31446D01*
X170772Y31554D01*
X170501Y31639D01*
X170224Y31701D01*
X169943Y31738D01*
X169660Y31750D01*
X169377Y31738D01*
X169096Y31701D01*
X168819Y31639D01*
X168548Y31554D01*
X168287Y31446D01*
X168035Y31315D01*
X167796Y31162D01*
X167571Y30990D01*
X167362Y30798D01*
X167170Y30589D01*
X166998Y30364D01*
X166845Y30125D01*
X166715Y29874D01*
X166606Y29612D01*
X166521Y29341D01*
X166459Y29064D01*
X166422Y28783D01*
X166410Y28500D01*
X166410Y22500D01*
X80010Y22500D02*
X80022Y22217D01*
X80059Y21936D01*
X80121Y21659D01*
X80206Y21388D01*
X80315Y21127D01*
X80445Y20875D01*
X80598Y20636D01*
X80770Y20411D01*
X80962Y20202D01*
X81171Y20010D01*
X81396Y19838D01*
X81635Y19685D01*
X81887Y19555D01*
X82148Y19446D01*
X82419Y19361D01*
X82696Y19299D01*
X82977Y19262D01*
X83260Y19250D01*
X83543Y19262D01*
X83824Y19299D01*
X84101Y19361D01*
X84372Y19446D01*
X84634Y19555D01*
X84885Y19685D01*
X85124Y19838D01*
X85349Y20010D01*
X85558Y20202D01*
X85750Y20411D01*
X85922Y20636D01*
X86075Y20875D01*
X86206Y21127D01*
X86314Y21388D01*
X86399Y21659D01*
X86461Y21936D01*
X86498Y22217D01*
X86510Y22500D01*
X86510Y28500D01*
X86498Y28783D01*
X86461Y29064D01*
X86399Y29341D01*
X86314Y29612D01*
X86206Y29874D01*
X86075Y30125D01*
X85922Y30364D01*
X85750Y30589D01*
X85558Y30798D01*
X85349Y30990D01*
X85124Y31162D01*
X84885Y31315D01*
X84634Y31446D01*
X84372Y31554D01*
X84101Y31639D01*
X83824Y31701D01*
X83543Y31738D01*
X83260Y31750D01*
X82977Y31738D01*
X82696Y31701D01*
X82419Y31639D01*
X82148Y31554D01*
X81887Y31446D01*
X81635Y31315D01*
X81396Y31162D01*
X81171Y30990D01*
X80962Y30798D01*
X80770Y30589D01*
X80598Y30364D01*
X80445Y30125D01*
X80315Y29874D01*
X80206Y29612D01*
X80121Y29341D01*
X80059Y29064D01*
X80022Y28783D01*
X80010Y28500D01*
X80010Y22500D01*
X166410Y61800D02*
X166422Y61517D01*
X166459Y61236D01*
X166521Y60959D01*
X166606Y60688D01*
X166715Y60427D01*
X166845Y60175D01*
X166998Y59936D01*
X167170Y59711D01*
X167362Y59502D01*
X167571Y59310D01*
X167796Y59138D01*
X168035Y58985D01*
X168287Y58855D01*
X168548Y58746D01*
X168819Y58661D01*
X169096Y58599D01*
X169377Y58562D01*
X169660Y58550D01*
X169943Y58562D01*
X170224Y58599D01*
X170501Y58661D01*
X170772Y58746D01*
X171034Y58855D01*
X171285Y58985D01*
X171524Y59138D01*
X171749Y59310D01*
X171958Y59502D01*
X172150Y59711D01*
X172322Y59936D01*
X172475Y60175D01*
X172606Y60427D01*
X172714Y60688D01*
X172799Y60959D01*
X172861Y61236D01*
X172898Y61517D01*
X172910Y61800D01*
X172910Y72800D01*
X172898Y73083D01*
X172861Y73364D01*
X172799Y73641D01*
X172714Y73912D01*
X172606Y74174D01*
X172475Y74425D01*
X172322Y74664D01*
X172150Y74889D01*
X171958Y75098D01*
X171749Y75290D01*
X171524Y75462D01*
X171285Y75615D01*
X171034Y75746D01*
X170772Y75854D01*
X170501Y75939D01*
X170224Y76001D01*
X169943Y76038D01*
X169660Y76050D01*
X169377Y76038D01*
X169096Y76001D01*
X168819Y75939D01*
X168548Y75854D01*
X168287Y75746D01*
X168035Y75615D01*
X167796Y75462D01*
X167571Y75290D01*
X167362Y75098D01*
X167170Y74889D01*
X166998Y74664D01*
X166845Y74425D01*
X166715Y74174D01*
X166606Y73912D01*
X166521Y73641D01*
X166459Y73364D01*
X166422Y73083D01*
X166410Y72800D01*
X166410Y61800D01*
X80010Y61800D02*
X80022Y61517D01*
X80059Y61236D01*
X80121Y60959D01*
X80206Y60688D01*
X80315Y60427D01*
X80445Y60175D01*
X80598Y59936D01*
X80770Y59711D01*
X80962Y59502D01*
X81171Y59310D01*
X81396Y59138D01*
X81635Y58985D01*
X81887Y58855D01*
X82148Y58746D01*
X82419Y58661D01*
X82696Y58599D01*
X82977Y58562D01*
X83260Y58550D01*
X83543Y58562D01*
X83824Y58599D01*
X84101Y58661D01*
X84372Y58746D01*
X84634Y58855D01*
X84885Y58985D01*
X85124Y59138D01*
X85349Y59310D01*
X85558Y59502D01*
X85750Y59711D01*
X85922Y59936D01*
X86075Y60175D01*
X86206Y60427D01*
X86314Y60688D01*
X86399Y60959D01*
X86461Y61236D01*
X86498Y61517D01*
X86510Y61800D01*
X86510Y72800D01*
X86498Y73083D01*
X86461Y73364D01*
X86399Y73641D01*
X86314Y73912D01*
X86206Y74174D01*
X86075Y74425D01*
X85922Y74664D01*
X85750Y74889D01*
X85558Y75098D01*
X85349Y75290D01*
X85124Y75462D01*
X84885Y75615D01*
X84634Y75746D01*
X84372Y75854D01*
X84101Y75939D01*
X83824Y76001D01*
X83543Y76038D01*
X83260Y76050D01*
X82977Y76038D01*
X82696Y76001D01*
X82419Y75939D01*
X82148Y75854D01*
X81887Y75746D01*
X81635Y75615D01*
X81396Y75462D01*
X81171Y75290D01*
X80962Y75098D01*
X80770Y74889D01*
X80598Y74664D01*
X80445Y74425D01*
X80315Y74174D01*
X80206Y73912D01*
X80121Y73641D01*
X80059Y73364D01*
X80022Y73083D01*
X80010Y72800D01*
X80010Y61800D01*
X101060Y61771D02*
X101000Y61316D01*
X100881Y60873D01*
X100706Y60449D01*
X100476Y60051D01*
X100197Y59687D01*
X99873Y59363D01*
X99509Y59084D01*
X99111Y58854D01*
X98687Y58679D01*
X98244Y58560D01*
X97789Y58500D01*
X97331Y58500D01*
X96876Y58560D01*
X96433Y58679D01*
X96009Y58854D01*
X95611Y59084D01*
X95247Y59363D01*
X94923Y59687D01*
X94644Y60051D01*
X94414Y60449D01*
X94239Y60873D01*
X94120Y61316D01*
X94060Y61771D01*
X94060Y62229D01*
X94120Y62684D01*
X94239Y63127D01*
X94414Y63551D01*
X94644Y63949D01*
X94923Y64313D01*
X95247Y64637D01*
X95611Y64916D01*
X96009Y65146D01*
X96433Y65321D01*
X96876Y65440D01*
X97331Y65500D01*
X97789Y65500D01*
X98244Y65440D01*
X98687Y65321D01*
X99111Y65146D01*
X99509Y64916D01*
X99873Y64637D01*
X100197Y64313D01*
X100476Y63949D01*
X100706Y63551D01*
X100881Y63127D01*
X101000Y62684D01*
X101060Y62229D01*
X101060Y61771D01*
X158860Y61771D02*
X158800Y61316D01*
X158681Y60873D01*
X158506Y60449D01*
X158276Y60051D01*
X157997Y59687D01*
X157673Y59363D01*
X157309Y59084D01*
X156911Y58854D01*
X156487Y58679D01*
X156044Y58560D01*
X155589Y58500D01*
X155131Y58500D01*
X154676Y58560D01*
X154233Y58679D01*
X153809Y58854D01*
X153411Y59084D01*
X153047Y59363D01*
X152723Y59687D01*
X152444Y60051D01*
X152214Y60449D01*
X152039Y60873D01*
X151920Y61316D01*
X151860Y61771D01*
X151860Y62229D01*
X151920Y62684D01*
X152039Y63127D01*
X152214Y63551D01*
X152444Y63949D01*
X152723Y64313D01*
X153047Y64637D01*
X153411Y64916D01*
X153809Y65146D01*
X154233Y65321D01*
X154676Y65440D01*
X155131Y65500D01*
X155589Y65500D01*
X156044Y65440D01*
X156487Y65321D01*
X156911Y65146D01*
X157309Y64916D01*
X157673Y64637D01*
X157997Y64313D01*
X158276Y63949D01*
X158506Y63551D01*
X158681Y63127D01*
X158800Y62684D01*
X158860Y62229D01*
X158860Y61771D01*
M02*
