G04 EAGLE Gerber RS-274X export*
G75*
%MOMM*%
%FSLAX34Y34*%
%LPD*%
%INSoldermask Top*%
%IPPOS*%
%AMOC8*
5,1,8,0,0,1.08239X$1,22.5*%
G01*
%ADD10R,1.403200X0.753200*%
%ADD11R,1.103200X1.203200*%
%ADD12C,0.505344*%
%ADD13R,0.803200X0.743200*%
%ADD14R,1.203200X1.303200*%
%ADD15R,0.803200X1.653200*%
%ADD16R,0.503200X1.653200*%
%ADD17C,1.361200*%
%ADD18C,0.903200*%
%ADD19R,1.203200X1.603200*%
%ADD20R,0.803200X1.003200*%
%ADD21R,0.743200X0.803200*%
%ADD22C,0.453416*%
%ADD23C,0.349006*%
%ADD24R,0.400000X1.100000*%
%ADD25C,2.082800*%
%ADD26R,1.303200X1.203200*%
%ADD27R,1.303200X0.838200*%
%ADD28R,0.838200X1.473200*%
%ADD29R,1.473200X0.838200*%


D10*
X139461Y139000D03*
X139461Y148500D03*
X139461Y158000D03*
X113459Y158000D03*
X113459Y139000D03*
D11*
X83930Y189980D03*
X83930Y173980D03*
X42930Y173980D03*
X42930Y189980D03*
D12*
X17600Y371300D02*
X10620Y371300D01*
X17600Y371300D02*
X17600Y364320D01*
X10620Y364320D01*
X10620Y371300D01*
X10620Y369120D02*
X17600Y369120D01*
X17600Y388840D02*
X10620Y388840D01*
X17600Y388840D02*
X17600Y381860D01*
X10620Y381860D01*
X10620Y388840D01*
X10620Y386660D02*
X17600Y386660D01*
X25230Y371300D02*
X32210Y371300D01*
X32210Y364320D01*
X25230Y364320D01*
X25230Y371300D01*
X25230Y369120D02*
X32210Y369120D01*
X32210Y388840D02*
X25230Y388840D01*
X32210Y388840D02*
X32210Y381860D01*
X25230Y381860D01*
X25230Y388840D01*
X25230Y386660D02*
X32210Y386660D01*
D13*
X28640Y344310D03*
X28640Y335670D03*
X14190Y344310D03*
X14190Y335670D03*
D14*
X155960Y139000D03*
X155960Y156000D03*
X96960Y139000D03*
X96960Y156000D03*
D11*
X208720Y189980D03*
X208720Y173980D03*
X167720Y173980D03*
X167720Y189980D03*
D15*
X93960Y76450D03*
X101960Y76450D03*
D16*
X123960Y76450D03*
X118960Y76450D03*
X113960Y76450D03*
X108960Y76450D03*
X128960Y76450D03*
X133960Y76450D03*
X138960Y76450D03*
X143960Y76450D03*
D15*
X150960Y76450D03*
X158960Y76450D03*
D17*
X83260Y73090D02*
X83260Y61510D01*
X169660Y61510D02*
X169660Y73090D01*
X83260Y31290D02*
X83260Y19710D01*
X169660Y19710D02*
X169660Y31290D01*
D18*
X97560Y62000D03*
X155360Y62000D03*
D13*
X95460Y114820D03*
X95460Y106180D03*
X156460Y114820D03*
X156460Y106180D03*
D19*
X184460Y157500D03*
X193960Y135500D03*
X174960Y135500D03*
D20*
X174460Y95000D03*
X174460Y120000D03*
D21*
X65780Y138500D03*
X57140Y138500D03*
D22*
X110961Y108401D02*
X120859Y108401D01*
X110961Y108401D02*
X110961Y115799D01*
X120859Y115799D01*
X120859Y108401D01*
X120859Y112708D02*
X110961Y112708D01*
D23*
X110439Y92679D02*
X121381Y92679D01*
X110439Y92679D02*
X110439Y97121D01*
X121381Y97121D01*
X121381Y92679D01*
X121381Y95994D02*
X110439Y95994D01*
X131539Y92679D02*
X142481Y92679D01*
X131539Y92679D02*
X131539Y97121D01*
X142481Y97121D01*
X142481Y92679D01*
X142481Y95994D02*
X131539Y95994D01*
X131539Y111879D02*
X142481Y111879D01*
X131539Y111879D02*
X131539Y116321D01*
X142481Y116321D01*
X142481Y111879D01*
X142481Y115194D02*
X131539Y115194D01*
D24*
X39460Y80000D03*
X44460Y80000D03*
X49460Y80000D03*
X54460Y80000D03*
X59460Y80000D03*
X59460Y125000D03*
X54460Y125000D03*
X49460Y125000D03*
X44460Y125000D03*
X39460Y125000D03*
D14*
X80460Y96000D03*
X80460Y113000D03*
D25*
X12110Y301660D03*
X12110Y276260D03*
X12110Y250860D03*
X12110Y225460D03*
X12110Y200060D03*
X12110Y174660D03*
X12110Y149260D03*
X12110Y123860D03*
X12110Y98460D03*
X12110Y73060D03*
X12110Y47660D03*
X12110Y22260D03*
X241380Y351190D03*
X241380Y325790D03*
X241380Y300390D03*
X241380Y274990D03*
X241380Y249590D03*
X241380Y224190D03*
X241380Y198790D03*
X241380Y173390D03*
X241380Y147990D03*
X241380Y122590D03*
X241380Y97190D03*
X241380Y71790D03*
X241380Y46390D03*
X241380Y20990D03*
D21*
X145290Y176070D03*
X153930Y176070D03*
D26*
X151760Y189710D03*
X134760Y189710D03*
D21*
X57650Y159260D03*
X66290Y159260D03*
D26*
X98840Y189710D03*
X115840Y189710D03*
D27*
X69230Y377470D03*
X69230Y367470D03*
X69230Y357470D03*
X69230Y347470D03*
X69230Y337470D03*
X69230Y327470D03*
X69230Y317470D03*
X69230Y307470D03*
X69230Y297470D03*
X69230Y287470D03*
X69230Y277470D03*
X69230Y267470D03*
X69230Y257470D03*
X69230Y247470D03*
D28*
X86730Y219970D03*
X96730Y219970D03*
X106730Y219970D03*
X116730Y219970D03*
X126730Y219970D03*
X136730Y219970D03*
X146730Y219970D03*
X156730Y219970D03*
X166730Y219970D03*
D29*
X184230Y247470D03*
X184230Y257470D03*
X184230Y267470D03*
X184230Y277470D03*
X184230Y287470D03*
X184230Y297470D03*
X184230Y307470D03*
X184230Y317470D03*
X184230Y327470D03*
X184230Y337470D03*
X184230Y347470D03*
X184230Y357470D03*
X184230Y367470D03*
X184230Y377470D03*
M02*
