G04 EAGLE Gerber RS-274X export*
G75*
%MOMM*%
%FSLAX34Y34*%
%LPD*%
%INSoldermask Bottom*%
%IPPOS*%
%AMOC8*
5,1,8,0,0,1.08239X$1,22.5*%
G01*
%ADD10R,2.606800X2.571200*%
%ADD11C,1.361200*%
%ADD12C,0.903200*%
%ADD13R,3.803200X2.803200*%
%ADD14C,2.082800*%
%ADD15R,1.727200X0.812800*%
%ADD16R,0.803200X0.743200*%
%ADD17R,1.303200X1.203200*%


D10*
X46508Y321558D03*
X46508Y383982D03*
D11*
X83260Y73090D02*
X83260Y61510D01*
X169660Y61510D02*
X169660Y73090D01*
X83260Y31290D02*
X83260Y19710D01*
X169660Y19710D02*
X169660Y31290D01*
D12*
X97560Y62000D03*
X155360Y62000D03*
D13*
X125460Y18000D03*
X125460Y311000D03*
D14*
X12110Y301660D03*
X12110Y276260D03*
X12110Y250860D03*
X12110Y225460D03*
X12110Y200060D03*
X12110Y174660D03*
X12110Y149260D03*
X12110Y123860D03*
X12110Y98460D03*
X12110Y73060D03*
X12110Y47660D03*
X12110Y22260D03*
X241380Y351190D03*
X241380Y325790D03*
X241380Y300390D03*
X241380Y274990D03*
X241380Y249590D03*
X241380Y224190D03*
X241380Y198790D03*
X241380Y173390D03*
X241380Y147990D03*
X241380Y122590D03*
X241380Y97190D03*
X241380Y71790D03*
X241380Y46390D03*
X241380Y20990D03*
D15*
X98298Y340360D03*
X153162Y340360D03*
X98298Y353060D03*
X98298Y365760D03*
X153162Y353060D03*
X153162Y365760D03*
X98298Y378460D03*
X153162Y378460D03*
D16*
X81280Y339600D03*
X81280Y330960D03*
D17*
X132960Y392430D03*
X115960Y392430D03*
M02*
