G04 EAGLE Gerber RS-274X export*
G75*
%MOMM*%
%FSLAX34Y34*%
%LPD*%
%INSolderpaste Top*%
%IPPOS*%
%AMOC8*
5,1,8,0,0,1.08239X$1,22.5*%
G01*
%ADD10R,1.200000X0.550000*%
%ADD11R,0.900000X1.000000*%
%ADD12C,0.300000*%
%ADD13R,0.600000X0.540000*%
%ADD14R,1.000000X1.100000*%
%ADD15R,0.600000X1.450000*%
%ADD16R,0.300000X1.450000*%
%ADD17R,1.000000X1.400000*%
%ADD18R,0.600000X0.800000*%
%ADD19R,0.540000X0.600000*%
%ADD20C,0.247500*%
%ADD21C,0.147500*%
%ADD22R,0.250000X0.875000*%
%ADD23R,1.100000X1.000000*%
%ADD24R,1.100000X0.635000*%
%ADD25R,0.635000X1.270000*%
%ADD26R,1.270000X0.635000*%


D10*
X139461Y139000D03*
X139461Y148500D03*
X139461Y158000D03*
X113459Y158000D03*
X113459Y139000D03*
D11*
X83930Y189980D03*
X83930Y173980D03*
X42930Y173980D03*
X42930Y189980D03*
D12*
X17610Y371310D02*
X10610Y371310D01*
X17610Y371310D02*
X17610Y364310D01*
X10610Y364310D01*
X10610Y371310D01*
X10610Y367160D02*
X17610Y367160D01*
X17610Y370010D02*
X10610Y370010D01*
X10610Y388850D02*
X17610Y388850D01*
X17610Y381850D01*
X10610Y381850D01*
X10610Y388850D01*
X10610Y384700D02*
X17610Y384700D01*
X17610Y387550D02*
X10610Y387550D01*
X25220Y371310D02*
X32220Y371310D01*
X32220Y364310D01*
X25220Y364310D01*
X25220Y371310D01*
X25220Y367160D02*
X32220Y367160D01*
X32220Y370010D02*
X25220Y370010D01*
X25220Y388850D02*
X32220Y388850D01*
X32220Y381850D01*
X25220Y381850D01*
X25220Y388850D01*
X25220Y384700D02*
X32220Y384700D01*
X32220Y387550D02*
X25220Y387550D01*
D13*
X28640Y344310D03*
X28640Y335670D03*
X14190Y344310D03*
X14190Y335670D03*
D14*
X155960Y139000D03*
X155960Y156000D03*
X96960Y139000D03*
X96960Y156000D03*
D11*
X208720Y189980D03*
X208720Y173980D03*
X167720Y173980D03*
X167720Y189980D03*
D15*
X93960Y76450D03*
X101960Y76450D03*
D16*
X123960Y76450D03*
X118960Y76450D03*
X113960Y76450D03*
X108960Y76450D03*
X128960Y76450D03*
X133960Y76450D03*
X138960Y76450D03*
X143960Y76450D03*
D15*
X150960Y76450D03*
X158960Y76450D03*
D13*
X95460Y114820D03*
X95460Y106180D03*
X156460Y114820D03*
X156460Y106180D03*
D17*
X184460Y157500D03*
X193960Y135500D03*
X174960Y135500D03*
D18*
X174460Y95000D03*
X174460Y120000D03*
D19*
X65780Y138500D03*
X57140Y138500D03*
D20*
X110947Y108387D02*
X120873Y108387D01*
X110947Y108387D02*
X110947Y115813D01*
X120873Y115813D01*
X120873Y108387D01*
X120873Y110738D02*
X110947Y110738D01*
X110947Y113089D02*
X120873Y113089D01*
X120873Y115440D02*
X110947Y115440D01*
D21*
X110447Y92687D02*
X121373Y92687D01*
X110447Y92687D02*
X110447Y97113D01*
X121373Y97113D01*
X121373Y92687D01*
X121373Y94088D02*
X110447Y94088D01*
X110447Y95489D02*
X121373Y95489D01*
X121373Y96890D02*
X110447Y96890D01*
X131547Y92687D02*
X142473Y92687D01*
X131547Y92687D02*
X131547Y97113D01*
X142473Y97113D01*
X142473Y92687D01*
X142473Y94088D02*
X131547Y94088D01*
X131547Y95489D02*
X142473Y95489D01*
X142473Y96890D02*
X131547Y96890D01*
X131547Y111887D02*
X142473Y111887D01*
X131547Y111887D02*
X131547Y116313D01*
X142473Y116313D01*
X142473Y111887D01*
X142473Y113288D02*
X131547Y113288D01*
X131547Y114689D02*
X142473Y114689D01*
X142473Y116090D02*
X131547Y116090D01*
D22*
X39460Y79875D03*
X44460Y79875D03*
X49460Y79875D03*
X54460Y79875D03*
X59460Y79875D03*
X59460Y125125D03*
X54460Y125125D03*
X49460Y125125D03*
X44460Y125125D03*
X39460Y125125D03*
D14*
X80460Y96000D03*
X80460Y113000D03*
D19*
X145290Y176070D03*
X153930Y176070D03*
D23*
X151760Y189710D03*
X134760Y189710D03*
D19*
X57650Y159260D03*
X66290Y159260D03*
D23*
X98840Y189710D03*
X115840Y189710D03*
D24*
X69230Y377470D03*
X69230Y367470D03*
X69230Y357470D03*
X69230Y347470D03*
X69230Y337470D03*
X69230Y327470D03*
X69230Y317470D03*
X69230Y307470D03*
X69230Y297470D03*
X69230Y287470D03*
X69230Y277470D03*
X69230Y267470D03*
X69230Y257470D03*
X69230Y247470D03*
D25*
X86730Y219970D03*
X96730Y219970D03*
X106730Y219970D03*
X116730Y219970D03*
X126730Y219970D03*
X136730Y219970D03*
X146730Y219970D03*
X156730Y219970D03*
X166730Y219970D03*
D26*
X184230Y247470D03*
X184230Y257470D03*
X184230Y267470D03*
X184230Y277470D03*
X184230Y287470D03*
X184230Y297470D03*
X184230Y307470D03*
X184230Y317470D03*
X184230Y327470D03*
X184230Y337470D03*
X184230Y347470D03*
X184230Y357470D03*
X184230Y367470D03*
X184230Y377470D03*
M02*
