G04 EAGLE Gerber RS-274X export*
G75*
%MOMM*%
%FSLAX34Y34*%
%LPD*%
%INCopper Layer 15*%
%IPPOS*%
%AMOC8*
5,1,8,0,0,1.08239X$1,22.5*%
G01*
%ADD10C,0.975000*%
%ADD11C,0.403200*%
%ADD12C,0.453200*%
%ADD13C,0.503200*%
%ADD14C,0.254000*%


D10*
X77994Y127D03*
X65294Y127D03*
X52594Y127D03*
X39894Y127D03*
X27194Y127D03*
X90694Y127D03*
X103394Y127D03*
X116094Y127D03*
X128794Y127D03*
X1635Y102034D03*
X1635Y89334D03*
X1635Y114734D03*
X1635Y76634D03*
X1635Y127434D03*
X1635Y63934D03*
X1635Y140134D03*
X1635Y51234D03*
X1635Y152834D03*
X1635Y38534D03*
X1635Y25834D03*
X162560Y101600D03*
X162560Y88900D03*
X162560Y114300D03*
X162560Y76200D03*
X162560Y127000D03*
X162560Y63500D03*
X162560Y139700D03*
X162560Y50800D03*
X162560Y152400D03*
X162560Y38100D03*
X162560Y25400D03*
D11*
X58420Y71120D03*
X67310Y71120D03*
X67310Y63500D03*
X58420Y63500D03*
X58420Y54610D03*
X58420Y45720D03*
X74930Y71120D03*
X83820Y71120D03*
X91440Y71120D03*
X66040Y54610D03*
X74930Y63500D03*
X83820Y63500D03*
X91440Y63500D03*
X74930Y54610D03*
X74930Y45720D03*
X74930Y38100D03*
X83820Y38100D03*
X91440Y38100D03*
X91440Y45720D03*
X91440Y54610D03*
X83820Y54610D03*
X66040Y45720D03*
X66040Y38100D03*
X58420Y38100D03*
X83820Y45720D03*
X105410Y93980D03*
X105410Y88900D03*
X105410Y83820D03*
X110490Y93980D03*
X115570Y93980D03*
X110490Y88900D03*
X115570Y88900D03*
X110490Y83820D03*
X115570Y83820D03*
X119380Y129540D03*
X124460Y129540D03*
X74471Y97947D03*
X74471Y103027D03*
X74471Y108107D03*
X83164Y113122D03*
X83164Y118202D03*
X84392Y122772D03*
X74317Y122772D03*
X74228Y127721D03*
X74245Y132641D03*
X74274Y137630D03*
X79354Y137630D03*
X79325Y132641D03*
X79308Y127721D03*
X79397Y122772D03*
X83164Y141440D03*
X83164Y146520D03*
X83164Y151600D03*
X78084Y151600D03*
X73004Y151600D03*
X73004Y156680D03*
X73004Y161760D03*
X73004Y166840D03*
X73004Y171920D03*
X73004Y177000D03*
X73216Y182080D03*
X73066Y187771D03*
X73677Y192668D03*
X73616Y197503D03*
X73616Y202338D03*
X70993Y207303D03*
X69510Y211943D03*
X66882Y216017D03*
X63762Y219996D03*
X60380Y223270D03*
X57243Y226422D03*
X53908Y229926D03*
X50526Y233247D03*
X47497Y236873D03*
X46533Y241601D03*
X47523Y246299D03*
X35340Y246503D03*
X36410Y241609D03*
X37097Y236953D03*
X38639Y232401D03*
X41576Y228435D03*
X44880Y225043D03*
X48081Y221695D03*
X51400Y218332D03*
X54719Y214823D03*
X57685Y211176D03*
X60280Y207135D03*
X59749Y202500D03*
X59684Y197795D03*
X59654Y193288D03*
X59776Y188588D03*
X42296Y190106D03*
X45324Y186538D03*
X50121Y186587D03*
X54709Y187774D03*
X57523Y246299D03*
X67523Y246299D03*
X77523Y246299D03*
X87523Y246299D03*
X97523Y246299D03*
X107523Y246299D03*
X117523Y246299D03*
X127523Y246299D03*
X137523Y246299D03*
X147523Y246299D03*
X157523Y246299D03*
X51613Y241601D03*
X53066Y237057D03*
X56448Y233736D03*
X59783Y230232D03*
X62920Y227080D03*
X66302Y223806D03*
X69422Y219827D03*
X72050Y215753D03*
X74590Y210673D03*
X77130Y206863D03*
X31330Y241609D03*
X31330Y236529D03*
X33559Y231131D03*
X36496Y227165D03*
X39800Y223773D03*
X43001Y220425D03*
X46320Y217062D03*
X49639Y213553D03*
X52605Y209906D03*
X55200Y205865D03*
X62523Y241299D03*
X72523Y241299D03*
X82523Y241299D03*
X92523Y241299D03*
X102523Y241299D03*
X112523Y241299D03*
X122523Y241299D03*
X132523Y241299D03*
X142523Y241299D03*
X152523Y241299D03*
X67523Y236299D03*
X77523Y236299D03*
X87523Y236299D03*
X97523Y236299D03*
X107523Y236299D03*
X117523Y236299D03*
X127523Y236299D03*
X137523Y236299D03*
X147523Y236299D03*
X157523Y236299D03*
X72523Y231299D03*
X82523Y231299D03*
X92523Y231299D03*
X102523Y231299D03*
X112523Y231299D03*
X122523Y231299D03*
X132523Y231299D03*
X77523Y226299D03*
X87523Y226299D03*
X97523Y226299D03*
X107523Y226299D03*
X117523Y226299D03*
X127523Y226299D03*
X82523Y221299D03*
X92523Y221299D03*
X102523Y221299D03*
X112523Y221299D03*
X122523Y221299D03*
X132523Y221299D03*
X137523Y226299D03*
X142523Y231299D03*
X152523Y231299D03*
X87523Y216299D03*
X77523Y216299D03*
X97523Y216299D03*
X82523Y211299D03*
X92523Y211299D03*
X102523Y211299D03*
X112523Y211299D03*
X122523Y211299D03*
X107523Y216299D03*
X117523Y216299D03*
X127523Y216299D03*
X132523Y211299D03*
X147523Y226299D03*
X157523Y226299D03*
X142523Y221299D03*
X152523Y221299D03*
X137523Y216299D03*
X147523Y216299D03*
X157523Y216299D03*
X142523Y211299D03*
X152523Y211299D03*
X87523Y206299D03*
X97523Y206299D03*
X107523Y206299D03*
X117523Y206299D03*
X127523Y206299D03*
X137523Y206299D03*
X147523Y206299D03*
X157523Y206299D03*
X82523Y201299D03*
X92523Y201299D03*
X102523Y201299D03*
X112523Y201299D03*
X122523Y201299D03*
X132523Y201299D03*
X142523Y201299D03*
X152523Y201299D03*
X87523Y196299D03*
X82523Y191299D03*
X92523Y191299D03*
X97523Y196299D03*
X102523Y191299D03*
X107523Y196299D03*
X82523Y181299D03*
X87523Y186299D03*
X92523Y181299D03*
X97523Y186299D03*
X117523Y196299D03*
X127523Y196299D03*
X137523Y196299D03*
X147523Y196299D03*
X157523Y196299D03*
X112523Y191299D03*
X122523Y191299D03*
X132523Y191299D03*
X142523Y191299D03*
X152523Y191299D03*
X107523Y186299D03*
X117523Y186299D03*
X127523Y186299D03*
X137523Y186299D03*
X147523Y186299D03*
X157523Y186299D03*
X102523Y181299D03*
X112523Y181299D03*
X122523Y181299D03*
X132523Y181299D03*
X142523Y181299D03*
X152523Y181299D03*
X87523Y176299D03*
X97523Y176299D03*
X107523Y176299D03*
X117523Y176299D03*
X127523Y176299D03*
X137523Y176299D03*
X147523Y176299D03*
X157523Y176299D03*
X82523Y171299D03*
X92523Y171299D03*
X102523Y171299D03*
X112523Y171299D03*
X122523Y171299D03*
X132523Y171299D03*
X142523Y171299D03*
X152523Y171299D03*
X87523Y166299D03*
X97523Y166299D03*
X107523Y166299D03*
X117523Y166299D03*
X127523Y166299D03*
X137523Y166299D03*
X147523Y166299D03*
X157523Y166299D03*
X92523Y161299D03*
X102523Y161299D03*
X112523Y161299D03*
X122523Y161299D03*
X132523Y161299D03*
X142523Y161299D03*
X152523Y161299D03*
X97523Y156299D03*
X107523Y156299D03*
X117523Y156299D03*
X127523Y156299D03*
X137523Y156299D03*
X147523Y156299D03*
X82523Y161299D03*
X87523Y156299D03*
X77523Y186299D03*
X77523Y181299D03*
X77523Y176299D03*
X77523Y171299D03*
X77523Y166299D03*
X77523Y161299D03*
X77523Y156299D03*
X77523Y191299D03*
X77523Y198799D03*
X6723Y246299D03*
X6723Y236139D03*
X6723Y225979D03*
X6723Y215819D03*
X6723Y205659D03*
X6723Y195499D03*
X6723Y185339D03*
X6723Y175179D03*
X6723Y163749D03*
X13073Y241219D03*
X13073Y231059D03*
X13073Y220899D03*
X13073Y210739D03*
X18153Y236139D03*
X18153Y225979D03*
X18153Y215819D03*
X18153Y205659D03*
X23233Y241219D03*
X23233Y231059D03*
X23233Y220899D03*
X23233Y210739D03*
X28313Y225979D03*
X28313Y215819D03*
X28313Y205659D03*
X33393Y210739D03*
X33393Y220899D03*
X38473Y215819D03*
X38473Y205659D03*
X43553Y210739D03*
X48633Y205659D03*
X36887Y195323D03*
X48633Y195499D03*
X43553Y200579D03*
X53713Y200579D03*
X54574Y193288D03*
X60686Y235787D03*
X66133Y230232D03*
X56876Y240867D03*
X71382Y225076D03*
X74502Y221097D03*
X26250Y236529D03*
X60667Y96983D03*
X60791Y106321D03*
X60929Y111207D03*
X60875Y116046D03*
X60776Y120680D03*
X60838Y125515D03*
X60813Y130394D03*
X60790Y135134D03*
X61031Y140023D03*
X61031Y144784D03*
X61827Y149610D03*
X61863Y154478D03*
X61790Y159264D03*
X61716Y164271D03*
X61643Y169057D03*
X61716Y173990D03*
X60684Y101716D03*
X88244Y146520D03*
X88244Y141440D03*
X56636Y173990D03*
X56563Y169057D03*
X56636Y164271D03*
X56710Y159264D03*
X56783Y154478D03*
X56747Y149610D03*
X55951Y144784D03*
X55951Y140023D03*
X55710Y135134D03*
X55733Y130394D03*
X55758Y125515D03*
X55696Y120680D03*
X55795Y116046D03*
X55849Y111207D03*
X55711Y106321D03*
X16510Y63500D03*
X11636Y156490D03*
X24136Y156490D03*
X36636Y156490D03*
X49136Y156490D03*
X19136Y148990D03*
X31636Y148990D03*
X44136Y148990D03*
X11636Y141490D03*
X24136Y141490D03*
X36636Y141490D03*
X49136Y141490D03*
X19136Y133990D03*
X31636Y133990D03*
X44136Y133990D03*
X49136Y126490D03*
X26636Y126490D03*
X36636Y126490D03*
X44136Y121490D03*
X31636Y121490D03*
X16636Y126490D03*
X9136Y133990D03*
X21636Y121490D03*
X26636Y116490D03*
X36636Y116490D03*
X49136Y116490D03*
X31636Y111490D03*
X44136Y111490D03*
X49136Y106490D03*
X36636Y106490D03*
X44136Y101490D03*
X49136Y166490D03*
X41636Y166490D03*
X36894Y172544D03*
X42108Y171916D03*
X45167Y176627D03*
X50184Y176749D03*
D12*
X144505Y54123D03*
X119380Y59690D03*
D11*
X153793Y142249D03*
X155063Y119389D03*
X155063Y107959D03*
X155063Y93989D03*
X155063Y68589D03*
X155063Y55889D03*
X157603Y16519D03*
X157603Y6359D03*
X147443Y6359D03*
X137283Y6359D03*
X9013Y5089D03*
X9013Y15249D03*
X10283Y81289D03*
X10283Y95259D03*
X10283Y107959D03*
X31013Y31249D03*
X16013Y31249D03*
X17723Y246299D03*
X30260Y246503D03*
X23910Y246503D03*
X92710Y102870D03*
X91440Y132080D03*
X92710Y95250D03*
X149860Y130810D03*
D12*
X140970Y125730D03*
D13*
X118110Y69850D03*
D14*
X140970Y82550D02*
X140970Y125730D01*
X128270Y69850D02*
X118110Y69850D01*
X128270Y69850D02*
X140970Y82550D01*
D11*
X78198Y13430D03*
X113030Y52070D03*
X118572Y50264D03*
X114300Y41910D03*
X118110Y36830D03*
X113030Y31750D03*
X104140Y19050D03*
X113965Y61895D03*
X52175Y14825D03*
X39000Y15000D03*
X26000Y15000D03*
X25400Y58420D03*
X25400Y64770D03*
X50800Y96520D03*
X45720Y91440D03*
M02*
