G04 EAGLE Gerber RS-274X export*
G75*
%MOMM*%
%FSLAX34Y34*%
%LPD*%
%INBottom Copper*%
%IPPOS*%
%AMOC8*
5,1,8,0,0,1.08239X$1,22.5*%
G01*
%ADD10C,1.016000*%
%ADD11C,1.100000*%
%ADD12C,0.450000*%
%ADD13C,0.453200*%
%ADD14C,0.152400*%
%ADD15C,0.503200*%
%ADD16C,0.254000*%

G36*
X159837Y2366D02*
X159837Y2366D01*
X159856Y2364D01*
X159958Y2386D01*
X160060Y2402D01*
X160077Y2412D01*
X160097Y2416D01*
X160186Y2469D01*
X160277Y2518D01*
X160291Y2532D01*
X160308Y2542D01*
X160375Y2621D01*
X160447Y2696D01*
X160455Y2714D01*
X160468Y2729D01*
X160507Y2825D01*
X160550Y2919D01*
X160552Y2939D01*
X160560Y2957D01*
X160578Y3124D01*
X160578Y31538D01*
X160559Y31653D01*
X160542Y31769D01*
X160540Y31775D01*
X160539Y31781D01*
X160484Y31883D01*
X160431Y31988D01*
X160426Y31993D01*
X160423Y31998D01*
X160339Y32078D01*
X160255Y32161D01*
X160249Y32164D01*
X160245Y32168D01*
X160228Y32176D01*
X160108Y32242D01*
X158963Y32716D01*
X157176Y34503D01*
X156933Y35089D01*
X156871Y35189D01*
X156812Y35289D01*
X156807Y35293D01*
X156803Y35298D01*
X156713Y35373D01*
X156625Y35449D01*
X156619Y35451D01*
X156614Y35455D01*
X156506Y35497D01*
X156396Y35541D01*
X156389Y35542D01*
X156384Y35543D01*
X156366Y35544D01*
X156230Y35559D01*
X144468Y35559D01*
X144378Y35545D01*
X144287Y35537D01*
X144257Y35525D01*
X144225Y35520D01*
X144144Y35477D01*
X144060Y35441D01*
X144028Y35415D01*
X144008Y35404D01*
X143985Y35381D01*
X143929Y35336D01*
X118052Y9459D01*
X94948Y9459D01*
X92171Y12236D01*
X92097Y12289D01*
X92027Y12349D01*
X91997Y12361D01*
X91971Y12380D01*
X91884Y12407D01*
X91799Y12441D01*
X91758Y12445D01*
X91736Y12452D01*
X91704Y12451D01*
X91632Y12459D01*
X84785Y12459D01*
X84670Y12440D01*
X84554Y12423D01*
X84548Y12421D01*
X84542Y12420D01*
X84439Y12365D01*
X84335Y12312D01*
X84330Y12307D01*
X84325Y12304D01*
X84245Y12220D01*
X84162Y12136D01*
X84159Y12130D01*
X84155Y12126D01*
X84148Y12109D01*
X84082Y11989D01*
X83740Y11165D01*
X81835Y9260D01*
X79347Y8229D01*
X76653Y8229D01*
X74165Y9260D01*
X72260Y11165D01*
X71229Y13653D01*
X71229Y16347D01*
X72260Y18835D01*
X74165Y20740D01*
X76653Y21771D01*
X79347Y21771D01*
X81835Y20740D01*
X83740Y18835D01*
X84082Y18011D01*
X84143Y17911D01*
X84203Y17811D01*
X84208Y17807D01*
X84211Y17802D01*
X84301Y17727D01*
X84390Y17651D01*
X84396Y17649D01*
X84401Y17645D01*
X84509Y17603D01*
X84618Y17559D01*
X84626Y17558D01*
X84630Y17557D01*
X84649Y17556D01*
X84785Y17541D01*
X94052Y17541D01*
X96829Y14764D01*
X96903Y14711D01*
X96973Y14651D01*
X97003Y14639D01*
X97029Y14620D01*
X97116Y14593D01*
X97201Y14559D01*
X97242Y14555D01*
X97264Y14548D01*
X97296Y14549D01*
X97368Y14541D01*
X101832Y14541D01*
X101903Y14552D01*
X101975Y14554D01*
X102024Y14572D01*
X102075Y14580D01*
X102138Y14614D01*
X102206Y14639D01*
X102246Y14671D01*
X102293Y14696D01*
X102342Y14748D01*
X102398Y14792D01*
X102426Y14836D01*
X102462Y14874D01*
X102492Y14939D01*
X102531Y14999D01*
X102544Y15050D01*
X102566Y15097D01*
X102573Y15168D01*
X102591Y15238D01*
X102587Y15290D01*
X102593Y15341D01*
X102577Y15412D01*
X102572Y15483D01*
X102551Y15531D01*
X102540Y15582D01*
X102504Y15643D01*
X102475Y15709D01*
X102431Y15765D01*
X102414Y15793D01*
X102412Y15794D01*
X102412Y15795D01*
X102396Y15809D01*
X102371Y15840D01*
X100619Y17592D01*
X100619Y20508D01*
X102682Y22571D01*
X104471Y22571D01*
X104561Y22585D01*
X104652Y22593D01*
X104681Y22605D01*
X104713Y22610D01*
X104794Y22653D01*
X104878Y22689D01*
X104910Y22715D01*
X104931Y22726D01*
X104953Y22749D01*
X105009Y22794D01*
X109504Y27289D01*
X110470Y28255D01*
X110481Y28271D01*
X110497Y28283D01*
X110553Y28370D01*
X110613Y28454D01*
X110619Y28473D01*
X110630Y28490D01*
X110655Y28590D01*
X110686Y28689D01*
X110685Y28709D01*
X110690Y28729D01*
X110682Y28832D01*
X110679Y28935D01*
X110672Y28954D01*
X110671Y28974D01*
X110631Y29069D01*
X110595Y29166D01*
X110582Y29182D01*
X110575Y29200D01*
X110470Y29331D01*
X109509Y30292D01*
X109509Y33208D01*
X111572Y35271D01*
X113828Y35271D01*
X113848Y35274D01*
X113867Y35272D01*
X113969Y35294D01*
X114071Y35310D01*
X114088Y35320D01*
X114108Y35324D01*
X114197Y35377D01*
X114288Y35426D01*
X114302Y35440D01*
X114319Y35450D01*
X114386Y35529D01*
X114458Y35604D01*
X114466Y35622D01*
X114479Y35637D01*
X114518Y35733D01*
X114561Y35827D01*
X114563Y35847D01*
X114571Y35865D01*
X114589Y36032D01*
X114589Y37628D01*
X114586Y37648D01*
X114588Y37667D01*
X114566Y37769D01*
X114550Y37871D01*
X114540Y37888D01*
X114536Y37908D01*
X114483Y37997D01*
X114434Y38088D01*
X114420Y38102D01*
X114410Y38119D01*
X114331Y38186D01*
X114256Y38258D01*
X114238Y38266D01*
X114223Y38279D01*
X114127Y38318D01*
X114033Y38361D01*
X114013Y38363D01*
X113995Y38371D01*
X113828Y38389D01*
X112842Y38389D01*
X110779Y40452D01*
X110779Y43368D01*
X112842Y45431D01*
X115758Y45431D01*
X116296Y44893D01*
X116312Y44881D01*
X116325Y44866D01*
X116412Y44810D01*
X116496Y44750D01*
X116515Y44744D01*
X116531Y44733D01*
X116632Y44708D01*
X116731Y44677D01*
X116751Y44678D01*
X116770Y44673D01*
X116873Y44681D01*
X116977Y44684D01*
X116995Y44690D01*
X117015Y44692D01*
X117110Y44732D01*
X117208Y44768D01*
X117223Y44781D01*
X117242Y44788D01*
X117373Y44893D01*
X117923Y45444D01*
X117965Y45502D01*
X118015Y45554D01*
X118037Y45602D01*
X118067Y45644D01*
X118088Y45712D01*
X118118Y45777D01*
X118124Y45829D01*
X118139Y45879D01*
X118137Y45951D01*
X118145Y46022D01*
X118134Y46073D01*
X118133Y46125D01*
X118108Y46192D01*
X118093Y46262D01*
X118066Y46307D01*
X118049Y46356D01*
X118004Y46412D01*
X117967Y46473D01*
X117927Y46507D01*
X117895Y46548D01*
X117835Y46587D01*
X117780Y46633D01*
X117732Y46653D01*
X117688Y46681D01*
X117618Y46698D01*
X117552Y46725D01*
X117481Y46733D01*
X117449Y46741D01*
X117426Y46739D01*
X117385Y46744D01*
X117114Y46744D01*
X115437Y48421D01*
X115420Y48433D01*
X115408Y48448D01*
X115321Y48504D01*
X115237Y48565D01*
X115218Y48570D01*
X115201Y48581D01*
X115101Y48606D01*
X115002Y48637D01*
X114982Y48636D01*
X114962Y48641D01*
X114860Y48633D01*
X114756Y48631D01*
X114737Y48624D01*
X114717Y48622D01*
X114622Y48582D01*
X114534Y48549D01*
X111572Y48549D01*
X109509Y50612D01*
X109509Y53528D01*
X111572Y55591D01*
X113361Y55591D01*
X113451Y55605D01*
X113542Y55613D01*
X113571Y55625D01*
X113603Y55630D01*
X113684Y55673D01*
X113768Y55709D01*
X113800Y55735D01*
X113821Y55746D01*
X113843Y55769D01*
X113899Y55814D01*
X114728Y56643D01*
X120904Y56643D01*
X120994Y56657D01*
X121085Y56665D01*
X121115Y56677D01*
X121147Y56682D01*
X121227Y56725D01*
X121311Y56761D01*
X121343Y56787D01*
X121364Y56798D01*
X121386Y56821D01*
X121442Y56866D01*
X125679Y61102D01*
X125721Y61160D01*
X125770Y61212D01*
X125792Y61260D01*
X125822Y61302D01*
X125844Y61370D01*
X125874Y61436D01*
X125879Y61487D01*
X125895Y61537D01*
X125893Y61609D01*
X125901Y61680D01*
X125890Y61731D01*
X125888Y61783D01*
X125864Y61850D01*
X125849Y61920D01*
X125822Y61965D01*
X125804Y62014D01*
X125759Y62070D01*
X125722Y62131D01*
X125683Y62165D01*
X125650Y62206D01*
X125590Y62245D01*
X125536Y62291D01*
X125487Y62311D01*
X125443Y62339D01*
X125374Y62357D01*
X125307Y62383D01*
X125236Y62391D01*
X125205Y62399D01*
X125182Y62397D01*
X125141Y62402D01*
X118246Y62402D01*
X118227Y62399D01*
X118207Y62401D01*
X118106Y62379D01*
X118004Y62362D01*
X117986Y62353D01*
X117967Y62349D01*
X117878Y62295D01*
X117786Y62247D01*
X117773Y62233D01*
X117756Y62222D01*
X117688Y62144D01*
X117617Y62069D01*
X117609Y62051D01*
X117596Y62035D01*
X117557Y61939D01*
X117513Y61846D01*
X117511Y61826D01*
X117504Y61807D01*
X117485Y61641D01*
X117485Y60436D01*
X115423Y58374D01*
X112506Y58374D01*
X110444Y60436D01*
X110444Y63353D01*
X112506Y65415D01*
X114295Y65415D01*
X114385Y65430D01*
X114476Y65437D01*
X114506Y65450D01*
X114538Y65455D01*
X114619Y65498D01*
X114702Y65533D01*
X114735Y65559D01*
X114755Y65570D01*
X114777Y65593D01*
X114833Y65638D01*
X115362Y66166D01*
X115373Y66183D01*
X115389Y66195D01*
X115445Y66282D01*
X115505Y66366D01*
X115511Y66385D01*
X115522Y66402D01*
X115547Y66503D01*
X115578Y66601D01*
X115577Y66621D01*
X115582Y66641D01*
X115574Y66744D01*
X115571Y66847D01*
X115564Y66866D01*
X115563Y66886D01*
X115522Y66981D01*
X115487Y67078D01*
X115474Y67094D01*
X115467Y67112D01*
X115362Y67243D01*
X114323Y68281D01*
X114323Y71419D01*
X116541Y73637D01*
X119679Y73637D01*
X121897Y71419D01*
X121897Y68281D01*
X121382Y67767D01*
X121340Y67709D01*
X121291Y67657D01*
X121269Y67609D01*
X121239Y67567D01*
X121217Y67499D01*
X121187Y67434D01*
X121181Y67382D01*
X121166Y67332D01*
X121168Y67260D01*
X121160Y67189D01*
X121171Y67138D01*
X121173Y67086D01*
X121197Y67019D01*
X121212Y66949D01*
X121239Y66904D01*
X121257Y66855D01*
X121302Y66799D01*
X121339Y66738D01*
X121378Y66704D01*
X121411Y66663D01*
X121471Y66624D01*
X121525Y66578D01*
X121574Y66558D01*
X121618Y66530D01*
X121687Y66513D01*
X121754Y66486D01*
X121825Y66478D01*
X121856Y66470D01*
X121879Y66472D01*
X121920Y66467D01*
X126777Y66467D01*
X126867Y66482D01*
X126958Y66489D01*
X126988Y66502D01*
X127020Y66507D01*
X127101Y66550D01*
X127185Y66585D01*
X127217Y66611D01*
X127237Y66622D01*
X127260Y66645D01*
X127315Y66690D01*
X141254Y80629D01*
X141307Y80703D01*
X141367Y80772D01*
X141379Y80803D01*
X141398Y80829D01*
X141425Y80916D01*
X141459Y81001D01*
X141463Y81042D01*
X141470Y81064D01*
X141469Y81096D01*
X141477Y81167D01*
X141477Y115142D01*
X155368Y129033D01*
X156019Y129033D01*
X156134Y129052D01*
X156250Y129069D01*
X156256Y129071D01*
X156262Y129072D01*
X156364Y129127D01*
X156470Y129180D01*
X156474Y129185D01*
X156479Y129188D01*
X156559Y129272D01*
X156642Y129356D01*
X156645Y129362D01*
X156649Y129366D01*
X156657Y129383D01*
X156723Y129503D01*
X157176Y130597D01*
X158963Y132384D01*
X159597Y132647D01*
X159658Y132684D01*
X159723Y132714D01*
X159762Y132749D01*
X159806Y132776D01*
X159852Y132831D01*
X159905Y132880D01*
X159930Y132926D01*
X159963Y132966D01*
X159989Y133033D01*
X160023Y133096D01*
X160032Y133147D01*
X160051Y133195D01*
X160054Y133267D01*
X160067Y133338D01*
X160059Y133389D01*
X160062Y133441D01*
X160042Y133510D01*
X160031Y133581D01*
X160007Y133627D01*
X159993Y133677D01*
X159952Y133736D01*
X159920Y133800D01*
X159882Y133837D01*
X159853Y133879D01*
X159795Y133922D01*
X159744Y133972D01*
X159681Y134007D01*
X159655Y134026D01*
X159633Y134033D01*
X159597Y134053D01*
X158963Y134316D01*
X157176Y136103D01*
X156209Y138437D01*
X156209Y140963D01*
X157176Y143297D01*
X158963Y145084D01*
X160108Y145558D01*
X160208Y145620D01*
X160308Y145680D01*
X160312Y145685D01*
X160317Y145688D01*
X160392Y145779D01*
X160468Y145867D01*
X160470Y145873D01*
X160474Y145878D01*
X160516Y145986D01*
X160560Y146095D01*
X160561Y146103D01*
X160562Y146107D01*
X160563Y146125D01*
X160578Y146262D01*
X160578Y248989D01*
X160575Y249009D01*
X160577Y249028D01*
X160555Y249130D01*
X160539Y249232D01*
X160529Y249249D01*
X160525Y249269D01*
X160472Y249358D01*
X160423Y249449D01*
X160409Y249463D01*
X160399Y249480D01*
X160320Y249547D01*
X160245Y249619D01*
X160227Y249627D01*
X160212Y249640D01*
X160116Y249679D01*
X160022Y249722D01*
X160002Y249724D01*
X159984Y249732D01*
X159817Y249750D01*
X4775Y249750D01*
X4755Y249747D01*
X4736Y249749D01*
X4634Y249727D01*
X4532Y249710D01*
X4515Y249701D01*
X4495Y249697D01*
X4406Y249644D01*
X4315Y249595D01*
X4301Y249581D01*
X4284Y249571D01*
X4217Y249492D01*
X4145Y249417D01*
X4137Y249399D01*
X4124Y249384D01*
X4085Y249288D01*
X4042Y249194D01*
X4040Y249174D01*
X4032Y249156D01*
X4014Y248989D01*
X4014Y146531D01*
X4033Y146416D01*
X4050Y146300D01*
X4052Y146294D01*
X4053Y146288D01*
X4108Y146186D01*
X4161Y146081D01*
X4166Y146076D01*
X4169Y146071D01*
X4253Y145991D01*
X4337Y145908D01*
X4343Y145905D01*
X4347Y145901D01*
X4364Y145894D01*
X4484Y145828D01*
X5232Y145517D01*
X7019Y143731D01*
X7986Y141397D01*
X7986Y138870D01*
X7019Y136536D01*
X5232Y134750D01*
X4598Y134487D01*
X4537Y134449D01*
X4471Y134420D01*
X4433Y134385D01*
X4389Y134357D01*
X4343Y134302D01*
X4290Y134254D01*
X4265Y134208D01*
X4232Y134168D01*
X4206Y134101D01*
X4172Y134038D01*
X4163Y133987D01*
X4144Y133938D01*
X4141Y133867D01*
X4128Y133796D01*
X4136Y133744D01*
X4133Y133692D01*
X4153Y133624D01*
X4164Y133553D01*
X4187Y133506D01*
X4202Y133456D01*
X4243Y133397D01*
X4275Y133333D01*
X4313Y133297D01*
X4342Y133254D01*
X4400Y133211D01*
X4451Y133161D01*
X4514Y133127D01*
X4540Y133107D01*
X4562Y133100D01*
X4598Y133080D01*
X5232Y132817D01*
X7019Y131031D01*
X7986Y128697D01*
X7986Y126156D01*
X8000Y126066D01*
X8008Y125975D01*
X8020Y125945D01*
X8025Y125913D01*
X8068Y125832D01*
X8104Y125748D01*
X8130Y125716D01*
X8141Y125696D01*
X8164Y125673D01*
X8209Y125617D01*
X35050Y98776D01*
X35124Y98723D01*
X35194Y98663D01*
X35224Y98651D01*
X35250Y98632D01*
X35337Y98605D01*
X35422Y98571D01*
X35463Y98567D01*
X35485Y98560D01*
X35517Y98561D01*
X35589Y98553D01*
X47538Y98553D01*
X47628Y98567D01*
X47719Y98575D01*
X47749Y98587D01*
X47781Y98592D01*
X47862Y98635D01*
X47946Y98671D01*
X47978Y98697D01*
X47998Y98708D01*
X48021Y98731D01*
X48077Y98776D01*
X49342Y100041D01*
X52258Y100041D01*
X54321Y97978D01*
X54321Y95062D01*
X52258Y92999D01*
X50002Y92999D01*
X49982Y92996D01*
X49963Y92998D01*
X49861Y92976D01*
X49759Y92960D01*
X49742Y92950D01*
X49722Y92946D01*
X49633Y92893D01*
X49542Y92844D01*
X49528Y92830D01*
X49511Y92820D01*
X49444Y92741D01*
X49372Y92666D01*
X49364Y92648D01*
X49351Y92633D01*
X49312Y92537D01*
X49269Y92443D01*
X49267Y92423D01*
X49259Y92405D01*
X49241Y92238D01*
X49241Y89982D01*
X47178Y87919D01*
X44262Y87919D01*
X42997Y89184D01*
X42923Y89237D01*
X42853Y89297D01*
X42823Y89309D01*
X42797Y89328D01*
X42710Y89355D01*
X42625Y89389D01*
X42584Y89393D01*
X42562Y89400D01*
X42530Y89399D01*
X42458Y89407D01*
X34718Y89407D01*
X11647Y112478D01*
X11573Y112531D01*
X11504Y112590D01*
X11474Y112603D01*
X11448Y112621D01*
X11361Y112648D01*
X11276Y112682D01*
X11235Y112687D01*
X11213Y112694D01*
X11180Y112693D01*
X11109Y112701D01*
X8176Y112701D01*
X8061Y112682D01*
X7945Y112665D01*
X7939Y112662D01*
X7933Y112661D01*
X7831Y112607D01*
X7725Y112553D01*
X7721Y112549D01*
X7716Y112546D01*
X7636Y112462D01*
X7553Y112378D01*
X7550Y112371D01*
X7546Y112368D01*
X7538Y112351D01*
X7472Y112231D01*
X7019Y111136D01*
X5232Y109350D01*
X4598Y109087D01*
X4537Y109049D01*
X4471Y109020D01*
X4433Y108985D01*
X4389Y108957D01*
X4343Y108902D01*
X4290Y108854D01*
X4265Y108808D01*
X4232Y108768D01*
X4206Y108701D01*
X4172Y108638D01*
X4163Y108587D01*
X4144Y108538D01*
X4141Y108467D01*
X4128Y108396D01*
X4136Y108344D01*
X4133Y108292D01*
X4153Y108224D01*
X4164Y108153D01*
X4187Y108106D01*
X4202Y108056D01*
X4243Y107997D01*
X4275Y107933D01*
X4313Y107897D01*
X4342Y107854D01*
X4400Y107811D01*
X4451Y107761D01*
X4514Y107727D01*
X4540Y107707D01*
X4562Y107700D01*
X4598Y107680D01*
X5232Y107417D01*
X7019Y105631D01*
X7472Y104536D01*
X7534Y104436D01*
X7594Y104337D01*
X7599Y104333D01*
X7602Y104327D01*
X7693Y104252D01*
X7781Y104177D01*
X7787Y104174D01*
X7791Y104170D01*
X7900Y104129D01*
X8009Y104085D01*
X8016Y104084D01*
X8021Y104082D01*
X8039Y104081D01*
X8176Y104066D01*
X11838Y104066D01*
X27433Y88472D01*
X27433Y68032D01*
X27447Y67942D01*
X27455Y67851D01*
X27467Y67821D01*
X27472Y67789D01*
X27515Y67708D01*
X27551Y67624D01*
X27577Y67592D01*
X27588Y67572D01*
X27611Y67549D01*
X27656Y67493D01*
X28921Y66228D01*
X28921Y63312D01*
X27742Y62133D01*
X27731Y62117D01*
X27715Y62105D01*
X27659Y62017D01*
X27599Y61934D01*
X27593Y61915D01*
X27582Y61898D01*
X27557Y61797D01*
X27526Y61698D01*
X27527Y61679D01*
X27522Y61659D01*
X27530Y61556D01*
X27533Y61453D01*
X27540Y61434D01*
X27541Y61414D01*
X27582Y61319D01*
X27617Y61222D01*
X27630Y61206D01*
X27638Y61188D01*
X27742Y61057D01*
X28921Y59878D01*
X28921Y56962D01*
X26858Y54899D01*
X23942Y54899D01*
X21879Y56962D01*
X21879Y58751D01*
X21865Y58841D01*
X21857Y58932D01*
X21845Y58961D01*
X21840Y58993D01*
X21797Y59074D01*
X21761Y59158D01*
X21735Y59190D01*
X21724Y59211D01*
X21701Y59233D01*
X21656Y59289D01*
X19085Y61860D01*
X19085Y67386D01*
X20350Y68651D01*
X20403Y68725D01*
X20463Y68794D01*
X20475Y68824D01*
X20494Y68850D01*
X20521Y68937D01*
X20555Y69022D01*
X20559Y69063D01*
X20566Y69086D01*
X20565Y69118D01*
X20573Y69189D01*
X20573Y82917D01*
X20559Y83007D01*
X20551Y83098D01*
X20539Y83127D01*
X20534Y83159D01*
X20491Y83240D01*
X20455Y83324D01*
X20429Y83356D01*
X20418Y83377D01*
X20395Y83399D01*
X20350Y83455D01*
X16727Y87078D01*
X16653Y87131D01*
X16584Y87190D01*
X16554Y87203D01*
X16528Y87221D01*
X16441Y87248D01*
X16356Y87282D01*
X16315Y87287D01*
X16293Y87294D01*
X16260Y87293D01*
X16189Y87301D01*
X8176Y87301D01*
X8061Y87282D01*
X7945Y87265D01*
X7939Y87262D01*
X7933Y87261D01*
X7831Y87207D01*
X7725Y87153D01*
X7721Y87149D01*
X7716Y87146D01*
X7636Y87062D01*
X7553Y86978D01*
X7550Y86971D01*
X7546Y86968D01*
X7538Y86951D01*
X7472Y86831D01*
X7019Y85736D01*
X5232Y83950D01*
X4598Y83687D01*
X4537Y83649D01*
X4471Y83620D01*
X4433Y83585D01*
X4389Y83557D01*
X4343Y83502D01*
X4290Y83454D01*
X4265Y83408D01*
X4232Y83368D01*
X4206Y83301D01*
X4172Y83238D01*
X4163Y83187D01*
X4144Y83138D01*
X4141Y83067D01*
X4128Y82996D01*
X4136Y82944D01*
X4133Y82892D01*
X4153Y82824D01*
X4164Y82753D01*
X4187Y82706D01*
X4202Y82656D01*
X4243Y82597D01*
X4275Y82533D01*
X4313Y82497D01*
X4342Y82454D01*
X4400Y82411D01*
X4451Y82361D01*
X4514Y82327D01*
X4540Y82307D01*
X4562Y82300D01*
X4598Y82280D01*
X5232Y82017D01*
X7019Y80231D01*
X7986Y77897D01*
X7986Y75370D01*
X7019Y73036D01*
X5232Y71250D01*
X4598Y70987D01*
X4537Y70949D01*
X4471Y70920D01*
X4433Y70885D01*
X4389Y70857D01*
X4343Y70802D01*
X4290Y70754D01*
X4265Y70708D01*
X4232Y70668D01*
X4206Y70601D01*
X4172Y70538D01*
X4163Y70487D01*
X4144Y70438D01*
X4141Y70367D01*
X4128Y70296D01*
X4136Y70244D01*
X4133Y70192D01*
X4153Y70124D01*
X4164Y70053D01*
X4187Y70006D01*
X4202Y69956D01*
X4243Y69897D01*
X4275Y69833D01*
X4313Y69797D01*
X4342Y69754D01*
X4400Y69711D01*
X4451Y69661D01*
X4514Y69627D01*
X4540Y69607D01*
X4562Y69600D01*
X4598Y69580D01*
X5232Y69317D01*
X7019Y67531D01*
X7986Y65197D01*
X7986Y62670D01*
X7019Y60336D01*
X5232Y58550D01*
X4598Y58287D01*
X4537Y58249D01*
X4471Y58220D01*
X4433Y58185D01*
X4389Y58157D01*
X4343Y58102D01*
X4290Y58054D01*
X4265Y58008D01*
X4232Y57968D01*
X4206Y57901D01*
X4172Y57838D01*
X4163Y57787D01*
X4144Y57738D01*
X4141Y57667D01*
X4128Y57596D01*
X4136Y57544D01*
X4133Y57492D01*
X4153Y57424D01*
X4164Y57353D01*
X4187Y57306D01*
X4202Y57256D01*
X4243Y57197D01*
X4275Y57133D01*
X4313Y57097D01*
X4342Y57054D01*
X4400Y57011D01*
X4451Y56961D01*
X4514Y56927D01*
X4540Y56907D01*
X4562Y56900D01*
X4598Y56880D01*
X5232Y56617D01*
X7019Y54831D01*
X7986Y52497D01*
X7986Y49970D01*
X7019Y47636D01*
X5232Y45850D01*
X4598Y45587D01*
X4537Y45549D01*
X4471Y45520D01*
X4433Y45485D01*
X4389Y45457D01*
X4343Y45402D01*
X4290Y45354D01*
X4265Y45308D01*
X4232Y45268D01*
X4206Y45201D01*
X4172Y45138D01*
X4163Y45087D01*
X4144Y45038D01*
X4141Y44967D01*
X4128Y44896D01*
X4136Y44844D01*
X4133Y44792D01*
X4153Y44724D01*
X4164Y44653D01*
X4187Y44606D01*
X4202Y44556D01*
X4243Y44497D01*
X4275Y44433D01*
X4313Y44397D01*
X4342Y44354D01*
X4400Y44311D01*
X4451Y44261D01*
X4514Y44227D01*
X4540Y44207D01*
X4562Y44200D01*
X4598Y44180D01*
X5232Y43917D01*
X7019Y42131D01*
X7472Y41036D01*
X7534Y40936D01*
X7594Y40837D01*
X7599Y40833D01*
X7602Y40827D01*
X7693Y40752D01*
X7781Y40677D01*
X7787Y40674D01*
X7791Y40670D01*
X7900Y40629D01*
X8009Y40585D01*
X8016Y40584D01*
X8021Y40582D01*
X8039Y40581D01*
X8176Y40566D01*
X18308Y40566D01*
X28033Y30842D01*
X28033Y21995D01*
X28052Y21880D01*
X28069Y21764D01*
X28071Y21759D01*
X28072Y21752D01*
X28127Y21650D01*
X28180Y21545D01*
X28185Y21541D01*
X28188Y21535D01*
X28272Y21455D01*
X28356Y21373D01*
X28362Y21369D01*
X28366Y21366D01*
X28383Y21358D01*
X28503Y21292D01*
X29835Y20740D01*
X31740Y18835D01*
X31797Y18698D01*
X31834Y18637D01*
X31864Y18572D01*
X31899Y18533D01*
X31926Y18489D01*
X31981Y18444D01*
X32030Y18391D01*
X32076Y18366D01*
X32116Y18332D01*
X32183Y18307D01*
X32246Y18272D01*
X32297Y18263D01*
X32345Y18244D01*
X32417Y18241D01*
X32488Y18228D01*
X32539Y18236D01*
X32591Y18234D01*
X32660Y18254D01*
X32731Y18264D01*
X32777Y18288D01*
X32827Y18302D01*
X32886Y18343D01*
X32950Y18376D01*
X32987Y18413D01*
X33029Y18443D01*
X33072Y18500D01*
X33122Y18551D01*
X33157Y18614D01*
X33176Y18640D01*
X33183Y18662D01*
X33203Y18698D01*
X33260Y18835D01*
X35165Y20740D01*
X37653Y21771D01*
X40347Y21771D01*
X42835Y20740D01*
X44740Y18835D01*
X44797Y18698D01*
X44835Y18637D01*
X44864Y18572D01*
X44899Y18533D01*
X44926Y18489D01*
X44982Y18444D01*
X45030Y18391D01*
X45076Y18366D01*
X45116Y18332D01*
X45183Y18307D01*
X45246Y18272D01*
X45297Y18263D01*
X45345Y18244D01*
X45417Y18241D01*
X45488Y18228D01*
X45539Y18236D01*
X45591Y18234D01*
X45660Y18254D01*
X45731Y18264D01*
X45777Y18288D01*
X45827Y18302D01*
X45886Y18343D01*
X45950Y18376D01*
X45987Y18413D01*
X46029Y18443D01*
X46072Y18500D01*
X46122Y18551D01*
X46157Y18614D01*
X46176Y18640D01*
X46183Y18662D01*
X46203Y18698D01*
X46260Y18835D01*
X48165Y20740D01*
X50653Y21771D01*
X53347Y21771D01*
X55835Y20740D01*
X57740Y18835D01*
X58771Y16347D01*
X58771Y13653D01*
X57740Y11165D01*
X55835Y9260D01*
X55097Y8954D01*
X54997Y8893D01*
X54897Y8833D01*
X54893Y8828D01*
X54888Y8824D01*
X54813Y8734D01*
X54737Y8646D01*
X54735Y8640D01*
X54731Y8635D01*
X54689Y8527D01*
X54645Y8418D01*
X54644Y8410D01*
X54643Y8405D01*
X54642Y8387D01*
X54627Y8251D01*
X54627Y6668D01*
X54646Y6553D01*
X54663Y6437D01*
X54665Y6431D01*
X54666Y6425D01*
X54721Y6323D01*
X54774Y6217D01*
X54779Y6213D01*
X54782Y6208D01*
X54866Y6128D01*
X54950Y6045D01*
X54956Y6042D01*
X54960Y6038D01*
X54977Y6030D01*
X55097Y5964D01*
X56191Y5511D01*
X57978Y3724D01*
X58241Y3090D01*
X58278Y3029D01*
X58308Y2963D01*
X58343Y2925D01*
X58370Y2881D01*
X58426Y2835D01*
X58474Y2782D01*
X58520Y2757D01*
X58560Y2724D01*
X58627Y2698D01*
X58690Y2664D01*
X58741Y2655D01*
X58789Y2636D01*
X58861Y2633D01*
X58932Y2620D01*
X58983Y2628D01*
X59035Y2625D01*
X59104Y2645D01*
X59175Y2656D01*
X59221Y2679D01*
X59271Y2694D01*
X59330Y2735D01*
X59394Y2767D01*
X59431Y2805D01*
X59473Y2834D01*
X59516Y2892D01*
X59566Y2943D01*
X59601Y3006D01*
X59620Y3032D01*
X59628Y3054D01*
X59647Y3090D01*
X59910Y3724D01*
X61697Y5511D01*
X64031Y6478D01*
X66557Y6478D01*
X68891Y5511D01*
X70678Y3724D01*
X70941Y3090D01*
X70978Y3029D01*
X71008Y2963D01*
X71043Y2925D01*
X71070Y2881D01*
X71126Y2835D01*
X71174Y2782D01*
X71220Y2757D01*
X71260Y2724D01*
X71327Y2698D01*
X71390Y2664D01*
X71441Y2655D01*
X71489Y2636D01*
X71561Y2633D01*
X71632Y2620D01*
X71683Y2628D01*
X71735Y2625D01*
X71804Y2645D01*
X71875Y2656D01*
X71921Y2679D01*
X71971Y2694D01*
X72030Y2735D01*
X72094Y2767D01*
X72131Y2805D01*
X72173Y2834D01*
X72216Y2892D01*
X72266Y2943D01*
X72301Y3006D01*
X72320Y3032D01*
X72328Y3054D01*
X72347Y3090D01*
X72610Y3724D01*
X74397Y5511D01*
X76731Y6478D01*
X79257Y6478D01*
X81591Y5511D01*
X83378Y3724D01*
X83641Y3090D01*
X83678Y3029D01*
X83708Y2963D01*
X83743Y2925D01*
X83770Y2881D01*
X83826Y2835D01*
X83874Y2782D01*
X83920Y2757D01*
X83960Y2724D01*
X84027Y2698D01*
X84090Y2664D01*
X84141Y2655D01*
X84189Y2636D01*
X84261Y2633D01*
X84332Y2620D01*
X84383Y2628D01*
X84435Y2625D01*
X84504Y2645D01*
X84575Y2656D01*
X84621Y2679D01*
X84671Y2694D01*
X84730Y2735D01*
X84794Y2767D01*
X84831Y2805D01*
X84873Y2834D01*
X84916Y2892D01*
X84966Y2943D01*
X85001Y3006D01*
X85020Y3032D01*
X85027Y3054D01*
X85047Y3090D01*
X85310Y3724D01*
X87097Y5511D01*
X89431Y6478D01*
X91957Y6478D01*
X94291Y5511D01*
X96078Y3724D01*
X96341Y3090D01*
X96378Y3029D01*
X96408Y2963D01*
X96443Y2925D01*
X96470Y2881D01*
X96526Y2835D01*
X96574Y2782D01*
X96620Y2757D01*
X96660Y2724D01*
X96727Y2698D01*
X96790Y2664D01*
X96841Y2655D01*
X96889Y2636D01*
X96961Y2633D01*
X97032Y2620D01*
X97083Y2628D01*
X97135Y2625D01*
X97204Y2645D01*
X97275Y2656D01*
X97321Y2679D01*
X97371Y2694D01*
X97430Y2735D01*
X97494Y2767D01*
X97531Y2805D01*
X97573Y2834D01*
X97616Y2892D01*
X97666Y2943D01*
X97701Y3006D01*
X97720Y3032D01*
X97727Y3054D01*
X97747Y3090D01*
X98010Y3724D01*
X99797Y5511D01*
X102131Y6478D01*
X104657Y6478D01*
X106991Y5511D01*
X108778Y3724D01*
X109041Y3090D01*
X109078Y3029D01*
X109108Y2963D01*
X109143Y2925D01*
X109170Y2881D01*
X109226Y2835D01*
X109274Y2782D01*
X109320Y2757D01*
X109360Y2724D01*
X109427Y2698D01*
X109490Y2664D01*
X109541Y2655D01*
X109589Y2636D01*
X109661Y2633D01*
X109732Y2620D01*
X109783Y2628D01*
X109835Y2625D01*
X109904Y2645D01*
X109975Y2656D01*
X110021Y2679D01*
X110071Y2694D01*
X110130Y2735D01*
X110194Y2767D01*
X110231Y2805D01*
X110273Y2834D01*
X110316Y2892D01*
X110366Y2943D01*
X110401Y3006D01*
X110420Y3032D01*
X110427Y3054D01*
X110447Y3090D01*
X110710Y3724D01*
X112497Y5511D01*
X114831Y6478D01*
X117357Y6478D01*
X119691Y5511D01*
X121478Y3724D01*
X121741Y3090D01*
X121778Y3029D01*
X121808Y2963D01*
X121843Y2925D01*
X121870Y2881D01*
X121926Y2835D01*
X121974Y2782D01*
X122020Y2757D01*
X122060Y2724D01*
X122127Y2698D01*
X122190Y2664D01*
X122241Y2655D01*
X122289Y2636D01*
X122361Y2633D01*
X122432Y2620D01*
X122483Y2628D01*
X122535Y2625D01*
X122604Y2645D01*
X122675Y2656D01*
X122721Y2679D01*
X122771Y2694D01*
X122830Y2735D01*
X122894Y2767D01*
X122931Y2805D01*
X122973Y2834D01*
X123016Y2892D01*
X123066Y2943D01*
X123101Y3006D01*
X123120Y3032D01*
X123127Y3054D01*
X123147Y3090D01*
X123410Y3724D01*
X125197Y5511D01*
X127531Y6478D01*
X130057Y6478D01*
X132391Y5511D01*
X134178Y3724D01*
X134547Y2833D01*
X134609Y2733D01*
X134669Y2633D01*
X134674Y2629D01*
X134677Y2624D01*
X134767Y2549D01*
X134856Y2473D01*
X134862Y2471D01*
X134866Y2467D01*
X134974Y2425D01*
X135084Y2381D01*
X135091Y2380D01*
X135096Y2379D01*
X135114Y2378D01*
X135251Y2363D01*
X159817Y2363D01*
X159837Y2366D01*
G37*
%LPC*%
G36*
X91252Y91729D02*
X91252Y91729D01*
X89189Y93792D01*
X89189Y96708D01*
X91003Y98522D01*
X91014Y98538D01*
X91030Y98550D01*
X91060Y98597D01*
X91075Y98613D01*
X91088Y98640D01*
X91146Y98721D01*
X91152Y98740D01*
X91163Y98757D01*
X91188Y98858D01*
X91219Y98957D01*
X91218Y98976D01*
X91223Y98996D01*
X91215Y99099D01*
X91212Y99202D01*
X91205Y99221D01*
X91204Y99241D01*
X91163Y99336D01*
X91128Y99433D01*
X91115Y99449D01*
X91107Y99467D01*
X91003Y99598D01*
X89189Y101412D01*
X89189Y104328D01*
X90454Y105593D01*
X90507Y105667D01*
X90567Y105737D01*
X90579Y105767D01*
X90598Y105793D01*
X90625Y105880D01*
X90659Y105965D01*
X90663Y106006D01*
X90670Y106028D01*
X90669Y106060D01*
X90677Y106132D01*
X90677Y127798D01*
X90674Y127818D01*
X90676Y127837D01*
X90654Y127939D01*
X90638Y128041D01*
X90628Y128058D01*
X90624Y128078D01*
X90571Y128167D01*
X90522Y128258D01*
X90508Y128272D01*
X90498Y128289D01*
X90419Y128356D01*
X90344Y128428D01*
X90326Y128436D01*
X90311Y128449D01*
X90215Y128488D01*
X90121Y128531D01*
X90101Y128533D01*
X90083Y128541D01*
X89990Y128551D01*
X87919Y130622D01*
X87919Y133538D01*
X89982Y135601D01*
X92898Y135601D01*
X94494Y134005D01*
X94510Y133994D01*
X94523Y133978D01*
X94610Y133922D01*
X94694Y133862D01*
X94713Y133856D01*
X94729Y133845D01*
X94830Y133820D01*
X94929Y133789D01*
X94949Y133790D01*
X94968Y133785D01*
X95071Y133793D01*
X95175Y133796D01*
X95193Y133803D01*
X95213Y133804D01*
X95308Y133844D01*
X95406Y133880D01*
X95421Y133893D01*
X95440Y133900D01*
X95570Y134005D01*
X96373Y134808D01*
X99344Y137779D01*
X100758Y139193D01*
X146892Y139193D01*
X151893Y134192D01*
X151893Y134072D01*
X151907Y133982D01*
X151915Y133891D01*
X151927Y133861D01*
X151932Y133829D01*
X151959Y133779D01*
X151960Y133778D01*
X151975Y133748D01*
X152011Y133664D01*
X152037Y133632D01*
X152048Y133612D01*
X152071Y133589D01*
X152076Y133583D01*
X152085Y133568D01*
X152095Y133560D01*
X152116Y133533D01*
X153381Y132268D01*
X153381Y129352D01*
X151318Y127289D01*
X148402Y127289D01*
X146339Y129352D01*
X146339Y132268D01*
X146665Y132594D01*
X146676Y132610D01*
X146692Y132623D01*
X146748Y132710D01*
X146808Y132794D01*
X146814Y132813D01*
X146825Y132829D01*
X146850Y132930D01*
X146881Y133029D01*
X146880Y133049D01*
X146885Y133068D01*
X146877Y133171D01*
X146874Y133275D01*
X146867Y133293D01*
X146866Y133313D01*
X146826Y133408D01*
X146790Y133506D01*
X146777Y133521D01*
X146770Y133540D01*
X146665Y133670D01*
X145431Y134904D01*
X145357Y134957D01*
X145288Y135017D01*
X145257Y135029D01*
X145231Y135048D01*
X145144Y135075D01*
X145059Y135109D01*
X145018Y135113D01*
X144996Y135120D01*
X144964Y135119D01*
X144893Y135127D01*
X102757Y135127D01*
X102667Y135113D01*
X102576Y135105D01*
X102547Y135093D01*
X102515Y135088D01*
X102434Y135045D01*
X102350Y135009D01*
X102318Y134983D01*
X102297Y134972D01*
X102275Y134949D01*
X102219Y134904D01*
X99248Y131933D01*
X99195Y131859D01*
X99135Y131790D01*
X99123Y131759D01*
X99104Y131733D01*
X99077Y131646D01*
X99043Y131561D01*
X99039Y131520D01*
X99032Y131498D01*
X99033Y131466D01*
X99025Y131395D01*
X99025Y98984D01*
X96454Y96413D01*
X96401Y96339D01*
X96341Y96270D01*
X96329Y96240D01*
X96310Y96214D01*
X96283Y96127D01*
X96249Y96042D01*
X96245Y96001D01*
X96238Y95978D01*
X96239Y95946D01*
X96231Y95875D01*
X96231Y93792D01*
X94168Y91729D01*
X91252Y91729D01*
G37*
%LPD*%
G36*
X20852Y2381D02*
X20852Y2381D01*
X20968Y2399D01*
X20974Y2401D01*
X20980Y2402D01*
X21083Y2457D01*
X21188Y2510D01*
X21192Y2515D01*
X21198Y2518D01*
X21278Y2603D01*
X21360Y2686D01*
X21363Y2692D01*
X21367Y2696D01*
X21375Y2713D01*
X21441Y2833D01*
X21810Y3724D01*
X23597Y5511D01*
X25931Y6478D01*
X28457Y6478D01*
X30791Y5511D01*
X32578Y3724D01*
X32841Y3090D01*
X32878Y3029D01*
X32908Y2963D01*
X32943Y2925D01*
X32970Y2881D01*
X33026Y2835D01*
X33074Y2782D01*
X33120Y2757D01*
X33160Y2724D01*
X33227Y2698D01*
X33290Y2664D01*
X33341Y2655D01*
X33389Y2636D01*
X33461Y2633D01*
X33532Y2620D01*
X33583Y2628D01*
X33635Y2625D01*
X33704Y2645D01*
X33775Y2656D01*
X33821Y2679D01*
X33871Y2694D01*
X33930Y2735D01*
X33994Y2767D01*
X34031Y2805D01*
X34073Y2834D01*
X34116Y2892D01*
X34166Y2943D01*
X34201Y3006D01*
X34220Y3032D01*
X34228Y3054D01*
X34247Y3090D01*
X34510Y3724D01*
X36297Y5511D01*
X37391Y5964D01*
X37491Y6026D01*
X37591Y6086D01*
X37595Y6091D01*
X37600Y6094D01*
X37675Y6185D01*
X37751Y6273D01*
X37753Y6279D01*
X37757Y6283D01*
X37799Y6392D01*
X37843Y6501D01*
X37844Y6508D01*
X37845Y6513D01*
X37846Y6531D01*
X37861Y6668D01*
X37861Y7634D01*
X37842Y7749D01*
X37825Y7865D01*
X37823Y7871D01*
X37822Y7877D01*
X37767Y7980D01*
X37714Y8085D01*
X37709Y8089D01*
X37706Y8095D01*
X37622Y8174D01*
X37538Y8257D01*
X37532Y8261D01*
X37528Y8264D01*
X37511Y8272D01*
X37391Y8338D01*
X35165Y9260D01*
X33260Y11165D01*
X33203Y11302D01*
X33165Y11363D01*
X33136Y11428D01*
X33101Y11467D01*
X33074Y11511D01*
X33018Y11556D01*
X32970Y11609D01*
X32924Y11634D01*
X32884Y11668D01*
X32817Y11693D01*
X32754Y11728D01*
X32703Y11737D01*
X32655Y11756D01*
X32583Y11759D01*
X32512Y11772D01*
X32461Y11764D01*
X32409Y11766D01*
X32340Y11746D01*
X32269Y11736D01*
X32223Y11712D01*
X32173Y11698D01*
X32114Y11657D01*
X32050Y11624D01*
X32013Y11587D01*
X31971Y11557D01*
X31928Y11500D01*
X31878Y11449D01*
X31843Y11386D01*
X31824Y11360D01*
X31817Y11338D01*
X31797Y11302D01*
X31740Y11165D01*
X29835Y9260D01*
X27347Y8229D01*
X24653Y8229D01*
X22165Y9260D01*
X20260Y11165D01*
X19229Y13653D01*
X19229Y16347D01*
X20260Y18835D01*
X22165Y20740D01*
X23497Y21292D01*
X23597Y21354D01*
X23697Y21413D01*
X23701Y21418D01*
X23706Y21422D01*
X23781Y21512D01*
X23857Y21600D01*
X23859Y21606D01*
X23863Y21611D01*
X23905Y21719D01*
X23949Y21829D01*
X23950Y21836D01*
X23951Y21841D01*
X23952Y21859D01*
X23967Y21995D01*
X23967Y28843D01*
X23953Y28933D01*
X23945Y29024D01*
X23933Y29053D01*
X23928Y29085D01*
X23885Y29166D01*
X23849Y29250D01*
X23823Y29282D01*
X23812Y29303D01*
X23789Y29325D01*
X23744Y29381D01*
X16847Y36278D01*
X16773Y36331D01*
X16704Y36390D01*
X16674Y36403D01*
X16648Y36421D01*
X16561Y36448D01*
X16476Y36482D01*
X16435Y36487D01*
X16413Y36494D01*
X16380Y36493D01*
X16309Y36501D01*
X8176Y36501D01*
X8061Y36482D01*
X7945Y36465D01*
X7939Y36462D01*
X7933Y36461D01*
X7831Y36407D01*
X7725Y36353D01*
X7721Y36349D01*
X7716Y36346D01*
X7636Y36262D01*
X7553Y36178D01*
X7550Y36171D01*
X7546Y36168D01*
X7538Y36151D01*
X7472Y36031D01*
X7019Y34936D01*
X5232Y33150D01*
X4598Y32887D01*
X4537Y32849D01*
X4471Y32820D01*
X4433Y32785D01*
X4389Y32757D01*
X4343Y32702D01*
X4290Y32654D01*
X4265Y32608D01*
X4232Y32568D01*
X4206Y32501D01*
X4172Y32438D01*
X4163Y32387D01*
X4144Y32338D01*
X4141Y32267D01*
X4128Y32196D01*
X4136Y32144D01*
X4133Y32092D01*
X4153Y32024D01*
X4164Y31953D01*
X4187Y31906D01*
X4202Y31856D01*
X4243Y31797D01*
X4275Y31733D01*
X4313Y31697D01*
X4342Y31654D01*
X4400Y31611D01*
X4451Y31561D01*
X4514Y31527D01*
X4540Y31507D01*
X4562Y31500D01*
X4598Y31480D01*
X5232Y31217D01*
X7019Y29431D01*
X7986Y27097D01*
X7986Y24570D01*
X7019Y22236D01*
X5232Y20450D01*
X4484Y20140D01*
X4384Y20078D01*
X4284Y20018D01*
X4280Y20013D01*
X4275Y20010D01*
X4200Y19919D01*
X4124Y19831D01*
X4122Y19825D01*
X4118Y19820D01*
X4076Y19712D01*
X4032Y19603D01*
X4031Y19595D01*
X4030Y19591D01*
X4029Y19573D01*
X4014Y19436D01*
X4014Y3124D01*
X4017Y3104D01*
X4015Y3085D01*
X4037Y2983D01*
X4053Y2881D01*
X4063Y2864D01*
X4067Y2844D01*
X4120Y2755D01*
X4169Y2664D01*
X4183Y2650D01*
X4193Y2633D01*
X4272Y2566D01*
X4347Y2494D01*
X4365Y2486D01*
X4380Y2473D01*
X4476Y2434D01*
X4570Y2391D01*
X4590Y2389D01*
X4608Y2381D01*
X4775Y2363D01*
X20737Y2363D01*
X20852Y2381D01*
G37*
G36*
X127364Y37750D02*
X127364Y37750D01*
X127435Y37756D01*
X127483Y37776D01*
X127534Y37787D01*
X127595Y37824D01*
X127661Y37852D01*
X127717Y37897D01*
X127745Y37913D01*
X127760Y37931D01*
X127792Y37957D01*
X139213Y49377D01*
X140626Y50791D01*
X155448Y50791D01*
X155468Y50794D01*
X155487Y50792D01*
X155589Y50814D01*
X155691Y50831D01*
X155708Y50840D01*
X155728Y50844D01*
X155817Y50898D01*
X155908Y50946D01*
X155922Y50960D01*
X155939Y50971D01*
X156006Y51049D01*
X156078Y51124D01*
X156086Y51142D01*
X156099Y51157D01*
X156138Y51254D01*
X156181Y51347D01*
X156183Y51367D01*
X156191Y51386D01*
X156209Y51552D01*
X156209Y52063D01*
X157176Y54397D01*
X158963Y56184D01*
X159597Y56447D01*
X159658Y56484D01*
X159724Y56514D01*
X159762Y56549D01*
X159806Y56576D01*
X159852Y56632D01*
X159905Y56680D01*
X159930Y56726D01*
X159963Y56766D01*
X159989Y56833D01*
X160023Y56896D01*
X160032Y56947D01*
X160051Y56995D01*
X160054Y57067D01*
X160067Y57138D01*
X160059Y57189D01*
X160062Y57241D01*
X160042Y57310D01*
X160031Y57381D01*
X160007Y57427D01*
X159993Y57477D01*
X159952Y57536D01*
X159920Y57600D01*
X159883Y57637D01*
X159853Y57679D01*
X159795Y57722D01*
X159744Y57772D01*
X159681Y57807D01*
X159655Y57826D01*
X159633Y57833D01*
X159597Y57853D01*
X158963Y58116D01*
X157176Y59903D01*
X156723Y60997D01*
X156661Y61097D01*
X156601Y61197D01*
X156596Y61201D01*
X156593Y61206D01*
X156502Y61281D01*
X156414Y61357D01*
X156408Y61359D01*
X156404Y61363D01*
X156295Y61405D01*
X156186Y61449D01*
X156179Y61450D01*
X156174Y61451D01*
X156156Y61452D01*
X156019Y61467D01*
X147914Y61467D01*
X147824Y61453D01*
X147733Y61445D01*
X147703Y61433D01*
X147671Y61428D01*
X147591Y61385D01*
X147507Y61349D01*
X147475Y61323D01*
X147454Y61312D01*
X147432Y61289D01*
X147376Y61244D01*
X126716Y40584D01*
X126663Y40510D01*
X126603Y40441D01*
X126591Y40411D01*
X126572Y40384D01*
X126545Y40297D01*
X126511Y40213D01*
X126507Y40172D01*
X126500Y40149D01*
X126501Y40117D01*
X126493Y40046D01*
X126493Y38495D01*
X126504Y38425D01*
X126506Y38353D01*
X126524Y38304D01*
X126532Y38253D01*
X126566Y38189D01*
X126591Y38122D01*
X126623Y38081D01*
X126648Y38035D01*
X126700Y37986D01*
X126744Y37930D01*
X126788Y37902D01*
X126826Y37866D01*
X126891Y37836D01*
X126951Y37797D01*
X127002Y37784D01*
X127049Y37762D01*
X127120Y37754D01*
X127190Y37737D01*
X127242Y37741D01*
X127293Y37735D01*
X127364Y37750D01*
G37*
G36*
X149208Y98964D02*
X149208Y98964D01*
X149279Y98970D01*
X149327Y98990D01*
X149378Y99001D01*
X149439Y99038D01*
X149505Y99066D01*
X149561Y99111D01*
X149589Y99127D01*
X149604Y99145D01*
X149636Y99171D01*
X152684Y102219D01*
X154098Y103633D01*
X156019Y103633D01*
X156134Y103652D01*
X156250Y103669D01*
X156256Y103671D01*
X156262Y103672D01*
X156364Y103727D01*
X156470Y103780D01*
X156474Y103785D01*
X156479Y103788D01*
X156559Y103872D01*
X156642Y103956D01*
X156645Y103962D01*
X156649Y103966D01*
X156657Y103983D01*
X156723Y104103D01*
X157176Y105197D01*
X158963Y106984D01*
X159597Y107247D01*
X159658Y107284D01*
X159724Y107314D01*
X159762Y107349D01*
X159806Y107376D01*
X159852Y107432D01*
X159905Y107480D01*
X159930Y107526D01*
X159963Y107566D01*
X159989Y107633D01*
X160023Y107696D01*
X160032Y107747D01*
X160051Y107795D01*
X160054Y107867D01*
X160067Y107938D01*
X160059Y107989D01*
X160062Y108041D01*
X160042Y108110D01*
X160031Y108181D01*
X160008Y108227D01*
X159993Y108277D01*
X159952Y108336D01*
X159920Y108400D01*
X159882Y108437D01*
X159853Y108479D01*
X159795Y108522D01*
X159744Y108572D01*
X159681Y108607D01*
X159655Y108626D01*
X159633Y108633D01*
X159597Y108653D01*
X158963Y108916D01*
X157176Y110703D01*
X156723Y111797D01*
X156661Y111897D01*
X156601Y111997D01*
X156596Y112001D01*
X156593Y112006D01*
X156502Y112081D01*
X156414Y112157D01*
X156408Y112159D01*
X156404Y112163D01*
X156295Y112205D01*
X156186Y112249D01*
X156179Y112250D01*
X156174Y112251D01*
X156156Y112252D01*
X156019Y112267D01*
X154827Y112267D01*
X154737Y112253D01*
X154646Y112245D01*
X154617Y112233D01*
X154585Y112228D01*
X154504Y112185D01*
X154420Y112149D01*
X154388Y112123D01*
X154367Y112112D01*
X154345Y112089D01*
X154289Y112044D01*
X148560Y106315D01*
X148507Y106241D01*
X148447Y106172D01*
X148435Y106141D01*
X148416Y106115D01*
X148389Y106028D01*
X148355Y105943D01*
X148351Y105902D01*
X148344Y105880D01*
X148345Y105848D01*
X148337Y105777D01*
X148337Y99709D01*
X148348Y99639D01*
X148350Y99567D01*
X148368Y99518D01*
X148376Y99467D01*
X148410Y99403D01*
X148435Y99336D01*
X148467Y99295D01*
X148492Y99249D01*
X148544Y99200D01*
X148588Y99144D01*
X148632Y99116D01*
X148670Y99080D01*
X148735Y99050D01*
X148795Y99011D01*
X148846Y98998D01*
X148893Y98976D01*
X148964Y98968D01*
X149034Y98951D01*
X149086Y98955D01*
X149137Y98949D01*
X149208Y98964D01*
G37*
G36*
X152002Y84486D02*
X152002Y84486D01*
X152073Y84492D01*
X152121Y84512D01*
X152172Y84523D01*
X152233Y84560D01*
X152299Y84588D01*
X152355Y84633D01*
X152383Y84649D01*
X152398Y84667D01*
X152430Y84693D01*
X155986Y88249D01*
X156039Y88323D01*
X156099Y88392D01*
X156111Y88423D01*
X156130Y88449D01*
X156157Y88536D01*
X156191Y88621D01*
X156195Y88662D01*
X156202Y88684D01*
X156201Y88716D01*
X156209Y88787D01*
X156209Y90163D01*
X157176Y92497D01*
X158963Y94284D01*
X159597Y94547D01*
X159658Y94584D01*
X159724Y94614D01*
X159762Y94649D01*
X159806Y94676D01*
X159852Y94732D01*
X159905Y94780D01*
X159930Y94826D01*
X159963Y94866D01*
X159989Y94933D01*
X160023Y94996D01*
X160032Y95047D01*
X160051Y95095D01*
X160054Y95167D01*
X160067Y95238D01*
X160059Y95289D01*
X160062Y95341D01*
X160042Y95410D01*
X160031Y95481D01*
X160008Y95527D01*
X159993Y95577D01*
X159952Y95636D01*
X159920Y95700D01*
X159882Y95737D01*
X159853Y95779D01*
X159795Y95822D01*
X159744Y95872D01*
X159681Y95907D01*
X159655Y95926D01*
X159633Y95934D01*
X159597Y95953D01*
X158963Y96216D01*
X157176Y98003D01*
X156745Y99042D01*
X156721Y99081D01*
X156706Y99124D01*
X156657Y99185D01*
X156616Y99251D01*
X156581Y99281D01*
X156552Y99316D01*
X156486Y99358D01*
X156426Y99408D01*
X156384Y99425D01*
X156345Y99449D01*
X156269Y99468D01*
X156197Y99496D01*
X156151Y99498D01*
X156106Y99509D01*
X156029Y99503D01*
X155951Y99507D01*
X155907Y99494D01*
X155861Y99490D01*
X155790Y99460D01*
X155715Y99438D01*
X155677Y99412D01*
X155635Y99394D01*
X155528Y99309D01*
X155513Y99298D01*
X155510Y99294D01*
X155504Y99289D01*
X151354Y95139D01*
X151301Y95065D01*
X151241Y94996D01*
X151229Y94965D01*
X151210Y94939D01*
X151183Y94852D01*
X151149Y94767D01*
X151145Y94726D01*
X151138Y94704D01*
X151139Y94672D01*
X151131Y94601D01*
X151131Y85231D01*
X151142Y85161D01*
X151144Y85089D01*
X151162Y85040D01*
X151170Y84989D01*
X151204Y84925D01*
X151229Y84858D01*
X151261Y84817D01*
X151286Y84771D01*
X151337Y84722D01*
X151382Y84666D01*
X151426Y84638D01*
X151464Y84602D01*
X151529Y84572D01*
X151589Y84533D01*
X151640Y84520D01*
X151687Y84498D01*
X151758Y84490D01*
X151828Y84473D01*
X151880Y84477D01*
X151931Y84471D01*
X152002Y84486D01*
G37*
G36*
X17022Y91378D02*
X17022Y91378D01*
X17094Y91380D01*
X17143Y91398D01*
X17194Y91406D01*
X17257Y91440D01*
X17325Y91464D01*
X17365Y91497D01*
X17411Y91521D01*
X17461Y91573D01*
X17517Y91618D01*
X17545Y91662D01*
X17581Y91700D01*
X17611Y91764D01*
X17650Y91825D01*
X17662Y91875D01*
X17684Y91923D01*
X17692Y91994D01*
X17710Y92063D01*
X17706Y92115D01*
X17711Y92167D01*
X17696Y92237D01*
X17691Y92309D01*
X17670Y92356D01*
X17659Y92407D01*
X17622Y92469D01*
X17594Y92535D01*
X17549Y92591D01*
X17533Y92619D01*
X17515Y92634D01*
X17489Y92666D01*
X10377Y99778D01*
X10303Y99831D01*
X10234Y99890D01*
X10204Y99903D01*
X10178Y99921D01*
X10091Y99948D01*
X10006Y99982D01*
X9965Y99987D01*
X9943Y99994D01*
X9910Y99993D01*
X9839Y100001D01*
X8176Y100001D01*
X8061Y99982D01*
X7945Y99965D01*
X7939Y99962D01*
X7933Y99961D01*
X7831Y99907D01*
X7725Y99853D01*
X7721Y99849D01*
X7716Y99846D01*
X7636Y99762D01*
X7553Y99678D01*
X7550Y99671D01*
X7546Y99668D01*
X7538Y99651D01*
X7472Y99531D01*
X7019Y98436D01*
X5232Y96650D01*
X4598Y96387D01*
X4537Y96349D01*
X4471Y96320D01*
X4433Y96285D01*
X4389Y96257D01*
X4343Y96202D01*
X4290Y96154D01*
X4265Y96108D01*
X4232Y96068D01*
X4206Y96001D01*
X4172Y95938D01*
X4163Y95887D01*
X4144Y95838D01*
X4141Y95767D01*
X4128Y95696D01*
X4136Y95644D01*
X4133Y95592D01*
X4153Y95524D01*
X4164Y95453D01*
X4187Y95406D01*
X4202Y95356D01*
X4243Y95297D01*
X4275Y95233D01*
X4313Y95197D01*
X4342Y95154D01*
X4400Y95111D01*
X4451Y95061D01*
X4514Y95027D01*
X4540Y95007D01*
X4562Y95000D01*
X4598Y94980D01*
X5232Y94717D01*
X7019Y92931D01*
X7472Y91836D01*
X7534Y91736D01*
X7594Y91637D01*
X7599Y91633D01*
X7602Y91627D01*
X7693Y91552D01*
X7781Y91477D01*
X7787Y91474D01*
X7791Y91470D01*
X7900Y91429D01*
X8009Y91385D01*
X8016Y91384D01*
X8021Y91382D01*
X8039Y91381D01*
X8176Y91366D01*
X16951Y91366D01*
X17022Y91378D01*
G37*
G36*
X146414Y110140D02*
X146414Y110140D01*
X146485Y110146D01*
X146533Y110166D01*
X146584Y110177D01*
X146645Y110214D01*
X146711Y110242D01*
X146767Y110287D01*
X146795Y110303D01*
X146810Y110321D01*
X146842Y110347D01*
X151414Y114919D01*
X152828Y116333D01*
X156019Y116333D01*
X156134Y116352D01*
X156250Y116369D01*
X156256Y116371D01*
X156262Y116372D01*
X156364Y116427D01*
X156470Y116480D01*
X156474Y116485D01*
X156479Y116488D01*
X156559Y116572D01*
X156642Y116656D01*
X156645Y116662D01*
X156649Y116666D01*
X156657Y116683D01*
X156723Y116803D01*
X157176Y117897D01*
X158963Y119684D01*
X159597Y119947D01*
X159658Y119984D01*
X159723Y120014D01*
X159762Y120049D01*
X159806Y120076D01*
X159852Y120131D01*
X159905Y120180D01*
X159930Y120226D01*
X159963Y120266D01*
X159989Y120333D01*
X160023Y120396D01*
X160032Y120447D01*
X160051Y120495D01*
X160054Y120567D01*
X160067Y120638D01*
X160059Y120689D01*
X160062Y120741D01*
X160042Y120810D01*
X160031Y120881D01*
X160007Y120927D01*
X159993Y120977D01*
X159952Y121036D01*
X159920Y121100D01*
X159882Y121137D01*
X159853Y121179D01*
X159795Y121222D01*
X159744Y121272D01*
X159681Y121307D01*
X159655Y121326D01*
X159633Y121333D01*
X159597Y121353D01*
X158963Y121616D01*
X157176Y123403D01*
X157117Y123544D01*
X157093Y123583D01*
X157078Y123626D01*
X157029Y123687D01*
X156988Y123753D01*
X156953Y123782D01*
X156924Y123818D01*
X156858Y123860D01*
X156798Y123910D01*
X156756Y123926D01*
X156717Y123951D01*
X156641Y123970D01*
X156569Y123998D01*
X156523Y124000D01*
X156478Y124011D01*
X156401Y124005D01*
X156323Y124009D01*
X156279Y123996D01*
X156233Y123992D01*
X156162Y123962D01*
X156087Y123940D01*
X156049Y123914D01*
X156007Y123896D01*
X155900Y123811D01*
X155885Y123800D01*
X155882Y123796D01*
X155876Y123791D01*
X145766Y113681D01*
X145713Y113607D01*
X145653Y113538D01*
X145641Y113507D01*
X145622Y113481D01*
X145595Y113394D01*
X145561Y113309D01*
X145557Y113268D01*
X145550Y113246D01*
X145551Y113214D01*
X145543Y113143D01*
X145543Y110885D01*
X145554Y110815D01*
X145556Y110743D01*
X145574Y110694D01*
X145582Y110643D01*
X145616Y110579D01*
X145641Y110512D01*
X145673Y110471D01*
X145698Y110425D01*
X145750Y110376D01*
X145794Y110320D01*
X145838Y110292D01*
X145876Y110256D01*
X145941Y110226D01*
X146001Y110187D01*
X146052Y110174D01*
X146099Y110152D01*
X146170Y110144D01*
X146240Y110127D01*
X146292Y110131D01*
X146343Y110125D01*
X146414Y110140D01*
G37*
G36*
X156134Y65552D02*
X156134Y65552D01*
X156250Y65569D01*
X156256Y65571D01*
X156262Y65572D01*
X156364Y65627D01*
X156470Y65680D01*
X156474Y65685D01*
X156479Y65688D01*
X156559Y65772D01*
X156642Y65856D01*
X156645Y65862D01*
X156649Y65866D01*
X156657Y65883D01*
X156723Y66003D01*
X157176Y67097D01*
X158963Y68884D01*
X159597Y69147D01*
X159658Y69184D01*
X159724Y69214D01*
X159762Y69249D01*
X159806Y69276D01*
X159852Y69332D01*
X159905Y69380D01*
X159930Y69426D01*
X159963Y69466D01*
X159989Y69533D01*
X160023Y69596D01*
X160032Y69647D01*
X160051Y69695D01*
X160054Y69767D01*
X160067Y69838D01*
X160059Y69889D01*
X160062Y69941D01*
X160042Y70010D01*
X160031Y70081D01*
X160007Y70127D01*
X159993Y70177D01*
X159952Y70236D01*
X159920Y70300D01*
X159883Y70337D01*
X159853Y70379D01*
X159795Y70422D01*
X159744Y70472D01*
X159681Y70507D01*
X159655Y70526D01*
X159633Y70533D01*
X159597Y70553D01*
X158963Y70816D01*
X157176Y72603D01*
X156911Y73242D01*
X156887Y73281D01*
X156871Y73324D01*
X156823Y73385D01*
X156782Y73451D01*
X156746Y73481D01*
X156717Y73516D01*
X156652Y73559D01*
X156592Y73608D01*
X156549Y73625D01*
X156511Y73649D01*
X156435Y73668D01*
X156362Y73696D01*
X156317Y73698D01*
X156272Y73710D01*
X156195Y73704D01*
X156117Y73707D01*
X156073Y73694D01*
X156027Y73690D01*
X155955Y73660D01*
X155880Y73638D01*
X155843Y73612D01*
X155801Y73594D01*
X155694Y73509D01*
X155678Y73498D01*
X155675Y73494D01*
X155670Y73489D01*
X149012Y66832D01*
X148971Y66774D01*
X148921Y66722D01*
X148899Y66675D01*
X148869Y66633D01*
X148848Y66564D01*
X148818Y66499D01*
X148812Y66447D01*
X148797Y66397D01*
X148798Y66326D01*
X148791Y66255D01*
X148802Y66204D01*
X148803Y66152D01*
X148828Y66084D01*
X148843Y66014D01*
X148870Y65969D01*
X148887Y65921D01*
X148932Y65865D01*
X148969Y65803D01*
X149009Y65769D01*
X149041Y65729D01*
X149101Y65690D01*
X149156Y65643D01*
X149204Y65624D01*
X149248Y65596D01*
X149317Y65578D01*
X149384Y65551D01*
X149455Y65543D01*
X149487Y65535D01*
X149510Y65537D01*
X149551Y65533D01*
X156019Y65533D01*
X156134Y65552D01*
G37*
%LPC*%
G36*
X139505Y122193D02*
X139505Y122193D01*
X137433Y124265D01*
X137433Y127195D01*
X139505Y129267D01*
X142435Y129267D01*
X144507Y127195D01*
X144507Y124265D01*
X142435Y122193D01*
X139505Y122193D01*
G37*
%LPD*%
D10*
X77994Y127D03*
X65294Y127D03*
X52594Y127D03*
X39894Y127D03*
X27194Y127D03*
X90694Y127D03*
X103394Y127D03*
X116094Y127D03*
X128794Y127D03*
X1635Y102034D03*
X1635Y89334D03*
X1635Y114734D03*
X1635Y76634D03*
X1635Y127434D03*
X1635Y63934D03*
X1635Y140134D03*
X1635Y51234D03*
X1635Y152834D03*
X1635Y38534D03*
X1635Y25834D03*
X162560Y101600D03*
X162560Y88900D03*
X162560Y114300D03*
X162560Y76200D03*
X162560Y127000D03*
X162560Y63500D03*
X162560Y139700D03*
X162560Y50800D03*
X162560Y152400D03*
X162560Y38100D03*
X162560Y25400D03*
D11*
X65000Y15000D03*
X78000Y15000D03*
X52000Y15000D03*
X26000Y15000D03*
X39000Y15000D03*
D12*
X58420Y71120D03*
X67310Y71120D03*
X67310Y63500D03*
X58420Y63500D03*
X58420Y54610D03*
X58420Y45720D03*
X74930Y71120D03*
X83820Y71120D03*
X91440Y71120D03*
X66040Y54610D03*
X74930Y63500D03*
X83820Y63500D03*
X91440Y63500D03*
X74930Y54610D03*
X74930Y45720D03*
X74930Y38100D03*
X83820Y38100D03*
X91440Y38100D03*
X91440Y45720D03*
X91440Y54610D03*
X83820Y54610D03*
X66040Y45720D03*
X66040Y38100D03*
X58420Y38100D03*
X83820Y45720D03*
X105410Y93980D03*
X105410Y88900D03*
X105410Y83820D03*
X110490Y93980D03*
X115570Y93980D03*
X110490Y88900D03*
X115570Y88900D03*
X110490Y83820D03*
X115570Y83820D03*
X119380Y129540D03*
X124460Y129540D03*
X74471Y97947D03*
X74471Y103027D03*
X74471Y108107D03*
X83164Y113122D03*
X83164Y118202D03*
X84392Y122772D03*
X74317Y122772D03*
X74228Y127721D03*
X74245Y132641D03*
X74274Y137630D03*
X79354Y137630D03*
X79325Y132641D03*
X79308Y127721D03*
X79397Y122772D03*
X83164Y141440D03*
X83164Y146520D03*
X83164Y151600D03*
X78084Y151600D03*
X73004Y151600D03*
X73004Y156680D03*
X73004Y161760D03*
X73004Y166840D03*
X73004Y171920D03*
X73004Y177000D03*
X73216Y182080D03*
X73066Y187771D03*
X73677Y192668D03*
X73616Y197503D03*
X73616Y202338D03*
X70993Y207303D03*
X69510Y211943D03*
X66882Y216017D03*
X63762Y219996D03*
X60380Y223270D03*
X57243Y226422D03*
X53908Y229926D03*
X50526Y233247D03*
X47497Y236873D03*
X46533Y241601D03*
X47623Y247099D03*
X35040Y247103D03*
X36410Y241609D03*
X37097Y236953D03*
X38639Y232401D03*
X41576Y228435D03*
X44880Y225043D03*
X48081Y221695D03*
X51400Y218332D03*
X54719Y214823D03*
X57685Y211176D03*
X60280Y207135D03*
X59749Y202500D03*
X59684Y197795D03*
X59654Y193288D03*
X59776Y188588D03*
X42296Y190106D03*
X45324Y186538D03*
X50121Y186587D03*
X54709Y187774D03*
X57523Y247099D03*
X67523Y247199D03*
X77523Y247199D03*
X87423Y247199D03*
X97523Y247199D03*
X107523Y247199D03*
X117623Y247099D03*
X127423Y247099D03*
X137523Y247099D03*
X147523Y247099D03*
X157423Y247099D03*
X51613Y241601D03*
X53066Y237057D03*
X56448Y233736D03*
X59783Y230232D03*
X62920Y227080D03*
X66302Y223806D03*
X69422Y219827D03*
X72050Y215753D03*
X74590Y210673D03*
X77130Y206863D03*
X31330Y241609D03*
X31330Y236529D03*
X33559Y231131D03*
X36496Y227165D03*
X39800Y223773D03*
X43001Y220425D03*
X46320Y217062D03*
X49639Y213553D03*
X52605Y209906D03*
X55200Y205865D03*
X62523Y241299D03*
X72523Y241299D03*
X82523Y241299D03*
X92523Y241299D03*
X102523Y241299D03*
X112523Y241299D03*
X122523Y241299D03*
X132523Y241299D03*
X142523Y241299D03*
X152523Y241299D03*
X67523Y236299D03*
X77523Y236299D03*
X87523Y236299D03*
X97523Y236299D03*
X107523Y236299D03*
X117523Y236299D03*
X127523Y236299D03*
X137523Y236299D03*
X147523Y236299D03*
X157523Y236299D03*
X72523Y231299D03*
X82523Y231299D03*
X92523Y231299D03*
X102523Y231299D03*
X112523Y231299D03*
X122523Y231299D03*
X132523Y231299D03*
X77523Y226299D03*
X87523Y226299D03*
X97523Y226299D03*
X107523Y226299D03*
X117523Y226299D03*
X127523Y226299D03*
X82523Y221299D03*
X92523Y221299D03*
X102523Y221299D03*
X112523Y221299D03*
X122523Y221299D03*
X132523Y221299D03*
X137523Y226299D03*
X142523Y231299D03*
X152523Y231299D03*
X87523Y216299D03*
X77523Y216299D03*
X97523Y216299D03*
X82523Y211299D03*
X92523Y211299D03*
X102523Y211299D03*
X112523Y211299D03*
X122523Y211299D03*
X107523Y216299D03*
X117523Y216299D03*
X127523Y216299D03*
X132523Y211299D03*
X147523Y226299D03*
X157523Y226299D03*
X142523Y221299D03*
X152523Y221299D03*
X137523Y216299D03*
X147523Y216299D03*
X157523Y216299D03*
X142523Y211299D03*
X152523Y211299D03*
X87523Y206299D03*
X97523Y206299D03*
X107523Y206299D03*
X117523Y206299D03*
X127523Y206299D03*
X137523Y206299D03*
X147523Y206299D03*
X157523Y206299D03*
X82523Y201299D03*
X92523Y201299D03*
X102523Y201299D03*
X112523Y201299D03*
X122523Y201299D03*
X132523Y201299D03*
X142523Y201299D03*
X152523Y201299D03*
X87523Y196299D03*
X82523Y191299D03*
X92523Y191299D03*
X97523Y196299D03*
X102523Y191299D03*
X107523Y196299D03*
X82523Y181299D03*
X87523Y186299D03*
X92523Y181299D03*
X97523Y186299D03*
X117523Y196299D03*
X127523Y196299D03*
X137523Y196299D03*
X147523Y196299D03*
X157523Y196299D03*
X112523Y191299D03*
X122523Y191299D03*
X132523Y191299D03*
X142523Y191299D03*
X152523Y191299D03*
X107523Y186299D03*
X117523Y186299D03*
X127523Y186299D03*
X137523Y186299D03*
X147523Y186299D03*
X157523Y186299D03*
X102523Y181299D03*
X112523Y181299D03*
X122523Y181299D03*
X132523Y181299D03*
X142523Y181299D03*
X152523Y181299D03*
X87523Y176299D03*
X97523Y176299D03*
X107523Y176299D03*
X117523Y176299D03*
X127523Y176299D03*
X137523Y176299D03*
X147523Y176299D03*
X157523Y176299D03*
X82523Y171299D03*
X92523Y171299D03*
X102523Y171299D03*
X112523Y171299D03*
X122523Y171299D03*
X132523Y171299D03*
X142523Y171299D03*
X152523Y171299D03*
X87523Y166299D03*
X97523Y166299D03*
X107523Y166299D03*
X117523Y166299D03*
X127523Y166299D03*
X137523Y166299D03*
X147523Y166299D03*
X157523Y166299D03*
X92523Y161299D03*
X102523Y161299D03*
X112523Y161299D03*
X122523Y161299D03*
X132523Y161299D03*
X142523Y161299D03*
X152523Y161299D03*
X97523Y156299D03*
X107523Y156299D03*
X117523Y156299D03*
X127523Y156299D03*
X137523Y156299D03*
X147523Y156299D03*
X82523Y161299D03*
X87523Y156299D03*
X77523Y186299D03*
X77523Y181299D03*
X77523Y176299D03*
X77523Y171299D03*
X77523Y166299D03*
X77523Y161299D03*
X77523Y156299D03*
X77523Y191299D03*
X77523Y198799D03*
X6623Y247199D03*
X6723Y236139D03*
X6723Y225979D03*
X6723Y215819D03*
X6723Y205659D03*
X6723Y195499D03*
X6723Y185339D03*
X6723Y175179D03*
X6723Y163749D03*
X13073Y241219D03*
X13073Y231059D03*
X13073Y220899D03*
X13073Y210739D03*
X18153Y236139D03*
X18153Y225979D03*
X18153Y215819D03*
X18153Y205659D03*
X23233Y241219D03*
X23233Y231059D03*
X23233Y220899D03*
X23233Y210739D03*
X28313Y225979D03*
X28313Y215819D03*
X28313Y205659D03*
X33393Y210739D03*
X33393Y220899D03*
X38473Y215819D03*
X38473Y205659D03*
X43553Y210739D03*
X48633Y205659D03*
X36887Y195323D03*
X48633Y195499D03*
X43553Y200579D03*
X53713Y200579D03*
X54574Y193288D03*
X60686Y235787D03*
X66133Y230232D03*
X56876Y240867D03*
X71382Y225076D03*
X74502Y221097D03*
X26250Y236529D03*
X60667Y96983D03*
X60791Y106321D03*
X60929Y111207D03*
X60875Y116046D03*
X60776Y120680D03*
X60838Y125515D03*
X60813Y130394D03*
X60790Y135134D03*
X61031Y140023D03*
X61031Y144784D03*
X61827Y149610D03*
X61863Y154478D03*
X61790Y159264D03*
X61716Y164271D03*
X61643Y169057D03*
X61716Y173990D03*
X60684Y101716D03*
X88244Y146520D03*
X88244Y141440D03*
X56636Y173990D03*
X56563Y169057D03*
X56636Y164271D03*
X56710Y159264D03*
X56783Y154478D03*
X56747Y149610D03*
X55951Y144784D03*
X55951Y140023D03*
X55710Y135134D03*
X55733Y130394D03*
X55758Y125515D03*
X55696Y120680D03*
X55795Y116046D03*
X55849Y111207D03*
X55711Y106321D03*
X16510Y63500D03*
X11636Y156490D03*
X24136Y156490D03*
X36636Y156490D03*
X49136Y156490D03*
X19136Y148990D03*
X31636Y148990D03*
X44136Y148990D03*
X11636Y141490D03*
X24136Y141490D03*
X36636Y141490D03*
X49136Y141490D03*
X19136Y133990D03*
X31636Y133990D03*
X44136Y133990D03*
X49136Y126490D03*
X26636Y126490D03*
X36636Y126490D03*
X44136Y121490D03*
X31636Y121490D03*
X16636Y126490D03*
X9136Y133990D03*
X21636Y121490D03*
X26636Y116490D03*
X36636Y116490D03*
X49136Y116490D03*
X31636Y111490D03*
X44136Y111490D03*
X49136Y106490D03*
X36636Y106490D03*
X44136Y101490D03*
X49136Y166490D03*
X41636Y166490D03*
X36894Y172544D03*
X42108Y171916D03*
X45167Y176627D03*
X50184Y176749D03*
D13*
X144505Y54123D03*
X119380Y59690D03*
D12*
X153793Y142249D03*
X155063Y119389D03*
X155063Y107959D03*
X155063Y93989D03*
X155063Y68589D03*
X155063Y55889D03*
X157603Y16519D03*
X157603Y6359D03*
X147443Y6359D03*
X137283Y6359D03*
X9013Y5089D03*
X9013Y15249D03*
X10283Y81289D03*
X10283Y95259D03*
X10283Y107959D03*
X31013Y31249D03*
X16013Y31249D03*
X11373Y247099D03*
X30260Y247103D03*
X92710Y102870D03*
X91440Y132080D03*
D14*
X92710Y130810D01*
X92710Y102870D01*
D12*
X92710Y95250D03*
X149860Y130810D03*
D14*
X92710Y95544D02*
X92710Y95250D01*
X92710Y95544D02*
X96992Y99826D01*
X96992Y132552D02*
X101600Y137160D01*
X96992Y132552D02*
X96992Y99826D01*
X149860Y130810D02*
X149860Y133350D01*
X146050Y137160D01*
X101600Y137160D01*
D13*
X140970Y125730D03*
D15*
X118110Y69850D03*
D16*
X117000Y12000D02*
X96000Y12000D01*
X117000Y12000D02*
X143100Y38100D01*
X162560Y38100D01*
X96000Y12000D02*
X93000Y15000D01*
X78000Y15000D01*
D12*
X78198Y13430D03*
D16*
X78000Y13628D01*
X78000Y15000D01*
D12*
X113030Y52070D03*
D14*
X115570Y54610D02*
X122061Y54610D01*
X115570Y54610D02*
X113030Y52070D01*
X122061Y54610D02*
X146304Y78853D01*
X146304Y106934D01*
X153670Y114300D01*
X162560Y114300D01*
D12*
X118572Y50264D03*
D14*
X121667Y50264D02*
X149098Y77695D01*
X121667Y50264D02*
X118572Y50264D01*
X149098Y95758D02*
X154940Y101600D01*
X149098Y95758D02*
X149098Y77695D01*
X154940Y101600D02*
X162560Y101600D01*
D12*
X114300Y41910D03*
D14*
X117264Y41910D01*
X151892Y76538D02*
X151892Y81280D01*
X159512Y88900D01*
X151892Y76538D02*
X117264Y41910D01*
X159512Y88900D02*
X162560Y88900D01*
D12*
X118110Y36830D03*
D14*
X118110Y38805D01*
X155506Y76200D01*
X162560Y76200D01*
D12*
X113030Y31750D03*
D14*
X115570Y31750D01*
X113030Y31750D02*
X120509Y31750D01*
X124460Y35701D02*
X124460Y41203D01*
X124460Y35701D02*
X120509Y31750D01*
X124460Y41203D02*
X146757Y63500D01*
X162560Y63500D01*
D12*
X104140Y19050D03*
D14*
X111760Y26670D01*
X119380Y26670D01*
X141468Y48758D01*
X160518Y48758D01*
X162560Y50800D01*
D12*
X113965Y61895D03*
D14*
X127935Y64435D02*
X143510Y80010D01*
X143510Y114300D01*
X156210Y127000D01*
X162560Y127000D01*
X116505Y64435D02*
X113965Y61895D01*
X116505Y64435D02*
X127935Y64435D01*
X52594Y14406D02*
X52175Y14825D01*
X52594Y14406D02*
X52594Y127D01*
D12*
X52175Y14825D03*
D16*
X52000Y15000D02*
X52000Y15000D01*
X52594Y14406D01*
D14*
X39894Y14106D02*
X39000Y15000D01*
X39894Y14106D02*
X39894Y127D01*
D12*
X39000Y15000D03*
D14*
X26000Y15000D02*
X26000Y30000D01*
X17466Y38534D02*
X6000Y38534D01*
X4775Y38534D01*
X17466Y38534D02*
X26000Y30000D01*
X4775Y38534D02*
X1635Y38534D01*
D12*
X26000Y15000D03*
X25400Y58420D03*
D14*
X21118Y66544D02*
X22606Y68032D01*
X21118Y62702D02*
X25400Y58420D01*
X21118Y62702D02*
X21118Y66544D01*
X17346Y89334D02*
X4775Y89334D01*
X4775Y88900D01*
X22606Y84074D02*
X22606Y68032D01*
X22606Y84074D02*
X17346Y89334D01*
X4775Y89334D02*
X1635Y89334D01*
D12*
X25400Y64770D03*
D14*
X25400Y87630D01*
X10996Y102034D02*
X6350Y102034D01*
X4775Y102034D01*
X10996Y102034D02*
X25400Y87630D01*
X4775Y102034D02*
X1635Y102034D01*
D12*
X50800Y96520D03*
D14*
X34431Y96520D01*
X3518Y127434D02*
X1635Y127434D01*
X3518Y127434D02*
X34431Y96520D01*
D12*
X45720Y91440D03*
D14*
X35560Y91440D01*
X12266Y114734D01*
X5080Y114734D01*
X1635Y114734D01*
M02*
