G04 EAGLE Gerber RS-274X export*
G75*
%MOMM*%
%FSLAX34Y34*%
%LPD*%
%INCopper Layer 2*%
%IPPOS*%
%AMOC8*
5,1,8,0,0,1.08239X$1,22.5*%
G01*
%ADD10C,0.975000*%
%ADD11C,0.403200*%
%ADD12C,0.453200*%
%ADD13C,0.503200*%

G36*
X21074Y2382D02*
X21074Y2382D01*
X21190Y2399D01*
X21196Y2401D01*
X21202Y2402D01*
X21305Y2457D01*
X21410Y2510D01*
X21414Y2515D01*
X21419Y2518D01*
X21499Y2602D01*
X21582Y2686D01*
X21585Y2692D01*
X21589Y2696D01*
X21597Y2713D01*
X21663Y2833D01*
X21984Y3608D01*
X23713Y5337D01*
X25972Y6273D01*
X28416Y6273D01*
X30675Y5337D01*
X32404Y3608D01*
X32725Y2833D01*
X32787Y2733D01*
X32847Y2633D01*
X32852Y2629D01*
X32855Y2624D01*
X32945Y2549D01*
X33034Y2473D01*
X33040Y2471D01*
X33044Y2467D01*
X33153Y2425D01*
X33262Y2381D01*
X33270Y2380D01*
X33274Y2379D01*
X33292Y2378D01*
X33429Y2363D01*
X33659Y2363D01*
X33774Y2382D01*
X33890Y2399D01*
X33896Y2401D01*
X33902Y2402D01*
X34005Y2457D01*
X34110Y2510D01*
X34114Y2515D01*
X34119Y2518D01*
X34199Y2602D01*
X34282Y2686D01*
X34285Y2692D01*
X34289Y2696D01*
X34297Y2713D01*
X34363Y2833D01*
X34684Y3608D01*
X36413Y5337D01*
X38672Y6273D01*
X41116Y6273D01*
X43375Y5337D01*
X45104Y3608D01*
X45425Y2833D01*
X45487Y2733D01*
X45547Y2633D01*
X45552Y2629D01*
X45555Y2624D01*
X45645Y2549D01*
X45734Y2473D01*
X45740Y2471D01*
X45744Y2467D01*
X45853Y2425D01*
X45962Y2381D01*
X45970Y2380D01*
X45974Y2379D01*
X45992Y2378D01*
X46129Y2363D01*
X46359Y2363D01*
X46474Y2382D01*
X46590Y2399D01*
X46596Y2401D01*
X46602Y2402D01*
X46705Y2457D01*
X46810Y2510D01*
X46814Y2515D01*
X46819Y2518D01*
X46900Y2603D01*
X46982Y2686D01*
X46985Y2692D01*
X46989Y2696D01*
X46997Y2713D01*
X47063Y2833D01*
X47384Y3608D01*
X49113Y5337D01*
X51372Y6273D01*
X53816Y6273D01*
X56075Y5337D01*
X57804Y3608D01*
X58125Y2833D01*
X58187Y2733D01*
X58247Y2633D01*
X58252Y2629D01*
X58255Y2624D01*
X58345Y2549D01*
X58434Y2473D01*
X58440Y2471D01*
X58444Y2467D01*
X58553Y2425D01*
X58662Y2381D01*
X58669Y2380D01*
X58674Y2379D01*
X58692Y2378D01*
X58829Y2363D01*
X59059Y2363D01*
X59174Y2382D01*
X59290Y2399D01*
X59296Y2401D01*
X59302Y2402D01*
X59405Y2457D01*
X59510Y2510D01*
X59514Y2515D01*
X59519Y2518D01*
X59600Y2603D01*
X59682Y2686D01*
X59685Y2692D01*
X59689Y2696D01*
X59697Y2713D01*
X59763Y2833D01*
X60084Y3608D01*
X61813Y5337D01*
X64072Y6273D01*
X66516Y6273D01*
X68775Y5337D01*
X70504Y3608D01*
X70825Y2833D01*
X70887Y2733D01*
X70947Y2633D01*
X70952Y2629D01*
X70955Y2624D01*
X71045Y2549D01*
X71134Y2473D01*
X71140Y2471D01*
X71144Y2467D01*
X71253Y2425D01*
X71362Y2381D01*
X71369Y2380D01*
X71374Y2379D01*
X71392Y2378D01*
X71529Y2363D01*
X71759Y2363D01*
X71874Y2382D01*
X71990Y2399D01*
X71996Y2401D01*
X72002Y2402D01*
X72105Y2457D01*
X72210Y2510D01*
X72214Y2515D01*
X72219Y2518D01*
X72300Y2603D01*
X72382Y2686D01*
X72385Y2692D01*
X72389Y2696D01*
X72397Y2713D01*
X72463Y2833D01*
X72784Y3608D01*
X74513Y5337D01*
X76772Y6273D01*
X79216Y6273D01*
X81475Y5337D01*
X83204Y3608D01*
X83525Y2833D01*
X83587Y2733D01*
X83647Y2633D01*
X83652Y2629D01*
X83655Y2624D01*
X83745Y2549D01*
X83834Y2473D01*
X83840Y2471D01*
X83844Y2467D01*
X83953Y2425D01*
X84062Y2381D01*
X84069Y2380D01*
X84074Y2379D01*
X84092Y2378D01*
X84229Y2363D01*
X84459Y2363D01*
X84574Y2382D01*
X84690Y2399D01*
X84696Y2401D01*
X84702Y2402D01*
X84805Y2457D01*
X84910Y2510D01*
X84914Y2515D01*
X84919Y2518D01*
X84999Y2602D01*
X85082Y2686D01*
X85085Y2692D01*
X85089Y2696D01*
X85097Y2713D01*
X85163Y2833D01*
X85484Y3608D01*
X87213Y5337D01*
X89472Y6273D01*
X91916Y6273D01*
X94175Y5337D01*
X95904Y3608D01*
X96225Y2833D01*
X96287Y2733D01*
X96347Y2633D01*
X96352Y2629D01*
X96355Y2624D01*
X96445Y2549D01*
X96534Y2473D01*
X96540Y2471D01*
X96544Y2467D01*
X96653Y2425D01*
X96762Y2381D01*
X96770Y2380D01*
X96774Y2379D01*
X96792Y2378D01*
X96929Y2363D01*
X97159Y2363D01*
X97274Y2382D01*
X97390Y2399D01*
X97396Y2401D01*
X97402Y2402D01*
X97505Y2457D01*
X97610Y2510D01*
X97614Y2515D01*
X97619Y2518D01*
X97699Y2602D01*
X97782Y2686D01*
X97785Y2692D01*
X97789Y2696D01*
X97797Y2713D01*
X97863Y2833D01*
X98184Y3608D01*
X99913Y5337D01*
X102172Y6273D01*
X104616Y6273D01*
X106875Y5337D01*
X108604Y3608D01*
X108925Y2833D01*
X108987Y2733D01*
X109047Y2633D01*
X109052Y2629D01*
X109055Y2624D01*
X109145Y2549D01*
X109234Y2473D01*
X109240Y2471D01*
X109244Y2467D01*
X109353Y2425D01*
X109462Y2381D01*
X109470Y2380D01*
X109474Y2379D01*
X109492Y2378D01*
X109629Y2363D01*
X109859Y2363D01*
X109974Y2382D01*
X110090Y2399D01*
X110096Y2401D01*
X110102Y2402D01*
X110205Y2457D01*
X110310Y2510D01*
X110314Y2515D01*
X110319Y2518D01*
X110399Y2602D01*
X110482Y2686D01*
X110485Y2692D01*
X110489Y2696D01*
X110497Y2713D01*
X110563Y2833D01*
X110884Y3608D01*
X112613Y5337D01*
X114872Y6273D01*
X117316Y6273D01*
X119575Y5337D01*
X121304Y3608D01*
X121625Y2833D01*
X121687Y2733D01*
X121747Y2633D01*
X121752Y2629D01*
X121755Y2624D01*
X121845Y2549D01*
X121934Y2473D01*
X121940Y2471D01*
X121944Y2467D01*
X122053Y2425D01*
X122162Y2381D01*
X122170Y2380D01*
X122174Y2379D01*
X122192Y2378D01*
X122329Y2363D01*
X122559Y2363D01*
X122674Y2382D01*
X122790Y2399D01*
X122796Y2401D01*
X122802Y2402D01*
X122905Y2457D01*
X123010Y2510D01*
X123014Y2515D01*
X123019Y2518D01*
X123099Y2602D01*
X123182Y2686D01*
X123185Y2692D01*
X123189Y2696D01*
X123197Y2713D01*
X123263Y2833D01*
X123584Y3608D01*
X125313Y5337D01*
X127572Y6273D01*
X130016Y6273D01*
X132275Y5337D01*
X134004Y3608D01*
X134325Y2833D01*
X134387Y2733D01*
X134447Y2633D01*
X134452Y2629D01*
X134455Y2624D01*
X134545Y2549D01*
X134634Y2473D01*
X134640Y2471D01*
X134644Y2467D01*
X134753Y2425D01*
X134862Y2381D01*
X134870Y2380D01*
X134874Y2379D01*
X134892Y2378D01*
X135029Y2363D01*
X159817Y2363D01*
X159837Y2366D01*
X159856Y2364D01*
X159958Y2386D01*
X160060Y2402D01*
X160077Y2412D01*
X160097Y2416D01*
X160186Y2469D01*
X160277Y2518D01*
X160291Y2532D01*
X160308Y2542D01*
X160375Y2621D01*
X160447Y2696D01*
X160455Y2714D01*
X160468Y2729D01*
X160507Y2825D01*
X160550Y2919D01*
X160552Y2939D01*
X160560Y2957D01*
X160578Y3124D01*
X160578Y17685D01*
X160559Y17800D01*
X160542Y17916D01*
X160540Y17922D01*
X160539Y17928D01*
X160484Y18031D01*
X160431Y18136D01*
X160426Y18140D01*
X160423Y18146D01*
X160339Y18225D01*
X160255Y18308D01*
X160249Y18312D01*
X160245Y18315D01*
X160228Y18323D01*
X160108Y18389D01*
X159047Y18828D01*
X157833Y19640D01*
X156800Y20673D01*
X155988Y21887D01*
X155429Y23237D01*
X155302Y23877D01*
X159817Y23877D01*
X159837Y23880D01*
X159856Y23878D01*
X159958Y23900D01*
X160060Y23917D01*
X160077Y23926D01*
X160097Y23930D01*
X160186Y23983D01*
X160277Y24032D01*
X160291Y24046D01*
X160308Y24056D01*
X160375Y24135D01*
X160447Y24210D01*
X160455Y24228D01*
X160468Y24243D01*
X160507Y24339D01*
X160550Y24433D01*
X160552Y24453D01*
X160560Y24471D01*
X160578Y24638D01*
X160578Y26162D01*
X160575Y26182D01*
X160577Y26201D01*
X160555Y26303D01*
X160539Y26405D01*
X160529Y26422D01*
X160525Y26442D01*
X160472Y26531D01*
X160423Y26622D01*
X160409Y26636D01*
X160399Y26653D01*
X160320Y26720D01*
X160245Y26791D01*
X160227Y26800D01*
X160212Y26813D01*
X160116Y26852D01*
X160022Y26895D01*
X160002Y26897D01*
X159984Y26905D01*
X159817Y26923D01*
X155302Y26923D01*
X155429Y27563D01*
X155988Y28913D01*
X156800Y30127D01*
X157833Y31160D01*
X158845Y31837D01*
X158914Y31901D01*
X158988Y31960D01*
X159004Y31985D01*
X159025Y32005D01*
X159070Y32088D01*
X159121Y32167D01*
X159128Y32195D01*
X159142Y32221D01*
X159158Y32314D01*
X159181Y32405D01*
X159179Y32435D01*
X159184Y32463D01*
X159169Y32557D01*
X159162Y32651D01*
X159150Y32678D01*
X159146Y32707D01*
X159102Y32790D01*
X159065Y32877D01*
X159042Y32906D01*
X159033Y32925D01*
X159009Y32948D01*
X158961Y33008D01*
X157350Y34619D01*
X156414Y36878D01*
X156414Y39322D01*
X157350Y41581D01*
X159079Y43310D01*
X160108Y43737D01*
X160208Y43798D01*
X160308Y43858D01*
X160312Y43863D01*
X160317Y43866D01*
X160392Y43957D01*
X160468Y44045D01*
X160470Y44051D01*
X160474Y44056D01*
X160516Y44164D01*
X160527Y44193D01*
X160534Y44206D01*
X160536Y44214D01*
X160560Y44273D01*
X160561Y44281D01*
X160562Y44285D01*
X160563Y44304D01*
X160578Y44440D01*
X160578Y44460D01*
X160572Y44501D01*
X160573Y44531D01*
X160559Y44579D01*
X160542Y44691D01*
X160540Y44697D01*
X160539Y44703D01*
X160484Y44805D01*
X160431Y44910D01*
X160426Y44915D01*
X160423Y44920D01*
X160339Y45001D01*
X160255Y45083D01*
X160249Y45086D01*
X160245Y45090D01*
X160228Y45098D01*
X160108Y45163D01*
X159079Y45590D01*
X157350Y47319D01*
X156414Y49578D01*
X156414Y52022D01*
X157350Y54281D01*
X159079Y56010D01*
X160108Y56437D01*
X160208Y56498D01*
X160308Y56558D01*
X160312Y56563D01*
X160317Y56566D01*
X160392Y56656D01*
X160468Y56745D01*
X160470Y56751D01*
X160474Y56756D01*
X160516Y56864D01*
X160527Y56893D01*
X160534Y56906D01*
X160536Y56914D01*
X160560Y56973D01*
X160561Y56981D01*
X160562Y56985D01*
X160563Y57004D01*
X160578Y57140D01*
X160578Y57160D01*
X160572Y57201D01*
X160573Y57231D01*
X160559Y57279D01*
X160542Y57391D01*
X160540Y57397D01*
X160539Y57403D01*
X160484Y57505D01*
X160431Y57610D01*
X160426Y57615D01*
X160423Y57620D01*
X160339Y57701D01*
X160255Y57783D01*
X160249Y57786D01*
X160245Y57790D01*
X160228Y57798D01*
X160183Y57823D01*
X160181Y57824D01*
X160179Y57825D01*
X160108Y57863D01*
X159079Y58290D01*
X157350Y60019D01*
X156414Y62278D01*
X156414Y64722D01*
X157350Y66981D01*
X159079Y68710D01*
X160108Y69137D01*
X160207Y69198D01*
X160308Y69258D01*
X160312Y69263D01*
X160317Y69266D01*
X160392Y69356D01*
X160468Y69445D01*
X160470Y69451D01*
X160474Y69456D01*
X160516Y69564D01*
X160527Y69593D01*
X160534Y69606D01*
X160536Y69614D01*
X160560Y69673D01*
X160561Y69681D01*
X160562Y69685D01*
X160563Y69704D01*
X160578Y69840D01*
X160578Y69860D01*
X160572Y69901D01*
X160573Y69931D01*
X160559Y69979D01*
X160542Y70091D01*
X160540Y70097D01*
X160539Y70103D01*
X160484Y70205D01*
X160431Y70310D01*
X160426Y70315D01*
X160423Y70320D01*
X160339Y70401D01*
X160255Y70483D01*
X160249Y70486D01*
X160245Y70490D01*
X160228Y70498D01*
X160108Y70563D01*
X159079Y70990D01*
X157350Y72719D01*
X156414Y74978D01*
X156414Y77422D01*
X157350Y79681D01*
X159079Y81410D01*
X160108Y81837D01*
X160208Y81898D01*
X160308Y81958D01*
X160312Y81963D01*
X160317Y81966D01*
X160392Y82056D01*
X160468Y82145D01*
X160470Y82151D01*
X160474Y82156D01*
X160516Y82264D01*
X160527Y82293D01*
X160534Y82306D01*
X160536Y82314D01*
X160560Y82373D01*
X160561Y82381D01*
X160562Y82385D01*
X160563Y82404D01*
X160578Y82540D01*
X160578Y82560D01*
X160572Y82601D01*
X160573Y82631D01*
X160559Y82679D01*
X160542Y82791D01*
X160540Y82797D01*
X160539Y82803D01*
X160484Y82905D01*
X160431Y83010D01*
X160426Y83015D01*
X160423Y83020D01*
X160339Y83101D01*
X160255Y83183D01*
X160249Y83186D01*
X160245Y83190D01*
X160228Y83198D01*
X160108Y83263D01*
X159079Y83690D01*
X157350Y85419D01*
X156414Y87678D01*
X156414Y90122D01*
X157350Y92381D01*
X159079Y94110D01*
X160108Y94537D01*
X160205Y94597D01*
X160266Y94629D01*
X160275Y94638D01*
X160308Y94658D01*
X160312Y94663D01*
X160317Y94666D01*
X160392Y94756D01*
X160468Y94845D01*
X160470Y94851D01*
X160474Y94856D01*
X160516Y94964D01*
X160527Y94993D01*
X160534Y95006D01*
X160536Y95014D01*
X160560Y95073D01*
X160561Y95081D01*
X160562Y95085D01*
X160563Y95104D01*
X160578Y95240D01*
X160578Y95260D01*
X160572Y95301D01*
X160573Y95331D01*
X160559Y95379D01*
X160542Y95491D01*
X160540Y95497D01*
X160539Y95503D01*
X160484Y95605D01*
X160431Y95710D01*
X160426Y95715D01*
X160423Y95720D01*
X160339Y95801D01*
X160255Y95883D01*
X160249Y95886D01*
X160245Y95890D01*
X160228Y95898D01*
X160108Y95963D01*
X159079Y96390D01*
X157350Y98119D01*
X156414Y100378D01*
X156414Y102822D01*
X157350Y105081D01*
X159079Y106810D01*
X160108Y107237D01*
X160208Y107298D01*
X160308Y107358D01*
X160312Y107363D01*
X160317Y107366D01*
X160392Y107456D01*
X160468Y107545D01*
X160470Y107551D01*
X160474Y107556D01*
X160516Y107664D01*
X160527Y107693D01*
X160534Y107706D01*
X160536Y107714D01*
X160560Y107773D01*
X160561Y107781D01*
X160562Y107785D01*
X160563Y107804D01*
X160578Y107940D01*
X160578Y107960D01*
X160572Y108001D01*
X160573Y108031D01*
X160559Y108079D01*
X160542Y108191D01*
X160540Y108197D01*
X160539Y108203D01*
X160484Y108305D01*
X160431Y108410D01*
X160426Y108415D01*
X160423Y108420D01*
X160339Y108501D01*
X160255Y108583D01*
X160249Y108586D01*
X160245Y108590D01*
X160228Y108598D01*
X160108Y108663D01*
X159079Y109090D01*
X157350Y110819D01*
X156414Y113078D01*
X156414Y115522D01*
X157350Y117781D01*
X159079Y119510D01*
X160108Y119937D01*
X160208Y119998D01*
X160308Y120058D01*
X160312Y120063D01*
X160317Y120066D01*
X160392Y120156D01*
X160468Y120245D01*
X160470Y120251D01*
X160474Y120256D01*
X160516Y120364D01*
X160527Y120393D01*
X160534Y120406D01*
X160536Y120414D01*
X160560Y120473D01*
X160561Y120481D01*
X160562Y120485D01*
X160563Y120504D01*
X160578Y120640D01*
X160578Y120660D01*
X160572Y120701D01*
X160573Y120731D01*
X160559Y120779D01*
X160542Y120891D01*
X160540Y120897D01*
X160539Y120903D01*
X160484Y121005D01*
X160431Y121110D01*
X160426Y121115D01*
X160423Y121120D01*
X160339Y121201D01*
X160255Y121283D01*
X160249Y121286D01*
X160245Y121290D01*
X160228Y121298D01*
X160108Y121363D01*
X159079Y121790D01*
X157350Y123519D01*
X156414Y125778D01*
X156414Y128222D01*
X157350Y130481D01*
X159079Y132210D01*
X160108Y132637D01*
X160208Y132698D01*
X160308Y132758D01*
X160312Y132763D01*
X160317Y132766D01*
X160392Y132856D01*
X160468Y132945D01*
X160470Y132951D01*
X160474Y132956D01*
X160516Y133064D01*
X160527Y133093D01*
X160534Y133106D01*
X160536Y133114D01*
X160560Y133173D01*
X160561Y133181D01*
X160562Y133185D01*
X160563Y133204D01*
X160578Y133340D01*
X160578Y133360D01*
X160572Y133401D01*
X160573Y133431D01*
X160559Y133479D01*
X160542Y133591D01*
X160540Y133597D01*
X160539Y133603D01*
X160484Y133705D01*
X160431Y133810D01*
X160426Y133815D01*
X160423Y133820D01*
X160339Y133901D01*
X160255Y133983D01*
X160249Y133986D01*
X160245Y133990D01*
X160228Y133998D01*
X160108Y134063D01*
X159079Y134490D01*
X157350Y136219D01*
X156414Y138478D01*
X156414Y140922D01*
X157350Y143181D01*
X158961Y144792D01*
X159016Y144869D01*
X159076Y144941D01*
X159087Y144968D01*
X159104Y144992D01*
X159132Y145082D01*
X159166Y145170D01*
X159168Y145199D01*
X159177Y145227D01*
X159174Y145321D01*
X159179Y145415D01*
X159171Y145443D01*
X159170Y145473D01*
X159138Y145561D01*
X159112Y145652D01*
X159096Y145676D01*
X159086Y145704D01*
X159027Y145777D01*
X158974Y145855D01*
X158945Y145879D01*
X158932Y145896D01*
X158905Y145913D01*
X158845Y145963D01*
X157833Y146640D01*
X156800Y147673D01*
X155988Y148887D01*
X155429Y150237D01*
X155302Y150877D01*
X159817Y150877D01*
X159837Y150880D01*
X159856Y150878D01*
X159958Y150900D01*
X160060Y150917D01*
X160077Y150926D01*
X160097Y150930D01*
X160186Y150983D01*
X160277Y151032D01*
X160291Y151046D01*
X160308Y151056D01*
X160375Y151135D01*
X160447Y151210D01*
X160455Y151228D01*
X160468Y151243D01*
X160507Y151339D01*
X160550Y151433D01*
X160552Y151453D01*
X160560Y151471D01*
X160578Y151638D01*
X160578Y153162D01*
X160575Y153182D01*
X160577Y153201D01*
X160555Y153303D01*
X160539Y153405D01*
X160529Y153422D01*
X160525Y153442D01*
X160472Y153531D01*
X160423Y153622D01*
X160409Y153636D01*
X160399Y153653D01*
X160320Y153720D01*
X160245Y153791D01*
X160227Y153800D01*
X160212Y153813D01*
X160116Y153852D01*
X160022Y153895D01*
X160002Y153897D01*
X159984Y153905D01*
X159817Y153923D01*
X155302Y153923D01*
X155429Y154563D01*
X155988Y155913D01*
X156800Y157127D01*
X157833Y158160D01*
X159047Y158972D01*
X160108Y159411D01*
X160208Y159473D01*
X160308Y159533D01*
X160312Y159537D01*
X160317Y159541D01*
X160392Y159631D01*
X160468Y159720D01*
X160470Y159725D01*
X160474Y159730D01*
X160516Y159839D01*
X160560Y159948D01*
X160561Y159955D01*
X160562Y159960D01*
X160563Y159978D01*
X160578Y160115D01*
X160578Y248783D01*
X160575Y248803D01*
X160577Y248822D01*
X160555Y248924D01*
X160539Y249026D01*
X160529Y249043D01*
X160525Y249063D01*
X160472Y249152D01*
X160423Y249243D01*
X160409Y249257D01*
X160399Y249274D01*
X160320Y249341D01*
X160245Y249413D01*
X160227Y249421D01*
X160212Y249434D01*
X160116Y249473D01*
X160022Y249516D01*
X160002Y249518D01*
X159984Y249526D01*
X159817Y249544D01*
X4775Y249544D01*
X4755Y249541D01*
X4736Y249543D01*
X4634Y249521D01*
X4532Y249505D01*
X4515Y249495D01*
X4495Y249491D01*
X4406Y249438D01*
X4315Y249389D01*
X4301Y249375D01*
X4284Y249365D01*
X4217Y249286D01*
X4145Y249211D01*
X4137Y249193D01*
X4124Y249178D01*
X4085Y249082D01*
X4042Y248988D01*
X4040Y248968D01*
X4032Y248950D01*
X4014Y248783D01*
X4014Y160384D01*
X4033Y160269D01*
X4050Y160153D01*
X4052Y160147D01*
X4053Y160141D01*
X4108Y160039D01*
X4161Y159933D01*
X4166Y159929D01*
X4169Y159924D01*
X4253Y159843D01*
X4337Y159761D01*
X4343Y159758D01*
X4347Y159754D01*
X4364Y159746D01*
X4484Y159680D01*
X5148Y159405D01*
X6362Y158594D01*
X7395Y157561D01*
X8207Y156346D01*
X8766Y154997D01*
X8893Y154357D01*
X4775Y154357D01*
X4755Y154354D01*
X4736Y154356D01*
X4634Y154334D01*
X4532Y154317D01*
X4515Y154308D01*
X4495Y154304D01*
X4406Y154250D01*
X4315Y154202D01*
X4301Y154188D01*
X4284Y154177D01*
X4217Y154099D01*
X4145Y154024D01*
X4137Y154006D01*
X4124Y153990D01*
X4085Y153894D01*
X4042Y153801D01*
X4040Y153781D01*
X4032Y153762D01*
X4014Y153596D01*
X4014Y152072D01*
X4017Y152052D01*
X4015Y152032D01*
X4037Y151931D01*
X4053Y151829D01*
X4063Y151811D01*
X4067Y151792D01*
X4120Y151703D01*
X4169Y151611D01*
X4183Y151598D01*
X4193Y151581D01*
X4272Y151513D01*
X4347Y151442D01*
X4365Y151434D01*
X4380Y151421D01*
X4476Y151382D01*
X4570Y151338D01*
X4590Y151336D01*
X4608Y151329D01*
X4775Y151310D01*
X8893Y151310D01*
X8766Y150671D01*
X8207Y149321D01*
X7395Y148106D01*
X6362Y147073D01*
X5350Y146397D01*
X5281Y146332D01*
X5207Y146274D01*
X5191Y146249D01*
X5170Y146229D01*
X5125Y146146D01*
X5074Y146067D01*
X5067Y146038D01*
X5053Y146013D01*
X5037Y145920D01*
X5014Y145828D01*
X5016Y145799D01*
X5011Y145770D01*
X5026Y145677D01*
X5033Y145583D01*
X5045Y145556D01*
X5049Y145527D01*
X5093Y145443D01*
X5130Y145357D01*
X5153Y145328D01*
X5162Y145309D01*
X5186Y145286D01*
X5234Y145226D01*
X6845Y143615D01*
X7781Y141356D01*
X7781Y138911D01*
X6845Y136652D01*
X5116Y134924D01*
X4484Y134661D01*
X4384Y134600D01*
X4284Y134540D01*
X4280Y134535D01*
X4275Y134532D01*
X4200Y134441D01*
X4124Y134353D01*
X4122Y134347D01*
X4118Y134342D01*
X4076Y134234D01*
X4032Y134125D01*
X4031Y134117D01*
X4030Y134113D01*
X4029Y134094D01*
X4014Y133958D01*
X4014Y133609D01*
X4033Y133494D01*
X4050Y133378D01*
X4052Y133372D01*
X4053Y133366D01*
X4108Y133264D01*
X4161Y133159D01*
X4166Y133154D01*
X4169Y133149D01*
X4253Y133069D01*
X4337Y132987D01*
X4343Y132983D01*
X4347Y132980D01*
X4364Y132972D01*
X4484Y132906D01*
X5116Y132644D01*
X6845Y130915D01*
X7781Y128656D01*
X7781Y126211D01*
X6845Y123952D01*
X5116Y122224D01*
X4484Y121961D01*
X4384Y121900D01*
X4284Y121840D01*
X4280Y121835D01*
X4275Y121832D01*
X4200Y121741D01*
X4124Y121653D01*
X4122Y121647D01*
X4118Y121642D01*
X4076Y121534D01*
X4032Y121425D01*
X4031Y121417D01*
X4030Y121413D01*
X4029Y121394D01*
X4014Y121258D01*
X4014Y120909D01*
X4033Y120794D01*
X4050Y120678D01*
X4052Y120672D01*
X4053Y120666D01*
X4108Y120564D01*
X4161Y120459D01*
X4166Y120454D01*
X4169Y120449D01*
X4253Y120369D01*
X4337Y120287D01*
X4343Y120283D01*
X4347Y120280D01*
X4364Y120272D01*
X4484Y120206D01*
X5116Y119944D01*
X6845Y118215D01*
X7781Y115956D01*
X7781Y113511D01*
X6845Y111252D01*
X5116Y109524D01*
X4484Y109261D01*
X4384Y109200D01*
X4284Y109140D01*
X4280Y109135D01*
X4275Y109132D01*
X4200Y109041D01*
X4124Y108953D01*
X4122Y108947D01*
X4118Y108942D01*
X4076Y108834D01*
X4032Y108725D01*
X4031Y108717D01*
X4030Y108713D01*
X4029Y108694D01*
X4014Y108558D01*
X4014Y108209D01*
X4033Y108094D01*
X4050Y107978D01*
X4052Y107972D01*
X4053Y107966D01*
X4108Y107864D01*
X4161Y107759D01*
X4166Y107754D01*
X4169Y107749D01*
X4253Y107669D01*
X4337Y107587D01*
X4343Y107583D01*
X4347Y107580D01*
X4364Y107572D01*
X4484Y107506D01*
X5116Y107244D01*
X6845Y105515D01*
X7781Y103256D01*
X7781Y100811D01*
X6845Y98552D01*
X5116Y96824D01*
X4484Y96561D01*
X4384Y96500D01*
X4284Y96440D01*
X4280Y96435D01*
X4275Y96432D01*
X4200Y96341D01*
X4124Y96253D01*
X4122Y96247D01*
X4118Y96242D01*
X4076Y96134D01*
X4032Y96025D01*
X4031Y96017D01*
X4030Y96013D01*
X4029Y95994D01*
X4014Y95858D01*
X4014Y95509D01*
X4033Y95394D01*
X4050Y95278D01*
X4052Y95272D01*
X4053Y95266D01*
X4108Y95164D01*
X4161Y95059D01*
X4166Y95054D01*
X4169Y95049D01*
X4253Y94969D01*
X4337Y94887D01*
X4343Y94883D01*
X4347Y94880D01*
X4364Y94872D01*
X4484Y94806D01*
X5116Y94544D01*
X6845Y92815D01*
X7781Y90556D01*
X7781Y88111D01*
X6845Y85852D01*
X5116Y84124D01*
X4484Y83861D01*
X4384Y83800D01*
X4284Y83740D01*
X4280Y83735D01*
X4275Y83732D01*
X4200Y83641D01*
X4124Y83553D01*
X4122Y83547D01*
X4118Y83542D01*
X4076Y83434D01*
X4032Y83325D01*
X4031Y83317D01*
X4030Y83313D01*
X4029Y83294D01*
X4014Y83158D01*
X4014Y82809D01*
X4033Y82694D01*
X4050Y82578D01*
X4052Y82572D01*
X4053Y82566D01*
X4108Y82464D01*
X4161Y82359D01*
X4166Y82354D01*
X4169Y82349D01*
X4253Y82269D01*
X4337Y82187D01*
X4343Y82183D01*
X4347Y82180D01*
X4364Y82172D01*
X4484Y82106D01*
X5116Y81844D01*
X6845Y80115D01*
X7781Y77856D01*
X7781Y75411D01*
X6845Y73152D01*
X5116Y71424D01*
X4484Y71161D01*
X4384Y71100D01*
X4284Y71040D01*
X4280Y71035D01*
X4275Y71032D01*
X4200Y70941D01*
X4124Y70853D01*
X4122Y70847D01*
X4118Y70842D01*
X4076Y70734D01*
X4032Y70625D01*
X4031Y70617D01*
X4030Y70613D01*
X4029Y70594D01*
X4014Y70458D01*
X4014Y70109D01*
X4017Y70091D01*
X4015Y70075D01*
X4033Y69990D01*
X4050Y69878D01*
X4052Y69872D01*
X4053Y69866D01*
X4065Y69845D01*
X4067Y69834D01*
X4097Y69784D01*
X4108Y69764D01*
X4161Y69659D01*
X4166Y69654D01*
X4169Y69649D01*
X4190Y69629D01*
X4193Y69623D01*
X4219Y69601D01*
X4253Y69569D01*
X4337Y69487D01*
X4343Y69483D01*
X4347Y69480D01*
X4364Y69472D01*
X4484Y69406D01*
X5116Y69144D01*
X6845Y67415D01*
X7781Y65156D01*
X7781Y62711D01*
X6845Y60452D01*
X5116Y58724D01*
X4484Y58461D01*
X4384Y58400D01*
X4284Y58340D01*
X4280Y58335D01*
X4275Y58332D01*
X4200Y58241D01*
X4124Y58153D01*
X4122Y58147D01*
X4118Y58142D01*
X4076Y58034D01*
X4032Y57925D01*
X4031Y57917D01*
X4030Y57913D01*
X4029Y57894D01*
X4014Y57758D01*
X4014Y57409D01*
X4033Y57294D01*
X4050Y57178D01*
X4052Y57172D01*
X4053Y57166D01*
X4108Y57064D01*
X4161Y56959D01*
X4166Y56954D01*
X4169Y56949D01*
X4253Y56869D01*
X4337Y56787D01*
X4343Y56783D01*
X4347Y56780D01*
X4364Y56772D01*
X4484Y56706D01*
X5116Y56444D01*
X6845Y54715D01*
X7781Y52456D01*
X7781Y50011D01*
X6845Y47752D01*
X5116Y46024D01*
X4484Y45761D01*
X4384Y45700D01*
X4284Y45640D01*
X4280Y45635D01*
X4275Y45632D01*
X4200Y45541D01*
X4124Y45453D01*
X4122Y45447D01*
X4118Y45442D01*
X4076Y45334D01*
X4032Y45225D01*
X4031Y45217D01*
X4030Y45213D01*
X4029Y45194D01*
X4014Y45058D01*
X4014Y44709D01*
X4033Y44594D01*
X4050Y44478D01*
X4052Y44472D01*
X4053Y44466D01*
X4108Y44364D01*
X4161Y44259D01*
X4166Y44254D01*
X4169Y44249D01*
X4253Y44169D01*
X4337Y44087D01*
X4343Y44083D01*
X4347Y44080D01*
X4364Y44072D01*
X4484Y44006D01*
X5116Y43744D01*
X6845Y42015D01*
X7781Y39756D01*
X7781Y37311D01*
X6845Y35052D01*
X5116Y33324D01*
X4484Y33061D01*
X4384Y33000D01*
X4284Y32940D01*
X4280Y32935D01*
X4275Y32932D01*
X4200Y32841D01*
X4124Y32753D01*
X4122Y32747D01*
X4118Y32742D01*
X4076Y32634D01*
X4032Y32525D01*
X4031Y32517D01*
X4030Y32513D01*
X4029Y32494D01*
X4014Y32358D01*
X4014Y32009D01*
X4033Y31894D01*
X4050Y31778D01*
X4052Y31772D01*
X4053Y31766D01*
X4108Y31664D01*
X4161Y31559D01*
X4166Y31554D01*
X4169Y31549D01*
X4253Y31469D01*
X4337Y31387D01*
X4343Y31383D01*
X4347Y31380D01*
X4364Y31372D01*
X4484Y31306D01*
X5116Y31044D01*
X6845Y29315D01*
X7781Y27056D01*
X7781Y24611D01*
X6845Y22352D01*
X5116Y20624D01*
X4484Y20361D01*
X4384Y20300D01*
X4284Y20240D01*
X4280Y20235D01*
X4275Y20232D01*
X4200Y20141D01*
X4124Y20053D01*
X4122Y20047D01*
X4118Y20042D01*
X4076Y19934D01*
X4032Y19825D01*
X4031Y19817D01*
X4030Y19813D01*
X4029Y19794D01*
X4014Y19658D01*
X4014Y3124D01*
X4017Y3104D01*
X4015Y3085D01*
X4037Y2983D01*
X4053Y2881D01*
X4063Y2864D01*
X4067Y2844D01*
X4120Y2755D01*
X4169Y2664D01*
X4183Y2650D01*
X4193Y2633D01*
X4272Y2566D01*
X4347Y2494D01*
X4365Y2486D01*
X4380Y2473D01*
X4476Y2434D01*
X4570Y2391D01*
X4590Y2389D01*
X4608Y2381D01*
X4775Y2363D01*
X20959Y2363D01*
X21074Y2382D01*
G37*
%LPC*%
G36*
X111669Y28463D02*
X111669Y28463D01*
X109743Y30389D01*
X109743Y33111D01*
X111669Y35037D01*
X114062Y35037D01*
X114082Y35040D01*
X114101Y35038D01*
X114203Y35060D01*
X114305Y35076D01*
X114322Y35086D01*
X114342Y35090D01*
X114431Y35143D01*
X114522Y35192D01*
X114536Y35206D01*
X114553Y35216D01*
X114620Y35295D01*
X114692Y35370D01*
X114700Y35388D01*
X114713Y35403D01*
X114752Y35499D01*
X114795Y35593D01*
X114797Y35613D01*
X114805Y35631D01*
X114823Y35798D01*
X114823Y37862D01*
X114820Y37882D01*
X114822Y37901D01*
X114800Y38003D01*
X114784Y38105D01*
X114774Y38122D01*
X114770Y38142D01*
X114717Y38231D01*
X114668Y38322D01*
X114654Y38336D01*
X114644Y38353D01*
X114565Y38420D01*
X114490Y38492D01*
X114472Y38500D01*
X114457Y38513D01*
X114361Y38552D01*
X114267Y38595D01*
X114247Y38597D01*
X114229Y38605D01*
X114062Y38623D01*
X112939Y38623D01*
X111013Y40549D01*
X111013Y43271D01*
X112939Y45197D01*
X115661Y45197D01*
X117587Y43271D01*
X117587Y40878D01*
X117590Y40858D01*
X117588Y40839D01*
X117610Y40737D01*
X117626Y40635D01*
X117636Y40618D01*
X117640Y40598D01*
X117693Y40509D01*
X117742Y40418D01*
X117756Y40404D01*
X117766Y40387D01*
X117845Y40320D01*
X117920Y40248D01*
X117938Y40240D01*
X117953Y40227D01*
X118049Y40188D01*
X118143Y40145D01*
X118163Y40143D01*
X118181Y40135D01*
X118348Y40117D01*
X119471Y40117D01*
X121397Y38191D01*
X121397Y35469D01*
X119471Y33543D01*
X117078Y33543D01*
X117058Y33540D01*
X117039Y33542D01*
X116937Y33520D01*
X116835Y33504D01*
X116818Y33494D01*
X116798Y33490D01*
X116709Y33437D01*
X116618Y33388D01*
X116604Y33374D01*
X116587Y33364D01*
X116520Y33285D01*
X116448Y33210D01*
X116440Y33192D01*
X116427Y33177D01*
X116388Y33081D01*
X116345Y32987D01*
X116343Y32967D01*
X116335Y32949D01*
X116317Y32782D01*
X116317Y30389D01*
X114391Y28463D01*
X111669Y28463D01*
G37*
%LPD*%
%LPC*%
G36*
X91349Y91963D02*
X91349Y91963D01*
X89423Y93889D01*
X89423Y96611D01*
X91334Y98522D01*
X91345Y98538D01*
X91361Y98550D01*
X91391Y98597D01*
X91406Y98613D01*
X91419Y98640D01*
X91477Y98721D01*
X91483Y98740D01*
X91494Y98757D01*
X91519Y98858D01*
X91549Y98957D01*
X91549Y98976D01*
X91554Y98996D01*
X91546Y99099D01*
X91543Y99202D01*
X91536Y99221D01*
X91535Y99241D01*
X91494Y99336D01*
X91459Y99433D01*
X91446Y99449D01*
X91438Y99467D01*
X91334Y99598D01*
X89423Y101509D01*
X89423Y104231D01*
X91349Y106157D01*
X94071Y106157D01*
X95997Y104231D01*
X95997Y101509D01*
X94086Y99598D01*
X94075Y99582D01*
X94059Y99570D01*
X94003Y99482D01*
X93943Y99399D01*
X93937Y99380D01*
X93926Y99363D01*
X93901Y99262D01*
X93871Y99163D01*
X93871Y99144D01*
X93866Y99124D01*
X93874Y99021D01*
X93877Y98918D01*
X93884Y98899D01*
X93885Y98879D01*
X93926Y98784D01*
X93961Y98687D01*
X93974Y98671D01*
X93982Y98653D01*
X94056Y98560D01*
X94061Y98551D01*
X94068Y98545D01*
X94086Y98522D01*
X95997Y96611D01*
X95997Y93889D01*
X94071Y91963D01*
X91349Y91963D01*
G37*
%LPD*%
%LPC*%
G36*
X44359Y88153D02*
X44359Y88153D01*
X42433Y90079D01*
X42433Y92801D01*
X44359Y94727D01*
X46752Y94727D01*
X46772Y94730D01*
X46791Y94728D01*
X46893Y94750D01*
X46995Y94766D01*
X47012Y94776D01*
X47032Y94780D01*
X47121Y94833D01*
X47212Y94882D01*
X47226Y94896D01*
X47243Y94906D01*
X47310Y94985D01*
X47382Y95060D01*
X47390Y95078D01*
X47403Y95093D01*
X47442Y95189D01*
X47485Y95283D01*
X47487Y95303D01*
X47495Y95321D01*
X47513Y95488D01*
X47513Y97881D01*
X49439Y99807D01*
X52161Y99807D01*
X54087Y97881D01*
X54087Y95159D01*
X52161Y93233D01*
X49768Y93233D01*
X49748Y93230D01*
X49729Y93232D01*
X49627Y93210D01*
X49525Y93194D01*
X49508Y93184D01*
X49488Y93180D01*
X49399Y93127D01*
X49308Y93078D01*
X49294Y93064D01*
X49277Y93054D01*
X49210Y92975D01*
X49138Y92900D01*
X49130Y92882D01*
X49117Y92867D01*
X49078Y92771D01*
X49035Y92677D01*
X49033Y92657D01*
X49025Y92639D01*
X49007Y92472D01*
X49007Y90079D01*
X47081Y88153D01*
X44359Y88153D01*
G37*
%LPD*%
%LPC*%
G36*
X24039Y55133D02*
X24039Y55133D01*
X22113Y57059D01*
X22113Y59781D01*
X23389Y61057D01*
X23400Y61073D01*
X23416Y61085D01*
X23472Y61173D01*
X23532Y61256D01*
X23538Y61275D01*
X23549Y61292D01*
X23574Y61393D01*
X23604Y61492D01*
X23604Y61511D01*
X23609Y61531D01*
X23601Y61634D01*
X23598Y61737D01*
X23591Y61756D01*
X23590Y61776D01*
X23549Y61871D01*
X23514Y61968D01*
X23501Y61984D01*
X23493Y62002D01*
X23389Y62133D01*
X22113Y63409D01*
X22113Y66131D01*
X24039Y68057D01*
X26761Y68057D01*
X28687Y66131D01*
X28687Y63409D01*
X27411Y62133D01*
X27400Y62117D01*
X27384Y62105D01*
X27328Y62017D01*
X27268Y61934D01*
X27262Y61915D01*
X27251Y61898D01*
X27226Y61797D01*
X27196Y61698D01*
X27196Y61679D01*
X27191Y61659D01*
X27199Y61556D01*
X27202Y61453D01*
X27209Y61434D01*
X27210Y61414D01*
X27251Y61319D01*
X27286Y61222D01*
X27299Y61206D01*
X27307Y61188D01*
X27411Y61057D01*
X28687Y59781D01*
X28687Y57059D01*
X26761Y55133D01*
X24039Y55133D01*
G37*
%LPD*%
%LPC*%
G36*
X117211Y46978D02*
X117211Y46978D01*
X115437Y48752D01*
X115420Y48764D01*
X115408Y48779D01*
X115321Y48835D01*
X115237Y48895D01*
X115218Y48901D01*
X115201Y48912D01*
X115101Y48937D01*
X115002Y48968D01*
X114982Y48967D01*
X114962Y48972D01*
X114859Y48964D01*
X114756Y48961D01*
X114737Y48955D01*
X114717Y48953D01*
X114622Y48913D01*
X114525Y48877D01*
X114509Y48864D01*
X114491Y48857D01*
X114399Y48783D01*
X111669Y48783D01*
X109743Y50709D01*
X109743Y53431D01*
X111669Y55357D01*
X114391Y55357D01*
X116166Y53582D01*
X116182Y53571D01*
X116194Y53555D01*
X116260Y53513D01*
X116302Y53477D01*
X116326Y53467D01*
X116365Y53439D01*
X116384Y53433D01*
X116401Y53422D01*
X116499Y53398D01*
X116530Y53385D01*
X116546Y53383D01*
X116601Y53366D01*
X116621Y53367D01*
X116640Y53362D01*
X116697Y53367D01*
X116697Y53366D01*
X116711Y53366D01*
X116725Y53369D01*
X116743Y53370D01*
X116846Y53373D01*
X116865Y53380D01*
X116885Y53381D01*
X116937Y53404D01*
X116954Y53406D01*
X116990Y53425D01*
X117077Y53457D01*
X117093Y53470D01*
X117111Y53478D01*
X117156Y53513D01*
X117171Y53521D01*
X117188Y53539D01*
X117203Y53551D01*
X119934Y53551D01*
X121859Y51626D01*
X121859Y48903D01*
X119934Y46978D01*
X117211Y46978D01*
G37*
%LPD*%
%LPC*%
G36*
X116330Y66063D02*
X116330Y66063D01*
X116325Y66124D01*
X116305Y66171D01*
X116294Y66222D01*
X116257Y66284D01*
X116229Y66350D01*
X116184Y66406D01*
X116167Y66433D01*
X116150Y66449D01*
X116124Y66481D01*
X114323Y68281D01*
X114323Y71419D01*
X116541Y73637D01*
X119679Y73637D01*
X121897Y71419D01*
X121897Y68281D01*
X119679Y66063D01*
X116330Y66063D01*
G37*
%LPD*%
%LPC*%
G36*
X139505Y122193D02*
X139505Y122193D01*
X137433Y124265D01*
X137433Y127195D01*
X139505Y129267D01*
X142435Y129267D01*
X144507Y127195D01*
X144507Y124265D01*
X142435Y122193D01*
X139505Y122193D01*
G37*
%LPD*%
%LPC*%
G36*
X112603Y58608D02*
X112603Y58608D01*
X110678Y60533D01*
X110678Y63256D01*
X112603Y65181D01*
X115538Y65181D01*
X115542Y65121D01*
X115563Y65073D01*
X115574Y65022D01*
X115611Y64961D01*
X115639Y64895D01*
X115683Y64839D01*
X115700Y64811D01*
X115718Y64796D01*
X115743Y64764D01*
X117251Y63256D01*
X117251Y60533D01*
X115326Y58608D01*
X112603Y58608D01*
G37*
%LPD*%
%LPC*%
G36*
X90079Y128793D02*
X90079Y128793D01*
X88153Y130719D01*
X88153Y133441D01*
X90079Y135367D01*
X92801Y135367D01*
X94727Y133441D01*
X94727Y130719D01*
X92801Y128793D01*
X90079Y128793D01*
G37*
%LPD*%
%LPC*%
G36*
X148499Y127523D02*
X148499Y127523D01*
X146573Y129449D01*
X146573Y132171D01*
X148499Y134097D01*
X151221Y134097D01*
X153147Y132171D01*
X153147Y129449D01*
X151221Y127523D01*
X148499Y127523D01*
G37*
%LPD*%
%LPC*%
G36*
X102779Y15763D02*
X102779Y15763D01*
X100853Y17689D01*
X100853Y20411D01*
X102779Y22337D01*
X105501Y22337D01*
X107427Y20411D01*
X107427Y17689D01*
X105501Y15763D01*
X102779Y15763D01*
G37*
%LPD*%
D10*
X77994Y127D03*
X65294Y127D03*
X52594Y127D03*
X39894Y127D03*
X27194Y127D03*
X90694Y127D03*
X103394Y127D03*
X116094Y127D03*
X128794Y127D03*
X1635Y102034D03*
X1635Y89334D03*
X1635Y114734D03*
X1635Y76634D03*
X1635Y127434D03*
X1635Y63934D03*
X1635Y140134D03*
X1635Y51234D03*
X1635Y152834D03*
X1635Y38534D03*
X1635Y25834D03*
X162560Y101600D03*
X162560Y88900D03*
X162560Y114300D03*
X162560Y76200D03*
X162560Y127000D03*
X162560Y63500D03*
X162560Y139700D03*
X162560Y50800D03*
X162560Y152400D03*
X162560Y38100D03*
X162560Y25400D03*
D11*
X58420Y71120D03*
X67310Y71120D03*
X67310Y63500D03*
X58420Y63500D03*
X58420Y54610D03*
X58420Y45720D03*
X74930Y71120D03*
X83820Y71120D03*
X91440Y71120D03*
X66040Y54610D03*
X74930Y63500D03*
X83820Y63500D03*
X91440Y63500D03*
X74930Y54610D03*
X74930Y45720D03*
X74930Y38100D03*
X83820Y38100D03*
X91440Y38100D03*
X91440Y45720D03*
X91440Y54610D03*
X83820Y54610D03*
X66040Y45720D03*
X66040Y38100D03*
X58420Y38100D03*
X83820Y45720D03*
X105410Y93980D03*
X105410Y88900D03*
X105410Y83820D03*
X110490Y93980D03*
X115570Y93980D03*
X110490Y88900D03*
X115570Y88900D03*
X110490Y83820D03*
X115570Y83820D03*
X119380Y129540D03*
X124460Y129540D03*
X74471Y97947D03*
X74471Y103027D03*
X74471Y108107D03*
X83164Y113122D03*
X83164Y118202D03*
X84392Y122772D03*
X74317Y122772D03*
X74228Y127721D03*
X74245Y132641D03*
X74274Y137630D03*
X79354Y137630D03*
X79325Y132641D03*
X79308Y127721D03*
X79397Y122772D03*
X83164Y141440D03*
X83164Y146520D03*
X83164Y151600D03*
X78084Y151600D03*
X73004Y151600D03*
X73004Y156680D03*
X73004Y161760D03*
X73004Y166840D03*
X73004Y171920D03*
X73004Y177000D03*
X73216Y182080D03*
X73066Y187771D03*
X73677Y192668D03*
X73616Y197503D03*
X73616Y202338D03*
X70993Y207303D03*
X69510Y211943D03*
X66882Y216017D03*
X63762Y219996D03*
X60380Y223270D03*
X57243Y226422D03*
X53908Y229926D03*
X50526Y233247D03*
X47497Y236873D03*
X46533Y241601D03*
X47523Y246299D03*
X35340Y246503D03*
X36410Y241609D03*
X37097Y236953D03*
X38639Y232401D03*
X41576Y228435D03*
X44880Y225043D03*
X48081Y221695D03*
X51400Y218332D03*
X54719Y214823D03*
X57685Y211176D03*
X60280Y207135D03*
X59749Y202500D03*
X59684Y197795D03*
X59654Y193288D03*
X59776Y188588D03*
X42296Y190106D03*
X45324Y186538D03*
X50121Y186587D03*
X54709Y187774D03*
X57523Y246299D03*
X67523Y246299D03*
X77523Y246299D03*
X87523Y246299D03*
X97523Y246299D03*
X107523Y246299D03*
X117523Y246299D03*
X127523Y246299D03*
X137523Y246299D03*
X147523Y246299D03*
X157523Y246299D03*
X51613Y241601D03*
X53066Y237057D03*
X56448Y233736D03*
X59783Y230232D03*
X62920Y227080D03*
X66302Y223806D03*
X69422Y219827D03*
X72050Y215753D03*
X74590Y210673D03*
X77130Y206863D03*
X31330Y241609D03*
X31330Y236529D03*
X33559Y231131D03*
X36496Y227165D03*
X39800Y223773D03*
X43001Y220425D03*
X46320Y217062D03*
X49639Y213553D03*
X52605Y209906D03*
X55200Y205865D03*
X62523Y241299D03*
X72523Y241299D03*
X82523Y241299D03*
X92523Y241299D03*
X102523Y241299D03*
X112523Y241299D03*
X122523Y241299D03*
X132523Y241299D03*
X142523Y241299D03*
X152523Y241299D03*
X67523Y236299D03*
X77523Y236299D03*
X87523Y236299D03*
X97523Y236299D03*
X107523Y236299D03*
X117523Y236299D03*
X127523Y236299D03*
X137523Y236299D03*
X147523Y236299D03*
X157523Y236299D03*
X72523Y231299D03*
X82523Y231299D03*
X92523Y231299D03*
X102523Y231299D03*
X112523Y231299D03*
X122523Y231299D03*
X132523Y231299D03*
X77523Y226299D03*
X87523Y226299D03*
X97523Y226299D03*
X107523Y226299D03*
X117523Y226299D03*
X127523Y226299D03*
X82523Y221299D03*
X92523Y221299D03*
X102523Y221299D03*
X112523Y221299D03*
X122523Y221299D03*
X132523Y221299D03*
X137523Y226299D03*
X142523Y231299D03*
X152523Y231299D03*
X87523Y216299D03*
X77523Y216299D03*
X97523Y216299D03*
X82523Y211299D03*
X92523Y211299D03*
X102523Y211299D03*
X112523Y211299D03*
X122523Y211299D03*
X107523Y216299D03*
X117523Y216299D03*
X127523Y216299D03*
X132523Y211299D03*
X147523Y226299D03*
X157523Y226299D03*
X142523Y221299D03*
X152523Y221299D03*
X137523Y216299D03*
X147523Y216299D03*
X157523Y216299D03*
X142523Y211299D03*
X152523Y211299D03*
X87523Y206299D03*
X97523Y206299D03*
X107523Y206299D03*
X117523Y206299D03*
X127523Y206299D03*
X137523Y206299D03*
X147523Y206299D03*
X157523Y206299D03*
X82523Y201299D03*
X92523Y201299D03*
X102523Y201299D03*
X112523Y201299D03*
X122523Y201299D03*
X132523Y201299D03*
X142523Y201299D03*
X152523Y201299D03*
X87523Y196299D03*
X82523Y191299D03*
X92523Y191299D03*
X97523Y196299D03*
X102523Y191299D03*
X107523Y196299D03*
X82523Y181299D03*
X87523Y186299D03*
X92523Y181299D03*
X97523Y186299D03*
X117523Y196299D03*
X127523Y196299D03*
X137523Y196299D03*
X147523Y196299D03*
X157523Y196299D03*
X112523Y191299D03*
X122523Y191299D03*
X132523Y191299D03*
X142523Y191299D03*
X152523Y191299D03*
X107523Y186299D03*
X117523Y186299D03*
X127523Y186299D03*
X137523Y186299D03*
X147523Y186299D03*
X157523Y186299D03*
X102523Y181299D03*
X112523Y181299D03*
X122523Y181299D03*
X132523Y181299D03*
X142523Y181299D03*
X152523Y181299D03*
X87523Y176299D03*
X97523Y176299D03*
X107523Y176299D03*
X117523Y176299D03*
X127523Y176299D03*
X137523Y176299D03*
X147523Y176299D03*
X157523Y176299D03*
X82523Y171299D03*
X92523Y171299D03*
X102523Y171299D03*
X112523Y171299D03*
X122523Y171299D03*
X132523Y171299D03*
X142523Y171299D03*
X152523Y171299D03*
X87523Y166299D03*
X97523Y166299D03*
X107523Y166299D03*
X117523Y166299D03*
X127523Y166299D03*
X137523Y166299D03*
X147523Y166299D03*
X157523Y166299D03*
X92523Y161299D03*
X102523Y161299D03*
X112523Y161299D03*
X122523Y161299D03*
X132523Y161299D03*
X142523Y161299D03*
X152523Y161299D03*
X97523Y156299D03*
X107523Y156299D03*
X117523Y156299D03*
X127523Y156299D03*
X137523Y156299D03*
X147523Y156299D03*
X82523Y161299D03*
X87523Y156299D03*
X77523Y186299D03*
X77523Y181299D03*
X77523Y176299D03*
X77523Y171299D03*
X77523Y166299D03*
X77523Y161299D03*
X77523Y156299D03*
X77523Y191299D03*
X77523Y198799D03*
X30260Y246503D03*
X6723Y246299D03*
X6723Y236139D03*
X6723Y225979D03*
X6723Y215819D03*
X6723Y205659D03*
X6723Y195499D03*
X6723Y185339D03*
X6723Y175179D03*
X6723Y163749D03*
X13073Y241219D03*
X13073Y231059D03*
X13073Y220899D03*
X13073Y210739D03*
X18153Y236139D03*
X18153Y225979D03*
X18153Y215819D03*
X18153Y205659D03*
X23233Y241219D03*
X23233Y231059D03*
X23233Y220899D03*
X23233Y210739D03*
X28313Y225979D03*
X28313Y215819D03*
X28313Y205659D03*
X33393Y210739D03*
X33393Y220899D03*
X38473Y215819D03*
X38473Y205659D03*
X43553Y210739D03*
X48633Y205659D03*
X36887Y195323D03*
X48633Y195499D03*
X43553Y200579D03*
X53713Y200579D03*
X54574Y193288D03*
X60686Y235787D03*
X66133Y230232D03*
X56876Y240867D03*
X71382Y225076D03*
X74502Y221097D03*
X26250Y236529D03*
X60667Y96983D03*
X60791Y106321D03*
X60929Y111207D03*
X60875Y116046D03*
X60776Y120680D03*
X60838Y125515D03*
X60813Y130394D03*
X60790Y135134D03*
X61031Y140023D03*
X61031Y144784D03*
X61827Y149610D03*
X61863Y154478D03*
X61790Y159264D03*
X61716Y164271D03*
X61643Y169057D03*
X61716Y173990D03*
X60684Y101716D03*
X88244Y146520D03*
X88244Y141440D03*
X56636Y173990D03*
X56563Y169057D03*
X56636Y164271D03*
X56710Y159264D03*
X56783Y154478D03*
X56747Y149610D03*
X55951Y144784D03*
X55951Y140023D03*
X55710Y135134D03*
X55733Y130394D03*
X55758Y125515D03*
X55696Y120680D03*
X55795Y116046D03*
X55849Y111207D03*
X55711Y106321D03*
X16510Y63500D03*
X11636Y156490D03*
X24136Y156490D03*
X36636Y156490D03*
X49136Y156490D03*
X19136Y148990D03*
X31636Y148990D03*
X44136Y148990D03*
X11636Y141490D03*
X24136Y141490D03*
X36636Y141490D03*
X49136Y141490D03*
X19136Y133990D03*
X31636Y133990D03*
X44136Y133990D03*
X49136Y126490D03*
X26636Y126490D03*
X36636Y126490D03*
X44136Y121490D03*
X31636Y121490D03*
X16636Y126490D03*
X9136Y133990D03*
X21636Y121490D03*
X26636Y116490D03*
X36636Y116490D03*
X49136Y116490D03*
X31636Y111490D03*
X44136Y111490D03*
X49136Y106490D03*
X36636Y106490D03*
X44136Y101490D03*
X49136Y166490D03*
X41636Y166490D03*
X36894Y172544D03*
X42108Y171916D03*
X45167Y176627D03*
X50184Y176749D03*
D12*
X144505Y54123D03*
X119380Y59690D03*
D11*
X153793Y142249D03*
X155063Y119389D03*
X155063Y107959D03*
X155063Y93989D03*
X155063Y68589D03*
X155063Y55889D03*
X157603Y16519D03*
X157603Y6359D03*
X147443Y6359D03*
X137283Y6359D03*
X9013Y5089D03*
X9013Y15249D03*
X25523Y15249D03*
X10283Y81289D03*
X10283Y95259D03*
X10283Y107959D03*
X16633Y24139D03*
X92710Y102870D03*
X91440Y132080D03*
X92710Y95250D03*
X149860Y130810D03*
D12*
X140970Y125730D03*
D13*
X118110Y69850D03*
D11*
X113030Y52070D03*
X118572Y50264D03*
X114300Y41910D03*
X118110Y36830D03*
X113030Y31750D03*
X104140Y19050D03*
X113965Y61895D03*
X25400Y58420D03*
X25400Y64770D03*
X50800Y96520D03*
X45720Y91440D03*
M02*
