G04 EAGLE Gerber RS-274X export*
G75*
%MOMM*%
%FSLAX34Y34*%
%LPD*%
%INSilkscreen Top*%
%IPPOS*%
%AMOC8*
5,1,8,0,0,1.08239X$1,22.5*%
G01*
%ADD10C,0.304800*%
%ADD11C,0.177800*%
%ADD12C,0.130000*%
%ADD13C,0.152400*%
%ADD14C,0.076200*%
%ADD15C,0.120000*%
%ADD16C,0.050800*%
%ADD17C,0.203200*%
%ADD18C,0.200000*%
%ADD19C,0.100000*%


D10*
X41671Y83316D02*
X41135Y83316D01*
X41135Y83852D01*
X41671Y83852D01*
X41671Y83316D01*
X133845Y153166D02*
X134381Y153166D01*
X133845Y153166D02*
X133845Y153702D01*
X134381Y153702D01*
X134381Y153166D01*
D11*
X149862Y159239D02*
X149862Y162480D01*
X146622Y160320D02*
X154723Y160320D01*
X154802Y160322D01*
X154882Y160328D01*
X154961Y160338D01*
X155039Y160351D01*
X155117Y160369D01*
X155193Y160390D01*
X155269Y160415D01*
X155343Y160443D01*
X155416Y160476D01*
X155487Y160511D01*
X155556Y160550D01*
X155623Y160593D01*
X155688Y160639D01*
X155751Y160688D01*
X155811Y160740D01*
X155869Y160794D01*
X155923Y160852D01*
X155975Y160912D01*
X156024Y160975D01*
X156070Y161040D01*
X156113Y161107D01*
X156152Y161176D01*
X156187Y161247D01*
X156220Y161320D01*
X156248Y161394D01*
X156273Y161470D01*
X156294Y161546D01*
X156312Y161624D01*
X156325Y161702D01*
X156335Y161781D01*
X156341Y161861D01*
X156343Y161940D01*
X156344Y161940D02*
X156344Y162480D01*
X156344Y166232D02*
X155804Y166232D01*
X155804Y166772D01*
X156344Y166772D01*
X156344Y166232D01*
X156344Y171542D02*
X149862Y171542D01*
X149862Y176403D01*
X149863Y176403D02*
X149865Y176482D01*
X149871Y176562D01*
X149881Y176641D01*
X149894Y176719D01*
X149912Y176797D01*
X149933Y176873D01*
X149958Y176949D01*
X149986Y177023D01*
X150019Y177096D01*
X150054Y177167D01*
X150093Y177236D01*
X150136Y177303D01*
X150182Y177368D01*
X150231Y177431D01*
X150283Y177491D01*
X150337Y177549D01*
X150395Y177603D01*
X150455Y177655D01*
X150518Y177704D01*
X150583Y177750D01*
X150650Y177793D01*
X150719Y177832D01*
X150790Y177867D01*
X150863Y177900D01*
X150937Y177928D01*
X151013Y177953D01*
X151089Y177974D01*
X151167Y177992D01*
X151245Y178005D01*
X151324Y178015D01*
X151404Y178021D01*
X151483Y178023D01*
X156344Y178023D01*
X156344Y174782D02*
X149862Y174782D01*
X156344Y184937D02*
X156344Y187638D01*
X156343Y184937D02*
X156341Y184858D01*
X156335Y184778D01*
X156325Y184699D01*
X156312Y184621D01*
X156294Y184543D01*
X156273Y184467D01*
X156248Y184391D01*
X156220Y184317D01*
X156187Y184244D01*
X156152Y184173D01*
X156113Y184104D01*
X156070Y184037D01*
X156024Y183972D01*
X155975Y183909D01*
X155923Y183849D01*
X155869Y183791D01*
X155811Y183737D01*
X155751Y183685D01*
X155688Y183636D01*
X155623Y183590D01*
X155556Y183547D01*
X155487Y183508D01*
X155416Y183473D01*
X155343Y183440D01*
X155269Y183412D01*
X155193Y183387D01*
X155117Y183366D01*
X155039Y183348D01*
X154961Y183335D01*
X154882Y183325D01*
X154802Y183319D01*
X154723Y183317D01*
X152023Y183317D01*
X151931Y183319D01*
X151840Y183325D01*
X151749Y183334D01*
X151658Y183348D01*
X151568Y183365D01*
X151479Y183387D01*
X151391Y183412D01*
X151303Y183440D01*
X151218Y183473D01*
X151133Y183509D01*
X151051Y183548D01*
X150970Y183591D01*
X150890Y183638D01*
X150813Y183687D01*
X150739Y183740D01*
X150666Y183796D01*
X150596Y183856D01*
X150528Y183918D01*
X150464Y183982D01*
X150402Y184050D01*
X150342Y184120D01*
X150286Y184193D01*
X150233Y184267D01*
X150184Y184344D01*
X150137Y184424D01*
X150094Y184505D01*
X150055Y184587D01*
X150019Y184672D01*
X149986Y184757D01*
X149958Y184845D01*
X149933Y184933D01*
X149911Y185022D01*
X149894Y185112D01*
X149880Y185203D01*
X149871Y185294D01*
X149865Y185385D01*
X149863Y185477D01*
X149865Y185569D01*
X149871Y185660D01*
X149880Y185751D01*
X149894Y185842D01*
X149911Y185932D01*
X149933Y186021D01*
X149958Y186109D01*
X149986Y186197D01*
X150019Y186282D01*
X150055Y186367D01*
X150094Y186449D01*
X150137Y186530D01*
X150184Y186610D01*
X150233Y186687D01*
X150286Y186761D01*
X150342Y186834D01*
X150402Y186904D01*
X150464Y186972D01*
X150528Y187036D01*
X150596Y187098D01*
X150666Y187158D01*
X150739Y187214D01*
X150813Y187267D01*
X150890Y187316D01*
X150970Y187363D01*
X151051Y187406D01*
X151133Y187445D01*
X151218Y187481D01*
X151303Y187514D01*
X151391Y187542D01*
X151479Y187567D01*
X151568Y187589D01*
X151658Y187606D01*
X151749Y187620D01*
X151840Y187629D01*
X151931Y187635D01*
X152023Y187637D01*
X152023Y187638D02*
X153103Y187638D01*
X153103Y183317D01*
X157424Y191942D02*
X145542Y196263D01*
X146622Y204810D02*
X156344Y204810D01*
X156344Y202109D01*
X156343Y202109D02*
X156341Y202030D01*
X156335Y201950D01*
X156325Y201871D01*
X156312Y201793D01*
X156294Y201715D01*
X156273Y201639D01*
X156248Y201563D01*
X156220Y201489D01*
X156187Y201416D01*
X156152Y201345D01*
X156113Y201276D01*
X156070Y201209D01*
X156024Y201144D01*
X155975Y201081D01*
X155923Y201021D01*
X155869Y200963D01*
X155811Y200909D01*
X155751Y200857D01*
X155688Y200808D01*
X155623Y200762D01*
X155556Y200719D01*
X155487Y200680D01*
X155416Y200645D01*
X155343Y200612D01*
X155269Y200584D01*
X155193Y200559D01*
X155117Y200538D01*
X155039Y200520D01*
X154961Y200507D01*
X154882Y200497D01*
X154802Y200491D01*
X154723Y200489D01*
X151483Y200489D01*
X151404Y200491D01*
X151324Y200497D01*
X151245Y200507D01*
X151167Y200520D01*
X151089Y200538D01*
X151013Y200559D01*
X150937Y200584D01*
X150863Y200612D01*
X150790Y200645D01*
X150719Y200680D01*
X150650Y200719D01*
X150583Y200762D01*
X150518Y200808D01*
X150455Y200857D01*
X150395Y200909D01*
X150337Y200963D01*
X150283Y201021D01*
X150231Y201081D01*
X150182Y201144D01*
X150136Y201209D01*
X150093Y201276D01*
X150054Y201345D01*
X150019Y201416D01*
X149986Y201489D01*
X149958Y201563D01*
X149933Y201639D01*
X149912Y201715D01*
X149894Y201793D01*
X149881Y201871D01*
X149871Y201950D01*
X149865Y202030D01*
X149863Y202109D01*
X149862Y202109D02*
X149862Y204810D01*
X156344Y211502D02*
X156344Y214203D01*
X156343Y211502D02*
X156341Y211423D01*
X156335Y211343D01*
X156325Y211264D01*
X156312Y211186D01*
X156294Y211108D01*
X156273Y211032D01*
X156248Y210956D01*
X156220Y210882D01*
X156187Y210809D01*
X156152Y210738D01*
X156113Y210669D01*
X156070Y210602D01*
X156024Y210537D01*
X155975Y210474D01*
X155923Y210414D01*
X155869Y210356D01*
X155811Y210302D01*
X155751Y210250D01*
X155688Y210201D01*
X155623Y210155D01*
X155556Y210112D01*
X155487Y210073D01*
X155416Y210038D01*
X155343Y210005D01*
X155269Y209977D01*
X155193Y209952D01*
X155117Y209931D01*
X155039Y209913D01*
X154961Y209900D01*
X154882Y209890D01*
X154802Y209884D01*
X154723Y209882D01*
X152023Y209882D01*
X151931Y209884D01*
X151840Y209890D01*
X151749Y209899D01*
X151658Y209913D01*
X151568Y209930D01*
X151479Y209952D01*
X151391Y209977D01*
X151303Y210005D01*
X151218Y210038D01*
X151133Y210074D01*
X151051Y210113D01*
X150970Y210156D01*
X150890Y210203D01*
X150813Y210252D01*
X150739Y210305D01*
X150666Y210361D01*
X150596Y210421D01*
X150528Y210483D01*
X150464Y210547D01*
X150402Y210615D01*
X150342Y210685D01*
X150286Y210758D01*
X150233Y210832D01*
X150184Y210909D01*
X150137Y210989D01*
X150094Y211070D01*
X150055Y211152D01*
X150019Y211237D01*
X149986Y211322D01*
X149958Y211410D01*
X149933Y211498D01*
X149911Y211587D01*
X149894Y211677D01*
X149880Y211768D01*
X149871Y211859D01*
X149865Y211950D01*
X149863Y212042D01*
X149865Y212134D01*
X149871Y212225D01*
X149880Y212316D01*
X149894Y212407D01*
X149911Y212497D01*
X149933Y212586D01*
X149958Y212674D01*
X149986Y212762D01*
X150019Y212847D01*
X150055Y212932D01*
X150094Y213014D01*
X150137Y213095D01*
X150184Y213175D01*
X150233Y213252D01*
X150286Y213326D01*
X150342Y213399D01*
X150402Y213469D01*
X150464Y213537D01*
X150528Y213601D01*
X150596Y213663D01*
X150666Y213723D01*
X150739Y213779D01*
X150813Y213832D01*
X150890Y213881D01*
X150970Y213928D01*
X151051Y213971D01*
X151133Y214010D01*
X151218Y214046D01*
X151303Y214079D01*
X151391Y214107D01*
X151479Y214132D01*
X151568Y214154D01*
X151658Y214171D01*
X151749Y214185D01*
X151840Y214194D01*
X151931Y214200D01*
X152023Y214202D01*
X152023Y214203D02*
X153103Y214203D01*
X153103Y209882D01*
X152563Y220664D02*
X152563Y223095D01*
X152563Y220664D02*
X152565Y220578D01*
X152571Y220492D01*
X152581Y220407D01*
X152594Y220322D01*
X152612Y220237D01*
X152633Y220154D01*
X152658Y220072D01*
X152687Y219991D01*
X152719Y219911D01*
X152756Y219833D01*
X152795Y219757D01*
X152838Y219682D01*
X152885Y219610D01*
X152934Y219539D01*
X152987Y219471D01*
X153043Y219406D01*
X153101Y219343D01*
X153163Y219283D01*
X153227Y219225D01*
X153294Y219171D01*
X153363Y219120D01*
X153434Y219072D01*
X153508Y219027D01*
X153583Y218986D01*
X153661Y218948D01*
X153740Y218914D01*
X153820Y218883D01*
X153902Y218856D01*
X153985Y218833D01*
X154068Y218814D01*
X154153Y218798D01*
X154238Y218786D01*
X154324Y218778D01*
X154410Y218774D01*
X154496Y218774D01*
X154582Y218778D01*
X154668Y218786D01*
X154753Y218798D01*
X154838Y218814D01*
X154921Y218833D01*
X155004Y218856D01*
X155086Y218883D01*
X155166Y218914D01*
X155245Y218948D01*
X155323Y218986D01*
X155398Y219027D01*
X155472Y219072D01*
X155543Y219120D01*
X155612Y219171D01*
X155679Y219225D01*
X155743Y219283D01*
X155805Y219343D01*
X155863Y219406D01*
X155919Y219471D01*
X155972Y219539D01*
X156021Y219610D01*
X156068Y219682D01*
X156111Y219757D01*
X156150Y219833D01*
X156187Y219911D01*
X156219Y219991D01*
X156248Y220072D01*
X156273Y220154D01*
X156294Y220237D01*
X156312Y220322D01*
X156325Y220407D01*
X156335Y220492D01*
X156341Y220578D01*
X156343Y220664D01*
X156344Y220664D02*
X156344Y223095D01*
X151483Y223095D01*
X151483Y223094D02*
X151404Y223092D01*
X151324Y223086D01*
X151245Y223076D01*
X151167Y223063D01*
X151089Y223045D01*
X151013Y223024D01*
X150937Y222999D01*
X150863Y222971D01*
X150790Y222938D01*
X150719Y222903D01*
X150650Y222864D01*
X150583Y222821D01*
X150518Y222775D01*
X150455Y222726D01*
X150395Y222674D01*
X150337Y222620D01*
X150283Y222562D01*
X150231Y222502D01*
X150182Y222439D01*
X150136Y222374D01*
X150093Y222307D01*
X150054Y222238D01*
X150019Y222167D01*
X149986Y222094D01*
X149958Y222020D01*
X149933Y221944D01*
X149912Y221868D01*
X149894Y221790D01*
X149881Y221712D01*
X149871Y221633D01*
X149865Y221553D01*
X149863Y221474D01*
X149862Y221474D02*
X149862Y219314D01*
X156344Y227822D02*
X149862Y232143D01*
X149862Y227822D02*
X156344Y232143D01*
X156344Y236102D02*
X149862Y240423D01*
X149862Y236102D02*
X156344Y240423D01*
D12*
X162560Y381D02*
X236670Y381D01*
X236670Y300491D02*
X162560Y300491D01*
X217170Y299841D02*
X217170Y1031D01*
X213978Y26381D01*
X220362Y26381D01*
X217170Y1031D01*
X215870Y26381D01*
X218470Y26381D02*
X217170Y1031D01*
X214570Y26381D01*
X219770Y26381D02*
X217170Y1031D01*
X213978Y274491D02*
X217170Y299841D01*
X213978Y274491D02*
X220362Y274491D01*
X217170Y299841D01*
X215870Y274491D01*
X218470Y274491D02*
X217170Y299841D01*
X214570Y274491D01*
X219770Y274491D02*
X217170Y299841D01*
D13*
X210663Y123804D02*
X210663Y119288D01*
X210663Y123804D02*
X210661Y123937D01*
X210655Y124069D01*
X210645Y124201D01*
X210632Y124333D01*
X210614Y124465D01*
X210593Y124595D01*
X210568Y124726D01*
X210539Y124855D01*
X210506Y124983D01*
X210470Y125111D01*
X210430Y125237D01*
X210386Y125362D01*
X210338Y125486D01*
X210287Y125608D01*
X210232Y125729D01*
X210174Y125848D01*
X210112Y125966D01*
X210047Y126081D01*
X209978Y126195D01*
X209907Y126306D01*
X209831Y126415D01*
X209753Y126522D01*
X209672Y126627D01*
X209587Y126729D01*
X209500Y126829D01*
X209410Y126926D01*
X209317Y127021D01*
X209221Y127112D01*
X209123Y127201D01*
X209022Y127287D01*
X208918Y127370D01*
X208812Y127450D01*
X208704Y127526D01*
X208594Y127600D01*
X208481Y127670D01*
X208367Y127737D01*
X208250Y127800D01*
X208132Y127860D01*
X208012Y127917D01*
X207890Y127970D01*
X207767Y128019D01*
X207643Y128065D01*
X207517Y128107D01*
X207390Y128145D01*
X207262Y128180D01*
X207133Y128211D01*
X207004Y128238D01*
X206873Y128261D01*
X206742Y128281D01*
X206610Y128296D01*
X206478Y128308D01*
X206346Y128316D01*
X206213Y128320D01*
X206081Y128320D01*
X205948Y128316D01*
X205816Y128308D01*
X205684Y128296D01*
X205552Y128281D01*
X205421Y128261D01*
X205290Y128238D01*
X205161Y128211D01*
X205032Y128180D01*
X204904Y128145D01*
X204777Y128107D01*
X204651Y128065D01*
X204527Y128019D01*
X204404Y127970D01*
X204282Y127917D01*
X204162Y127860D01*
X204044Y127800D01*
X203927Y127737D01*
X203813Y127670D01*
X203700Y127600D01*
X203590Y127526D01*
X203482Y127450D01*
X203376Y127370D01*
X203272Y127287D01*
X203171Y127201D01*
X203073Y127112D01*
X202977Y127021D01*
X202884Y126926D01*
X202794Y126829D01*
X202707Y126729D01*
X202622Y126627D01*
X202541Y126522D01*
X202463Y126415D01*
X202387Y126306D01*
X202316Y126195D01*
X202247Y126081D01*
X202182Y125966D01*
X202120Y125848D01*
X202062Y125729D01*
X202007Y125608D01*
X201956Y125486D01*
X201908Y125362D01*
X201864Y125237D01*
X201824Y125111D01*
X201788Y124983D01*
X201755Y124855D01*
X201726Y124726D01*
X201701Y124595D01*
X201680Y124465D01*
X201662Y124333D01*
X201649Y124201D01*
X201639Y124069D01*
X201633Y123937D01*
X201631Y123804D01*
X194407Y124707D02*
X194407Y119288D01*
X194407Y124707D02*
X194409Y124826D01*
X194415Y124946D01*
X194425Y125065D01*
X194439Y125183D01*
X194456Y125302D01*
X194478Y125419D01*
X194503Y125536D01*
X194533Y125651D01*
X194566Y125766D01*
X194603Y125880D01*
X194643Y125992D01*
X194688Y126103D01*
X194736Y126212D01*
X194787Y126320D01*
X194842Y126426D01*
X194901Y126530D01*
X194963Y126632D01*
X195028Y126732D01*
X195097Y126830D01*
X195169Y126926D01*
X195244Y127019D01*
X195321Y127109D01*
X195402Y127197D01*
X195486Y127282D01*
X195573Y127364D01*
X195662Y127444D01*
X195754Y127520D01*
X195848Y127594D01*
X195945Y127664D01*
X196043Y127731D01*
X196144Y127795D01*
X196248Y127855D01*
X196353Y127912D01*
X196460Y127965D01*
X196568Y128015D01*
X196678Y128061D01*
X196790Y128103D01*
X196903Y128142D01*
X197017Y128177D01*
X197132Y128208D01*
X197249Y128236D01*
X197366Y128259D01*
X197483Y128279D01*
X197602Y128295D01*
X197721Y128307D01*
X197840Y128315D01*
X197959Y128319D01*
X198079Y128319D01*
X198198Y128315D01*
X198317Y128307D01*
X198436Y128295D01*
X198555Y128279D01*
X198672Y128259D01*
X198789Y128236D01*
X198906Y128208D01*
X199021Y128177D01*
X199135Y128142D01*
X199248Y128103D01*
X199360Y128061D01*
X199470Y128015D01*
X199578Y127965D01*
X199685Y127912D01*
X199790Y127855D01*
X199894Y127795D01*
X199995Y127731D01*
X200093Y127664D01*
X200190Y127594D01*
X200284Y127520D01*
X200376Y127444D01*
X200465Y127364D01*
X200552Y127282D01*
X200636Y127197D01*
X200717Y127109D01*
X200794Y127019D01*
X200869Y126926D01*
X200941Y126830D01*
X201010Y126732D01*
X201075Y126632D01*
X201137Y126530D01*
X201196Y126426D01*
X201251Y126320D01*
X201302Y126212D01*
X201350Y126103D01*
X201395Y125992D01*
X201435Y125880D01*
X201472Y125766D01*
X201505Y125651D01*
X201535Y125536D01*
X201560Y125419D01*
X201582Y125302D01*
X201599Y125183D01*
X201613Y125065D01*
X201623Y124946D01*
X201629Y124826D01*
X201631Y124707D01*
X201632Y124707D02*
X201632Y121094D01*
X202535Y134920D02*
X202215Y134924D01*
X201896Y134935D01*
X201576Y134954D01*
X201258Y134981D01*
X200940Y135015D01*
X200623Y135057D01*
X200307Y135107D01*
X199992Y135164D01*
X199679Y135228D01*
X199367Y135300D01*
X199057Y135379D01*
X198750Y135466D01*
X198444Y135560D01*
X198141Y135661D01*
X197840Y135770D01*
X197542Y135885D01*
X197246Y136008D01*
X196954Y136138D01*
X196665Y136275D01*
X196664Y136275D02*
X196556Y136314D01*
X196449Y136357D01*
X196344Y136403D01*
X196241Y136453D01*
X196139Y136507D01*
X196039Y136564D01*
X195941Y136625D01*
X195845Y136689D01*
X195752Y136756D01*
X195661Y136826D01*
X195572Y136900D01*
X195486Y136976D01*
X195403Y137056D01*
X195322Y137138D01*
X195244Y137223D01*
X195170Y137310D01*
X195098Y137401D01*
X195029Y137493D01*
X194964Y137588D01*
X194902Y137685D01*
X194843Y137784D01*
X194788Y137885D01*
X194737Y137988D01*
X194689Y138093D01*
X194644Y138199D01*
X194603Y138306D01*
X194566Y138415D01*
X194533Y138526D01*
X194504Y138637D01*
X194478Y138749D01*
X194456Y138862D01*
X194439Y138976D01*
X194425Y139090D01*
X194415Y139205D01*
X194409Y139320D01*
X194407Y139435D01*
X194409Y139550D01*
X194415Y139665D01*
X194425Y139780D01*
X194439Y139894D01*
X194456Y140008D01*
X194478Y140121D01*
X194504Y140233D01*
X194533Y140345D01*
X194566Y140455D01*
X194603Y140564D01*
X194644Y140672D01*
X194689Y140778D01*
X194737Y140883D01*
X194788Y140985D01*
X194844Y141087D01*
X194902Y141186D01*
X194964Y141283D01*
X195030Y141378D01*
X195098Y141470D01*
X195170Y141560D01*
X195244Y141648D01*
X195322Y141733D01*
X195403Y141815D01*
X195486Y141894D01*
X195572Y141971D01*
X195661Y142044D01*
X195752Y142115D01*
X195846Y142182D01*
X195941Y142246D01*
X196039Y142307D01*
X196139Y142364D01*
X196241Y142417D01*
X196345Y142468D01*
X196450Y142514D01*
X196557Y142557D01*
X196665Y142596D01*
X196665Y142595D02*
X196954Y142732D01*
X197246Y142862D01*
X197542Y142985D01*
X197840Y143100D01*
X198141Y143209D01*
X198444Y143310D01*
X198750Y143404D01*
X199057Y143491D01*
X199367Y143570D01*
X199679Y143642D01*
X199992Y143706D01*
X200307Y143763D01*
X200623Y143813D01*
X200940Y143855D01*
X201258Y143889D01*
X201576Y143916D01*
X201896Y143935D01*
X202215Y143946D01*
X202535Y143950D01*
X202535Y134920D02*
X202855Y134924D01*
X203174Y134935D01*
X203494Y134954D01*
X203812Y134981D01*
X204130Y135015D01*
X204447Y135057D01*
X204763Y135107D01*
X205078Y135164D01*
X205391Y135228D01*
X205703Y135300D01*
X206013Y135379D01*
X206320Y135466D01*
X206626Y135560D01*
X206929Y135661D01*
X207230Y135770D01*
X207528Y135885D01*
X207824Y136008D01*
X208116Y136138D01*
X208405Y136275D01*
X208406Y136274D02*
X208514Y136313D01*
X208621Y136356D01*
X208726Y136402D01*
X208830Y136453D01*
X208932Y136506D01*
X209032Y136563D01*
X209130Y136624D01*
X209225Y136688D01*
X209319Y136755D01*
X209410Y136826D01*
X209499Y136899D01*
X209585Y136976D01*
X209668Y137055D01*
X209749Y137137D01*
X209827Y137222D01*
X209901Y137310D01*
X209973Y137400D01*
X210042Y137493D01*
X210107Y137587D01*
X210169Y137684D01*
X210227Y137784D01*
X210283Y137885D01*
X210334Y137987D01*
X210382Y138092D01*
X210427Y138198D01*
X210468Y138306D01*
X210505Y138415D01*
X210538Y138525D01*
X210567Y138637D01*
X210593Y138749D01*
X210615Y138862D01*
X210632Y138976D01*
X210646Y139090D01*
X210656Y139205D01*
X210662Y139320D01*
X210664Y139435D01*
X208405Y142595D02*
X208116Y142732D01*
X207824Y142862D01*
X207528Y142985D01*
X207230Y143100D01*
X206929Y143209D01*
X206626Y143310D01*
X206320Y143404D01*
X206013Y143491D01*
X205703Y143570D01*
X205391Y143642D01*
X205078Y143706D01*
X204763Y143763D01*
X204447Y143813D01*
X204130Y143855D01*
X203812Y143889D01*
X203494Y143916D01*
X203174Y143935D01*
X202855Y143946D01*
X202535Y143950D01*
X208405Y142596D02*
X208513Y142557D01*
X208620Y142514D01*
X208725Y142468D01*
X208829Y142417D01*
X208931Y142364D01*
X209031Y142307D01*
X209129Y142246D01*
X209224Y142182D01*
X209318Y142115D01*
X209409Y142044D01*
X209498Y141971D01*
X209584Y141894D01*
X209667Y141815D01*
X209748Y141733D01*
X209826Y141648D01*
X209900Y141560D01*
X209972Y141470D01*
X210041Y141377D01*
X210106Y141283D01*
X210168Y141186D01*
X210226Y141086D01*
X210282Y140985D01*
X210333Y140882D01*
X210381Y140778D01*
X210426Y140672D01*
X210467Y140564D01*
X210504Y140455D01*
X210537Y140345D01*
X210566Y140233D01*
X210592Y140121D01*
X210614Y140008D01*
X210631Y139894D01*
X210645Y139780D01*
X210655Y139665D01*
X210661Y139550D01*
X210663Y139435D01*
X207051Y135822D02*
X198019Y143047D01*
X209760Y149925D02*
X210663Y149925D01*
X209760Y149925D02*
X209760Y150828D01*
X210663Y150828D01*
X210663Y149925D01*
X202535Y156803D02*
X202215Y156807D01*
X201896Y156818D01*
X201576Y156837D01*
X201258Y156864D01*
X200940Y156898D01*
X200623Y156940D01*
X200307Y156990D01*
X199992Y157047D01*
X199679Y157111D01*
X199367Y157183D01*
X199057Y157262D01*
X198750Y157349D01*
X198444Y157443D01*
X198141Y157544D01*
X197840Y157653D01*
X197542Y157768D01*
X197246Y157891D01*
X196954Y158021D01*
X196665Y158158D01*
X196664Y158158D02*
X196556Y158197D01*
X196449Y158240D01*
X196344Y158286D01*
X196241Y158336D01*
X196139Y158390D01*
X196039Y158447D01*
X195941Y158508D01*
X195845Y158572D01*
X195752Y158639D01*
X195661Y158709D01*
X195572Y158783D01*
X195486Y158859D01*
X195403Y158939D01*
X195322Y159021D01*
X195244Y159106D01*
X195170Y159193D01*
X195098Y159284D01*
X195029Y159376D01*
X194964Y159471D01*
X194902Y159568D01*
X194843Y159667D01*
X194788Y159768D01*
X194737Y159871D01*
X194689Y159976D01*
X194644Y160082D01*
X194603Y160189D01*
X194566Y160298D01*
X194533Y160409D01*
X194504Y160520D01*
X194478Y160632D01*
X194456Y160745D01*
X194439Y160859D01*
X194425Y160973D01*
X194415Y161088D01*
X194409Y161203D01*
X194407Y161318D01*
X194409Y161433D01*
X194415Y161548D01*
X194425Y161663D01*
X194439Y161777D01*
X194456Y161891D01*
X194478Y162004D01*
X194504Y162116D01*
X194533Y162228D01*
X194566Y162338D01*
X194603Y162447D01*
X194644Y162555D01*
X194689Y162661D01*
X194737Y162766D01*
X194788Y162868D01*
X194844Y162970D01*
X194902Y163069D01*
X194964Y163166D01*
X195030Y163261D01*
X195098Y163353D01*
X195170Y163443D01*
X195244Y163531D01*
X195322Y163616D01*
X195403Y163698D01*
X195486Y163777D01*
X195572Y163854D01*
X195661Y163927D01*
X195752Y163998D01*
X195846Y164065D01*
X195941Y164129D01*
X196039Y164190D01*
X196139Y164247D01*
X196241Y164300D01*
X196345Y164351D01*
X196450Y164397D01*
X196557Y164440D01*
X196665Y164479D01*
X196954Y164616D01*
X197246Y164746D01*
X197542Y164869D01*
X197840Y164984D01*
X198141Y165093D01*
X198444Y165194D01*
X198750Y165288D01*
X199057Y165375D01*
X199367Y165454D01*
X199679Y165526D01*
X199992Y165590D01*
X200307Y165647D01*
X200623Y165697D01*
X200940Y165739D01*
X201258Y165773D01*
X201576Y165800D01*
X201896Y165819D01*
X202215Y165830D01*
X202535Y165834D01*
X202535Y156803D02*
X202855Y156807D01*
X203174Y156818D01*
X203494Y156837D01*
X203812Y156864D01*
X204130Y156898D01*
X204447Y156940D01*
X204763Y156990D01*
X205078Y157047D01*
X205391Y157111D01*
X205703Y157183D01*
X206013Y157262D01*
X206320Y157349D01*
X206626Y157443D01*
X206929Y157544D01*
X207230Y157653D01*
X207528Y157768D01*
X207824Y157891D01*
X208116Y158021D01*
X208405Y158158D01*
X208406Y158157D02*
X208514Y158196D01*
X208621Y158239D01*
X208726Y158285D01*
X208830Y158336D01*
X208932Y158389D01*
X209032Y158446D01*
X209130Y158507D01*
X209225Y158571D01*
X209319Y158638D01*
X209410Y158709D01*
X209499Y158782D01*
X209585Y158859D01*
X209668Y158938D01*
X209749Y159020D01*
X209827Y159105D01*
X209901Y159193D01*
X209973Y159283D01*
X210042Y159376D01*
X210107Y159470D01*
X210169Y159567D01*
X210227Y159667D01*
X210283Y159768D01*
X210334Y159870D01*
X210382Y159975D01*
X210427Y160081D01*
X210468Y160189D01*
X210505Y160298D01*
X210538Y160408D01*
X210567Y160520D01*
X210593Y160632D01*
X210615Y160745D01*
X210632Y160859D01*
X210646Y160973D01*
X210656Y161088D01*
X210662Y161203D01*
X210664Y161318D01*
X208405Y164479D02*
X208116Y164616D01*
X207824Y164746D01*
X207528Y164869D01*
X207230Y164984D01*
X206929Y165093D01*
X206626Y165194D01*
X206320Y165288D01*
X206013Y165375D01*
X205703Y165454D01*
X205391Y165526D01*
X205078Y165590D01*
X204763Y165647D01*
X204447Y165697D01*
X204130Y165739D01*
X203812Y165773D01*
X203494Y165800D01*
X203174Y165819D01*
X202855Y165830D01*
X202535Y165834D01*
X208405Y164479D02*
X208513Y164440D01*
X208620Y164397D01*
X208725Y164351D01*
X208829Y164300D01*
X208931Y164247D01*
X209031Y164190D01*
X209129Y164129D01*
X209224Y164065D01*
X209318Y163998D01*
X209409Y163927D01*
X209498Y163854D01*
X209584Y163777D01*
X209667Y163698D01*
X209748Y163616D01*
X209826Y163531D01*
X209900Y163443D01*
X209972Y163353D01*
X210041Y163260D01*
X210106Y163166D01*
X210168Y163069D01*
X210226Y162969D01*
X210282Y162868D01*
X210333Y162765D01*
X210381Y162661D01*
X210426Y162555D01*
X210467Y162447D01*
X210504Y162338D01*
X210537Y162228D01*
X210566Y162116D01*
X210592Y162004D01*
X210614Y161891D01*
X210631Y161777D01*
X210645Y161663D01*
X210655Y161548D01*
X210661Y161433D01*
X210663Y161318D01*
X207051Y157706D02*
X198019Y164931D01*
X198019Y172434D02*
X194407Y176950D01*
X210663Y176950D01*
X210663Y181465D02*
X210663Y172434D01*
D12*
X2032Y300491D02*
X2032Y347160D01*
X162560Y347160D02*
X162560Y300491D01*
X161910Y327660D02*
X2682Y327660D01*
X28032Y330852D01*
X28032Y324468D01*
X2682Y327660D01*
X28032Y328960D01*
X28032Y326360D02*
X2682Y327660D01*
X28032Y330260D01*
X28032Y325060D02*
X2682Y327660D01*
X136560Y330852D02*
X161910Y327660D01*
X136560Y330852D02*
X136560Y324468D01*
X161910Y327660D01*
X136560Y328960D01*
X136560Y326360D02*
X161910Y327660D01*
X136560Y330260D01*
X136560Y325060D02*
X161910Y327660D01*
D13*
X55664Y350423D02*
X51148Y346811D01*
X55664Y350423D02*
X55664Y334167D01*
X60179Y334167D02*
X51148Y334167D01*
X66779Y343198D02*
X72198Y343198D01*
X72316Y343196D01*
X72434Y343190D01*
X72552Y343181D01*
X72669Y343167D01*
X72786Y343150D01*
X72903Y343129D01*
X73018Y343104D01*
X73133Y343075D01*
X73247Y343042D01*
X73359Y343006D01*
X73470Y342966D01*
X73580Y342923D01*
X73689Y342876D01*
X73796Y342826D01*
X73901Y342771D01*
X74004Y342714D01*
X74105Y342653D01*
X74205Y342589D01*
X74302Y342522D01*
X74397Y342452D01*
X74489Y342378D01*
X74580Y342302D01*
X74667Y342222D01*
X74752Y342140D01*
X74834Y342055D01*
X74914Y341968D01*
X74990Y341877D01*
X75064Y341785D01*
X75134Y341690D01*
X75201Y341593D01*
X75265Y341493D01*
X75326Y341392D01*
X75383Y341289D01*
X75438Y341184D01*
X75488Y341077D01*
X75535Y340968D01*
X75578Y340858D01*
X75618Y340747D01*
X75654Y340635D01*
X75687Y340521D01*
X75716Y340406D01*
X75741Y340291D01*
X75762Y340174D01*
X75779Y340057D01*
X75793Y339940D01*
X75802Y339822D01*
X75808Y339704D01*
X75810Y339586D01*
X75810Y338683D01*
X75811Y338683D02*
X75809Y338550D01*
X75803Y338418D01*
X75793Y338286D01*
X75780Y338154D01*
X75762Y338022D01*
X75741Y337892D01*
X75716Y337761D01*
X75687Y337632D01*
X75654Y337504D01*
X75618Y337376D01*
X75578Y337250D01*
X75534Y337125D01*
X75486Y337001D01*
X75435Y336879D01*
X75380Y336758D01*
X75322Y336639D01*
X75260Y336521D01*
X75195Y336406D01*
X75126Y336292D01*
X75055Y336181D01*
X74979Y336072D01*
X74901Y335965D01*
X74820Y335860D01*
X74735Y335758D01*
X74648Y335658D01*
X74558Y335561D01*
X74465Y335466D01*
X74369Y335375D01*
X74271Y335286D01*
X74170Y335200D01*
X74066Y335117D01*
X73960Y335037D01*
X73852Y334961D01*
X73742Y334887D01*
X73629Y334817D01*
X73515Y334750D01*
X73398Y334687D01*
X73280Y334627D01*
X73160Y334570D01*
X73038Y334517D01*
X72915Y334468D01*
X72791Y334422D01*
X72665Y334380D01*
X72538Y334342D01*
X72410Y334307D01*
X72281Y334276D01*
X72152Y334249D01*
X72021Y334226D01*
X71890Y334206D01*
X71758Y334191D01*
X71626Y334179D01*
X71494Y334171D01*
X71361Y334167D01*
X71229Y334167D01*
X71096Y334171D01*
X70964Y334179D01*
X70832Y334191D01*
X70700Y334206D01*
X70569Y334226D01*
X70438Y334249D01*
X70309Y334276D01*
X70180Y334307D01*
X70052Y334342D01*
X69925Y334380D01*
X69799Y334422D01*
X69675Y334468D01*
X69552Y334517D01*
X69430Y334570D01*
X69310Y334627D01*
X69192Y334687D01*
X69075Y334750D01*
X68961Y334817D01*
X68848Y334887D01*
X68738Y334961D01*
X68630Y335037D01*
X68524Y335117D01*
X68420Y335200D01*
X68319Y335286D01*
X68221Y335375D01*
X68125Y335466D01*
X68032Y335561D01*
X67942Y335658D01*
X67855Y335758D01*
X67770Y335860D01*
X67689Y335965D01*
X67611Y336072D01*
X67535Y336181D01*
X67464Y336292D01*
X67395Y336406D01*
X67330Y336521D01*
X67268Y336639D01*
X67210Y336758D01*
X67155Y336879D01*
X67104Y337001D01*
X67056Y337125D01*
X67012Y337250D01*
X66972Y337376D01*
X66936Y337504D01*
X66903Y337632D01*
X66874Y337761D01*
X66849Y337892D01*
X66828Y338022D01*
X66810Y338154D01*
X66797Y338286D01*
X66787Y338418D01*
X66781Y338550D01*
X66779Y338683D01*
X66779Y343198D01*
X66781Y343375D01*
X66788Y343553D01*
X66799Y343730D01*
X66814Y343906D01*
X66833Y344082D01*
X66857Y344258D01*
X66885Y344433D01*
X66918Y344608D01*
X66955Y344781D01*
X66996Y344954D01*
X67041Y345125D01*
X67090Y345295D01*
X67144Y345464D01*
X67201Y345632D01*
X67263Y345798D01*
X67329Y345963D01*
X67399Y346126D01*
X67473Y346287D01*
X67550Y346446D01*
X67632Y346604D01*
X67718Y346759D01*
X67807Y346912D01*
X67900Y347063D01*
X67997Y347212D01*
X68097Y347358D01*
X68201Y347502D01*
X68308Y347643D01*
X68419Y347781D01*
X68533Y347917D01*
X68651Y348050D01*
X68771Y348180D01*
X68895Y348307D01*
X69022Y348431D01*
X69152Y348551D01*
X69285Y348669D01*
X69420Y348783D01*
X69559Y348894D01*
X69700Y349001D01*
X69844Y349105D01*
X69990Y349205D01*
X70139Y349302D01*
X70290Y349395D01*
X70443Y349484D01*
X70598Y349570D01*
X70756Y349652D01*
X70915Y349729D01*
X71076Y349803D01*
X71239Y349873D01*
X71404Y349939D01*
X71570Y350001D01*
X71738Y350058D01*
X71907Y350112D01*
X72077Y350161D01*
X72248Y350206D01*
X72421Y350247D01*
X72594Y350284D01*
X72769Y350317D01*
X72944Y350345D01*
X73120Y350369D01*
X73296Y350388D01*
X73472Y350403D01*
X73649Y350414D01*
X73827Y350421D01*
X74004Y350423D01*
X81785Y335070D02*
X81785Y334167D01*
X81785Y335070D02*
X82688Y335070D01*
X82688Y334167D01*
X81785Y334167D01*
X88663Y342295D02*
X88667Y342615D01*
X88678Y342934D01*
X88697Y343254D01*
X88724Y343572D01*
X88758Y343890D01*
X88800Y344207D01*
X88850Y344523D01*
X88907Y344838D01*
X88971Y345151D01*
X89043Y345463D01*
X89122Y345773D01*
X89209Y346080D01*
X89303Y346386D01*
X89404Y346689D01*
X89513Y346990D01*
X89628Y347288D01*
X89751Y347584D01*
X89881Y347876D01*
X90018Y348165D01*
X90017Y348166D02*
X90056Y348274D01*
X90099Y348381D01*
X90145Y348486D01*
X90196Y348590D01*
X90249Y348692D01*
X90306Y348792D01*
X90367Y348890D01*
X90431Y348985D01*
X90498Y349079D01*
X90569Y349170D01*
X90642Y349259D01*
X90719Y349345D01*
X90798Y349428D01*
X90880Y349509D01*
X90965Y349587D01*
X91053Y349661D01*
X91143Y349733D01*
X91235Y349801D01*
X91330Y349867D01*
X91427Y349929D01*
X91526Y349987D01*
X91628Y350043D01*
X91730Y350094D01*
X91835Y350142D01*
X91941Y350187D01*
X92049Y350228D01*
X92158Y350265D01*
X92268Y350298D01*
X92380Y350327D01*
X92492Y350353D01*
X92605Y350375D01*
X92719Y350392D01*
X92833Y350406D01*
X92948Y350416D01*
X93063Y350422D01*
X93178Y350424D01*
X93178Y350423D02*
X93293Y350421D01*
X93408Y350415D01*
X93523Y350405D01*
X93637Y350391D01*
X93751Y350374D01*
X93864Y350352D01*
X93976Y350326D01*
X94088Y350297D01*
X94198Y350264D01*
X94307Y350227D01*
X94415Y350186D01*
X94521Y350141D01*
X94626Y350093D01*
X94728Y350042D01*
X94829Y349986D01*
X94929Y349928D01*
X95026Y349866D01*
X95120Y349801D01*
X95213Y349732D01*
X95303Y349660D01*
X95391Y349586D01*
X95476Y349508D01*
X95558Y349427D01*
X95637Y349344D01*
X95714Y349258D01*
X95787Y349169D01*
X95858Y349078D01*
X95925Y348984D01*
X95989Y348889D01*
X96050Y348791D01*
X96107Y348691D01*
X96160Y348589D01*
X96211Y348485D01*
X96257Y348380D01*
X96300Y348273D01*
X96339Y348165D01*
X96476Y347876D01*
X96606Y347584D01*
X96729Y347288D01*
X96844Y346990D01*
X96953Y346689D01*
X97054Y346386D01*
X97148Y346080D01*
X97235Y345773D01*
X97314Y345463D01*
X97386Y345151D01*
X97450Y344838D01*
X97507Y344523D01*
X97557Y344207D01*
X97599Y343890D01*
X97633Y343572D01*
X97660Y343254D01*
X97679Y342934D01*
X97690Y342615D01*
X97694Y342295D01*
X88663Y342295D02*
X88667Y341975D01*
X88678Y341656D01*
X88697Y341336D01*
X88724Y341018D01*
X88758Y340700D01*
X88800Y340383D01*
X88850Y340067D01*
X88907Y339752D01*
X88971Y339439D01*
X89043Y339127D01*
X89122Y338817D01*
X89209Y338510D01*
X89303Y338204D01*
X89404Y337901D01*
X89513Y337600D01*
X89628Y337302D01*
X89751Y337006D01*
X89881Y336714D01*
X90018Y336425D01*
X90017Y336425D02*
X90056Y336317D01*
X90099Y336210D01*
X90145Y336105D01*
X90196Y336001D01*
X90249Y335899D01*
X90306Y335799D01*
X90367Y335701D01*
X90431Y335606D01*
X90498Y335512D01*
X90569Y335421D01*
X90642Y335332D01*
X90719Y335246D01*
X90798Y335163D01*
X90880Y335082D01*
X90965Y335004D01*
X91053Y334930D01*
X91143Y334858D01*
X91236Y334789D01*
X91330Y334724D01*
X91427Y334662D01*
X91527Y334604D01*
X91628Y334548D01*
X91730Y334497D01*
X91835Y334449D01*
X91941Y334404D01*
X92049Y334363D01*
X92158Y334326D01*
X92268Y334293D01*
X92380Y334264D01*
X92492Y334238D01*
X92605Y334216D01*
X92719Y334199D01*
X92833Y334185D01*
X92948Y334175D01*
X93063Y334169D01*
X93178Y334167D01*
X96339Y336425D02*
X96476Y336714D01*
X96606Y337006D01*
X96729Y337302D01*
X96844Y337600D01*
X96953Y337901D01*
X97054Y338204D01*
X97148Y338510D01*
X97235Y338817D01*
X97314Y339127D01*
X97386Y339439D01*
X97450Y339752D01*
X97507Y340067D01*
X97557Y340383D01*
X97599Y340700D01*
X97633Y341018D01*
X97660Y341336D01*
X97679Y341656D01*
X97690Y341975D01*
X97694Y342295D01*
X96339Y336425D02*
X96300Y336317D01*
X96257Y336210D01*
X96211Y336105D01*
X96160Y336001D01*
X96107Y335899D01*
X96050Y335799D01*
X95989Y335701D01*
X95925Y335606D01*
X95858Y335512D01*
X95787Y335421D01*
X95714Y335332D01*
X95637Y335246D01*
X95558Y335163D01*
X95476Y335082D01*
X95391Y335004D01*
X95303Y334930D01*
X95213Y334858D01*
X95120Y334789D01*
X95026Y334724D01*
X94929Y334662D01*
X94829Y334604D01*
X94728Y334548D01*
X94625Y334497D01*
X94521Y334449D01*
X94415Y334404D01*
X94307Y334363D01*
X94198Y334326D01*
X94088Y334293D01*
X93976Y334264D01*
X93864Y334238D01*
X93751Y334216D01*
X93637Y334199D01*
X93523Y334185D01*
X93408Y334175D01*
X93293Y334169D01*
X93178Y334167D01*
X89566Y337779D02*
X96791Y346811D01*
X104294Y334167D02*
X109713Y334167D01*
X109831Y334169D01*
X109949Y334175D01*
X110067Y334184D01*
X110184Y334198D01*
X110301Y334215D01*
X110418Y334236D01*
X110533Y334261D01*
X110648Y334290D01*
X110762Y334323D01*
X110874Y334359D01*
X110985Y334399D01*
X111095Y334442D01*
X111204Y334489D01*
X111311Y334539D01*
X111416Y334594D01*
X111519Y334651D01*
X111620Y334712D01*
X111720Y334776D01*
X111817Y334843D01*
X111912Y334913D01*
X112004Y334987D01*
X112095Y335063D01*
X112182Y335143D01*
X112267Y335225D01*
X112349Y335310D01*
X112429Y335397D01*
X112505Y335488D01*
X112579Y335580D01*
X112649Y335675D01*
X112716Y335772D01*
X112780Y335872D01*
X112841Y335973D01*
X112898Y336076D01*
X112953Y336181D01*
X113003Y336288D01*
X113050Y336397D01*
X113093Y336507D01*
X113133Y336618D01*
X113169Y336730D01*
X113202Y336844D01*
X113231Y336959D01*
X113256Y337074D01*
X113277Y337191D01*
X113294Y337308D01*
X113308Y337425D01*
X113317Y337543D01*
X113323Y337661D01*
X113325Y337779D01*
X113325Y339586D01*
X113323Y339704D01*
X113317Y339822D01*
X113308Y339940D01*
X113294Y340057D01*
X113277Y340174D01*
X113256Y340291D01*
X113231Y340406D01*
X113202Y340521D01*
X113169Y340635D01*
X113133Y340747D01*
X113093Y340858D01*
X113050Y340968D01*
X113003Y341077D01*
X112953Y341184D01*
X112898Y341289D01*
X112841Y341392D01*
X112780Y341493D01*
X112716Y341593D01*
X112649Y341690D01*
X112579Y341785D01*
X112505Y341877D01*
X112429Y341968D01*
X112349Y342055D01*
X112267Y342140D01*
X112182Y342222D01*
X112095Y342302D01*
X112004Y342378D01*
X111912Y342452D01*
X111817Y342522D01*
X111720Y342589D01*
X111620Y342653D01*
X111519Y342714D01*
X111416Y342771D01*
X111311Y342826D01*
X111204Y342876D01*
X111095Y342923D01*
X110985Y342966D01*
X110874Y343006D01*
X110762Y343042D01*
X110648Y343075D01*
X110533Y343104D01*
X110418Y343129D01*
X110301Y343150D01*
X110184Y343167D01*
X110067Y343181D01*
X109949Y343190D01*
X109831Y343196D01*
X109713Y343198D01*
X104294Y343198D01*
X104294Y350423D01*
X113325Y350423D01*
D14*
X120749Y57970D02*
X120749Y56446D01*
X120747Y56369D01*
X120741Y56292D01*
X120731Y56215D01*
X120718Y56139D01*
X120700Y56064D01*
X120679Y55990D01*
X120654Y55917D01*
X120625Y55845D01*
X120593Y55775D01*
X120558Y55706D01*
X120518Y55640D01*
X120476Y55575D01*
X120430Y55513D01*
X120381Y55453D01*
X120330Y55396D01*
X120275Y55341D01*
X120218Y55290D01*
X120158Y55241D01*
X120096Y55195D01*
X120031Y55153D01*
X119965Y55113D01*
X119896Y55078D01*
X119826Y55046D01*
X119754Y55017D01*
X119681Y54992D01*
X119607Y54971D01*
X119532Y54953D01*
X119456Y54940D01*
X119379Y54930D01*
X119302Y54924D01*
X119225Y54922D01*
X115415Y54922D01*
X115338Y54924D01*
X115261Y54930D01*
X115184Y54940D01*
X115108Y54953D01*
X115033Y54971D01*
X114959Y54992D01*
X114886Y55017D01*
X114814Y55046D01*
X114744Y55078D01*
X114675Y55113D01*
X114609Y55153D01*
X114544Y55195D01*
X114482Y55241D01*
X114422Y55290D01*
X114365Y55341D01*
X114310Y55396D01*
X114259Y55453D01*
X114210Y55513D01*
X114164Y55575D01*
X114122Y55640D01*
X114082Y55706D01*
X114047Y55775D01*
X114015Y55845D01*
X113986Y55917D01*
X113961Y55990D01*
X113940Y56064D01*
X113922Y56139D01*
X113909Y56215D01*
X113899Y56292D01*
X113893Y56369D01*
X113891Y56446D01*
X113891Y57970D01*
X115415Y60660D02*
X113891Y62565D01*
X120749Y62565D01*
X120749Y60660D02*
X120749Y64470D01*
X115606Y71328D02*
X115524Y71326D01*
X115443Y71320D01*
X115362Y71311D01*
X115281Y71297D01*
X115202Y71280D01*
X115123Y71259D01*
X115045Y71234D01*
X114969Y71205D01*
X114894Y71173D01*
X114820Y71137D01*
X114749Y71098D01*
X114679Y71056D01*
X114611Y71010D01*
X114546Y70961D01*
X114483Y70909D01*
X114423Y70854D01*
X114365Y70796D01*
X114310Y70736D01*
X114258Y70673D01*
X114209Y70608D01*
X114163Y70540D01*
X114121Y70471D01*
X114082Y70399D01*
X114046Y70325D01*
X114014Y70250D01*
X113985Y70174D01*
X113960Y70096D01*
X113939Y70017D01*
X113922Y69938D01*
X113908Y69857D01*
X113899Y69776D01*
X113893Y69695D01*
X113891Y69613D01*
X113893Y69521D01*
X113899Y69429D01*
X113908Y69337D01*
X113922Y69245D01*
X113939Y69155D01*
X113960Y69065D01*
X113985Y68976D01*
X114014Y68888D01*
X114046Y68801D01*
X114082Y68716D01*
X114121Y68633D01*
X114164Y68551D01*
X114210Y68471D01*
X114260Y68393D01*
X114312Y68317D01*
X114368Y68244D01*
X114427Y68173D01*
X114489Y68104D01*
X114554Y68038D01*
X114621Y67975D01*
X114691Y67915D01*
X114763Y67857D01*
X114838Y67803D01*
X114915Y67752D01*
X114994Y67704D01*
X115075Y67660D01*
X115158Y67619D01*
X115242Y67581D01*
X115328Y67547D01*
X115415Y67517D01*
X116940Y70756D02*
X116881Y70815D01*
X116820Y70871D01*
X116757Y70924D01*
X116691Y70975D01*
X116623Y71022D01*
X116553Y71066D01*
X116481Y71107D01*
X116407Y71145D01*
X116332Y71179D01*
X116255Y71210D01*
X116177Y71237D01*
X116097Y71261D01*
X116017Y71282D01*
X115936Y71298D01*
X115854Y71311D01*
X115772Y71321D01*
X115689Y71326D01*
X115606Y71328D01*
X116939Y70756D02*
X120749Y67518D01*
X120749Y71328D01*
D15*
X124951Y28828D02*
X124951Y23728D01*
X138951Y23728D02*
X138951Y28828D01*
D14*
X149663Y26273D02*
X149663Y24749D01*
X149661Y24672D01*
X149655Y24595D01*
X149645Y24518D01*
X149632Y24442D01*
X149614Y24367D01*
X149593Y24293D01*
X149568Y24220D01*
X149539Y24148D01*
X149507Y24078D01*
X149472Y24009D01*
X149432Y23943D01*
X149390Y23878D01*
X149344Y23816D01*
X149295Y23756D01*
X149244Y23699D01*
X149189Y23644D01*
X149132Y23593D01*
X149072Y23544D01*
X149010Y23498D01*
X148945Y23456D01*
X148879Y23416D01*
X148810Y23381D01*
X148740Y23349D01*
X148668Y23320D01*
X148595Y23295D01*
X148521Y23274D01*
X148446Y23256D01*
X148370Y23243D01*
X148293Y23233D01*
X148216Y23227D01*
X148139Y23225D01*
X144329Y23225D01*
X144252Y23227D01*
X144175Y23233D01*
X144098Y23243D01*
X144022Y23256D01*
X143947Y23274D01*
X143873Y23295D01*
X143800Y23320D01*
X143728Y23349D01*
X143658Y23381D01*
X143589Y23416D01*
X143523Y23456D01*
X143458Y23498D01*
X143396Y23544D01*
X143336Y23593D01*
X143279Y23644D01*
X143224Y23699D01*
X143173Y23756D01*
X143124Y23816D01*
X143078Y23878D01*
X143036Y23943D01*
X142996Y24009D01*
X142961Y24078D01*
X142929Y24148D01*
X142900Y24220D01*
X142875Y24293D01*
X142854Y24367D01*
X142836Y24442D01*
X142823Y24518D01*
X142813Y24595D01*
X142807Y24672D01*
X142805Y24749D01*
X142805Y26273D01*
X144329Y28963D02*
X142805Y30868D01*
X149663Y30868D01*
X149663Y28963D02*
X149663Y32773D01*
D16*
X149206Y56491D02*
X149206Y58071D01*
X149206Y56491D02*
X149204Y56413D01*
X149198Y56336D01*
X149189Y56259D01*
X149176Y56183D01*
X149159Y56107D01*
X149138Y56032D01*
X149114Y55959D01*
X149086Y55886D01*
X149054Y55815D01*
X149019Y55746D01*
X148981Y55679D01*
X148940Y55613D01*
X148895Y55550D01*
X148847Y55489D01*
X148797Y55430D01*
X148743Y55374D01*
X148687Y55320D01*
X148628Y55270D01*
X148567Y55222D01*
X148504Y55177D01*
X148438Y55136D01*
X148371Y55098D01*
X148302Y55063D01*
X148231Y55031D01*
X148158Y55003D01*
X148085Y54979D01*
X148010Y54958D01*
X147934Y54941D01*
X147858Y54928D01*
X147781Y54919D01*
X147704Y54913D01*
X147626Y54911D01*
X143675Y54911D01*
X143675Y54910D02*
X143597Y54912D01*
X143520Y54918D01*
X143443Y54927D01*
X143367Y54940D01*
X143291Y54957D01*
X143216Y54978D01*
X143142Y55002D01*
X143070Y55030D01*
X142999Y55062D01*
X142930Y55097D01*
X142862Y55135D01*
X142797Y55176D01*
X142733Y55221D01*
X142672Y55269D01*
X142613Y55320D01*
X142557Y55373D01*
X142504Y55429D01*
X142453Y55488D01*
X142405Y55549D01*
X142360Y55613D01*
X142319Y55678D01*
X142281Y55746D01*
X142246Y55815D01*
X142214Y55886D01*
X142186Y55958D01*
X142162Y56032D01*
X142141Y56107D01*
X142124Y56183D01*
X142111Y56259D01*
X142102Y56336D01*
X142096Y56413D01*
X142094Y56491D01*
X142094Y58071D01*
X143675Y60644D02*
X142094Y62619D01*
X149206Y62619D01*
X149206Y60644D02*
X149206Y64595D01*
X145650Y67502D02*
X145502Y67504D01*
X145355Y67509D01*
X145207Y67519D01*
X145060Y67532D01*
X144913Y67548D01*
X144767Y67569D01*
X144622Y67593D01*
X144476Y67621D01*
X144332Y67652D01*
X144189Y67687D01*
X144046Y67726D01*
X143905Y67768D01*
X143764Y67814D01*
X143625Y67863D01*
X143487Y67916D01*
X143350Y67972D01*
X143215Y68032D01*
X143082Y68095D01*
X143082Y68094D02*
X143011Y68120D01*
X142942Y68150D01*
X142874Y68184D01*
X142808Y68221D01*
X142744Y68261D01*
X142682Y68305D01*
X142623Y68351D01*
X142566Y68401D01*
X142512Y68454D01*
X142460Y68509D01*
X142412Y68567D01*
X142366Y68627D01*
X142324Y68690D01*
X142285Y68755D01*
X142249Y68821D01*
X142217Y68890D01*
X142189Y68959D01*
X142164Y69031D01*
X142143Y69103D01*
X142125Y69177D01*
X142112Y69251D01*
X142102Y69326D01*
X142096Y69401D01*
X142094Y69477D01*
X142096Y69553D01*
X142102Y69628D01*
X142112Y69703D01*
X142125Y69777D01*
X142143Y69851D01*
X142164Y69923D01*
X142189Y69995D01*
X142217Y70064D01*
X142249Y70133D01*
X142285Y70199D01*
X142324Y70264D01*
X142366Y70327D01*
X142412Y70387D01*
X142460Y70445D01*
X142512Y70500D01*
X142566Y70553D01*
X142623Y70603D01*
X142682Y70649D01*
X142744Y70693D01*
X142808Y70733D01*
X142874Y70770D01*
X142942Y70804D01*
X143011Y70834D01*
X143082Y70860D01*
X143215Y70923D01*
X143350Y70983D01*
X143487Y71039D01*
X143625Y71092D01*
X143764Y71141D01*
X143905Y71187D01*
X144046Y71229D01*
X144189Y71268D01*
X144332Y71303D01*
X144476Y71334D01*
X144622Y71362D01*
X144767Y71386D01*
X144913Y71407D01*
X145060Y71423D01*
X145207Y71436D01*
X145355Y71446D01*
X145502Y71451D01*
X145650Y71453D01*
X145650Y67502D02*
X145798Y67504D01*
X145945Y67509D01*
X146093Y67519D01*
X146240Y67532D01*
X146387Y67548D01*
X146533Y67569D01*
X146678Y67593D01*
X146824Y67621D01*
X146968Y67652D01*
X147111Y67687D01*
X147254Y67726D01*
X147395Y67768D01*
X147536Y67814D01*
X147675Y67863D01*
X147813Y67916D01*
X147950Y67972D01*
X148085Y68032D01*
X148218Y68095D01*
X148218Y68094D02*
X148289Y68120D01*
X148358Y68150D01*
X148426Y68184D01*
X148492Y68221D01*
X148556Y68261D01*
X148618Y68305D01*
X148677Y68351D01*
X148734Y68401D01*
X148788Y68454D01*
X148840Y68509D01*
X148888Y68567D01*
X148934Y68627D01*
X148976Y68690D01*
X149015Y68755D01*
X149051Y68821D01*
X149083Y68890D01*
X149111Y68960D01*
X149136Y69031D01*
X149157Y69103D01*
X149175Y69177D01*
X149188Y69251D01*
X149198Y69326D01*
X149204Y69401D01*
X149206Y69477D01*
X148218Y70860D02*
X148085Y70923D01*
X147950Y70983D01*
X147813Y71039D01*
X147675Y71092D01*
X147536Y71141D01*
X147395Y71187D01*
X147254Y71229D01*
X147111Y71268D01*
X146968Y71303D01*
X146824Y71334D01*
X146678Y71362D01*
X146533Y71386D01*
X146387Y71407D01*
X146240Y71423D01*
X146093Y71436D01*
X145945Y71446D01*
X145798Y71451D01*
X145650Y71453D01*
X148218Y70860D02*
X148289Y70834D01*
X148358Y70804D01*
X148426Y70770D01*
X148492Y70733D01*
X148556Y70693D01*
X148618Y70649D01*
X148677Y70603D01*
X148734Y70553D01*
X148788Y70500D01*
X148840Y70445D01*
X148888Y70387D01*
X148934Y70327D01*
X148976Y70264D01*
X149015Y70199D01*
X149051Y70133D01*
X149083Y70064D01*
X149111Y69994D01*
X149136Y69923D01*
X149157Y69851D01*
X149175Y69777D01*
X149188Y69703D01*
X149198Y69628D01*
X149204Y69553D01*
X149206Y69477D01*
X147626Y67897D02*
X143675Y71058D01*
D17*
X104664Y24876D02*
X45196Y24876D01*
X104664Y24876D02*
X104664Y84344D01*
X45196Y84344D01*
X45196Y24876D01*
X34884Y188680D02*
X34884Y202680D01*
X8884Y202680D01*
X8884Y160680D02*
X34884Y160680D01*
X34884Y174680D01*
X8884Y188680D02*
X8884Y202680D01*
X8884Y174680D02*
X8884Y160680D01*
X35884Y188680D02*
X35884Y201680D01*
X35884Y174680D02*
X35884Y161680D01*
X36884Y188680D02*
X36884Y202680D01*
X36884Y174680D02*
X36884Y160680D01*
X36884Y202680D02*
X34884Y202680D01*
X34884Y188680D02*
X36884Y188680D01*
X36884Y174680D02*
X34884Y174680D01*
X34884Y160680D02*
X36884Y160680D01*
D18*
X19400Y95470D02*
X19338Y95468D01*
X19277Y95462D01*
X19216Y95453D01*
X19156Y95440D01*
X19097Y95423D01*
X19039Y95402D01*
X18982Y95378D01*
X18927Y95351D01*
X18874Y95320D01*
X18822Y95286D01*
X18773Y95249D01*
X18726Y95209D01*
X18682Y95166D01*
X18641Y95121D01*
X18602Y95073D01*
X18566Y95022D01*
X18534Y94970D01*
X18505Y94916D01*
X18479Y94860D01*
X18457Y94802D01*
X18438Y94744D01*
X18423Y94684D01*
X18412Y94623D01*
X18404Y94562D01*
X18400Y94501D01*
X18400Y94439D01*
X18404Y94378D01*
X18412Y94317D01*
X18423Y94256D01*
X18438Y94196D01*
X18457Y94138D01*
X18479Y94080D01*
X18505Y94024D01*
X18534Y93970D01*
X18566Y93918D01*
X18602Y93867D01*
X18641Y93819D01*
X18682Y93774D01*
X18726Y93731D01*
X18773Y93691D01*
X18822Y93654D01*
X18874Y93620D01*
X18927Y93589D01*
X18982Y93562D01*
X19039Y93538D01*
X19097Y93517D01*
X19156Y93500D01*
X19216Y93487D01*
X19277Y93478D01*
X19338Y93472D01*
X19400Y93470D01*
X19462Y93472D01*
X19523Y93478D01*
X19584Y93487D01*
X19644Y93500D01*
X19703Y93517D01*
X19761Y93538D01*
X19818Y93562D01*
X19873Y93589D01*
X19926Y93620D01*
X19978Y93654D01*
X20027Y93691D01*
X20074Y93731D01*
X20118Y93774D01*
X20159Y93819D01*
X20198Y93867D01*
X20234Y93918D01*
X20266Y93970D01*
X20295Y94024D01*
X20321Y94080D01*
X20343Y94138D01*
X20362Y94196D01*
X20377Y94256D01*
X20388Y94317D01*
X20396Y94378D01*
X20400Y94439D01*
X20400Y94501D01*
X20396Y94562D01*
X20388Y94623D01*
X20377Y94684D01*
X20362Y94744D01*
X20343Y94802D01*
X20321Y94860D01*
X20295Y94916D01*
X20266Y94970D01*
X20234Y95022D01*
X20198Y95073D01*
X20159Y95121D01*
X20118Y95166D01*
X20074Y95209D01*
X20027Y95249D01*
X19978Y95286D01*
X19926Y95320D01*
X19873Y95351D01*
X19818Y95378D01*
X19761Y95402D01*
X19703Y95423D01*
X19644Y95440D01*
X19584Y95453D01*
X19523Y95462D01*
X19462Y95468D01*
X19400Y95470D01*
D16*
X25485Y98718D02*
X23114Y102076D01*
X25485Y98718D02*
X27855Y102076D01*
X25485Y98718D02*
X25485Y94964D01*
X32540Y102076D02*
X32622Y102074D01*
X32704Y102068D01*
X32786Y102059D01*
X32867Y102046D01*
X32947Y102029D01*
X33027Y102008D01*
X33105Y101984D01*
X33182Y101956D01*
X33258Y101925D01*
X33333Y101890D01*
X33405Y101851D01*
X33476Y101810D01*
X33545Y101765D01*
X33611Y101717D01*
X33676Y101666D01*
X33738Y101612D01*
X33797Y101555D01*
X33854Y101496D01*
X33908Y101434D01*
X33959Y101369D01*
X34007Y101303D01*
X34052Y101234D01*
X34093Y101163D01*
X34132Y101091D01*
X34167Y101016D01*
X34198Y100940D01*
X34226Y100863D01*
X34250Y100785D01*
X34271Y100705D01*
X34288Y100625D01*
X34301Y100544D01*
X34310Y100462D01*
X34316Y100380D01*
X34318Y100298D01*
X32540Y102076D02*
X32447Y102074D01*
X32355Y102068D01*
X32263Y102059D01*
X32171Y102046D01*
X32080Y102029D01*
X31990Y102009D01*
X31900Y101985D01*
X31812Y101957D01*
X31724Y101925D01*
X31639Y101891D01*
X31554Y101852D01*
X31472Y101811D01*
X31391Y101766D01*
X31311Y101717D01*
X31234Y101666D01*
X31159Y101612D01*
X31087Y101554D01*
X31017Y101494D01*
X30949Y101430D01*
X30884Y101365D01*
X30821Y101296D01*
X30762Y101225D01*
X30705Y101152D01*
X30651Y101076D01*
X30601Y100999D01*
X30553Y100919D01*
X30509Y100838D01*
X30469Y100754D01*
X30431Y100670D01*
X30397Y100583D01*
X30367Y100496D01*
X33725Y98915D02*
X33786Y98976D01*
X33844Y99039D01*
X33899Y99105D01*
X33952Y99173D01*
X34001Y99244D01*
X34046Y99316D01*
X34089Y99391D01*
X34128Y99467D01*
X34164Y99546D01*
X34196Y99625D01*
X34224Y99706D01*
X34249Y99789D01*
X34270Y99872D01*
X34287Y99956D01*
X34301Y100041D01*
X34310Y100126D01*
X34316Y100212D01*
X34318Y100298D01*
X33726Y98915D02*
X30367Y94964D01*
X34318Y94964D01*
X126823Y151748D02*
X128403Y151748D01*
X126823Y151749D02*
X126745Y151751D01*
X126668Y151757D01*
X126591Y151766D01*
X126515Y151779D01*
X126439Y151796D01*
X126364Y151817D01*
X126291Y151841D01*
X126218Y151869D01*
X126147Y151901D01*
X126078Y151936D01*
X126011Y151974D01*
X125945Y152015D01*
X125882Y152060D01*
X125821Y152108D01*
X125762Y152158D01*
X125706Y152212D01*
X125652Y152268D01*
X125602Y152327D01*
X125554Y152388D01*
X125509Y152451D01*
X125468Y152517D01*
X125430Y152584D01*
X125395Y152653D01*
X125363Y152724D01*
X125335Y152797D01*
X125311Y152870D01*
X125290Y152945D01*
X125273Y153021D01*
X125260Y153097D01*
X125251Y153174D01*
X125245Y153251D01*
X125243Y153329D01*
X125242Y153329D02*
X125242Y157280D01*
X125243Y157280D02*
X125245Y157358D01*
X125251Y157435D01*
X125260Y157512D01*
X125273Y157588D01*
X125290Y157664D01*
X125311Y157739D01*
X125335Y157812D01*
X125363Y157885D01*
X125395Y157956D01*
X125430Y158025D01*
X125468Y158092D01*
X125509Y158158D01*
X125554Y158221D01*
X125602Y158282D01*
X125652Y158341D01*
X125706Y158397D01*
X125762Y158451D01*
X125821Y158501D01*
X125882Y158549D01*
X125945Y158594D01*
X126011Y158635D01*
X126078Y158673D01*
X126147Y158708D01*
X126218Y158740D01*
X126291Y158768D01*
X126364Y158792D01*
X126439Y158813D01*
X126515Y158830D01*
X126591Y158843D01*
X126668Y158852D01*
X126745Y158858D01*
X126823Y158860D01*
X128403Y158860D01*
X133149Y158860D02*
X133231Y158858D01*
X133313Y158852D01*
X133395Y158843D01*
X133476Y158830D01*
X133556Y158813D01*
X133636Y158792D01*
X133714Y158768D01*
X133791Y158740D01*
X133867Y158709D01*
X133942Y158674D01*
X134014Y158635D01*
X134085Y158594D01*
X134154Y158549D01*
X134220Y158501D01*
X134285Y158450D01*
X134347Y158396D01*
X134406Y158339D01*
X134463Y158280D01*
X134517Y158218D01*
X134568Y158153D01*
X134616Y158087D01*
X134661Y158018D01*
X134702Y157947D01*
X134741Y157875D01*
X134776Y157800D01*
X134807Y157724D01*
X134835Y157647D01*
X134859Y157569D01*
X134880Y157489D01*
X134897Y157409D01*
X134910Y157328D01*
X134919Y157246D01*
X134925Y157164D01*
X134927Y157082D01*
X133149Y158860D02*
X133056Y158858D01*
X132964Y158852D01*
X132872Y158843D01*
X132780Y158830D01*
X132689Y158813D01*
X132599Y158793D01*
X132509Y158769D01*
X132421Y158741D01*
X132333Y158709D01*
X132248Y158675D01*
X132163Y158636D01*
X132081Y158595D01*
X132000Y158550D01*
X131920Y158501D01*
X131843Y158450D01*
X131768Y158396D01*
X131696Y158338D01*
X131626Y158278D01*
X131558Y158214D01*
X131493Y158149D01*
X131430Y158080D01*
X131371Y158009D01*
X131314Y157936D01*
X131260Y157860D01*
X131210Y157783D01*
X131162Y157703D01*
X131118Y157622D01*
X131078Y157538D01*
X131040Y157454D01*
X131006Y157367D01*
X130976Y157280D01*
X134334Y155699D02*
X134395Y155760D01*
X134453Y155823D01*
X134508Y155889D01*
X134561Y155957D01*
X134610Y156028D01*
X134655Y156100D01*
X134698Y156175D01*
X134737Y156251D01*
X134773Y156330D01*
X134805Y156409D01*
X134833Y156490D01*
X134858Y156573D01*
X134879Y156656D01*
X134896Y156740D01*
X134910Y156825D01*
X134919Y156910D01*
X134925Y156996D01*
X134927Y157082D01*
X134334Y155699D02*
X130976Y151748D01*
X134927Y151748D01*
X137833Y155304D02*
X137835Y155452D01*
X137840Y155599D01*
X137850Y155747D01*
X137863Y155894D01*
X137879Y156041D01*
X137900Y156187D01*
X137924Y156333D01*
X137952Y156478D01*
X137983Y156622D01*
X138018Y156765D01*
X138057Y156908D01*
X138099Y157049D01*
X138145Y157190D01*
X138194Y157329D01*
X138247Y157467D01*
X138303Y157604D01*
X138363Y157739D01*
X138426Y157872D01*
X138452Y157943D01*
X138482Y158012D01*
X138516Y158080D01*
X138553Y158146D01*
X138593Y158210D01*
X138637Y158272D01*
X138683Y158331D01*
X138733Y158388D01*
X138786Y158442D01*
X138841Y158494D01*
X138899Y158542D01*
X138959Y158588D01*
X139022Y158630D01*
X139087Y158669D01*
X139153Y158705D01*
X139222Y158737D01*
X139291Y158765D01*
X139363Y158790D01*
X139435Y158811D01*
X139509Y158829D01*
X139583Y158842D01*
X139658Y158852D01*
X139733Y158858D01*
X139809Y158860D01*
X139885Y158858D01*
X139960Y158852D01*
X140035Y158842D01*
X140109Y158829D01*
X140183Y158811D01*
X140255Y158790D01*
X140326Y158765D01*
X140396Y158737D01*
X140465Y158705D01*
X140531Y158669D01*
X140596Y158630D01*
X140659Y158588D01*
X140719Y158542D01*
X140777Y158494D01*
X140832Y158442D01*
X140885Y158388D01*
X140935Y158331D01*
X140981Y158272D01*
X141025Y158210D01*
X141065Y158146D01*
X141102Y158080D01*
X141136Y158012D01*
X141166Y157943D01*
X141192Y157872D01*
X141255Y157739D01*
X141315Y157604D01*
X141371Y157467D01*
X141424Y157329D01*
X141473Y157190D01*
X141519Y157049D01*
X141561Y156908D01*
X141600Y156765D01*
X141635Y156622D01*
X141666Y156478D01*
X141694Y156333D01*
X141718Y156187D01*
X141739Y156041D01*
X141755Y155894D01*
X141768Y155747D01*
X141778Y155599D01*
X141783Y155452D01*
X141785Y155304D01*
X137833Y155304D02*
X137835Y155156D01*
X137840Y155009D01*
X137850Y154861D01*
X137863Y154714D01*
X137879Y154567D01*
X137900Y154421D01*
X137924Y154276D01*
X137952Y154130D01*
X137983Y153986D01*
X138018Y153843D01*
X138057Y153700D01*
X138099Y153559D01*
X138145Y153418D01*
X138194Y153279D01*
X138247Y153141D01*
X138303Y153004D01*
X138363Y152869D01*
X138426Y152736D01*
X138452Y152665D01*
X138482Y152596D01*
X138516Y152528D01*
X138553Y152462D01*
X138593Y152398D01*
X138637Y152336D01*
X138683Y152277D01*
X138733Y152220D01*
X138786Y152166D01*
X138841Y152114D01*
X138899Y152066D01*
X138959Y152020D01*
X139022Y151978D01*
X139087Y151939D01*
X139153Y151903D01*
X139222Y151871D01*
X139292Y151843D01*
X139363Y151818D01*
X139435Y151797D01*
X139509Y151779D01*
X139583Y151766D01*
X139658Y151756D01*
X139733Y151750D01*
X139809Y151748D01*
X141192Y152736D02*
X141255Y152869D01*
X141315Y153004D01*
X141371Y153141D01*
X141424Y153279D01*
X141473Y153418D01*
X141519Y153559D01*
X141561Y153700D01*
X141600Y153843D01*
X141635Y153986D01*
X141666Y154130D01*
X141694Y154276D01*
X141718Y154421D01*
X141739Y154567D01*
X141755Y154714D01*
X141768Y154861D01*
X141778Y155009D01*
X141783Y155156D01*
X141785Y155304D01*
X141192Y152736D02*
X141166Y152665D01*
X141136Y152596D01*
X141102Y152528D01*
X141065Y152462D01*
X141025Y152398D01*
X140981Y152336D01*
X140935Y152277D01*
X140885Y152220D01*
X140832Y152166D01*
X140777Y152114D01*
X140719Y152066D01*
X140659Y152020D01*
X140596Y151978D01*
X140531Y151939D01*
X140465Y151903D01*
X140396Y151871D01*
X140326Y151843D01*
X140255Y151818D01*
X140183Y151797D01*
X140109Y151779D01*
X140035Y151766D01*
X139960Y151756D01*
X139885Y151750D01*
X139809Y151748D01*
X138229Y153329D02*
X141389Y157280D01*
X94113Y150478D02*
X92533Y150478D01*
X92533Y150479D02*
X92455Y150481D01*
X92378Y150487D01*
X92301Y150496D01*
X92225Y150509D01*
X92149Y150526D01*
X92074Y150547D01*
X92001Y150571D01*
X91928Y150599D01*
X91857Y150631D01*
X91788Y150666D01*
X91721Y150704D01*
X91655Y150745D01*
X91592Y150790D01*
X91531Y150838D01*
X91472Y150888D01*
X91416Y150942D01*
X91362Y150998D01*
X91312Y151057D01*
X91264Y151118D01*
X91219Y151181D01*
X91178Y151247D01*
X91140Y151314D01*
X91105Y151383D01*
X91073Y151454D01*
X91045Y151527D01*
X91021Y151600D01*
X91000Y151675D01*
X90983Y151751D01*
X90970Y151827D01*
X90961Y151904D01*
X90955Y151981D01*
X90953Y152059D01*
X90952Y152059D02*
X90952Y156010D01*
X90953Y156010D02*
X90955Y156088D01*
X90961Y156165D01*
X90970Y156242D01*
X90983Y156318D01*
X91000Y156394D01*
X91021Y156469D01*
X91045Y156542D01*
X91073Y156615D01*
X91105Y156686D01*
X91140Y156755D01*
X91178Y156822D01*
X91219Y156888D01*
X91264Y156951D01*
X91312Y157012D01*
X91362Y157071D01*
X91416Y157127D01*
X91472Y157181D01*
X91531Y157231D01*
X91592Y157279D01*
X91655Y157324D01*
X91721Y157365D01*
X91788Y157403D01*
X91857Y157438D01*
X91928Y157470D01*
X92001Y157498D01*
X92074Y157522D01*
X92149Y157543D01*
X92225Y157560D01*
X92301Y157573D01*
X92378Y157582D01*
X92455Y157588D01*
X92533Y157590D01*
X94113Y157590D01*
X98859Y157590D02*
X98941Y157588D01*
X99023Y157582D01*
X99105Y157573D01*
X99186Y157560D01*
X99266Y157543D01*
X99346Y157522D01*
X99424Y157498D01*
X99501Y157470D01*
X99577Y157439D01*
X99652Y157404D01*
X99724Y157365D01*
X99795Y157324D01*
X99864Y157279D01*
X99930Y157231D01*
X99995Y157180D01*
X100057Y157126D01*
X100116Y157069D01*
X100173Y157010D01*
X100227Y156948D01*
X100278Y156883D01*
X100326Y156817D01*
X100371Y156748D01*
X100412Y156677D01*
X100451Y156605D01*
X100486Y156530D01*
X100517Y156454D01*
X100545Y156377D01*
X100569Y156299D01*
X100590Y156219D01*
X100607Y156139D01*
X100620Y156058D01*
X100629Y155976D01*
X100635Y155894D01*
X100637Y155812D01*
X98859Y157590D02*
X98766Y157588D01*
X98674Y157582D01*
X98582Y157573D01*
X98490Y157560D01*
X98399Y157543D01*
X98309Y157523D01*
X98219Y157499D01*
X98131Y157471D01*
X98043Y157439D01*
X97958Y157405D01*
X97873Y157366D01*
X97791Y157325D01*
X97710Y157280D01*
X97630Y157231D01*
X97553Y157180D01*
X97478Y157126D01*
X97406Y157068D01*
X97336Y157008D01*
X97268Y156944D01*
X97203Y156879D01*
X97140Y156810D01*
X97081Y156739D01*
X97024Y156666D01*
X96970Y156590D01*
X96920Y156513D01*
X96872Y156433D01*
X96828Y156352D01*
X96788Y156268D01*
X96750Y156184D01*
X96716Y156097D01*
X96686Y156010D01*
X100044Y154429D02*
X100105Y154490D01*
X100163Y154553D01*
X100218Y154619D01*
X100271Y154687D01*
X100320Y154758D01*
X100365Y154830D01*
X100408Y154905D01*
X100447Y154981D01*
X100483Y155060D01*
X100515Y155139D01*
X100543Y155220D01*
X100568Y155303D01*
X100589Y155386D01*
X100606Y155470D01*
X100620Y155555D01*
X100629Y155640D01*
X100635Y155726D01*
X100637Y155812D01*
X100044Y154429D02*
X96686Y150478D01*
X100637Y150478D01*
X103543Y156010D02*
X105519Y157590D01*
X105519Y150478D01*
X103543Y150478D02*
X107495Y150478D01*
D19*
X117178Y133834D02*
X125178Y133834D01*
X125178Y148834D02*
X117178Y148834D01*
D16*
X116030Y144890D02*
X118401Y141532D01*
X120771Y144890D01*
X118401Y141532D02*
X118401Y137778D01*
X123283Y143310D02*
X125259Y144890D01*
X125259Y137778D01*
X127234Y137778D02*
X123283Y137778D01*
X96010Y94554D02*
X96010Y92974D01*
X96009Y92974D02*
X96007Y92896D01*
X96001Y92819D01*
X95992Y92742D01*
X95979Y92666D01*
X95962Y92590D01*
X95941Y92515D01*
X95917Y92442D01*
X95889Y92369D01*
X95857Y92298D01*
X95822Y92229D01*
X95784Y92162D01*
X95743Y92096D01*
X95698Y92033D01*
X95650Y91972D01*
X95600Y91913D01*
X95546Y91857D01*
X95490Y91803D01*
X95431Y91753D01*
X95370Y91705D01*
X95307Y91660D01*
X95241Y91619D01*
X95174Y91581D01*
X95105Y91546D01*
X95034Y91514D01*
X94961Y91486D01*
X94888Y91462D01*
X94813Y91441D01*
X94737Y91424D01*
X94661Y91411D01*
X94584Y91402D01*
X94507Y91396D01*
X94429Y91394D01*
X94429Y91393D02*
X90478Y91393D01*
X90400Y91395D01*
X90323Y91401D01*
X90246Y91410D01*
X90170Y91423D01*
X90094Y91440D01*
X90019Y91461D01*
X89945Y91485D01*
X89873Y91513D01*
X89802Y91545D01*
X89733Y91580D01*
X89665Y91618D01*
X89600Y91659D01*
X89536Y91704D01*
X89475Y91752D01*
X89416Y91803D01*
X89360Y91856D01*
X89307Y91912D01*
X89256Y91971D01*
X89208Y92032D01*
X89163Y92096D01*
X89122Y92161D01*
X89084Y92229D01*
X89049Y92298D01*
X89017Y92369D01*
X88989Y92441D01*
X88965Y92515D01*
X88944Y92590D01*
X88927Y92666D01*
X88914Y92742D01*
X88905Y92819D01*
X88899Y92896D01*
X88897Y92974D01*
X88898Y92974D02*
X88898Y94554D01*
X90478Y97126D02*
X88898Y99102D01*
X96010Y99102D01*
X96010Y101077D02*
X96010Y97126D01*
X94429Y103984D02*
X88898Y105565D01*
X94429Y103984D02*
X94429Y107935D01*
X92849Y106750D02*
X96010Y106750D01*
X87632Y113334D02*
X87632Y114915D01*
X87632Y113334D02*
X87630Y113256D01*
X87624Y113179D01*
X87615Y113102D01*
X87602Y113026D01*
X87585Y112950D01*
X87564Y112875D01*
X87540Y112802D01*
X87512Y112729D01*
X87480Y112658D01*
X87445Y112589D01*
X87407Y112522D01*
X87366Y112456D01*
X87321Y112393D01*
X87273Y112332D01*
X87223Y112273D01*
X87169Y112217D01*
X87113Y112163D01*
X87054Y112113D01*
X86993Y112065D01*
X86930Y112020D01*
X86864Y111979D01*
X86797Y111941D01*
X86728Y111906D01*
X86657Y111874D01*
X86584Y111846D01*
X86511Y111822D01*
X86436Y111801D01*
X86360Y111784D01*
X86284Y111771D01*
X86207Y111762D01*
X86130Y111756D01*
X86052Y111754D01*
X82101Y111754D01*
X82023Y111756D01*
X81946Y111762D01*
X81869Y111771D01*
X81793Y111784D01*
X81717Y111801D01*
X81642Y111822D01*
X81568Y111846D01*
X81496Y111874D01*
X81425Y111906D01*
X81356Y111941D01*
X81288Y111979D01*
X81223Y112020D01*
X81159Y112065D01*
X81098Y112113D01*
X81039Y112164D01*
X80983Y112217D01*
X80930Y112273D01*
X80879Y112332D01*
X80831Y112393D01*
X80786Y112457D01*
X80745Y112522D01*
X80707Y112590D01*
X80672Y112659D01*
X80640Y112730D01*
X80612Y112802D01*
X80588Y112876D01*
X80567Y112951D01*
X80550Y113027D01*
X80537Y113103D01*
X80528Y113180D01*
X80522Y113257D01*
X80520Y113335D01*
X80520Y113334D02*
X80520Y114915D01*
X82101Y117487D02*
X80520Y119463D01*
X87632Y119463D01*
X87632Y121438D02*
X87632Y117487D01*
X87632Y124345D02*
X87632Y126321D01*
X87630Y126408D01*
X87624Y126496D01*
X87615Y126583D01*
X87601Y126669D01*
X87584Y126755D01*
X87563Y126839D01*
X87538Y126923D01*
X87509Y127006D01*
X87477Y127087D01*
X87442Y127167D01*
X87403Y127245D01*
X87360Y127322D01*
X87314Y127396D01*
X87265Y127468D01*
X87213Y127538D01*
X87157Y127606D01*
X87099Y127671D01*
X87038Y127734D01*
X86974Y127793D01*
X86907Y127850D01*
X86839Y127904D01*
X86767Y127955D01*
X86694Y128002D01*
X86619Y128047D01*
X86541Y128088D01*
X86462Y128125D01*
X86382Y128159D01*
X86300Y128189D01*
X86217Y128216D01*
X86132Y128239D01*
X86047Y128258D01*
X85961Y128273D01*
X85874Y128285D01*
X85787Y128293D01*
X85700Y128297D01*
X85612Y128297D01*
X85525Y128293D01*
X85438Y128285D01*
X85351Y128273D01*
X85265Y128258D01*
X85180Y128239D01*
X85095Y128216D01*
X85012Y128189D01*
X84930Y128159D01*
X84850Y128125D01*
X84771Y128088D01*
X84693Y128047D01*
X84618Y128002D01*
X84545Y127955D01*
X84473Y127904D01*
X84405Y127850D01*
X84338Y127793D01*
X84274Y127734D01*
X84213Y127671D01*
X84155Y127606D01*
X84099Y127538D01*
X84047Y127468D01*
X83998Y127396D01*
X83952Y127322D01*
X83909Y127245D01*
X83870Y127167D01*
X83835Y127087D01*
X83803Y127006D01*
X83774Y126923D01*
X83749Y126839D01*
X83728Y126755D01*
X83711Y126669D01*
X83697Y126583D01*
X83688Y126496D01*
X83682Y126408D01*
X83680Y126321D01*
X80520Y126716D02*
X80520Y124345D01*
X80520Y126716D02*
X80522Y126795D01*
X80528Y126873D01*
X80538Y126951D01*
X80551Y127029D01*
X80569Y127106D01*
X80590Y127182D01*
X80615Y127256D01*
X80644Y127330D01*
X80676Y127402D01*
X80712Y127472D01*
X80752Y127540D01*
X80795Y127606D01*
X80841Y127670D01*
X80890Y127732D01*
X80942Y127791D01*
X80997Y127847D01*
X81055Y127901D01*
X81115Y127951D01*
X81178Y127999D01*
X81243Y128043D01*
X81310Y128084D01*
X81379Y128122D01*
X81450Y128156D01*
X81523Y128187D01*
X81597Y128214D01*
X81672Y128237D01*
X81748Y128256D01*
X81826Y128272D01*
X81904Y128284D01*
X81982Y128292D01*
X82061Y128296D01*
X82139Y128296D01*
X82218Y128292D01*
X82296Y128284D01*
X82374Y128272D01*
X82452Y128256D01*
X82528Y128237D01*
X82603Y128214D01*
X82677Y128187D01*
X82750Y128156D01*
X82821Y128122D01*
X82890Y128084D01*
X82957Y128043D01*
X83022Y127999D01*
X83085Y127951D01*
X83145Y127901D01*
X83203Y127847D01*
X83258Y127791D01*
X83310Y127732D01*
X83359Y127670D01*
X83405Y127606D01*
X83448Y127540D01*
X83488Y127472D01*
X83524Y127402D01*
X83556Y127330D01*
X83585Y127256D01*
X83610Y127182D01*
X83631Y127106D01*
X83649Y127029D01*
X83662Y126951D01*
X83672Y126873D01*
X83678Y126795D01*
X83680Y126716D01*
X83681Y126716D02*
X83681Y125135D01*
X51219Y108010D02*
X51219Y100898D01*
X51219Y108010D02*
X53195Y108010D01*
X53195Y108011D02*
X53282Y108009D01*
X53370Y108003D01*
X53457Y107994D01*
X53543Y107980D01*
X53629Y107963D01*
X53713Y107942D01*
X53797Y107917D01*
X53880Y107888D01*
X53961Y107856D01*
X54041Y107821D01*
X54119Y107782D01*
X54196Y107739D01*
X54270Y107693D01*
X54342Y107644D01*
X54412Y107592D01*
X54480Y107536D01*
X54545Y107478D01*
X54608Y107417D01*
X54667Y107353D01*
X54724Y107286D01*
X54778Y107218D01*
X54829Y107146D01*
X54876Y107073D01*
X54921Y106998D01*
X54962Y106920D01*
X54999Y106841D01*
X55033Y106761D01*
X55063Y106679D01*
X55090Y106596D01*
X55113Y106511D01*
X55132Y106426D01*
X55147Y106340D01*
X55159Y106253D01*
X55167Y106166D01*
X55171Y106079D01*
X55171Y105991D01*
X55167Y105904D01*
X55159Y105817D01*
X55147Y105730D01*
X55132Y105644D01*
X55113Y105559D01*
X55090Y105474D01*
X55063Y105391D01*
X55033Y105309D01*
X54999Y105229D01*
X54962Y105150D01*
X54921Y105072D01*
X54876Y104997D01*
X54829Y104924D01*
X54778Y104852D01*
X54724Y104784D01*
X54667Y104717D01*
X54608Y104653D01*
X54545Y104592D01*
X54480Y104534D01*
X54412Y104478D01*
X54342Y104426D01*
X54270Y104377D01*
X54196Y104331D01*
X54119Y104288D01*
X54041Y104249D01*
X53961Y104214D01*
X53880Y104182D01*
X53797Y104153D01*
X53713Y104128D01*
X53629Y104107D01*
X53543Y104090D01*
X53457Y104076D01*
X53370Y104067D01*
X53282Y104061D01*
X53195Y104059D01*
X51219Y104059D01*
X53590Y104059D02*
X55170Y100898D01*
X58037Y100898D02*
X60407Y100898D01*
X60407Y100899D02*
X60485Y100901D01*
X60562Y100907D01*
X60639Y100916D01*
X60715Y100929D01*
X60791Y100946D01*
X60866Y100967D01*
X60939Y100991D01*
X61012Y101019D01*
X61083Y101051D01*
X61152Y101086D01*
X61219Y101124D01*
X61285Y101165D01*
X61348Y101210D01*
X61409Y101258D01*
X61468Y101308D01*
X61524Y101362D01*
X61578Y101418D01*
X61628Y101477D01*
X61676Y101538D01*
X61721Y101601D01*
X61762Y101667D01*
X61800Y101734D01*
X61835Y101803D01*
X61867Y101874D01*
X61895Y101947D01*
X61919Y102020D01*
X61940Y102095D01*
X61957Y102171D01*
X61970Y102247D01*
X61979Y102324D01*
X61985Y102401D01*
X61987Y102479D01*
X61988Y102479D02*
X61988Y103269D01*
X61987Y103269D02*
X61985Y103347D01*
X61979Y103424D01*
X61970Y103501D01*
X61957Y103577D01*
X61940Y103653D01*
X61919Y103728D01*
X61895Y103801D01*
X61867Y103874D01*
X61835Y103945D01*
X61800Y104014D01*
X61762Y104081D01*
X61721Y104147D01*
X61676Y104210D01*
X61628Y104271D01*
X61578Y104330D01*
X61524Y104386D01*
X61468Y104440D01*
X61409Y104490D01*
X61348Y104538D01*
X61285Y104583D01*
X61219Y104624D01*
X61152Y104662D01*
X61083Y104697D01*
X61012Y104729D01*
X60939Y104757D01*
X60866Y104781D01*
X60791Y104802D01*
X60715Y104819D01*
X60639Y104832D01*
X60562Y104841D01*
X60485Y104847D01*
X60407Y104849D01*
X58037Y104849D01*
X58037Y108010D01*
X61988Y108010D01*
X48006Y113323D02*
X46425Y113323D01*
X46347Y113325D01*
X46270Y113331D01*
X46193Y113340D01*
X46117Y113353D01*
X46041Y113370D01*
X45966Y113391D01*
X45893Y113415D01*
X45820Y113443D01*
X45749Y113475D01*
X45680Y113510D01*
X45613Y113548D01*
X45547Y113589D01*
X45484Y113634D01*
X45423Y113682D01*
X45364Y113732D01*
X45308Y113786D01*
X45254Y113842D01*
X45204Y113901D01*
X45156Y113962D01*
X45111Y114025D01*
X45070Y114091D01*
X45032Y114158D01*
X44997Y114227D01*
X44965Y114298D01*
X44937Y114371D01*
X44913Y114444D01*
X44892Y114519D01*
X44875Y114595D01*
X44862Y114671D01*
X44853Y114748D01*
X44847Y114825D01*
X44845Y114903D01*
X44845Y118854D01*
X44847Y118932D01*
X44853Y119009D01*
X44862Y119086D01*
X44875Y119162D01*
X44892Y119238D01*
X44913Y119313D01*
X44937Y119386D01*
X44965Y119459D01*
X44997Y119530D01*
X45032Y119599D01*
X45070Y119666D01*
X45111Y119732D01*
X45156Y119795D01*
X45204Y119856D01*
X45254Y119915D01*
X45308Y119971D01*
X45364Y120025D01*
X45423Y120075D01*
X45484Y120123D01*
X45547Y120168D01*
X45613Y120209D01*
X45680Y120247D01*
X45749Y120282D01*
X45820Y120314D01*
X45893Y120342D01*
X45966Y120366D01*
X46041Y120387D01*
X46117Y120404D01*
X46193Y120417D01*
X46270Y120426D01*
X46347Y120432D01*
X46425Y120434D01*
X46425Y120435D02*
X48006Y120435D01*
X52751Y120435D02*
X52833Y120433D01*
X52915Y120427D01*
X52997Y120418D01*
X53078Y120405D01*
X53158Y120388D01*
X53238Y120367D01*
X53316Y120343D01*
X53393Y120315D01*
X53469Y120284D01*
X53544Y120249D01*
X53616Y120210D01*
X53687Y120169D01*
X53756Y120124D01*
X53822Y120076D01*
X53887Y120025D01*
X53949Y119971D01*
X54008Y119914D01*
X54065Y119855D01*
X54119Y119793D01*
X54170Y119728D01*
X54218Y119662D01*
X54263Y119593D01*
X54304Y119522D01*
X54343Y119450D01*
X54378Y119375D01*
X54409Y119299D01*
X54437Y119222D01*
X54461Y119144D01*
X54482Y119064D01*
X54499Y118984D01*
X54512Y118903D01*
X54521Y118821D01*
X54527Y118739D01*
X54529Y118657D01*
X52751Y120434D02*
X52658Y120432D01*
X52566Y120426D01*
X52474Y120417D01*
X52382Y120404D01*
X52291Y120387D01*
X52201Y120367D01*
X52111Y120343D01*
X52023Y120315D01*
X51935Y120283D01*
X51850Y120249D01*
X51765Y120210D01*
X51683Y120169D01*
X51602Y120124D01*
X51522Y120075D01*
X51445Y120024D01*
X51370Y119970D01*
X51298Y119912D01*
X51228Y119852D01*
X51160Y119788D01*
X51095Y119723D01*
X51032Y119654D01*
X50973Y119583D01*
X50916Y119510D01*
X50862Y119434D01*
X50812Y119357D01*
X50764Y119277D01*
X50720Y119196D01*
X50680Y119112D01*
X50642Y119028D01*
X50608Y118941D01*
X50578Y118854D01*
X53936Y117274D02*
X53997Y117335D01*
X54055Y117398D01*
X54110Y117464D01*
X54163Y117532D01*
X54212Y117603D01*
X54257Y117675D01*
X54300Y117750D01*
X54339Y117826D01*
X54375Y117905D01*
X54407Y117984D01*
X54435Y118065D01*
X54460Y118148D01*
X54481Y118231D01*
X54498Y118315D01*
X54512Y118400D01*
X54521Y118485D01*
X54527Y118571D01*
X54529Y118657D01*
X53936Y117274D02*
X50578Y113323D01*
X54529Y113323D01*
X57436Y113323D02*
X59807Y113323D01*
X59885Y113325D01*
X59962Y113331D01*
X60039Y113340D01*
X60115Y113353D01*
X60191Y113370D01*
X60266Y113391D01*
X60339Y113415D01*
X60412Y113443D01*
X60483Y113475D01*
X60552Y113510D01*
X60619Y113548D01*
X60685Y113589D01*
X60748Y113634D01*
X60809Y113682D01*
X60868Y113732D01*
X60924Y113786D01*
X60978Y113842D01*
X61028Y113901D01*
X61076Y113962D01*
X61121Y114025D01*
X61162Y114091D01*
X61200Y114158D01*
X61235Y114227D01*
X61267Y114298D01*
X61295Y114371D01*
X61319Y114444D01*
X61340Y114519D01*
X61357Y114595D01*
X61370Y114671D01*
X61379Y114748D01*
X61385Y114825D01*
X61387Y114903D01*
X61387Y115693D01*
X61385Y115771D01*
X61379Y115848D01*
X61370Y115925D01*
X61357Y116001D01*
X61340Y116077D01*
X61319Y116152D01*
X61295Y116225D01*
X61267Y116298D01*
X61235Y116369D01*
X61200Y116438D01*
X61162Y116505D01*
X61121Y116571D01*
X61076Y116634D01*
X61028Y116695D01*
X60978Y116754D01*
X60924Y116810D01*
X60868Y116864D01*
X60809Y116914D01*
X60748Y116962D01*
X60685Y117007D01*
X60619Y117048D01*
X60552Y117086D01*
X60483Y117121D01*
X60412Y117153D01*
X60339Y117181D01*
X60266Y117205D01*
X60191Y117226D01*
X60115Y117243D01*
X60039Y117256D01*
X59962Y117265D01*
X59885Y117271D01*
X59807Y117273D01*
X59807Y117274D02*
X57436Y117274D01*
X57436Y120435D01*
X61387Y120435D01*
X49607Y127627D02*
X49607Y134739D01*
X49607Y127627D02*
X52767Y127627D01*
X59260Y132961D02*
X59258Y133043D01*
X59252Y133125D01*
X59243Y133207D01*
X59230Y133288D01*
X59213Y133368D01*
X59192Y133448D01*
X59168Y133526D01*
X59140Y133603D01*
X59109Y133679D01*
X59074Y133754D01*
X59035Y133826D01*
X58994Y133897D01*
X58949Y133966D01*
X58901Y134032D01*
X58850Y134097D01*
X58796Y134159D01*
X58739Y134218D01*
X58680Y134275D01*
X58618Y134329D01*
X58553Y134380D01*
X58487Y134428D01*
X58418Y134473D01*
X58347Y134514D01*
X58275Y134553D01*
X58200Y134588D01*
X58124Y134619D01*
X58047Y134647D01*
X57969Y134671D01*
X57889Y134692D01*
X57809Y134709D01*
X57728Y134722D01*
X57646Y134731D01*
X57564Y134737D01*
X57482Y134739D01*
X57389Y134737D01*
X57297Y134731D01*
X57205Y134722D01*
X57113Y134709D01*
X57022Y134692D01*
X56932Y134672D01*
X56842Y134648D01*
X56754Y134620D01*
X56666Y134588D01*
X56581Y134554D01*
X56496Y134515D01*
X56414Y134474D01*
X56333Y134429D01*
X56253Y134380D01*
X56176Y134329D01*
X56101Y134275D01*
X56029Y134217D01*
X55959Y134157D01*
X55891Y134093D01*
X55826Y134028D01*
X55763Y133959D01*
X55704Y133888D01*
X55647Y133815D01*
X55593Y133739D01*
X55543Y133662D01*
X55495Y133582D01*
X55451Y133501D01*
X55411Y133417D01*
X55373Y133333D01*
X55339Y133246D01*
X55309Y133159D01*
X58667Y131578D02*
X58728Y131639D01*
X58786Y131702D01*
X58841Y131768D01*
X58894Y131836D01*
X58943Y131907D01*
X58988Y131979D01*
X59031Y132054D01*
X59070Y132130D01*
X59106Y132209D01*
X59138Y132288D01*
X59166Y132369D01*
X59191Y132452D01*
X59212Y132535D01*
X59229Y132619D01*
X59243Y132704D01*
X59252Y132789D01*
X59258Y132875D01*
X59260Y132961D01*
X58668Y131578D02*
X55309Y127627D01*
X59260Y127627D01*
X49041Y140793D02*
X47461Y140793D01*
X47383Y140795D01*
X47306Y140801D01*
X47229Y140810D01*
X47153Y140823D01*
X47077Y140840D01*
X47002Y140861D01*
X46929Y140885D01*
X46856Y140913D01*
X46785Y140945D01*
X46716Y140980D01*
X46649Y141018D01*
X46583Y141059D01*
X46520Y141104D01*
X46459Y141152D01*
X46400Y141202D01*
X46344Y141256D01*
X46290Y141312D01*
X46240Y141371D01*
X46192Y141432D01*
X46147Y141495D01*
X46106Y141561D01*
X46068Y141628D01*
X46033Y141697D01*
X46001Y141768D01*
X45973Y141841D01*
X45949Y141914D01*
X45928Y141989D01*
X45911Y142065D01*
X45898Y142141D01*
X45889Y142218D01*
X45883Y142295D01*
X45881Y142373D01*
X45880Y142373D02*
X45880Y146324D01*
X45881Y146324D02*
X45883Y146402D01*
X45889Y146479D01*
X45898Y146556D01*
X45911Y146632D01*
X45928Y146708D01*
X45949Y146783D01*
X45973Y146856D01*
X46001Y146929D01*
X46033Y147000D01*
X46068Y147069D01*
X46106Y147136D01*
X46147Y147202D01*
X46192Y147265D01*
X46240Y147326D01*
X46290Y147385D01*
X46344Y147441D01*
X46400Y147495D01*
X46459Y147545D01*
X46520Y147593D01*
X46583Y147638D01*
X46649Y147679D01*
X46716Y147717D01*
X46785Y147752D01*
X46856Y147784D01*
X46929Y147812D01*
X47002Y147836D01*
X47077Y147857D01*
X47153Y147874D01*
X47229Y147887D01*
X47306Y147896D01*
X47383Y147902D01*
X47461Y147904D01*
X47461Y147905D02*
X49041Y147905D01*
X53787Y147905D02*
X53869Y147903D01*
X53951Y147897D01*
X54033Y147888D01*
X54114Y147875D01*
X54194Y147858D01*
X54274Y147837D01*
X54352Y147813D01*
X54429Y147785D01*
X54505Y147754D01*
X54580Y147719D01*
X54652Y147680D01*
X54723Y147639D01*
X54792Y147594D01*
X54858Y147546D01*
X54923Y147495D01*
X54985Y147441D01*
X55044Y147384D01*
X55101Y147325D01*
X55155Y147263D01*
X55206Y147198D01*
X55254Y147132D01*
X55299Y147063D01*
X55340Y146992D01*
X55379Y146920D01*
X55414Y146845D01*
X55445Y146769D01*
X55473Y146692D01*
X55497Y146614D01*
X55518Y146534D01*
X55535Y146454D01*
X55548Y146373D01*
X55557Y146291D01*
X55563Y146209D01*
X55565Y146127D01*
X53787Y147905D02*
X53694Y147903D01*
X53602Y147897D01*
X53510Y147888D01*
X53418Y147875D01*
X53327Y147858D01*
X53237Y147838D01*
X53147Y147814D01*
X53059Y147786D01*
X52971Y147754D01*
X52886Y147720D01*
X52801Y147681D01*
X52719Y147640D01*
X52638Y147595D01*
X52558Y147546D01*
X52481Y147495D01*
X52406Y147441D01*
X52334Y147383D01*
X52264Y147323D01*
X52196Y147259D01*
X52131Y147194D01*
X52068Y147125D01*
X52009Y147054D01*
X51952Y146981D01*
X51898Y146905D01*
X51848Y146828D01*
X51800Y146748D01*
X51756Y146667D01*
X51716Y146583D01*
X51678Y146499D01*
X51644Y146412D01*
X51614Y146325D01*
X54972Y144744D02*
X55033Y144805D01*
X55091Y144868D01*
X55146Y144934D01*
X55199Y145002D01*
X55248Y145073D01*
X55293Y145145D01*
X55336Y145220D01*
X55375Y145296D01*
X55411Y145375D01*
X55443Y145454D01*
X55471Y145535D01*
X55496Y145618D01*
X55517Y145701D01*
X55534Y145785D01*
X55548Y145870D01*
X55557Y145955D01*
X55563Y146041D01*
X55565Y146127D01*
X54972Y144744D02*
X51614Y140793D01*
X55565Y140793D01*
X58472Y142373D02*
X60052Y147905D01*
X58472Y142373D02*
X62423Y142373D01*
X61237Y140793D02*
X61237Y143954D01*
X58133Y169669D02*
X58133Y176781D01*
X60108Y176781D01*
X60195Y176779D01*
X60283Y176773D01*
X60370Y176764D01*
X60456Y176750D01*
X60542Y176733D01*
X60626Y176712D01*
X60710Y176687D01*
X60793Y176658D01*
X60874Y176626D01*
X60954Y176591D01*
X61032Y176552D01*
X61109Y176509D01*
X61183Y176463D01*
X61255Y176414D01*
X61325Y176362D01*
X61393Y176306D01*
X61458Y176248D01*
X61521Y176187D01*
X61580Y176123D01*
X61637Y176056D01*
X61691Y175988D01*
X61742Y175916D01*
X61789Y175843D01*
X61834Y175768D01*
X61875Y175690D01*
X61912Y175611D01*
X61946Y175531D01*
X61976Y175449D01*
X62003Y175366D01*
X62026Y175281D01*
X62045Y175196D01*
X62060Y175110D01*
X62072Y175023D01*
X62080Y174936D01*
X62084Y174849D01*
X62084Y174761D01*
X62080Y174674D01*
X62072Y174587D01*
X62060Y174500D01*
X62045Y174414D01*
X62026Y174329D01*
X62003Y174244D01*
X61976Y174161D01*
X61946Y174079D01*
X61912Y173999D01*
X61875Y173920D01*
X61834Y173842D01*
X61789Y173767D01*
X61742Y173694D01*
X61691Y173622D01*
X61637Y173554D01*
X61580Y173487D01*
X61521Y173423D01*
X61458Y173362D01*
X61393Y173304D01*
X61325Y173248D01*
X61255Y173196D01*
X61183Y173147D01*
X61109Y173101D01*
X61032Y173058D01*
X60954Y173019D01*
X60874Y172984D01*
X60793Y172952D01*
X60710Y172923D01*
X60626Y172898D01*
X60542Y172877D01*
X60456Y172860D01*
X60370Y172846D01*
X60283Y172837D01*
X60195Y172831D01*
X60108Y172829D01*
X60108Y172830D02*
X58133Y172830D01*
X60503Y172830D02*
X62084Y169669D01*
X64950Y171249D02*
X66531Y176781D01*
X64950Y171249D02*
X68901Y171249D01*
X67716Y172830D02*
X67716Y169669D01*
X72686Y189149D02*
X79798Y189149D01*
X72686Y189149D02*
X72686Y191124D01*
X72685Y191124D02*
X72687Y191211D01*
X72693Y191299D01*
X72702Y191386D01*
X72716Y191472D01*
X72733Y191558D01*
X72754Y191642D01*
X72779Y191726D01*
X72808Y191809D01*
X72840Y191890D01*
X72875Y191970D01*
X72914Y192048D01*
X72957Y192125D01*
X73003Y192199D01*
X73052Y192271D01*
X73104Y192341D01*
X73160Y192409D01*
X73218Y192474D01*
X73279Y192537D01*
X73343Y192596D01*
X73410Y192653D01*
X73478Y192707D01*
X73550Y192758D01*
X73623Y192805D01*
X73698Y192850D01*
X73776Y192891D01*
X73855Y192928D01*
X73935Y192962D01*
X74017Y192992D01*
X74100Y193019D01*
X74185Y193042D01*
X74270Y193061D01*
X74356Y193076D01*
X74443Y193088D01*
X74530Y193096D01*
X74617Y193100D01*
X74705Y193100D01*
X74792Y193096D01*
X74879Y193088D01*
X74966Y193076D01*
X75052Y193061D01*
X75137Y193042D01*
X75222Y193019D01*
X75305Y192992D01*
X75387Y192962D01*
X75467Y192928D01*
X75546Y192891D01*
X75624Y192850D01*
X75699Y192805D01*
X75772Y192758D01*
X75844Y192707D01*
X75912Y192653D01*
X75979Y192596D01*
X76043Y192537D01*
X76104Y192474D01*
X76162Y192409D01*
X76218Y192341D01*
X76270Y192271D01*
X76319Y192199D01*
X76365Y192125D01*
X76408Y192048D01*
X76447Y191970D01*
X76482Y191890D01*
X76514Y191809D01*
X76543Y191726D01*
X76568Y191642D01*
X76589Y191558D01*
X76606Y191472D01*
X76620Y191386D01*
X76629Y191299D01*
X76635Y191211D01*
X76637Y191124D01*
X76637Y189149D01*
X76637Y191519D02*
X79798Y193100D01*
X79798Y195966D02*
X79798Y197942D01*
X79796Y198029D01*
X79790Y198117D01*
X79781Y198204D01*
X79767Y198290D01*
X79750Y198376D01*
X79729Y198460D01*
X79704Y198544D01*
X79675Y198627D01*
X79643Y198708D01*
X79608Y198788D01*
X79569Y198866D01*
X79526Y198943D01*
X79480Y199017D01*
X79431Y199089D01*
X79379Y199159D01*
X79323Y199227D01*
X79265Y199292D01*
X79204Y199355D01*
X79140Y199414D01*
X79073Y199471D01*
X79005Y199525D01*
X78933Y199576D01*
X78860Y199623D01*
X78785Y199668D01*
X78707Y199709D01*
X78628Y199746D01*
X78548Y199780D01*
X78466Y199810D01*
X78383Y199837D01*
X78298Y199860D01*
X78213Y199879D01*
X78127Y199894D01*
X78040Y199906D01*
X77953Y199914D01*
X77866Y199918D01*
X77778Y199918D01*
X77691Y199914D01*
X77604Y199906D01*
X77517Y199894D01*
X77431Y199879D01*
X77346Y199860D01*
X77261Y199837D01*
X77178Y199810D01*
X77096Y199780D01*
X77016Y199746D01*
X76937Y199709D01*
X76859Y199668D01*
X76784Y199623D01*
X76711Y199576D01*
X76639Y199525D01*
X76571Y199471D01*
X76504Y199414D01*
X76440Y199355D01*
X76379Y199292D01*
X76321Y199227D01*
X76265Y199159D01*
X76213Y199089D01*
X76164Y199017D01*
X76118Y198943D01*
X76075Y198866D01*
X76036Y198788D01*
X76001Y198708D01*
X75969Y198627D01*
X75940Y198544D01*
X75915Y198460D01*
X75894Y198376D01*
X75877Y198290D01*
X75863Y198204D01*
X75854Y198117D01*
X75848Y198029D01*
X75846Y197942D01*
X72686Y198337D02*
X72686Y195966D01*
X72686Y198337D02*
X72688Y198416D01*
X72694Y198494D01*
X72704Y198572D01*
X72717Y198650D01*
X72735Y198727D01*
X72756Y198803D01*
X72781Y198877D01*
X72810Y198951D01*
X72842Y199023D01*
X72878Y199093D01*
X72918Y199161D01*
X72961Y199227D01*
X73007Y199291D01*
X73056Y199353D01*
X73108Y199412D01*
X73163Y199468D01*
X73221Y199522D01*
X73281Y199572D01*
X73344Y199620D01*
X73409Y199664D01*
X73476Y199705D01*
X73545Y199743D01*
X73616Y199777D01*
X73689Y199808D01*
X73763Y199835D01*
X73838Y199858D01*
X73914Y199877D01*
X73992Y199893D01*
X74070Y199905D01*
X74148Y199913D01*
X74227Y199917D01*
X74305Y199917D01*
X74384Y199913D01*
X74462Y199905D01*
X74540Y199893D01*
X74618Y199877D01*
X74694Y199858D01*
X74769Y199835D01*
X74843Y199808D01*
X74916Y199777D01*
X74987Y199743D01*
X75056Y199705D01*
X75123Y199664D01*
X75188Y199620D01*
X75251Y199572D01*
X75311Y199522D01*
X75369Y199468D01*
X75424Y199412D01*
X75476Y199353D01*
X75525Y199291D01*
X75571Y199227D01*
X75614Y199161D01*
X75654Y199093D01*
X75690Y199023D01*
X75722Y198951D01*
X75751Y198877D01*
X75776Y198803D01*
X75797Y198727D01*
X75815Y198650D01*
X75828Y198572D01*
X75838Y198494D01*
X75844Y198416D01*
X75846Y198337D01*
X75846Y196756D01*
X96540Y12164D02*
X98121Y12164D01*
X96540Y12165D02*
X96462Y12167D01*
X96385Y12173D01*
X96308Y12182D01*
X96232Y12195D01*
X96156Y12212D01*
X96081Y12233D01*
X96008Y12257D01*
X95935Y12285D01*
X95864Y12317D01*
X95795Y12352D01*
X95728Y12390D01*
X95662Y12431D01*
X95599Y12476D01*
X95538Y12524D01*
X95479Y12574D01*
X95423Y12628D01*
X95369Y12684D01*
X95319Y12743D01*
X95271Y12804D01*
X95226Y12867D01*
X95185Y12933D01*
X95147Y13000D01*
X95112Y13069D01*
X95080Y13140D01*
X95052Y13213D01*
X95028Y13286D01*
X95007Y13361D01*
X94990Y13437D01*
X94977Y13513D01*
X94968Y13590D01*
X94962Y13667D01*
X94960Y13745D01*
X94960Y17696D01*
X94962Y17774D01*
X94968Y17851D01*
X94977Y17928D01*
X94990Y18004D01*
X95007Y18080D01*
X95028Y18155D01*
X95052Y18228D01*
X95080Y18301D01*
X95112Y18372D01*
X95147Y18441D01*
X95185Y18508D01*
X95226Y18574D01*
X95271Y18637D01*
X95319Y18698D01*
X95369Y18757D01*
X95423Y18813D01*
X95479Y18867D01*
X95538Y18917D01*
X95599Y18965D01*
X95662Y19010D01*
X95728Y19051D01*
X95795Y19089D01*
X95864Y19124D01*
X95935Y19156D01*
X96008Y19184D01*
X96081Y19208D01*
X96156Y19229D01*
X96232Y19246D01*
X96308Y19259D01*
X96385Y19268D01*
X96462Y19274D01*
X96540Y19276D01*
X98121Y19276D01*
X100693Y17696D02*
X102669Y19276D01*
X102669Y12164D01*
X104644Y12164D02*
X100693Y12164D01*
X107551Y17696D02*
X109527Y19276D01*
X109527Y12164D01*
X111502Y12164D02*
X107551Y12164D01*
D15*
X102972Y110188D02*
X102972Y115288D01*
X116972Y115288D02*
X116972Y110188D01*
D16*
X145278Y107263D02*
X145278Y105682D01*
X145276Y105604D01*
X145270Y105527D01*
X145261Y105450D01*
X145248Y105374D01*
X145231Y105298D01*
X145210Y105223D01*
X145186Y105150D01*
X145158Y105077D01*
X145126Y105006D01*
X145091Y104937D01*
X145053Y104870D01*
X145012Y104804D01*
X144967Y104741D01*
X144919Y104680D01*
X144869Y104621D01*
X144815Y104565D01*
X144759Y104511D01*
X144700Y104461D01*
X144639Y104413D01*
X144576Y104368D01*
X144510Y104327D01*
X144443Y104289D01*
X144374Y104254D01*
X144303Y104222D01*
X144230Y104194D01*
X144157Y104170D01*
X144082Y104149D01*
X144006Y104132D01*
X143930Y104119D01*
X143853Y104110D01*
X143776Y104104D01*
X143698Y104102D01*
X139747Y104102D01*
X139747Y104101D02*
X139669Y104103D01*
X139592Y104109D01*
X139515Y104118D01*
X139439Y104131D01*
X139363Y104148D01*
X139288Y104169D01*
X139214Y104193D01*
X139142Y104221D01*
X139071Y104253D01*
X139002Y104288D01*
X138934Y104326D01*
X138869Y104367D01*
X138805Y104412D01*
X138744Y104460D01*
X138685Y104511D01*
X138629Y104564D01*
X138576Y104620D01*
X138525Y104679D01*
X138477Y104740D01*
X138432Y104804D01*
X138391Y104869D01*
X138353Y104937D01*
X138318Y105006D01*
X138286Y105077D01*
X138258Y105149D01*
X138234Y105223D01*
X138213Y105298D01*
X138196Y105374D01*
X138183Y105450D01*
X138174Y105527D01*
X138168Y105604D01*
X138166Y105682D01*
X138166Y107263D01*
X139747Y109835D02*
X138166Y111811D01*
X145278Y111811D01*
X145278Y113786D02*
X145278Y109835D01*
X142117Y118274D02*
X142117Y120644D01*
X142117Y118274D02*
X142115Y118196D01*
X142109Y118119D01*
X142100Y118042D01*
X142087Y117966D01*
X142070Y117890D01*
X142049Y117815D01*
X142025Y117742D01*
X141997Y117669D01*
X141965Y117598D01*
X141930Y117529D01*
X141892Y117462D01*
X141851Y117396D01*
X141806Y117333D01*
X141758Y117272D01*
X141708Y117213D01*
X141654Y117157D01*
X141598Y117103D01*
X141539Y117053D01*
X141478Y117005D01*
X141415Y116960D01*
X141349Y116919D01*
X141282Y116881D01*
X141213Y116846D01*
X141142Y116814D01*
X141069Y116786D01*
X140996Y116762D01*
X140921Y116741D01*
X140845Y116724D01*
X140769Y116711D01*
X140692Y116702D01*
X140615Y116696D01*
X140537Y116694D01*
X140537Y116693D02*
X140142Y116693D01*
X140055Y116695D01*
X139967Y116701D01*
X139880Y116710D01*
X139794Y116724D01*
X139708Y116741D01*
X139624Y116762D01*
X139540Y116787D01*
X139457Y116816D01*
X139376Y116848D01*
X139296Y116883D01*
X139218Y116922D01*
X139141Y116965D01*
X139067Y117011D01*
X138995Y117060D01*
X138925Y117112D01*
X138857Y117168D01*
X138792Y117226D01*
X138729Y117287D01*
X138670Y117351D01*
X138613Y117418D01*
X138559Y117486D01*
X138508Y117558D01*
X138461Y117631D01*
X138416Y117706D01*
X138375Y117784D01*
X138338Y117863D01*
X138304Y117943D01*
X138274Y118025D01*
X138247Y118108D01*
X138224Y118193D01*
X138205Y118278D01*
X138190Y118364D01*
X138178Y118451D01*
X138170Y118538D01*
X138166Y118625D01*
X138166Y118713D01*
X138170Y118800D01*
X138178Y118887D01*
X138190Y118974D01*
X138205Y119060D01*
X138224Y119145D01*
X138247Y119230D01*
X138274Y119313D01*
X138304Y119395D01*
X138338Y119475D01*
X138375Y119554D01*
X138416Y119632D01*
X138461Y119707D01*
X138508Y119780D01*
X138559Y119852D01*
X138613Y119920D01*
X138670Y119987D01*
X138729Y120051D01*
X138792Y120112D01*
X138857Y120170D01*
X138925Y120226D01*
X138995Y120278D01*
X139067Y120327D01*
X139141Y120373D01*
X139218Y120416D01*
X139296Y120455D01*
X139376Y120490D01*
X139457Y120522D01*
X139540Y120551D01*
X139624Y120576D01*
X139708Y120597D01*
X139794Y120614D01*
X139880Y120628D01*
X139967Y120637D01*
X140055Y120643D01*
X140142Y120645D01*
X140142Y120644D02*
X142117Y120644D01*
X142227Y120642D01*
X142338Y120636D01*
X142447Y120627D01*
X142557Y120613D01*
X142666Y120596D01*
X142774Y120575D01*
X142882Y120550D01*
X142988Y120522D01*
X143094Y120489D01*
X143198Y120453D01*
X143301Y120414D01*
X143403Y120371D01*
X143503Y120324D01*
X143601Y120274D01*
X143698Y120221D01*
X143792Y120164D01*
X143885Y120104D01*
X143975Y120040D01*
X144063Y119974D01*
X144149Y119904D01*
X144232Y119832D01*
X144313Y119757D01*
X144391Y119679D01*
X144466Y119598D01*
X144538Y119515D01*
X144608Y119429D01*
X144674Y119341D01*
X144738Y119251D01*
X144798Y119158D01*
X144855Y119064D01*
X144908Y118967D01*
X144958Y118869D01*
X145005Y118769D01*
X145048Y118667D01*
X145087Y118564D01*
X145123Y118460D01*
X145156Y118354D01*
X145184Y118248D01*
X145209Y118140D01*
X145230Y118032D01*
X145247Y117923D01*
X145261Y117813D01*
X145270Y117704D01*
X145276Y117593D01*
X145278Y117483D01*
X125118Y124236D02*
X125118Y131348D01*
X127094Y131348D01*
X127094Y131349D02*
X127181Y131347D01*
X127269Y131341D01*
X127356Y131332D01*
X127442Y131318D01*
X127528Y131301D01*
X127612Y131280D01*
X127696Y131255D01*
X127779Y131226D01*
X127860Y131194D01*
X127940Y131159D01*
X128018Y131120D01*
X128095Y131077D01*
X128169Y131031D01*
X128241Y130982D01*
X128311Y130930D01*
X128379Y130874D01*
X128444Y130816D01*
X128507Y130755D01*
X128566Y130691D01*
X128623Y130624D01*
X128677Y130556D01*
X128728Y130484D01*
X128775Y130411D01*
X128820Y130336D01*
X128861Y130258D01*
X128898Y130179D01*
X128932Y130099D01*
X128962Y130017D01*
X128989Y129934D01*
X129012Y129849D01*
X129031Y129764D01*
X129046Y129678D01*
X129058Y129591D01*
X129066Y129504D01*
X129070Y129417D01*
X129070Y129329D01*
X129066Y129242D01*
X129058Y129155D01*
X129046Y129068D01*
X129031Y128982D01*
X129012Y128897D01*
X128989Y128812D01*
X128962Y128729D01*
X128932Y128647D01*
X128898Y128567D01*
X128861Y128488D01*
X128820Y128410D01*
X128775Y128335D01*
X128728Y128262D01*
X128677Y128190D01*
X128623Y128122D01*
X128566Y128055D01*
X128507Y127991D01*
X128444Y127930D01*
X128379Y127872D01*
X128311Y127816D01*
X128241Y127764D01*
X128169Y127715D01*
X128095Y127669D01*
X128018Y127626D01*
X127940Y127587D01*
X127860Y127552D01*
X127779Y127520D01*
X127696Y127491D01*
X127612Y127466D01*
X127528Y127445D01*
X127442Y127428D01*
X127356Y127414D01*
X127269Y127405D01*
X127181Y127399D01*
X127094Y127397D01*
X125118Y127397D01*
X127489Y127397D02*
X129070Y124236D01*
X135887Y129570D02*
X135885Y129652D01*
X135879Y129734D01*
X135870Y129816D01*
X135857Y129897D01*
X135840Y129977D01*
X135819Y130057D01*
X135795Y130135D01*
X135767Y130212D01*
X135736Y130288D01*
X135701Y130363D01*
X135662Y130435D01*
X135621Y130506D01*
X135576Y130575D01*
X135528Y130641D01*
X135477Y130706D01*
X135423Y130768D01*
X135366Y130827D01*
X135307Y130884D01*
X135245Y130938D01*
X135180Y130989D01*
X135114Y131037D01*
X135045Y131082D01*
X134974Y131123D01*
X134902Y131162D01*
X134827Y131197D01*
X134751Y131228D01*
X134674Y131256D01*
X134596Y131280D01*
X134516Y131301D01*
X134436Y131318D01*
X134355Y131331D01*
X134273Y131340D01*
X134191Y131346D01*
X134109Y131348D01*
X134016Y131346D01*
X133924Y131340D01*
X133832Y131331D01*
X133740Y131318D01*
X133649Y131301D01*
X133559Y131281D01*
X133469Y131257D01*
X133381Y131229D01*
X133293Y131197D01*
X133208Y131163D01*
X133123Y131124D01*
X133041Y131083D01*
X132960Y131038D01*
X132880Y130989D01*
X132803Y130938D01*
X132728Y130884D01*
X132656Y130826D01*
X132586Y130766D01*
X132518Y130702D01*
X132453Y130637D01*
X132390Y130568D01*
X132331Y130497D01*
X132274Y130424D01*
X132220Y130348D01*
X132170Y130271D01*
X132122Y130191D01*
X132078Y130110D01*
X132038Y130026D01*
X132000Y129942D01*
X131966Y129855D01*
X131936Y129768D01*
X135294Y128187D02*
X135355Y128248D01*
X135413Y128311D01*
X135468Y128377D01*
X135521Y128445D01*
X135570Y128516D01*
X135615Y128588D01*
X135658Y128663D01*
X135697Y128739D01*
X135733Y128818D01*
X135765Y128897D01*
X135793Y128978D01*
X135818Y129061D01*
X135839Y129144D01*
X135856Y129228D01*
X135870Y129313D01*
X135879Y129398D01*
X135885Y129484D01*
X135887Y129570D01*
X135294Y128187D02*
X131936Y124236D01*
X135887Y124236D01*
D15*
X137408Y100038D02*
X137408Y94938D01*
X123408Y94938D02*
X123408Y100038D01*
D16*
X139552Y90121D02*
X146664Y90121D01*
X146664Y93282D01*
X145083Y95823D02*
X139552Y97404D01*
X145083Y95823D02*
X145083Y99774D01*
X143503Y98589D02*
X146664Y98589D01*
M02*
