G04 EAGLE Gerber RS-274X export*
G75*
%MOMM*%
%FSLAX34Y34*%
%LPD*%
%INSolderpaste Top*%
%IPPOS*%
%AMOC8*
5,1,8,0,0,1.08239X$1,22.5*%
G01*
%ADD10C,0.280800*%
%ADD11C,0.500000*%
%ADD12C,0.250000*%
%ADD13R,0.654191X0.247359*%
%ADD14R,0.655331X0.247431*%
%ADD15R,0.651969X0.249341*%
%ADD16R,0.654269X0.249209*%
%ADD17R,0.652981X0.249891*%
%ADD18R,0.655650X0.250628*%
%ADD19R,0.651059X0.250275*%
%ADD20R,0.653141X0.251281*%
%ADD21R,0.655359X0.252981*%
%ADD22R,0.651481X0.251041*%
%ADD23R,0.250031X0.650031*%
%ADD24R,0.253631X0.652369*%
%ADD25R,0.254619X0.652291*%
%ADD26R,0.252750X0.650931*%
%ADD27R,0.251419X0.650259*%
%ADD28R,0.253169X0.650075*%
%ADD29R,0.253241X0.649566*%
%ADD30R,0.251019X0.649703*%
%ADD31R,0.251359X0.649391*%
%ADD32R,0.253259X0.648019*%
%ADD33R,0.646209X0.253300*%
%ADD34R,0.649709X0.250200*%
%ADD35R,0.648831X0.250591*%
%ADD36R,0.646019X0.251278*%
%ADD37R,0.647469X0.250350*%
%ADD38R,0.647719X0.249897*%
%ADD39R,0.646281X0.249147*%
%ADD40R,0.644681X0.247800*%
%ADD41R,0.648841X0.249309*%
%ADD42R,0.650000X0.250000*%
%ADD43R,0.246700X0.647831*%
%ADD44R,0.246041X0.648069*%
%ADD45R,0.249509X0.649847*%
%ADD46R,0.245269X0.649313*%
%ADD47R,0.249941X0.650003*%
%ADD48R,0.246369X0.650713*%
%ADD49R,0.248941X0.650391*%
%ADD50R,0.246781X0.651731*%
%ADD51R,0.249800X0.650141*%
%ADD52R,0.247050X0.652600*%
%ADD53R,1.201931X1.199259*%
%ADD54R,1.200338X1.200338*%
%ADD55R,1.203350X1.201031*%
%ADD56R,1.199672X1.200263*%
%ADD57R,1.200109X1.199866*%
%ADD58R,1.199812X1.199812*%
%ADD59R,1.202841X1.202841*%
%ADD60R,1.200081X1.200269*%
%ADD61R,1.199278X1.201869*%
%ADD62R,2.200000X1.050000*%
%ADD63R,0.800000X1.000000*%
%ADD64R,0.850000X0.950000*%
%ADD65R,1.000000X1.800000*%
%ADD66C,0.270000*%


D10*
X127635Y68563D02*
X127635Y65971D01*
X124443Y65971D01*
X124443Y68563D01*
X127635Y68563D01*
X124443Y59963D02*
X124443Y57371D01*
X124443Y59963D02*
X127635Y59963D01*
X127635Y57371D01*
X124443Y57371D01*
D11*
X127351Y19428D02*
X127351Y14428D01*
X127351Y19428D02*
X136551Y19428D01*
X136551Y14428D01*
X127351Y14428D01*
X127351Y19178D02*
X136551Y19178D01*
X136551Y33128D02*
X136551Y38128D01*
X136551Y33128D02*
X127351Y33128D01*
X127351Y38128D01*
X136551Y38128D01*
X136551Y37878D02*
X127351Y37878D01*
D10*
X138178Y65962D02*
X138178Y68554D01*
X138178Y65962D02*
X134986Y65962D01*
X134986Y68554D01*
X138178Y68554D01*
X134986Y59954D02*
X134986Y57362D01*
X134986Y59954D02*
X138178Y59954D01*
X138178Y57362D01*
X134986Y57362D01*
D12*
X47680Y77110D03*
X47680Y72110D03*
X47680Y67110D03*
X47680Y62110D03*
X47680Y57110D03*
X47680Y52110D03*
X47680Y47110D03*
X47680Y42110D03*
X47680Y37110D03*
X47680Y32110D03*
X52430Y27360D03*
X57430Y27360D03*
X62430Y27360D03*
X67430Y27360D03*
X72430Y27360D03*
X77430Y27360D03*
X82430Y27360D03*
X87430Y27360D03*
X92430Y27360D03*
X97430Y27360D03*
X102180Y32110D03*
X102180Y37110D03*
X102180Y42110D03*
X102180Y47110D03*
X102180Y52110D03*
X102180Y57110D03*
X102180Y62110D03*
X102180Y67110D03*
X102180Y72110D03*
X102180Y77110D03*
X97430Y81860D03*
X92430Y81860D03*
X87430Y81860D03*
X82430Y81860D03*
X77430Y81860D03*
X72430Y81860D03*
X67430Y81860D03*
X62430Y81860D03*
X57430Y81860D03*
X52430Y81860D03*
D13*
X44409Y77123D03*
D14*
X44403Y72123D03*
D15*
X44420Y67113D03*
D16*
X44409Y62114D03*
D17*
X44415Y57111D03*
D18*
X44402Y52107D03*
D19*
X44425Y47109D03*
D20*
X44414Y42104D03*
D21*
X44403Y37095D03*
D22*
X44423Y32105D03*
D23*
X52430Y24110D03*
D24*
X57418Y24092D03*
D25*
X62419Y24087D03*
D26*
X67425Y24096D03*
D27*
X72429Y24103D03*
D28*
X77430Y24094D03*
D29*
X82432Y24094D03*
D30*
X87431Y24105D03*
D31*
X92433Y24103D03*
D32*
X97440Y24094D03*
D33*
X105449Y32094D03*
D34*
X105431Y37109D03*
D35*
X105436Y42107D03*
D36*
X105450Y47104D03*
D37*
X105443Y52108D03*
D38*
X105441Y57111D03*
D39*
X105449Y62114D03*
D40*
X105457Y67121D03*
D41*
X105436Y72113D03*
D42*
X105430Y77110D03*
D43*
X97441Y85127D03*
D44*
X92440Y85130D03*
D45*
X87431Y85112D03*
D46*
X82433Y85134D03*
D47*
X77430Y85110D03*
D48*
X72426Y85128D03*
D49*
X67428Y85115D03*
D50*
X62421Y85126D03*
D51*
X57429Y85111D03*
D52*
X52417Y85125D03*
D53*
X61420Y68114D03*
D54*
X74928Y54608D03*
D55*
X61413Y54605D03*
D56*
X88432Y54609D03*
D57*
X74929Y68111D03*
D58*
X88431Y68111D03*
D59*
X61416Y41096D03*
D60*
X74930Y41109D03*
D61*
X88434Y41101D03*
D62*
X21884Y195430D03*
X21884Y167930D03*
D63*
X37134Y181680D03*
D64*
X19650Y87260D03*
X19650Y72760D03*
X31150Y72760D03*
X31150Y87260D03*
D10*
X146904Y144338D02*
X146904Y146930D01*
X146904Y144338D02*
X143712Y144338D01*
X143712Y146930D01*
X146904Y146930D01*
X143712Y138330D02*
X143712Y135738D01*
X143712Y138330D02*
X146904Y138330D01*
X146904Y135738D01*
X143712Y135738D01*
X98644Y144338D02*
X98644Y146930D01*
X98644Y144338D02*
X95452Y144338D01*
X95452Y146930D01*
X98644Y146930D01*
X95452Y138330D02*
X95452Y135738D01*
X95452Y138330D02*
X98644Y138330D01*
X98644Y135738D01*
X95452Y135738D01*
D65*
X133678Y141334D03*
X108678Y141334D03*
D10*
X82895Y107645D02*
X82895Y105053D01*
X79703Y105053D01*
X79703Y107645D01*
X82895Y107645D01*
X79703Y99045D02*
X79703Y96453D01*
X79703Y99045D02*
X82895Y99045D01*
X82895Y96453D01*
X79703Y96453D01*
X94226Y119055D02*
X94226Y121647D01*
X94226Y119055D02*
X91034Y119055D01*
X91034Y121647D01*
X94226Y121647D01*
X91034Y113047D02*
X91034Y110455D01*
X91034Y113047D02*
X94226Y113047D01*
X94226Y110455D01*
X91034Y110455D01*
X65910Y99150D02*
X65910Y96558D01*
X65910Y99150D02*
X69102Y99150D01*
X69102Y96558D01*
X65910Y96558D01*
X69102Y105158D02*
X69102Y107750D01*
X69102Y105158D02*
X65910Y105158D01*
X65910Y107750D01*
X69102Y107750D01*
X68767Y117663D02*
X66175Y117663D01*
X68767Y117663D02*
X68767Y114471D01*
X66175Y114471D01*
X66175Y117663D01*
X66175Y117139D02*
X68767Y117139D01*
X74775Y114471D02*
X77367Y114471D01*
X74775Y114471D02*
X74775Y117663D01*
X77367Y117663D01*
X77367Y114471D01*
X77367Y117139D02*
X74775Y117139D01*
D66*
X65717Y133182D02*
X65717Y135882D01*
X69017Y135882D01*
X69017Y133182D01*
X65717Y133182D01*
X65717Y135747D02*
X69017Y135747D01*
X65717Y127242D02*
X65717Y124542D01*
X65717Y127242D02*
X69017Y127242D01*
X69017Y124542D01*
X65717Y124542D01*
X65717Y127107D02*
X69017Y127107D01*
D10*
X68622Y145785D02*
X66030Y145785D01*
X68622Y145785D02*
X68622Y142593D01*
X66030Y142593D01*
X66030Y145785D01*
X66030Y145261D02*
X68622Y145261D01*
X74630Y142593D02*
X77222Y142593D01*
X74630Y142593D02*
X74630Y145785D01*
X77222Y145785D01*
X77222Y142593D01*
X77222Y145261D02*
X74630Y145261D01*
X59516Y183218D02*
X56924Y183218D01*
X59516Y183218D02*
X59516Y180026D01*
X56924Y180026D01*
X56924Y183218D01*
X56924Y182694D02*
X59516Y182694D01*
X65524Y180026D02*
X68116Y180026D01*
X65524Y180026D02*
X65524Y183218D01*
X68116Y183218D01*
X68116Y180026D01*
X68116Y182694D02*
X65524Y182694D01*
X68420Y198530D02*
X68420Y201122D01*
X68420Y198530D02*
X65228Y198530D01*
X65228Y201122D01*
X68420Y201122D01*
X65228Y192522D02*
X65228Y189930D01*
X65228Y192522D02*
X68420Y192522D01*
X68420Y189930D01*
X65228Y189930D01*
X114573Y17292D02*
X114573Y14700D01*
X114573Y17292D02*
X117765Y17292D01*
X117765Y14700D01*
X114573Y14700D01*
X117765Y23300D02*
X117765Y25892D01*
X117765Y23300D02*
X114573Y23300D01*
X114573Y25892D01*
X117765Y25892D01*
D11*
X105372Y100888D02*
X105372Y105888D01*
X114572Y105888D01*
X114572Y100888D01*
X105372Y100888D01*
X105372Y105638D02*
X114572Y105638D01*
X114572Y119588D02*
X114572Y124588D01*
X114572Y119588D02*
X105372Y119588D01*
X105372Y124588D01*
X114572Y124588D01*
X114572Y124338D02*
X105372Y124338D01*
D10*
X133061Y118047D02*
X135653Y118047D01*
X133061Y118047D02*
X133061Y121239D01*
X135653Y121239D01*
X135653Y118047D01*
X135653Y120715D02*
X133061Y120715D01*
X127053Y121239D02*
X124461Y121239D01*
X127053Y121239D02*
X127053Y118047D01*
X124461Y118047D01*
X124461Y121239D01*
X124461Y120715D02*
X127053Y120715D01*
D11*
X135008Y109338D02*
X135008Y104338D01*
X125808Y104338D01*
X125808Y109338D01*
X135008Y109338D01*
X135008Y109088D02*
X125808Y109088D01*
X125808Y90638D02*
X125808Y85638D01*
X125808Y90638D02*
X135008Y90638D01*
X135008Y85638D01*
X125808Y85638D01*
X125808Y90388D02*
X135008Y90388D01*
M02*
