M48
;GenerationSoftware,Autodesk,EAGLE,9.6.2*%
;CreationDate,2022-04-28T13:47:04Z*%
FMAT,2
ICI,OFF
METRIC,TZ,000.000
T4C0.200
T3C0.250
T2C0.300
T1C0.650
%
G90
M71
T1
X16256Y2540
X16256Y13970
X16256Y5080
X16256Y15240
X16256Y3810
X7799Y13
X6529Y13
X5259Y13
X3989Y13
X2719Y13
X9069Y13
X10339Y13
X11609Y13
X12879Y13
X164Y10203
X164Y8933
X164Y11473
X164Y7663
X164Y12743
X164Y6393
X164Y14013
X164Y5123
X164Y15283
X164Y3853
X164Y2583
X16256Y10160
X16256Y8890
X16256Y11430
X16256Y7620
X16256Y12700
X16256Y6350
T2
X11811Y6985
T3
X14451Y5412
X11938Y5969
X14097Y12573
T4
X12446Y12954
X7447Y9795
X7447Y10303
X7447Y10811
X8316Y11312
X8316Y11820
X8439Y12277
X7432Y12277
X7423Y12772
X7424Y13264
X7427Y13763
X7935Y13763
X7932Y13264
X7931Y12772
X7940Y12277
X8316Y14144
X8316Y14652
X8316Y15160
X7808Y15160
X7300Y15160
X7300Y15668
X7300Y16176
X7300Y16684
X7300Y17192
X7300Y17700
X7322Y18208
X7307Y18777
X7368Y19267
X7362Y19750
X7362Y20234
X7099Y20730
X6951Y21194
X6688Y21602
X6376Y22000
X6038Y22327
X5724Y22642
X5391Y22993
X5053Y23325
X4750Y23687
X4653Y24160
X4762Y24710
X3504Y24710
X3641Y24161
X3710Y23695
X3864Y23240
X4158Y22844
X4488Y22504
X4808Y22169
X5140Y21833
X5472Y21482
X5768Y21118
X6028Y20713
X5975Y20250
X5968Y19780
X5965Y19329
X5978Y18859
X4230Y19011
X4532Y18654
X5012Y18659
X5471Y18777
X5752Y24710
X6752Y24720
X7752Y24720
X8742Y24720
X9752Y24720
X10752Y24720
X11762Y24710
X12742Y24710
X13752Y24710
X14752Y24710
X15742Y24710
X5161Y24160
X5307Y23706
X5645Y23374
X5978Y23023
X6292Y22708
X6630Y22381
X6942Y21983
X7205Y21575
X7459Y21067
X7713Y20686
X3133Y24161
X3133Y23653
X3356Y23113
X3650Y22717
X3980Y22377
X4300Y22042
X4632Y21706
X4964Y21355
X5260Y20991
X5520Y20586
X6252Y24130
X7252Y24130
X8252Y24130
X9252Y24130
X10252Y24130
X11252Y24130
X12252Y24130
X13252Y24130
X14252Y24130
X15252Y24130
X6752Y23630
X7752Y23630
X8752Y23630
X9752Y23630
X10752Y23630
X11752Y23630
X12752Y23630
X13752Y23630
X14752Y23630
X15752Y23630
X7252Y23130
X8252Y23130
X9252Y23130
X10252Y23130
X11252Y23130
X12252Y23130
X13252Y23130
X7752Y22630
X8752Y22630
X9752Y22630
X10752Y22630
X11752Y22630
X12752Y22630
X8252Y22130
X9252Y22130
X10252Y22130
X11252Y22130
X12252Y22130
X13252Y22130
X13752Y22630
X14252Y23130
X15252Y23130
X8752Y21630
X7752Y21630
X9752Y21630
X8252Y21130
X9252Y21130
X10252Y21130
X11252Y21130
X12252Y21130
X10752Y21630
X11752Y21630
X12752Y21630
X13252Y21130
X14752Y22630
X15752Y22630
X14252Y22130
X15252Y22130
X13752Y21630
X14752Y21630
X15752Y21630
X14252Y21130
X15252Y21130
X8752Y20630
X9752Y20630
X10752Y20630
X11752Y20630
X12752Y20630
X13752Y20630
X14752Y20630
X15752Y20630
X8252Y20130
X9252Y20130
X10252Y20130
X11252Y20130
X12252Y20130
X13252Y20130
X14252Y20130
X15252Y20130
X8752Y19630
X8252Y19130
X9252Y19130
X9752Y19630
X10252Y19130
X10752Y19630
X8252Y18130
X8752Y18630
X9252Y18130
X9752Y18630
X11752Y19630
X12752Y19630
X13752Y19630
X14752Y19630
X15752Y19630
X11252Y19130
X12252Y19130
X13252Y19130
X14252Y19130
X15252Y19130
X10752Y18630
X11752Y18630
X12752Y18630
X13752Y18630
X14752Y18630
X15752Y18630
X10252Y18130
X11252Y18130
X12252Y18130
X13252Y18130
X14252Y18130
X15252Y18130
X8752Y17630
X9752Y17630
X10752Y17630
X11752Y17630
X12752Y17630
X13752Y17630
X14752Y17630
X15752Y17630
X8252Y17130
X9252Y17130
X10252Y17130
X11252Y17130
X12252Y17130
X13252Y17130
X14252Y17130
X15252Y17130
X8752Y16630
X9752Y16630
X10752Y16630
X11752Y16630
X12752Y16630
X13752Y16630
X14752Y16630
X15752Y16630
X9252Y16130
X10252Y16130
X11252Y16130
X12252Y16130
X13252Y16130
X14252Y16130
X15252Y16130
X9752Y15630
X10752Y15630
X11752Y15630
X12752Y15630
X13752Y15630
X14752Y15630
X8252Y16130
X8752Y15630
X7752Y18630
X7752Y18130
X7752Y17630
X7752Y17130
X7752Y16630
X7752Y16130
X7752Y15630
X7752Y19130
X7752Y19880
X662Y24720
X672Y23614
X672Y22598
X672Y21582
X672Y20566
X672Y19550
X672Y18534
X672Y17518
X672Y16375
X1307Y24122
X1307Y23106
X1307Y22090
X1307Y21074
X1815Y23614
X1815Y22598
X1815Y21582
X1815Y20566
X2323Y24122
X2323Y23106
X2323Y22090
X2323Y21074
X2831Y22598
X2831Y21582
X2831Y20566
X3339Y21074
X3339Y22090
X3847Y21582
X3847Y20566
X4355Y21074
X4863Y20566
X3689Y19532
X4863Y19550
X4355Y20058
X5371Y20058
X5457Y19329
X6069Y23579
X6613Y23023
X5688Y24087
X7138Y22508
X7450Y22110
X2625Y23653
X6067Y9698
X6079Y10632
X6093Y11121
X6088Y11605
X6078Y12068
X6084Y12551
X6081Y13039
X6079Y13513
X6103Y14002
X6103Y14478
X6183Y14961
X6186Y15448
X6179Y15926
X6172Y16427
X6164Y16906
X6172Y17399
X6068Y10172
X8824Y14652
X8824Y14144
X5664Y17399
X5656Y16906
X5664Y16427
X5671Y15926
X5678Y15448
X5675Y14961
X5595Y14478
X5595Y14002
X5842Y7112
X5573Y13039
X5576Y12551
X5570Y12068
X5580Y11605
X5585Y11121
X5571Y10632
X1651Y6350
X1164Y15649
X2414Y15649
X3664Y15649
X4914Y15649
X1914Y14899
X3164Y14899
X4414Y14899
X1164Y14149
X2414Y14149
X3664Y14149
X4914Y14149
X1914Y13399
X3164Y13399
X4414Y13399
X4914Y12649
X2664Y12649
X3664Y12649
X4414Y12149
X3164Y12149
X1664Y12649
X914Y13399
X2164Y12149
X2664Y11649
X3664Y11649
X4914Y11649
X3164Y11149
X4414Y11149
X4914Y10649
X3664Y10649
X4414Y10149
X4914Y16649
X4164Y16649
X3689Y17254
X4211Y17192
X4517Y17663
X5018Y17675
X6731Y7112
X6731Y6350
X15379Y14225
X15506Y11939
X15506Y10796
X15506Y9399
X15506Y6859
X15506Y5589
X15760Y1652
X15760Y636
X14744Y636
X13728Y636
X901Y509
X901Y1525
X5571Y13513
X1028Y9526
X1028Y10796
X3101Y3125
X1601Y3125
X1137Y24710
X3026Y24710
X9271Y10287
X9144Y13208
X9271Y9525
X14986Y13081
X5842Y6350
X5842Y5461
X7820Y1343
X11303Y5207
X11857Y5026
X11430Y4191
X11811Y3683
X11303Y3175
X10414Y1905
X11396Y6189
X5217Y1483
X3900Y1500
X2600Y1500
X2540Y5842
X2540Y6477
X5080Y9652
X4572Y9144
X5842Y4572
X7493Y7112
X8382Y7112
X9144Y7112
X6604Y5461
X7493Y6350
X8382Y6350
X9144Y6350
X7493Y5461
X7493Y4572
X7493Y3810
X8382Y3810
X9144Y3810
X9144Y4572
X9144Y5461
X8382Y5461
X6604Y4572
X6604Y3810
X5842Y3810
X8382Y4572
X10541Y9398
X10541Y8890
X10541Y8382
X11049Y9398
X11557Y9398
X11049Y8890
X11557Y8890
X11049Y8382
X11557Y8382
X11938Y12954
X1028Y8129
M30