M48
;GenerationSoftware,Autodesk,EAGLE,9.6.2*%
;CreationDate,2022-04-19T16:43:55Z*%
FMAT,2
ICI,OFF
METRIC,TZ,000.000
T4C0.300
T3C0.650
T2C0.700
T1C1.016
%
G90
M71
T1
X24138Y27499
X1211Y30166
X1211Y27626
X1211Y25086
X1211Y22546
X1211Y20006
X1211Y17466
X1211Y14926
X1211Y12386
X1211Y9846
X1211Y7306
X1211Y4766
X1211Y2226
X24138Y35119
X24138Y32579
X24138Y30039
X24138Y24959
X24138Y22419
X24138Y19879
X24138Y17339
X24138Y14799
X24138Y12259
X24138Y9719
X24138Y7179
X24138Y4639
X24138Y2099
T2
X9756Y6200
X15536Y6200
T3
X8326Y6730
X16966Y6730
X8326Y2550
X16966Y2550
T4
X16546Y12050
X21463Y20447
X4826Y14859
X4826Y13843
X11176Y36449
X11176Y35179
X20193Y29718
X19685Y28702
X17272Y27686
X8636Y23241
X20700Y36702
X11303Y34036
X11684Y23241
X16383Y26162
X12700Y23241
X14605Y23241
X1397Y32639
X4572Y22098
X15621Y23241
X10668Y23241
X10414Y17780
X8128Y24765
X4572Y36322
X12700Y28702
X7366Y18161
X5588Y18161
X8128Y14732
X16700Y39202
X18700Y39202
X20700Y39202
X23200Y39202
X20700Y34202
X20700Y23702
X6200Y22702
X3200Y1202
X5700Y1202
X19700Y1202
X22200Y1202
X10200Y28702
X15200Y28702
X4699Y34663
X5715Y25781
X9652Y23241
X2032Y39497
X18542Y17145
X16046Y9150
X14746Y10650
X12446Y6350
X13746Y6350
X3946Y6650
X4546Y9250
X13746Y10450
X11346Y14750
M30